<svg width="3882" height="170" viewBox="0 0 3882 170" fill="none" xmlns="http://www.w3.org/2000/svg">
<path d="M0 69C0 106.9 0.3 138 0.6 138C1 138 9 134.9 18.5 131C112.5 93.1 248.1 64.7 415.5 48C612.7 28.4 849.8 33.1 1033.5 60.5C1095.6 69.7 1126.8 75.5 1208.5 93C1466.6 148.1 1586.1 165.9 1721 169C1837 171.7 1952.8 160.6 2103.5 132.4C2135 126.5 2171.6 118.9 2252.5 101.6C2294.9 92.6 2342.6 82.4 2358.5 79.1C2546 40 2649.9 33.6 2856 48.6C2959.4 56.1 3091.9 70.2 3336.5 99.9C3479.7 117.3 3526.2 121.4 3634 126.1C3664.5 127.4 3783.5 126.7 3810 125.1C3819.1 124.5 3837.5 123.3 3851 122.5C3864.5 121.6 3877 120.7 3878.8 120.4L3882 119.9V60V0H1941H0V69Z" fill="#5865F2"/>
</svg>
