<svg width="1142" height="337" viewBox="0 0 1142 337" fill="none" xmlns="http://www.w3.org/2000/svg">
<path d="M70.8649 70.0798C73.5059 68.3763 75.7543 66.1279 77.4602 63.4847C79.166 60.8414 80.2901 57.864 80.7576 54.7509L82.318 44.0206C82.3554 43.7649 82.483 43.5311 82.6777 43.3618C82.8724 43.1924 83.1213 43.0987 83.379 43.0977C83.6395 43.095 83.8921 43.187 84.0901 43.3567C84.2881 43.5263 84.418 43.7622 84.4557 44.0206L86.0161 54.7509C86.4836 57.864 87.6077 60.8414 89.3136 63.4847C91.0194 66.1279 93.2678 68.3763 95.9088 70.0798L97.2975 70.987C97.4471 71.086 97.5697 71.2208 97.6541 71.3792C97.7386 71.5376 97.7823 71.7146 97.7812 71.8943C97.7796 72.0734 97.7347 72.2494 97.6505 72.4074C97.5662 72.5654 97.4451 72.7006 97.2975 72.8015L95.9088 73.6931C93.2673 75.3998 91.0189 77.651 89.3131 80.2969C87.6073 82.9427 86.4834 85.9224 86.0161 89.0377L84.4557 99.7523C84.418 100.011 84.2881 100.247 84.0901 100.416C83.8921 100.586 83.6395 100.678 83.379 100.675C83.1213 100.674 82.8724 100.58 82.6777 100.411C82.483 100.242 82.3554 100.008 82.318 99.7523L80.7576 89.0377C80.2903 85.9224 79.1664 82.9427 77.4606 80.2969C75.7548 77.651 73.5064 75.3998 70.8649 73.6931L69.4762 72.8015C69.3286 72.7006 69.2075 72.5654 69.1232 72.4074C69.039 72.2494 68.9941 72.0734 68.9925 71.8943C68.9914 71.7146 69.0351 71.5376 69.1196 71.3792C69.204 71.2208 69.3266 71.086 69.4762 70.987L70.8649 70.0798Z" fill="#F5F5F5"/>
<path d="M79.5677 52.2468C83.4092 49.7689 86.6795 46.4986 89.1608 42.6539C91.642 38.8091 93.2771 34.4783 93.9571 29.9501L96.2267 14.3425C96.2811 13.9706 96.4667 13.6305 96.7499 13.3842C97.0332 13.1379 97.3951 13.0016 97.7701 13.0001C98.1489 12.9961 98.5164 13.1299 98.8043 13.3767C99.0923 13.6236 99.2812 13.9667 99.3361 14.3425L101.606 29.9501C102.286 34.4783 103.921 38.8091 106.402 42.6539C108.883 46.4986 112.154 49.7689 115.995 52.2468L118.015 53.5664C118.233 53.7103 118.411 53.9063 118.534 54.1368C118.657 54.3672 118.72 54.6247 118.719 54.886C118.716 55.1465 118.651 55.4026 118.529 55.6324C118.406 55.8622 118.23 56.0588 118.015 56.2056L115.995 57.5025C112.153 59.985 108.883 63.2595 106.401 67.1079C103.92 70.9564 102.286 75.2906 101.606 79.8219L99.3361 95.4068C99.2812 95.7826 99.0923 96.1257 98.8043 96.3725C98.5164 96.6193 98.1489 96.7532 97.7701 96.7491C97.3951 96.7477 97.0332 96.6114 96.7499 96.365C96.4667 96.1187 96.2811 95.7787 96.2267 95.4068L93.9571 79.8219C93.2774 75.2906 91.6425 70.9564 89.1614 67.1079C86.6803 63.2595 83.4098 59.985 79.5677 57.5025L77.5478 56.2056C77.333 56.0588 77.1569 55.8622 77.0344 55.6324C76.9118 55.4026 76.8466 55.1465 76.8442 54.886C76.8426 54.6247 76.9062 54.3672 77.029 54.1368C77.1519 53.9063 77.3302 53.7103 77.5478 53.5664L79.5677 52.2468Z" fill="#5865F2"/>
<path d="M1.50451 155.466C3.22996 154.353 4.6989 152.884 5.81339 151.157C6.92789 149.43 7.66232 147.485 7.96775 145.451L8.98719 138.441C9.01159 138.274 9.09498 138.121 9.22219 138.01C9.3494 137.9 9.51199 137.839 9.6804 137.838C9.85057 137.836 10.0156 137.896 10.145 138.007C10.2743 138.118 10.3592 138.272 10.3838 138.441L11.4033 145.451C11.7087 147.485 12.4431 149.43 13.5576 151.157C14.6721 152.884 16.141 154.353 17.8665 155.466L18.7738 156.059C18.8715 156.124 18.9516 156.212 19.0068 156.315C19.062 156.419 19.0905 156.534 19.0898 156.652C19.0887 156.769 19.0594 156.884 19.0044 156.987C18.9494 157.09 18.8703 157.178 18.7738 157.244L17.8665 157.827C16.1408 158.942 14.6718 160.413 13.5573 162.141C12.4429 163.87 11.7086 165.817 11.4033 167.852L10.3838 174.852C10.3592 175.021 10.2743 175.175 10.145 175.286C10.0156 175.397 9.85057 175.457 9.6804 175.455C9.51199 175.455 9.3494 175.393 9.22219 175.283C9.09498 175.172 9.01159 175.019 8.98719 174.852L7.96775 167.852C7.66243 165.817 6.92811 163.87 5.81367 162.141C4.69923 160.413 3.23025 158.942 1.50451 157.827L0.597208 157.244C0.500753 157.178 0.421635 157.09 0.366606 156.987C0.311577 156.884 0.282265 156.769 0.281176 156.652C0.280487 156.534 0.309034 156.419 0.364218 156.315C0.419403 156.212 0.499487 156.124 0.597208 156.059L1.50451 155.466Z" fill="#F5F5F5"/>
<path d="M7.18891 143.815C9.69865 142.196 11.8353 140.06 13.4564 137.548C15.0775 135.036 16.1457 132.206 16.59 129.248L18.0728 119.051C18.1083 118.808 18.2296 118.586 18.4146 118.425C18.5997 118.264 18.8362 118.175 19.0811 118.174C19.3286 118.171 19.5687 118.259 19.7568 118.42C19.945 118.581 20.0684 118.805 20.1043 119.051L21.5871 129.248C22.0313 132.206 23.0996 135.036 24.7207 137.548C26.3418 140.06 28.4784 142.196 30.9882 143.815L32.3079 144.677C32.45 144.771 32.5665 144.899 32.6468 145.05C32.727 145.2 32.7686 145.369 32.7676 145.539C32.766 145.71 32.7233 145.877 32.6433 146.027C32.5633 146.177 32.4482 146.306 32.3079 146.401L30.9882 147.249C28.478 148.871 26.3413 151.01 24.7203 153.524C23.0993 156.039 22.0312 158.87 21.5871 161.831L20.1043 172.013C20.0684 172.258 19.945 172.483 19.7568 172.644C19.5687 172.805 19.3286 172.893 19.0811 172.89C18.8362 172.889 18.5997 172.8 18.4146 172.639C18.2296 172.478 18.1083 172.256 18.0728 172.013L16.59 161.831C16.1459 158.87 15.0778 156.039 13.4568 153.524C11.8358 151.01 9.69907 148.871 7.18891 147.249L5.8692 146.401C5.7289 146.306 5.61382 146.177 5.53378 146.027C5.45374 145.877 5.4111 145.71 5.40952 145.539C5.40851 145.369 5.45004 145.2 5.53031 145.05C5.61057 144.899 5.72706 144.771 5.8692 144.677L7.18891 143.815Z" fill="#EB459E"/>
<path d="M1086.91 65.3977C1083.79 63.4154 1081.14 60.7991 1079.12 57.7233C1077.11 54.6475 1075.78 51.1828 1075.23 47.5602L1073.39 35.074C1073.34 34.7765 1073.19 34.5044 1072.96 34.3074C1072.73 34.1103 1072.44 34.0013 1072.13 34.0001C1071.82 33.9969 1071.53 34.1039 1071.29 34.3014C1071.06 34.4988 1070.91 34.7733 1070.86 35.074L1069.02 47.5602C1068.47 51.1828 1067.14 54.6475 1065.12 57.7233C1063.11 60.7991 1060.45 63.4154 1057.33 65.3977L1055.69 66.4534C1055.52 66.5685 1055.37 66.7254 1055.27 66.9097C1055.17 67.0941 1055.12 67.3001 1055.12 67.5091C1055.13 67.7175 1055.18 67.9224 1055.28 68.1062C1055.38 68.29 1055.52 68.4474 1055.69 68.5648L1057.33 69.6023C1060.45 71.5883 1063.11 74.2079 1065.12 77.2868C1067.14 80.3656 1068.47 83.8329 1069.02 87.458L1070.86 99.926C1070.91 100.227 1071.06 100.501 1071.29 100.699C1071.53 100.896 1071.82 101.003 1072.13 101C1072.44 100.999 1072.73 100.89 1072.96 100.693C1073.19 100.496 1073.34 100.224 1073.39 99.926L1075.23 87.458C1075.78 83.8329 1077.11 80.3656 1079.12 77.2868C1081.14 74.2079 1083.79 71.5883 1086.91 69.6023L1088.55 68.5648C1088.73 68.4474 1088.87 68.29 1088.97 68.1062C1089.07 67.9224 1089.12 67.7175 1089.12 67.5091C1089.12 67.3001 1089.07 67.0941 1088.97 66.9097C1088.87 66.7254 1088.73 66.5685 1088.55 66.4534L1086.91 65.3977Z" fill="#F5F5F5"/>
<path d="M1075.99 44.994C1071.58 42.1533 1067.82 38.4041 1064.97 33.9963C1062.12 29.5885 1060.24 24.6235 1059.46 19.4323L1056.85 1.53905C1056.79 1.11269 1056.57 0.722851 1056.25 0.440449C1055.92 0.158048 1055.51 0.00179639 1055.08 0.00010024C1054.64 -0.00449322 1054.22 0.148922 1053.89 0.431892C1053.56 0.714862 1053.34 1.10823 1053.28 1.53905L1050.67 19.4323C1049.89 24.6235 1048.01 29.5885 1045.15 33.9963C1042.3 38.4041 1038.54 42.1533 1034.13 44.994L1031.81 46.5068C1031.56 46.6718 1031.35 46.8966 1031.21 47.1608C1031.07 47.4249 1031 47.7202 1031 48.0197C1031 48.3184 1031.08 48.612 1031.22 48.8754C1031.36 49.1388 1031.56 49.3643 1031.81 49.5325L1034.13 51.0193C1038.55 53.8654 1042.3 57.6194 1045.16 62.0314C1048.01 66.4435 1049.89 71.4123 1050.67 76.6071L1053.28 94.4743C1053.34 94.9051 1053.56 95.2984 1053.89 95.5814C1054.22 95.8644 1054.64 96.0178 1055.08 96.0132C1055.51 96.0115 1055.92 95.8553 1056.25 95.5729C1056.57 95.2905 1056.79 94.9006 1056.85 94.4743L1059.46 76.6071C1060.24 71.4123 1062.12 66.4435 1064.97 62.0314C1067.82 57.6194 1071.58 53.8654 1075.99 51.0193L1078.32 49.5325C1078.56 49.3643 1078.76 49.1388 1078.91 48.8754C1079.05 48.612 1079.12 48.3184 1079.12 48.0197C1079.13 47.7202 1079.05 47.4249 1078.91 47.1608C1078.77 46.8966 1078.57 46.6718 1078.32 46.5068L1075.99 44.994Z" fill="#29CC7A"/>
<path d="M1140.57 142.619C1138.55 141.318 1136.83 139.599 1135.53 137.579C1134.23 135.56 1133.37 133.284 1133.01 130.905L1131.82 122.705C1131.79 122.51 1131.69 122.331 1131.54 122.202C1131.39 122.072 1131.2 122.001 1131.01 122C1130.81 121.998 1130.61 122.068 1130.46 122.198C1130.31 122.328 1130.21 122.508 1130.18 122.705L1128.99 130.905C1128.63 133.284 1127.77 135.56 1126.47 137.579C1125.17 139.599 1123.45 141.318 1121.43 142.619L1120.37 143.313C1120.26 143.388 1120.16 143.491 1120.1 143.612C1120.03 143.733 1120 143.869 1120 144.006C1120 144.143 1120.04 144.277 1120.1 144.398C1120.16 144.519 1120.26 144.622 1120.37 144.699L1121.43 145.381C1123.45 146.685 1125.17 148.405 1126.47 150.427C1127.77 152.449 1128.63 154.726 1128.99 157.107L1130.18 165.295C1130.21 165.492 1130.31 165.672 1130.46 165.802C1130.61 165.932 1130.81 166.002 1131.01 166C1131.2 165.999 1131.39 165.928 1131.54 165.798C1131.69 165.669 1131.79 165.49 1131.82 165.295L1133.01 157.107C1133.37 154.726 1134.23 152.449 1135.53 150.427C1136.83 148.405 1138.55 146.685 1140.57 145.381L1141.63 144.699C1141.74 144.622 1141.84 144.519 1141.9 144.398C1141.96 144.277 1142 144.143 1142 144.006C1142 143.869 1141.97 143.733 1141.9 143.612C1141.84 143.491 1141.74 143.388 1141.63 143.313L1140.57 142.619Z" fill="#F5F5F5"/>
<path d="M1133.92 128.992C1130.98 127.098 1128.48 124.599 1126.59 121.661C1124.69 118.723 1123.44 115.413 1122.92 111.953L1121.19 100.026C1121.15 99.7417 1121 99.4818 1120.79 99.2936C1120.57 99.1054 1120.3 99.0012 1120.01 99.0001C1119.72 98.997 1119.44 99.0993 1119.22 99.2879C1119 99.4765 1118.85 99.7387 1118.81 100.026L1117.08 111.953C1116.56 115.413 1115.31 118.723 1113.41 121.661C1111.52 124.599 1109.02 127.098 1106.08 128.992L1104.54 130C1104.37 130.11 1104.24 130.26 1104.14 130.436C1104.05 130.612 1104 130.809 1104 131.009C1104 131.208 1104.05 131.403 1104.15 131.579C1104.24 131.755 1104.37 131.905 1104.54 132.017L1106.08 133.008C1109.02 134.905 1111.52 137.408 1113.41 140.349C1115.31 143.289 1116.56 146.602 1117.08 150.064L1118.81 161.974C1118.85 162.261 1119 162.523 1119.22 162.712C1119.44 162.901 1119.72 163.003 1120.01 163C1120.3 162.999 1120.57 162.895 1120.79 162.706C1121 162.518 1121.15 162.258 1121.19 161.974L1122.92 150.064C1123.44 146.602 1124.69 143.289 1126.59 140.349C1128.48 137.408 1130.98 134.905 1133.92 133.008L1135.46 132.017C1135.63 131.905 1135.76 131.755 1135.85 131.579C1135.95 131.403 1136 131.208 1136 131.009C1136 130.809 1135.95 130.612 1135.86 130.436C1135.76 130.26 1135.63 130.11 1135.46 130L1133.92 128.992Z" fill="#FFE75C"/>
<path d="M321.202 201.562C311.317 188.943 307.111 191.047 299.751 191.047C299.751 178.639 293.862 177.587 291.128 187.892C288.394 198.197 286.712 203.034 293.441 212.918C300.171 222.802 309.214 237.313 313.21 254.558C303.663 257.153 294.256 260.242 285.029 263.812L301.433 301.877C328.773 289.679 344.756 279.164 346.438 257.292C348.121 235.421 331.296 214.39 321.202 201.562Z" fill="#FFC619"/>
<path d="M319.73 362.865C289.026 367.702 233.295 372.539 161.792 373.38C159.899 355.715 165.367 340.363 187.028 323.538C196.492 316.178 195.65 310.71 194.809 305.873C192.075 288.418 185.346 270.962 175.251 248.46C159.899 213.76 158.006 185.158 183.453 169.596C208.9 154.033 238.132 162.866 257.69 191.678C277.249 220.489 320.361 283.791 319.73 362.865Z" fill="#FFC619"/>
<path d="M233.924 207.24C252.851 225.116 260.002 223.013 264.208 221.962C268.414 220.91 264.839 210.185 262.525 205.348L233.924 207.24Z" fill="#FFAE00"/>
<path d="M234.975 371.068C245.069 336.578 257.477 340.994 261.683 346.672C265.889 352.35 270.095 368.544 270.095 368.544L234.975 371.068Z" fill="white"/>
<path d="M203.009 232.267C204.481 240.889 201.537 248.039 197.12 249.091C192.704 250.142 188.498 245.726 185.974 238.996C183.451 232.267 184.292 221.331 188.919 218.386C193.545 215.442 201.116 221.751 203.009 232.267Z" fill="white"/>
<path d="M233.928 207.24C228.671 200.721 231.615 188.733 238.134 177.797C244.654 166.862 253.697 163.076 261.268 163.076C268.839 163.076 271.152 170.647 262.319 191.678C273.465 189.785 278.513 189.995 279.564 196.094C280.616 202.193 273.255 206.609 256.641 209.343C240.027 212.077 236.872 210.815 233.928 207.24Z" fill="#ED5F00"/>
<path d="M299.33 189.785C302.274 181.793 305.639 180.952 307.322 181.793C309.004 182.634 308.584 186.42 306.901 193.991C305.219 201.562 296.596 197.145 299.33 189.785Z" fill="#FFC619"/>
<path d="M305.428 191.047C311.947 185.579 315.312 186.21 316.364 187.893C317.415 189.575 315.312 192.519 310.265 198.408C305.218 204.296 299.54 196.094 305.428 191.047Z" fill="#FFC619"/>
<path d="M196.186 231.829C198.178 230.879 198.617 227.644 197.167 224.604C195.717 221.564 192.926 219.87 190.935 220.82C188.943 221.77 188.504 225.005 189.954 228.045C191.404 231.085 194.194 232.779 196.186 231.829Z" fill="black"/>
<path d="M240.658 200.09C240.435 200.09 240.221 200.001 240.063 199.844C239.905 199.686 239.816 199.472 239.816 199.249C240.472 193.69 242.417 188.361 245.495 183.686C250.752 175.695 254.748 172.961 258.323 172.12C261.898 171.278 264.843 172.12 264.843 175.274C264.142 181.42 262.585 187.437 260.216 193.15C264.153 192.304 268.179 191.951 272.203 192.099C274.517 192.309 274.517 193.36 272.834 194.202C271.152 195.043 262.319 198.408 240.658 200.09Z" fill="black"/>
<path d="M222.78 326.693C225.093 347.093 208.059 372.329 208.059 372.329" stroke="black" stroke-width="2.28857" stroke-miterlimit="10" stroke-linecap="round"/>
<path d="M313.213 254.559L322.887 257.924" stroke="black" stroke-width="2.28857" stroke-miterlimit="10" stroke-linecap="round"/>
<path d="M915.391 313.798L940.421 310.577C944.407 310.094 945.842 300.917 947.596 289.324C949.349 277.731 947.277 256.639 947.277 256.639L921.449 264.528L915.391 313.798Z" fill="#FF78B9"/>
<path d="M984.743 249.516C974.048 237.544 919.773 195.72 919.773 195.72L907.003 214.078C907.003 214.078 925.041 234.032 937.971 247.441C911.792 249.516 864.541 255.742 864.541 255.742C831.018 249.038 816.811 245.845 816.811 245.845L851.291 213.12L838.68 194.283C838.68 194.283 805.796 214.397 787.279 228.924C768.761 243.45 765.728 261.329 783.288 274.898C800.847 288.467 806.754 292.617 806.754 292.617L919.933 304.271C953.136 295.012 972.931 284.955 984.903 274.579C996.875 264.203 995.439 261.489 984.743 249.516Z" fill="#FFC619"/>
<path d="M797.609 243.648C801.375 244.298 808.002 246.247 808.002 246.247" stroke="black" stroke-width="2" stroke-linecap="round" stroke-linejoin="round"/>
<path d="M912.805 189.953L901.533 208.924L914.233 221.997C918.361 217.374 922.488 209.243 921.218 196.968L912.805 189.953Z" fill="black"/>
<path d="M839.563 273.094C823.955 253.922 818.427 245.637 815.176 236.051C812.899 229.065 826.719 233.289 844.603 238.65C862.488 244.012 859.724 249.048 839.563 273.094Z" fill="#FF78B9"/>
<path d="M817.376 245.38C801.271 263.405 800.952 285.419 802.706 316.206C802.706 316.206 774.96 344.122 778.947 368.528C782.933 392.935 820.884 403.463 864.097 402.984C898.859 402.665 902.686 394.53 905.875 378.099C907.789 367.412 909.224 355.129 910.181 345.558C911.146 335.496 913.674 325.647 917.675 316.366C939.043 266.755 921.821 248.889 921.821 248.889L864.097 253.515L817.376 245.38Z" fill="#FF78B9"/>
<path d="M830.276 218.902C816.692 228.956 819.569 244.276 838.746 265.342L847.375 273.959L903.148 264.863C921.047 242.68 917.531 227.839 910.979 218.583C920.088 203.582 920.727 193.208 920.567 183.952C920.407 168.313 906.185 143.737 870.388 144.056C850.891 144.215 833.632 151.876 827.399 176.611C825.162 185.229 824.683 199.273 830.276 218.902Z" fill="#FFE75C"/>
<path d="M899.333 164.838C899.762 164.836 900.187 164.923 900.579 165.094C900.972 165.266 901.324 165.518 901.612 165.833C901.9 166.149 902.117 166.521 902.25 166.925C902.383 167.33 902.428 167.757 902.383 168.18L900.457 189.667C899.887 194.485 897.601 198.945 894.011 202.242C890.42 205.539 885.761 207.457 880.87 207.651H876.536C871.424 207.699 866.47 205.9 862.6 202.59C858.729 199.28 856.207 194.686 855.505 189.667L854.702 182.504C854.585 181.661 854.162 180.888 853.512 180.332C852.862 179.775 852.029 179.473 851.17 179.48C850.287 179.477 849.434 179.802 848.78 180.391C848.126 180.98 847.719 181.791 847.638 182.664L846.675 194.123C846.32 197.91 844.567 201.434 841.752 204.018C838.937 206.603 835.26 208.067 831.424 208.129C829.124 208.215 826.833 207.805 824.708 206.927C822.584 206.049 820.678 204.725 819.12 203.045C817.563 201.365 816.393 199.37 815.69 197.197C814.987 195.025 814.768 192.727 815.048 190.462L816.975 168.817C817.088 167.958 817.505 167.166 818.152 166.583C818.799 166.001 819.633 165.664 820.507 165.634L899.333 164.838Z" fill="black"/>
<path d="M901.533 165.704L920.586 184.416V188.221L901.692 175.06L901.533 165.704Z" fill="black"/>
<path d="M922.318 248.633C913.298 240.192 902.676 233.609 891.068 229.265C880.651 225.614 878.247 224.661 875.843 230.535C873.44 236.409 870.875 243.076 869.914 245.299C868.952 247.522 857.574 255.142 850.683 260.857C843.792 266.572 836.58 278.796 836.58 278.796L909.658 284.352L922.318 248.633Z" fill="#FF78B9"/>
<path d="M937.998 247.112L947.434 257.014C943.115 270.43 940.397 287.2 938.797 305.886L901.533 308.601L922.324 248.869L937.998 247.112Z" fill="#FF78B9"/>
<path d="M817.194 244.995L810.428 243.724C809.39 243.572 808.332 243.65 807.327 243.951C806.321 244.253 805.393 244.772 804.606 245.472C796.904 252.551 791.709 261.982 789.815 272.324C787.77 284.4 788.399 285.671 802.246 293.139C811.529 298.223 821.128 275.979 826.32 260.884C826.923 259.239 827.159 257.479 827.01 255.73C826.861 253.982 826.332 252.289 825.46 250.771C824.589 249.253 823.396 247.948 821.967 246.95C820.538 245.951 818.908 245.284 817.194 244.995Z" fill="#FF78B9"/>
<path d="M815.795 187.355L846.106 164.838L834.78 165.001L816.593 178.544L815.795 187.355Z" fill="#5865F2"/>
<path d="M822.723 205.888C825.334 207.421 828.315 208.199 831.338 208.136C835.149 208.074 838.804 206.597 841.601 203.988C844.398 201.38 846.14 197.824 846.493 194.003L846.972 188.221L822.723 205.888Z" fill="#5865F2"/>
<path d="M898.778 164.838H886.338L855.633 187.429V189.832C855.987 192.31 856.788 194.7 857.995 196.882L900.667 165.639C900.136 165.175 899.475 164.895 898.778 164.838Z" fill="#5865F2"/>
<path d="M900.574 189.68L901.533 179.561L866.025 204.626C869.304 206.392 872.995 207.304 876.742 207.273H881.06C885.932 207.083 890.574 205.206 894.152 201.981C897.729 198.756 900.006 194.394 900.574 189.68Z" fill="#5865F2"/>
<path d="M845.24 209.872C849.52 208.717 853.951 208.717 858.231 209.872" stroke="black" stroke-width="2" stroke-linecap="round" stroke-linejoin="round"/>
<path d="M851.278 135.095C849.248 140.756 849.024 146.898 850.637 152.689C850.893 153.707 851.493 154.609 852.339 155.243C853.184 155.877 854.224 156.206 855.284 156.176H865.059C866.147 156.181 867.224 155.957 868.219 155.52C869.213 155.083 870.102 154.442 870.828 153.64C876.757 147.458 887.493 145.873 895.825 149.36L900.793 142.228C901.325 141.529 901.586 140.664 901.527 139.791C901.468 138.918 901.094 138.095 900.472 137.473C895.614 132.931 889.817 129.488 883.481 127.38C877.145 125.273 870.422 124.553 863.777 125.268C860.978 125.601 858.328 126.696 856.121 128.431C853.914 130.166 852.238 132.473 851.278 135.095Z" fill="#FF8C19"/>
<path d="M919.721 248.844C906.256 250.708 898.74 253.249 892.008 256.638" stroke="black" stroke-width="2" stroke-linecap="round" stroke-linejoin="round"/>
<path d="M948.299 258.371L954.361 264.433" stroke="black" stroke-width="2" stroke-linecap="round" stroke-linejoin="round"/>
<path d="M849.873 274.227L848.584 293.013H840.045C840.545 286.847 841.515 280.727 842.945 274.705C843.265 273.677 843.755 272.709 844.395 271.839V271.839C846.539 269.188 849.031 266.833 851.807 264.835L866.63 253.85C870.826 250.794 874.02 246.586 875.814 241.751C877.909 236.338 880.487 229.492 881.615 228.06" stroke="#F551A0" stroke-width="2" stroke-linecap="round" stroke-linejoin="round"/>
<path d="M938.625 247.979C932.045 264.944 924.839 293.754 930.322 307.518C930.873 308.815 931.555 310.049 932.359 311.2L935.492 310.88C934.306 309.623 933.351 308.16 932.672 306.558C927.659 294.234 933.925 267.665 940.505 250.059L938.625 247.979Z" fill="#F551A0"/>
<path d="M790.68 285.903C791.32 286.656 792.077 287.302 792.922 287.817C794.524 269.161 802.211 253.375 814.063 244.127L810.86 243.648C799.809 253.056 792.441 268.204 790.68 285.903Z" fill="#F551A0"/>
</svg>
