<svg width="348" height="161" viewBox="0 0 348 161" fill="none" xmlns="http://www.w3.org/2000/svg">
<path d="M121.969 53.2036C114.423 43.5701 111.212 45.1757 105.592 45.1757C105.592 35.7027 101.096 34.8999 99.0092 42.7673C96.922 50.6347 95.6375 54.3274 100.775 61.8737C105.913 69.42 112.817 80.4985 115.868 93.6643C108.579 95.6452 101.398 98.0033 94.353 100.729L106.877 129.79C127.749 120.478 139.952 112.45 141.236 95.7517C142.521 79.0536 129.676 62.9977 121.969 53.2036Z" fill="#FFC619"/>
<path d="M120.845 176.353C97.4039 180.045 54.8558 183.738 0.265793 184.38C-1.17924 170.894 2.99529 159.173 19.5328 146.328C26.758 140.709 26.1157 136.534 25.4735 132.841C23.3862 119.515 18.2484 106.188 10.5415 89.0086C-1.17925 62.5164 -2.62429 40.6804 16.8033 28.7991C36.2309 16.9177 58.5486 23.6612 73.4806 45.6577C88.4126 67.6543 121.327 115.982 120.845 176.353Z" fill="#FFC619"/>
<path d="M55.3359 57.5392C69.7862 71.1867 75.2452 69.5811 78.4564 68.7783C81.6676 67.9755 78.9381 59.7871 77.1719 56.0942L55.3359 57.5392Z" fill="#FFAE00"/>
<path d="M88.7329 180.206C98.2059 162.545 103.183 157.568 108.963 159.494C114.743 161.421 114.262 177.316 114.262 177.316L88.7329 180.206Z" fill="white"/>
<path d="M56.1382 182.615C63.845 156.283 73.318 159.655 76.5292 163.99C79.7403 168.325 82.9515 180.688 82.9515 180.688L56.1382 182.615Z" fill="white"/>
<path d="M31.7338 76.6455C32.8577 83.2284 30.6099 88.6874 27.2381 89.4902C23.8664 90.293 20.6552 86.9213 18.7285 81.7834C16.8018 76.6455 17.4441 68.2965 20.9764 66.0486C24.5086 63.8008 30.2888 68.6175 31.7338 76.6455Z" fill="white"/>
<path d="M55.3389 57.5391C51.325 52.5618 53.5728 43.41 58.5501 35.0609C63.5274 26.7118 70.4315 23.8218 76.2116 23.8218C81.9917 23.8218 83.7578 29.602 77.0144 45.6578C85.524 44.2128 89.3774 44.3733 90.1802 49.0295C90.983 53.6857 85.3635 57.0574 72.6793 59.1447C59.9952 61.232 57.5868 60.2686 55.3389 57.5391Z" fill="#ED5F00"/>
<path d="M105.271 44.2122C107.519 38.1109 110.088 37.4687 111.372 38.1109C112.657 38.7532 112.335 41.6432 111.051 47.4233C109.767 53.2034 103.184 49.8317 105.271 44.2122Z" fill="#FFC619"/>
<path d="M109.927 45.1764C114.904 41.0019 117.473 41.4835 118.276 42.768C119.078 44.0525 117.473 46.3003 113.619 50.796C109.766 55.2916 105.431 49.0298 109.927 45.1764Z" fill="#FFC619"/>
<path d="M26.5247 76.3116C28.0454 75.5863 28.3807 73.1167 27.2736 70.7956C26.1666 68.4746 24.0363 67.1811 22.5156 67.9064C20.995 68.6317 20.6596 71.1013 21.7667 73.4223C22.8738 75.7433 25.004 77.037 26.5247 76.3116Z" fill="black"/>
<path d="M60.4767 52.0803C60.3064 52.0803 60.143 52.0126 60.0226 51.8921C59.9021 51.7717 59.8345 51.6083 59.8345 51.438C60.3352 47.1942 61.8196 43.1258 64.1695 39.5567C68.1835 33.4555 71.2341 31.3682 73.9636 30.726C76.6931 30.0837 78.941 30.726 78.941 33.1344C78.4064 37.8261 77.2174 42.4199 75.4086 46.7819C78.4142 46.136 81.4884 45.8664 84.5605 45.9791C86.3267 46.1396 86.3266 46.9424 85.0422 47.5847C83.7577 48.2269 77.0143 50.7958 60.4767 52.0803Z" fill="black"/>
<path d="M46.828 148.737C48.5941 164.311 35.5889 183.578 35.5889 183.578" stroke="black" stroke-width="2.28857" stroke-miterlimit="10" stroke-linecap="round"/>
<path d="M115.87 93.6646L123.256 96.2336" stroke="black" stroke-width="2.28857" stroke-miterlimit="10" stroke-linecap="round"/>
<path d="M289.082 141.938L307.9 139.517C310.896 139.154 311.975 132.254 313.293 123.539C314.612 114.823 313.054 98.9658 313.054 98.9658L293.636 104.897L289.082 141.938Z" fill="#FF78B9"/>
<path d="M341.221 93.6112C333.18 84.6102 292.376 53.1671 292.376 53.1671L282.775 66.9685C282.775 66.9685 296.336 81.97 306.057 92.051C286.376 93.6112 250.852 98.2916 250.852 98.2916C225.65 93.2511 214.969 90.8509 214.969 90.8509L240.891 66.2484L231.411 52.0869C231.411 52.0869 206.688 67.2085 192.767 78.1296C178.846 89.0507 176.566 102.492 189.767 112.693C202.968 122.894 207.408 126.014 207.408 126.014L292.496 134.775C317.458 127.815 332.34 120.254 341.341 112.453C350.341 104.652 349.261 102.612 341.221 93.6112Z" fill="#FFC619"/>
<path d="M200.534 89.1997C203.365 89.688 208.347 91.153 208.347 91.153" stroke="black" stroke-width="2" stroke-linecap="round" stroke-linejoin="round"/>
<path d="M287.137 48.8315L278.663 63.094L288.211 72.9219C291.314 69.4462 294.417 63.3337 293.462 54.105L287.137 48.8315Z" fill="black"/>
<path d="M232.074 111.337C220.34 96.9237 216.184 90.6943 213.74 83.4879C212.028 78.2357 222.418 81.4114 235.863 85.4422C249.309 89.4729 247.231 93.2594 232.074 111.337Z" fill="#FF78B9"/>
<path d="M215.394 90.5015C203.286 104.053 203.047 120.603 204.365 143.749C204.365 143.749 183.506 164.736 186.503 183.084C189.5 201.433 218.032 209.348 250.519 208.988C276.653 208.748 279.53 202.632 281.928 190.28C283.367 182.245 284.445 173.01 285.165 165.815C285.89 158.251 287.791 150.846 290.799 143.868C306.863 106.572 293.916 93.1398 293.916 93.1398L250.519 96.6177L215.394 90.5015Z" fill="#FF78B9"/>
<path d="M225.092 70.5952C214.88 78.1538 217.043 89.6716 231.46 105.509L237.948 111.987L279.877 105.149C293.333 88.4718 290.69 77.3139 285.764 70.3553C292.613 59.0774 293.093 51.279 292.973 44.3203C292.853 32.5626 282.16 14.0861 255.248 14.326C240.591 14.446 227.615 20.2049 222.93 38.8013C221.248 45.2801 220.887 55.8381 225.092 70.5952Z" fill="#FFE75C"/>
<path d="M277.009 29.9502C277.331 29.9485 277.651 30.0142 277.946 30.1431C278.241 30.272 278.506 30.4612 278.722 30.6984C278.939 30.9355 279.102 31.2153 279.202 31.5193C279.302 31.8234 279.336 32.145 279.302 32.463L277.854 48.6163C277.425 52.2392 275.707 55.5916 273.008 58.0702C270.308 60.5489 266.805 61.9911 263.129 62.1373H259.87C256.027 62.1734 252.303 60.8208 249.393 58.3324C246.483 55.8439 244.587 52.39 244.059 48.6163L243.456 43.2319C243.368 42.5976 243.049 42.0169 242.561 41.5985C242.072 41.18 241.446 40.9525 240.8 40.9585C240.136 40.9557 239.495 41.2 239.003 41.643C238.512 42.086 238.205 42.6957 238.145 43.3515L237.421 51.9666C237.154 54.8138 235.836 57.4629 233.72 59.406C231.604 61.3492 228.839 62.4496 225.955 62.4963C224.226 62.561 222.503 62.2528 220.906 61.5929C219.309 60.9329 217.876 59.937 216.705 58.6741C215.535 57.4111 214.655 55.9111 214.126 54.2779C213.597 52.6446 213.433 50.9171 213.644 49.2146L215.092 32.9416C215.177 32.2957 215.491 31.7007 215.977 31.2625C216.464 30.8243 217.091 30.5713 217.747 30.5485L277.009 29.9502Z" fill="black"/>
<path d="M278.663 30.6011L292.987 44.6683V47.5294L278.782 37.6347L278.663 30.6011Z" fill="black"/>
<path d="M294.289 92.9471C287.508 86.6012 279.522 81.652 270.795 78.3865C262.964 75.6414 261.157 74.9253 259.35 79.3412C257.542 83.7572 255.615 88.7699 254.892 90.4408C254.169 92.1116 245.615 97.8405 240.434 102.137C235.253 106.434 229.832 115.624 229.832 115.624L284.771 119.801L294.289 92.9471Z" fill="#FF78B9"/>
<path d="M306.077 91.8037L313.171 99.2481C309.924 109.334 307.881 121.942 306.678 135.99L278.663 138.031L294.294 93.1245L306.077 91.8037Z" fill="#FF78B9"/>
<path d="M215.257 90.2122L210.171 89.2566C209.39 89.1423 208.595 89.2007 207.839 89.4275C207.083 89.6544 206.385 90.0444 205.794 90.5706C200.003 95.8927 196.098 102.983 194.674 110.758C193.136 119.837 193.61 120.792 204.019 126.407C210.999 130.229 218.215 113.506 222.118 102.158C222.572 100.92 222.749 99.5973 222.637 98.2829C222.525 96.9686 222.127 95.6953 221.472 94.5542C220.817 93.4131 219.92 92.4322 218.845 91.6816C217.771 90.931 216.546 90.4293 215.257 90.2122Z" fill="#FF78B9"/>
<path d="M214.206 46.8785L236.994 29.9502L228.478 30.0728L214.805 40.2544L214.206 46.8785Z" fill="#5865F2"/>
<path d="M219.414 60.8113C221.377 61.9638 223.618 62.5488 225.89 62.5017C228.756 62.4547 231.504 61.3442 233.606 59.3834C235.709 57.4225 237.019 54.7492 237.284 51.8761L237.644 47.5293L219.414 60.8113Z" fill="#5865F2"/>
<path d="M276.591 29.9502H267.239L244.155 46.9339V48.7407C244.422 50.6034 245.024 52.4001 245.931 54.0405L278.012 30.5525C277.613 30.2039 277.116 29.993 276.591 29.9502Z" fill="#5865F2"/>
<path d="M277.942 48.6266L278.663 41.0186L251.969 59.8631C254.433 61.1907 257.208 61.8761 260.025 61.8529H263.272C266.935 61.7099 270.425 60.2991 273.114 57.8745C275.803 55.4498 277.515 52.1705 277.942 48.6266Z" fill="#5865F2"/>
<path d="M236.342 63.8064C239.56 62.9382 242.891 62.9382 246.109 63.8064" stroke="black" stroke-width="2" stroke-linecap="round" stroke-linejoin="round"/>
<path d="M240.882 7.58955C239.355 11.8456 239.187 16.4626 240.4 20.8162C240.592 21.5821 241.043 22.2598 241.679 22.7367C242.315 23.2136 243.096 23.461 243.893 23.4378H251.242C252.06 23.4415 252.87 23.2735 253.617 22.9448C254.365 22.6162 255.034 22.1344 255.579 21.5312C260.036 16.884 268.108 15.6924 274.372 18.3139L278.107 12.9517C278.507 12.4264 278.703 11.7763 278.658 11.12C278.614 10.4637 278.333 9.84504 277.866 9.37694C274.213 5.96262 269.855 3.37381 265.092 1.7896C260.328 0.205387 255.274 -0.336411 250.278 0.201668C248.174 0.451742 246.181 1.27487 244.522 2.57931C242.863 3.88375 241.603 5.61826 240.882 7.58955Z" fill="#FF8C19"/>
<path d="M292.337 93.1055C282.214 94.5067 276.564 96.4175 271.502 98.9653" stroke="black" stroke-width="2" stroke-linecap="round" stroke-linejoin="round"/>
<path d="M313.822 100.268L318.379 104.826" stroke="black" stroke-width="2" stroke-linecap="round" stroke-linejoin="round"/>
<path d="M239.826 112.189L238.857 126.312H232.437C232.813 121.676 233.541 117.075 234.617 112.548C234.857 111.775 235.225 111.047 235.707 110.394V110.394C237.318 108.401 239.193 106.629 241.279 105.127L252.423 96.8691C255.578 94.5714 257.979 91.4082 259.328 87.773C260.903 83.7036 262.841 78.5572 263.689 77.48" stroke="#F551A0" stroke-width="2" stroke-linecap="round" stroke-linejoin="round"/>
<path d="M306.549 92.4551C301.602 105.21 296.184 126.869 300.307 137.217C300.721 138.192 301.234 139.12 301.838 139.985L304.193 139.744C303.302 138.8 302.584 137.699 302.073 136.495C298.304 127.23 303.016 107.255 307.962 94.0193L306.549 92.4551Z" fill="#F551A0"/>
<path d="M195.324 120.967C195.805 121.533 196.374 122.018 197.009 122.405C198.214 108.38 203.993 96.5121 212.903 89.5593L210.495 89.1997C202.187 96.2724 196.648 107.661 195.324 120.967Z" fill="#F551A0"/>
</svg>
