<svg width="16" height="15" viewBox="0 0 16 15" fill="none" xmlns="http://www.w3.org/2000/svg">
<path d="M4.49297 14.1335C3.7347 14.1337 2.9934 13.909 2.36287 13.4878C1.73235 13.0666 1.24093 12.4678 0.950808 11.7672C0.660686 11.0667 0.584894 10.2958 0.733025 9.55211C0.881155 8.80844 1.24655 8.12543 1.78297 7.58949L7.43964 1.93216C7.53344 1.83836 7.66066 1.78567 7.79331 1.78567C7.92596 1.78567 8.05318 1.83836 8.14697 1.93216C8.24077 2.02596 8.29347 2.15318 8.29347 2.28583C8.29347 2.41848 8.24077 2.5457 8.14697 2.63949L2.48964 8.29616C2.21575 8.5568 1.9968 8.86963 1.84568 9.2162C1.69457 9.56277 1.61434 9.93608 1.60974 10.3141C1.60513 10.6922 1.67624 11.0674 1.81887 11.4175C1.9615 11.7677 2.17277 12.0857 2.44023 12.353C2.70768 12.6202 3.02592 12.8312 3.37619 12.9735C3.72646 13.1159 4.10167 13.1867 4.47973 13.1817C4.85778 13.1768 5.23103 13.0963 5.57747 12.9449C5.92392 12.7935 6.23656 12.5743 6.49697 12.3002L13.8036 4.99349C14.1385 4.64774 14.324 4.18422 14.3201 3.70293C14.3162 3.22163 14.1233 2.76115 13.783 2.42082C13.4426 2.08048 12.9822 1.88757 12.5009 1.88371C12.0196 1.87984 11.5561 2.06533 11.2103 2.40016L5.31831 8.29616C5.16201 8.45246 5.0742 8.66445 5.0742 8.88549C5.0742 9.10654 5.16201 9.31853 5.31831 9.47483C5.47461 9.63113 5.6866 9.71894 5.90764 9.71894C6.12868 9.71894 6.34067 9.63113 6.49697 9.47483L10.267 5.70416C10.3131 5.65638 10.3682 5.61827 10.4292 5.59204C10.4902 5.5658 10.5558 5.55198 10.6222 5.55137C10.6886 5.55076 10.7544 5.56338 10.8159 5.58849C10.8774 5.61361 10.9332 5.65071 10.9802 5.69763C11.0271 5.74455 11.0643 5.80036 11.0895 5.8618C11.1146 5.92323 11.1273 5.98907 11.1268 6.05546C11.1262 6.12185 11.1125 6.18746 11.0863 6.24848C11.0601 6.30949 11.022 6.36468 10.9743 6.41083L7.20364 10.1822C6.85983 10.5261 6.39349 10.7193 5.90721 10.7194C5.42093 10.7194 4.95454 10.5263 4.61064 10.1825C4.26674 9.83869 4.07351 9.37234 4.07345 8.88606C4.07338 8.39978 4.2665 7.93339 4.61031 7.58949L10.5036 1.70016C11.035 1.16876 11.7556 0.87018 12.5071 0.870117C13.2585 0.870055 13.9792 1.16851 14.5106 1.69983C15.042 2.23114 15.3406 2.9518 15.3407 3.70326C15.3407 4.45472 15.0423 5.17542 14.511 5.70683L7.20431 13.0108C6.84902 13.3679 6.42646 13.651 5.96106 13.8437C5.49567 14.0364 4.99668 14.1349 4.49297 14.1335Z" fill="#5865F2" stroke="#5865F2" stroke-width="0.3"/>
</svg>
