<svg width="420" height="249" viewBox="0 0 420 249" fill="none" xmlns="http://www.w3.org/2000/svg">
<path d="M259.992 108.076C251.601 100.997 233.519 90.3687 222.725 82.9798C199.163 66.953 197.683 42.5067 173.741 35.1457C149.8 27.7847 134.776 47.1565 106.345 47.1976C93.199 47.2255 72.3349 45.8801 61.3512 47.0014C49.1835 48.2584 34.1913 52.4314 31.7001 64.9462C30.4419 71.1283 32.4352 76.9536 38.3873 82.2109C44.3395 87.4683 72.462 101.898 148.004 125.125C223.546 148.351 251.114 151.115 259.273 150.125C267.432 149.135 272.007 145.4 274.505 139.599C279.475 127.847 269.417 115.972 259.992 108.076Z" fill="url(#paint0_linear_16233_109165)"/>
<path d="M260.574 135.678C257.305 146.311 208.499 133.662 149.07 115.389C89.6413 97.1172 42.0945 80.1421 45.3638 69.5088C48.6332 58.8755 99.5094 65.0215 158.939 83.2937C218.368 101.566 263.863 124.979 260.574 135.678Z" fill="#8F473B"/>
<path d="M127.236 102.101C127.129 102.447 126.89 102.736 126.57 102.906C126.25 103.075 125.876 103.111 125.53 103.004C116.462 100.216 96.5954 92.6086 79.4374 81.7638C70.1884 75.8498 63.3379 70.0307 59.0817 64.3665C60.1153 64.2559 61.2594 64.2507 62.4034 64.2454C67.2016 70.0048 74.2978 75.2569 80.872 79.4202C97.8342 90.2049 117.395 97.6471 126.332 100.395C126.678 100.501 126.968 100.741 127.137 101.061C127.307 101.381 127.342 101.755 127.236 102.101ZM132.558 95.2404C122.08 91.2334 103.894 80.715 94.2568 67.4701L90.5937 66.8437C93.3157 70.99 96.537 74.7862 100.185 78.1467C109.395 86.5421 120.046 93.2036 131.625 97.8097L131.691 97.8297C132.015 97.9311 132.365 97.9081 132.673 97.7652C132.981 97.6222 133.225 97.3696 133.356 97.0566C133.483 96.7094 133.471 96.3265 133.322 95.9881C133.174 95.6496 132.9 95.3817 132.558 95.2404V95.2404ZM143.708 94.7413C136.66 89.7026 130.581 83.4312 125.765 76.2295C125.293 75.4418 124.756 74.6341 124.259 73.6959L120.742 72.8285C121.561 74.5258 122.486 76.1697 123.513 77.7504C128.541 85.2143 134.856 91.7252 142.163 96.9795L142.554 97.0999C142.864 97.1911 143.196 97.1694 143.492 97.0386C143.788 96.9077 144.027 96.6762 144.168 96.3853C144.309 96.0944 144.342 95.7629 144.261 95.4499C144.181 95.1369 143.991 94.8627 143.728 94.676L143.708 94.7413ZM147.503 79.8427L144.763 79.0003C145.127 89.8938 148.676 96.6972 148.836 97.1036C148.913 97.2658 149.023 97.4102 149.159 97.5277C149.295 97.6451 149.454 97.7331 149.626 97.7859C149.798 97.8387 149.979 97.8552 150.157 97.8344C150.336 97.8137 150.508 97.756 150.663 97.6652C150.825 97.588 150.969 97.4779 151.087 97.3419C151.204 97.206 151.292 97.0471 151.345 96.8753C151.398 96.7036 151.414 96.5227 151.394 96.3443C151.373 96.1658 151.315 95.9936 151.224 95.8386C151.159 95.8185 148.057 89.6523 147.503 79.8427ZM249.498 121.77C228.891 127.715 191.828 120.532 176.302 115.759C175.956 115.652 175.582 115.688 175.262 115.857C174.942 116.027 174.703 116.316 174.596 116.662C174.49 117.008 174.525 117.383 174.695 117.702C174.864 118.022 175.154 118.262 175.5 118.368C184.502 121.136 205.212 126.004 225.564 126.692C236.538 126.996 245.474 126.031 252.177 123.736L249.498 121.77ZM224.717 108.081L221.335 106.542C205.856 112.065 184.967 110.569 173.982 107.977C173.806 107.94 173.624 107.939 173.447 107.974C173.269 108.008 173.101 108.077 172.951 108.177C172.8 108.277 172.672 108.405 172.571 108.555C172.471 108.705 172.402 108.874 172.367 109.051C172.325 109.216 172.317 109.388 172.341 109.557C172.366 109.726 172.424 109.888 172.512 110.034C172.6 110.181 172.715 110.308 172.852 110.41C172.989 110.511 173.145 110.585 173.311 110.626L173.376 110.646C185.523 113.325 198.054 113.792 210.367 112.023C215.293 111.299 220.112 109.975 224.717 108.081V108.081ZM196.349 96.0749L193.017 94.8363C184.397 99.1835 173.238 101.108 165.039 101.3C164.687 101.321 164.357 101.477 164.117 101.736C163.878 101.996 163.748 102.337 163.755 102.69C163.732 102.985 163.817 103.279 163.993 103.516C164.169 103.754 164.425 103.92 164.714 103.985L165.105 104.105C174.102 103.863 182.984 102.025 191.337 98.6752C193.072 97.9391 194.748 97.0698 196.349 96.0749V96.0749ZM170.27 86.8427C164.3 94.6466 158.27 98.0048 158.184 98.0499C158.022 98.1271 157.878 98.2372 157.76 98.3732C157.643 98.5092 157.555 98.6681 157.502 98.8398C157.449 99.0115 157.433 99.1924 157.454 99.3708C157.474 99.5493 157.532 99.7215 157.623 99.8765C157.7 100.039 157.81 100.183 157.946 100.301C158.082 100.418 158.241 100.506 158.413 100.559C158.584 100.612 158.765 100.628 158.944 100.607C159.122 100.587 159.294 100.529 159.449 100.438C159.876 100.212 166.569 96.5579 173.055 87.7704L170.27 86.8427Z" fill="#4C131A"/>
<path d="M193.07 80.5014C177.001 70.9911 192.069 66.3415 200.214 73.0585C208.359 79.7756 209.907 90.5333 193.07 80.5014ZM198.073 55.4065C191.864 46.5716 185.55 38.7753 173.742 35.1449L172.372 34.7237C172.664 37.9551 174.507 42.8771 178.538 49.9714C185.816 62.9909 195.856 62.1509 198.073 55.4065ZM106.347 47.1968C101.339 47.2279 95.2673 47.0034 88.96 46.8492C87.3406 53.2773 103.142 56.9219 112.234 57.0755C130.74 57.2673 135.55 48.8214 132.282 42.033C124.641 44.8245 116.342 47.1997 106.347 47.1968ZM151.171 51.1965C132.478 64.1563 156.339 73.6348 161.088 62.5998C167.127 48.5337 161.26 44.1595 151.171 51.1965Z" fill="#EDB997"/>
<path d="M179.506 108.82C179.164 102.503 168.325 97.8134 155.799 93.9624L155.473 93.8621C142.948 90.0111 131.347 87.8007 127.514 92.8343C123.682 97.868 104.56 151.467 95.7146 178.379L157.753 197.453C165.62 170.24 179.899 115.438 179.506 108.82Z" fill="url(#paint1_linear_16233_109165)"/>
<path d="M149.269 138.648C145.438 151.108 140.296 153.668 137.556 152.826C134.816 151.983 131.935 146.956 135.766 134.496L149.269 138.648Z" fill="white"/>
<path d="M141.328 121.286C142.276 120.743 142.134 118.712 141.009 116.749C139.885 114.787 138.205 113.637 137.256 114.18C136.308 114.724 136.45 116.755 137.575 118.717C138.699 120.68 140.379 121.83 141.328 121.286Z" fill="black"/>
<path d="M156.643 124.836C158.675 123.844 159.934 122.244 159.455 121.262C158.976 120.279 156.939 120.287 154.907 121.279C152.874 122.27 151.615 123.871 152.094 124.853C152.574 125.835 154.61 125.828 156.643 124.836Z" fill="black"/>
<path d="M196.757 149.321C195.587 148.248 191.292 150.141 184.79 150.854C178.287 151.568 173.495 150.666 169.7 145.358C165.906 140.05 162.427 134.411 159.015 132.505C155.602 130.599 151.874 130.881 145.05 133.567C144.533 133.785 143.955 133.815 143.418 133.65C142.882 133.485 142.42 133.136 142.115 132.664C138.044 126.629 134.817 124.351 131.225 123.961C127.632 123.57 121.134 126.356 115.164 128.59C109.193 130.824 104.903 129.22 99.5929 124.66C94.2832 120.1 92.1248 116.437 90.5543 116.668C88.9837 116.899 90.8524 126.613 93.1009 129.518C94.5287 131.206 96.531 132.305 98.7215 132.603C98.8491 132.621 98.9711 132.668 99.0791 132.738C99.1871 132.808 99.2785 132.902 99.3468 133.011C99.4151 133.12 99.4588 133.243 99.4748 133.371C99.4907 133.499 99.4786 133.629 99.4392 133.752C98.7472 135.538 97.9902 139.161 101.684 141.082C105.377 143.003 111.152 140.709 113.37 139.534C113.637 139.398 113.943 139.359 114.235 139.423C114.528 139.487 114.79 139.65 114.975 139.885C115.844 141.009 117.831 142.905 121.63 143.788C127.837 145.196 136.552 141.236 140.39 139.203C140.824 138.995 141.319 138.957 141.779 139.099C142.238 139.24 142.627 139.549 142.869 139.965C144.902 143.803 149.886 151.976 155.748 154.278C159.451 155.702 162.095 155.23 163.51 154.808C163.796 154.73 164.1 154.748 164.375 154.858C164.651 154.969 164.882 155.166 165.036 155.42C166.21 157.637 169.353 162.745 173.833 163.266C178.314 163.787 179.312 160.309 179.809 158.462C179.833 158.331 179.889 158.207 179.971 158.103C180.054 157.998 180.161 157.915 180.283 157.861C180.406 157.807 180.539 157.784 180.672 157.793C180.806 157.803 180.935 157.844 181.048 157.915C183.027 158.899 185.301 159.115 187.431 158.521C190.923 157.381 198.739 151.002 196.757 149.321Z" fill="#6A2D32"/>
<path d="M302.612 332.449L302.358 269.18C302.358 269.18 306.553 267.614 308.037 264.643C309.522 261.672 306.59 255.416 306.59 255.416C306.59 255.416 315.109 251.395 320.568 246.647C323.718 243.831 331.705 235.505 326.334 228.356C322.61 223.284 315.631 224.851 315.631 224.851C315.631 224.851 320.141 219.24 316.577 214.574C313.013 209.908 308.101 211.254 308.101 211.254C308.101 211.254 323.609 178.465 325.184 173.808C326.759 169.151 314.037 163.383 311.765 166.826C304.085 178.103 289.851 207.214 288.898 208.92C288.567 209.532 285.551 208.891 285.706 208.153C285.862 207.415 294.835 166.619 294.528 162.74C294.221 158.862 284.516 155.592 281.286 159.597C279.485 161.971 265.153 203.476 260.69 219.383C253.37 221.131 249.934 226.5 251.636 232.807C252.982 237.719 264.472 260.959 264.472 260.959C264.472 260.959 260.197 260.93 258.642 263.665C257.087 266.4 260.51 269.666 261.84 271.146C262.015 271.354 262.136 271.602 262.191 271.869C262.247 272.135 262.235 272.411 262.157 272.671C260.457 278.432 248.953 313.524 246.11 322.074C245.938 322.497 245.911 322.965 246.035 323.404C246.159 323.843 246.426 324.228 246.793 324.498C254.933 331.638 264.945 336.302 275.648 337.939C291.55 340.33 298.508 336.043 301.619 334.286C301.934 334.097 302.193 333.827 302.367 333.504C302.542 333.181 302.627 332.816 302.612 332.449V332.449Z" fill="#6A2D32"/>
<path d="M321.529 239.808C308.229 250.784 302.579 251.047 300.426 250.385L299.97 250.244C298.724 249.625 297.631 248.737 296.769 247.645C295.907 246.553 295.298 245.284 294.986 243.928C294.752 243.031 294.725 242.093 294.905 241.184C295.086 240.275 295.47 239.419 296.028 238.679C294.884 239.133 293.671 239.388 292.441 239.433C291.793 239.438 291.148 239.337 290.534 239.132C287.794 238.29 285.556 235.816 284.441 234.331C281.988 235.576 278.375 236.179 275.274 236.511C278.205 238.033 280.636 240.367 282.275 243.233C285.799 249.886 283.468 258.166 283.367 258.492C283.261 258.838 283.022 259.128 282.702 259.297C282.382 259.466 282.008 259.502 281.662 259.396C281.491 259.353 281.33 259.275 281.19 259.169C281.05 259.062 280.933 258.927 280.847 258.774C280.761 258.62 280.706 258.451 280.688 258.276C280.669 258.1 280.686 257.923 280.738 257.755C280.758 257.69 282.869 250.127 279.887 244.498C276.906 238.869 268.696 236.773 268.631 236.753C268.308 236.678 268.023 236.488 267.83 236.218C267.637 235.949 267.549 235.618 267.582 235.288C267.618 234.95 267.779 234.638 268.033 234.412C268.287 234.187 268.617 234.064 268.956 234.069C272.088 234.103 280.863 233.66 283.964 231.471L284.004 231.341L284.069 231.361C284.942 230.75 285.674 229.959 286.215 229.042C286.756 228.124 287.093 227.101 287.204 226.041C287.256 225.319 287.138 224.595 286.86 223.927C286.582 223.259 286.151 222.665 285.603 222.193C282.556 219.328 273.062 216.766 260.624 219.368L261.526 216.433C273.478 214.252 283.635 216.518 287.434 220.185L288.297 221.094C297.066 212.08 299.514 209.691 309.454 208.249C308.757 209.819 308.22 210.868 308.12 211.194C300.423 212.541 298.211 214.859 289.969 223.321L289.587 223.632C289.858 224.45 289.981 225.31 289.949 226.171C289.698 228.721 288.488 231.079 286.563 232.77C287.833 234.446 290.177 236.809 292.335 236.758C295.983 236.737 302.675 232.155 305.219 230.152C307.762 228.149 310.542 226.076 310.733 225.921C311.025 225.708 311.391 225.62 311.748 225.676C311.925 225.704 312.095 225.767 312.248 225.86C312.401 225.954 312.534 226.077 312.639 226.222C312.745 226.367 312.821 226.531 312.863 226.705C312.905 226.879 312.912 227.06 312.884 227.237C312.856 227.414 312.793 227.584 312.7 227.737C312.606 227.89 312.484 228.023 312.339 228.128C312.273 228.108 310.046 229.78 307.206 232.048L307.141 232.028C304.006 234.563 300.323 237.715 298.201 240.204C297.852 240.64 297.609 241.151 297.491 241.697C297.373 242.243 297.382 242.809 297.519 243.35C297.769 244.299 298.215 245.186 298.828 245.952C299.44 246.719 300.207 247.348 301.078 247.8C302.714 248.518 309.036 246.534 319.732 237.756C319.863 237.637 320.017 237.547 320.184 237.49C320.352 237.433 320.529 237.411 320.705 237.425C320.881 237.439 321.053 237.489 321.209 237.572C321.365 237.654 321.503 237.768 321.614 237.906C321.85 238.172 321.973 238.519 321.957 238.874C321.941 239.229 321.788 239.564 321.529 239.808Z" fill="black"/>
<path d="M8.15556 249.99C6.91649 251.466 3.72581 254.412 -0.46325 258.05C-6.42826 263.285 -14.39 269.905 -21.3636 275.401L-68.7894 260.82L-55.6803 249.999L-28.3433 227.272L-23.472 223.272L8.15556 249.99Z" fill="#AA5F44"/>
<path d="M8.15749 249.983C6.03551 252.472 -1.81079 259.413 -10.4097 266.48C-20.2617 256.025 -28.3388 239.333 -28.3212 227.2L-23.4699 223.265L8.15749 249.983Z" fill="black"/>
<path d="M-99.893 208.697L-64.1374 156.5C-64.1374 156.5 -66.7926 152.827 -66.2865 149.556C-65.7804 146.284 -59.9053 142.735 -59.9053 142.735C-59.9053 142.735 -64.7592 134.602 -66.542 127.628C-67.6317 123.509 -69.4957 112.154 -61.1016 109.237C-55.171 107.133 -50.2124 112.37 -50.2124 112.37C-50.2124 112.37 -50.7909 105.195 -45.2869 103.317C-39.7828 101.44 -36.41 105.333 -36.41 105.333C-36.41 105.333 -30.7525 69.5147 -29.5041 64.7576C-28.2557 60.0005 -14.4262 62.3961 -14.4153 66.5407C-14.4626 80.164 -19.0421 112.243 -19.2123 114.19C-19.2824 114.883 -16.4271 116.046 -16.076 115.369C-15.7249 114.691 -0.358632 75.8608 2.13958 72.8446C4.63778 69.8284 14.438 72.556 14.7954 77.664C15.0168 80.6595 3.55508 123.047 -1.75543 138.693C3.38392 144.272 3.20963 150.645 -1.742 154.906C-5.61501 158.213 -28.1772 170.983 -28.1772 170.983C-28.1772 170.983 -24.6893 173.341 -24.8743 176.497C-25.0593 179.653 -29.7909 180.412 -31.7879 180.869C-32.0422 180.957 -32.2741 181.1 -32.4674 181.287C-32.6607 181.474 -32.8106 181.702 -32.9066 181.953C-34.6717 187.694 -44.8703 223.187 -47.3222 231.858C-47.4453 232.289 -47.6945 232.674 -48.0377 232.963C-48.3809 233.252 -48.8026 233.431 -49.2486 233.479C-59.9938 234.805 -70.8942 233.039 -80.6709 228.388C-95.2339 221.411 -98.5823 213.955 -100.103 210.774C-100.274 210.445 -100.344 210.073 -100.307 209.704C-100.27 209.336 -100.126 208.985 -99.893 208.697V208.697Z" fill="#6A2D32"/>
<path d="M-27.4723 129.217C-27.9482 130.181 -28.2245 131.231 -28.2846 132.304C-28.3448 133.378 -28.1875 134.452 -27.8222 135.464V135.464L-27.7319 135.634C-26.4617 139.167 -19.4508 144.464 -16.7759 146.214C-16.5084 146.411 -16.3216 146.698 -16.2504 147.022C-16.1792 147.346 -16.2286 147.685 -16.3892 147.976C-16.4543 148.132 -16.5509 148.273 -16.673 148.39C-16.7951 148.507 -16.94 148.598 -17.0987 148.656C-17.2575 148.714 -17.4266 148.739 -17.5954 148.729C-17.7643 148.72 -17.9293 148.675 -18.0801 148.598C-18.1453 148.578 -25.8783 145.629 -31.6781 148.701C-37.478 151.773 -39.8749 159.105 -39.895 159.17C-39.9961 159.499 -40.2236 159.774 -40.5275 159.935C-40.8314 160.096 -41.1868 160.13 -41.5156 160.029L-41.5808 160.009C-41.7493 159.957 -41.9055 159.872 -42.0399 159.758C-42.1743 159.644 -42.2841 159.504 -42.3625 159.346C-42.441 159.188 -42.4864 159.016 -42.4962 158.84C-42.5059 158.664 -42.4797 158.488 -42.4191 158.323C-42.3188 157.997 -39.5959 149.837 -32.9431 146.313C-29.976 144.863 -26.6542 144.298 -23.3746 144.685C-25.8187 142.649 -28.4686 140.12 -29.7988 137.712C-31.5549 138.315 -34.7962 139.103 -37.536 138.261C-38.1364 138.087 -38.7043 137.816 -39.2171 137.458C-40.2312 136.726 -41.1137 135.827 -41.8269 134.799C-41.7693 135.723 -41.9211 136.648 -42.2711 137.505C-42.6211 138.361 -43.1601 139.128 -43.848 139.747C-44.8735 140.685 -46.0911 141.388 -47.4161 141.807C-48.7411 142.226 -50.1415 142.35 -51.5197 142.172L-51.9763 142.032C-54.1291 141.37 -58.721 137.959 -63.4913 121.427C-63.5474 121.261 -63.5694 121.085 -63.5558 120.91C-63.5422 120.736 -63.4934 120.566 -63.4123 120.411C-63.3312 120.255 -63.2195 120.118 -63.084 120.007C-62.9484 119.896 -62.7918 119.814 -62.6236 119.765C-62.449 119.714 -62.2658 119.697 -62.0848 119.717C-61.9038 119.737 -61.7286 119.794 -61.5696 119.882C-61.4106 119.971 -61.271 120.091 -61.159 120.234C-61.0469 120.378 -60.9648 120.543 -60.9174 120.718C-57.066 133.97 -52.9503 139.162 -51.1288 139.508C-50.1634 139.611 -49.187 139.513 -48.2613 139.22C-47.3355 138.927 -46.4805 138.446 -45.7502 137.806C-45.3193 137.446 -44.9841 136.985 -44.7741 136.464C-44.5642 135.943 -44.486 135.378 -44.5465 134.82C-44.8382 131.589 -46.179 126.892 -47.3037 123.119L-47.3941 122.949C-48.4034 119.497 -49.3723 116.842 -49.3723 116.842C-49.4431 116.675 -49.4778 116.494 -49.4741 116.312C-49.4704 116.13 -49.4284 115.95 -49.3508 115.786C-49.2732 115.621 -49.1617 115.474 -49.0237 115.355C-48.8857 115.237 -48.7242 115.148 -48.5498 115.096C-48.388 115.025 -48.2126 114.989 -48.0358 114.992C-47.8589 114.994 -47.6847 115.035 -47.5251 115.111C-47.3655 115.188 -47.2242 115.297 -47.1109 115.433C-46.9976 115.569 -46.915 115.728 -46.8687 115.898C-46.7332 116.154 -45.719 118.894 -44.6846 122.496C-43.6502 126.099 -40.7434 133.133 -37.6721 135.22C-35.9157 136.474 -32.7145 135.816 -30.7226 135.143C-31.3831 132.664 -31.0336 130.024 -29.7507 127.802C-29.3168 127.068 -28.7543 126.419 -28.0902 125.885L-28.1656 125.433C-30.2303 113.803 -30.823 110.621 -36.3688 105.203C-36.3337 104.857 -36.1232 103.708 -35.8827 101.997C-28.4701 108.774 -27.787 112.126 -25.5314 124.53L-24.3724 124.243C-19.1039 123.364 -9.49416 127.175 -0.766512 135.714C-1.08743 136.758 -1.38829 137.736 -1.73433 138.629C-10.4972 129.509 -19.856 126.274 -23.9202 126.953C-24.6431 127.043 -25.3368 127.293 -25.9511 127.685C-26.5655 128.076 -27.0851 128.599 -27.4723 129.217V129.217Z" fill="black"/>
<path d="M235.12 306.489L232.923 307.598C227.584 310.098 213.069 316.203 195.437 317.351L192.567 317.396C186.762 317.349 180.97 316.857 175.241 315.925C173.189 321.435 170.802 327.341 167.818 333.564L10.9931 285.346C11.9288 279.032 13.1869 272.77 14.7625 266.584C9.48007 264.125 4.39045 261.271 -0.463192 258.047L-2.74661 256.417C-16.6882 245.561 -25.3315 232.336 -28.3433 227.269L-29.5379 225.116C-29.5379 225.116 -14.7783 212.875 2.27901 198.27C8.88118 192.588 21.6443 182.66 29.4014 181.118C41.6944 178.757 60.7276 183.038 122.375 201.993L122.44 202.013C184.152 220.987 202.238 228.118 211.081 236.978C216.697 242.632 221.612 257.995 223.947 266.424C229.853 288.09 235.12 306.489 235.12 306.489Z" fill="url(#paint2_linear_16233_109165)"/>
<path d="M175.651 315.982C178.96 306.146 181.818 296.386 181.878 296.191C181.983 295.882 182.19 295.618 182.465 295.443C182.551 295.398 188.892 291.492 191.782 287.668C191.882 287.522 192.012 287.398 192.162 287.304C192.313 287.21 192.481 287.148 192.656 287.122C192.832 287.096 193.011 287.106 193.182 287.151C193.354 287.197 193.514 287.277 193.653 287.387C193.799 287.488 193.923 287.617 194.017 287.768C194.111 287.918 194.173 288.086 194.2 288.262C194.226 288.437 194.216 288.616 194.17 288.788C194.125 288.959 194.045 289.119 193.935 289.258C191.236 292.927 185.943 296.441 184.347 297.449C183.706 299.537 181.224 307.842 178.4 316.327L175.651 315.982ZM20.2261 245.56C20.1809 245.475 17.1287 238.682 16.9521 233.915C16.9444 233.733 16.9004 233.554 16.8226 233.39C16.7448 233.225 16.6349 233.077 16.4993 232.956C16.3636 232.834 16.2051 232.741 16.0329 232.682C15.8607 232.623 15.6783 232.598 15.4966 232.611C15.3192 232.612 15.144 232.649 14.9817 232.721C14.8195 232.793 14.6736 232.897 14.5533 233.027C14.4329 233.158 14.3405 233.311 14.2819 233.479C14.2233 233.646 14.1996 233.824 14.2124 234.001C14.4492 238.572 16.7887 244.432 17.5417 246.163C16.8999 248.251 14.1368 256.54 11.7903 265.101L14.2794 266.295C17.027 256.429 20.2313 246.704 20.2715 246.574C20.3324 246.411 20.3598 246.237 20.352 246.063C20.3442 245.888 20.3014 245.718 20.2261 245.56V245.56Z" fill="black"/>
<path d="M197.13 217.555C194.295 215.398 189.222 213.552 189.222 213.552C190.264 206.447 191.426 198.022 189.599 196.532C187.773 195.042 160.267 181.158 131.564 172.333C102.861 163.508 72.6279 159.425 69.8933 159.727C67.1587 160.028 63.8386 167.576 60.6436 174.019C60.6436 174.019 55.4098 172.696 51.9175 172.907C48.4252 173.119 46.6249 178.277 47.7818 191.699C48.8129 203.441 47.5919 219.488 55.528 233.852C75.5314 270.277 88.2353 289.106 95.0197 291.192C101.804 293.278 122.827 284.818 159.839 265.924C174.539 258.519 182.545 244.558 189.994 235.424C198.492 224.971 200.493 220.088 197.13 217.555Z" fill="#FF6666"/>
<path d="M90.9384 195.548C91.1052 195.232 91.3895 194.994 91.7301 194.885C92.0706 194.776 92.4404 194.805 92.7597 194.966C97.1908 197.042 100.589 200.157 103.831 203.082C108.664 207.567 113.231 211.756 121.495 213.44C129.76 215.124 135.706 213.668 143.222 211.98C149.343 210.649 156.388 209.102 165.259 209.045C177.713 208.947 185.375 209.804 189.626 210.611C189.495 211.499 189.345 212.452 189.3 213.295C185.18 212.528 177.734 211.667 165.28 211.765C156.709 211.772 149.815 213.294 143.759 214.645C135.962 216.317 129.218 217.814 120.954 216.13L117.913 215.338C110.737 213.131 106.28 209.048 102 205.09C98.7575 202.165 95.691 199.366 91.5861 197.39C91.4213 197.313 91.2734 197.204 91.1513 197.069C91.0291 196.934 90.9351 196.777 90.8748 196.605C90.8145 196.434 90.789 196.252 90.7999 196.07C90.8109 195.889 90.8579 195.711 90.9384 195.548V195.548ZM71.4505 200.409L62.6321 189.844C57.1664 183.237 59.6085 175.99 60.5113 173.983L57.7564 173.422C56.6381 176.362 54.4922 184.271 60.5351 191.555L69.3986 202.206C78.9247 213.489 88.7619 225.153 94.6094 234.234C94.7847 234.509 95.0485 234.716 95.3572 234.821C95.7366 234.91 96.1354 234.854 96.4762 234.666C96.7734 234.453 96.9832 234.14 97.0663 233.785C97.1493 233.429 97.0999 233.055 96.9273 232.734C90.9694 223.547 81.0869 211.798 71.4505 200.409V200.409ZM166.725 236.557C166.59 236.447 166.435 236.365 166.268 236.316C166.101 236.268 165.926 236.253 165.753 236.273C165.581 236.293 165.414 236.348 165.263 236.434C165.111 236.52 164.979 236.635 164.873 236.774C161.753 240.884 156.019 246.761 146.206 251.74C111.025 269.556 104.753 272.769 97.9115 259.955C97.8343 259.793 97.7242 259.648 97.5883 259.531C97.4523 259.413 97.2934 259.325 97.1217 259.272C96.9499 259.22 96.7691 259.203 96.5906 259.224C96.4121 259.245 96.2399 259.302 96.0849 259.393C95.783 259.575 95.5589 259.862 95.4553 260.199C95.3517 260.536 95.3759 260.9 95.5233 261.22C98.1185 266.016 100.733 268.891 104.191 269.954C111.693 272.26 123.278 266.397 147.385 254.174C157.711 248.923 163.761 242.715 167.006 238.429C167.116 238.29 167.197 238.129 167.242 237.958C167.288 237.787 167.298 237.608 167.271 237.432C167.245 237.257 167.183 237.089 167.089 236.938C166.995 236.788 166.871 236.658 166.725 236.557V236.557Z" fill="#CC2140"/>
<defs>
<linearGradient id="paint0_linear_16233_109165" x1="180.415" y1="13.3923" x2="142.463" y2="136.83" gradientUnits="userSpaceOnUse">
<stop stop-color="#D18D5E"/>
<stop offset="0.31" stop-color="#CE8A5C"/>
<stop offset="0.56" stop-color="#C68057"/>
<stop offset="0.78" stop-color="#B8704D"/>
<stop offset="0.93" stop-color="#AA5F44"/>
</linearGradient>
<linearGradient id="paint1_linear_16233_109165" x1="123.041" y1="199.997" x2="168.188" y2="53.1593" gradientUnits="userSpaceOnUse">
<stop offset="0.36" stop-color="#D18D5E"/>
<stop offset="0.5" stop-color="#CC875A"/>
<stop offset="0.69" stop-color="#BC7450"/>
<stop offset="0.85" stop-color="#AA5F44"/>
</linearGradient>
<linearGradient id="paint2_linear_16233_109165" x1="118.796" y1="213.816" x2="81.8509" y2="333.979" gradientUnits="userSpaceOnUse">
<stop stop-color="#3F99F2"/>
<stop offset="0.25" stop-color="#2F88E9"/>
<stop offset="0.53" stop-color="#247BE2"/>
<stop offset="0.8" stop-color="#2077E0"/>
</linearGradient>
</defs>
</svg>
