<svg width="310" height="238" viewBox="0 0 310 238" fill="none" xmlns="http://www.w3.org/2000/svg">
<path d="M150.688 201.246L145.462 261.087L114.685 249.813C99.4328 242.31 84.544 230.231 73.0322 216.352C70.8117 213.689 68.7206 210.934 66.8038 208.13C64.0883 204.336 62.7873 199.711 63.1268 195.057C64.0813 181.161 78.9067 168.922 91.4688 174.257C93.6849 175.207 95.6905 176.587 97.3691 178.317C100.034 181.228 103.017 183.83 106.263 186.075C110.572 189.03 115.236 191.431 120.145 193.219L122.627 194.12C130.157 196.689 138.233 198.366 146.712 200.296C148.036 200.584 149.362 200.9 150.688 201.246Z" fill="#FFD997"/>
<path d="M99.9763 172.411C94.2141 165.231 89.1973 154.651 78.2018 158.888C70.7184 161.454 64.1958 167.199 57.8617 171.754C53.1221 175.17 47.6397 180.405 48.2385 186.535C49.3321 194.803 59.4264 208.192 66.1438 213.284C76.8939 221.52 96.8563 214.371 104.372 201.269C109.44 191.918 105.782 179.591 99.9763 172.411Z" fill="#FFF2A6"/>
<path d="M60.8434 102.493C62.6656 105.036 61.4609 107.657 62.6994 113.068C63.938 118.479 70.2013 134.777 74.1268 142.225C78.0522 149.673 82.4152 157.066 86.9907 164.189C92.9394 173.472 93.4356 179.034 87.0603 187.058C82.5117 192.752 72.0655 197.853 65.165 195.838C58.2645 193.823 55.4711 187.706 49.4141 177.636C32.4778 149.325 27.2842 125.229 28.5603 108.515C29.0525 102.137 31.7037 94.3858 37.4626 91.3384C43.2214 88.291 49.1904 89.9351 52.0242 95.9191C52.8134 97.5666 53.3253 100.363 55.1353 100.754C55.9306 100.953 58.7061 99.6517 60.8434 102.493Z" fill="url(#paint0_linear_16233_109142)"/>
<path d="M248.113 201.957L249.269 246.307L148.262 344.497C150.7 326.874 131.366 214.527 140.08 200.209L146.711 200.299L236.563 201.776L236.607 201.774L243.897 201.892L248.113 201.957Z" fill="#423D80"/>
<path d="M279.583 245.516L231.504 246.77C230.944 245.467 230.383 244.165 229.867 242.905C223.402 227.271 219.639 210.908 233.569 203.038C234.507 202.487 235.515 202.062 236.564 201.775L236.608 201.773C238.996 201.09 241.533 201.131 243.898 201.891C245.393 202.327 246.826 202.954 248.161 203.755C258.369 209.722 269.018 225.862 279.583 245.516Z" fill="#FFD997"/>
<path d="M207.041 204.124L188.879 223.078L171.956 240.727C168.294 234.984 165.908 227.628 164.327 220.865C162.854 214.583 161.88 208.194 161.414 201.758L207.041 204.124Z" fill="#FFD997"/>
<path d="M161.414 201.758L207.041 204.124L188.879 223.078C179.75 224.809 171.035 223.938 164.327 220.865C162.854 214.583 161.88 208.194 161.414 201.758V201.758Z" fill="url(#paint1_linear_16233_109142)"/>
<path d="M224.291 195.814C224.291 195.814 223.958 196.482 223.328 197.595L223.281 195.797L224.291 195.814Z" fill="url(#paint2_linear_16233_109142)"/>
<path d="M114.888 227.329C114.559 227.33 114.234 227.26 113.935 227.124C113.636 226.988 113.37 226.789 113.155 226.54C112.8 226.085 112.635 225.511 112.693 224.937C112.752 224.363 113.03 223.833 113.47 223.459C123.398 215.343 119.977 200.288 118.721 195.887C118.597 195.601 118.536 195.292 118.542 194.98C118.547 194.669 118.619 194.362 118.752 194.08C118.885 193.799 119.076 193.549 119.313 193.347C119.551 193.145 119.828 192.996 120.127 192.91C120.427 192.823 120.741 192.802 121.049 192.846C121.357 192.891 121.653 193 121.915 193.168C122.178 193.335 122.402 193.557 122.572 193.818C122.743 194.078 122.856 194.372 122.903 194.68C124.352 199.735 128.227 217.017 116.235 226.811C115.855 227.128 115.382 227.31 114.888 227.329V227.329Z" fill="#FFC257"/>
<path d="M199.432 86.6332L162.069 96.4747C162.069 96.4747 159.814 90.783 156.967 82.6046C155 76.9874 151.703 60.7712 148.797 46.1346C146.333 33.724 155.756 21.8201 168.404 21.4903V21.4903C176.384 21.2822 183.498 25.9428 185.598 33.6438C189.995 49.7661 195.404 74.7724 198.91 85.1105C198.929 85.1873 198.961 85.2606 199.003 85.3275C199.104 85.5971 199.185 85.8738 199.244 86.1553C199.337 86.3284 199.34 86.46 199.432 86.6332Z" fill="#FF78B9"/>
<path d="M187.624 88.4331L172.628 90.7556C171.696 88.6729 170.664 86.1537 169.538 83.3736C166.387 75.3089 162.007 56.7093 158.858 44.0661C157.683 39.3464 161.179 34.6497 166.041 34.5229V34.5229C169.064 34.4441 171.84 36.2024 172.849 39.0532C177.304 51.6439 182.828 74.1561 186.288 84.3416C186.765 85.7778 187.239 87.1262 187.624 88.4331Z" fill="#FFAED7"/>
<path d="M202.695 90.9751L241.3 92.5535C241.3 92.5535 242.279 86.5099 243.302 77.9106C244.015 72.002 243.748 55.4563 243.439 40.5371C243.177 27.887 231.416 18.2873 218.992 20.6846V20.6846C211.155 22.1969 205.209 28.2781 204.813 36.2505C203.986 52.941 204.08 78.5254 202.878 89.3755C202.875 89.4548 202.86 89.5331 202.833 89.6076C202.793 89.8925 202.774 90.1801 202.776 90.4678C202.723 90.6568 202.748 90.7861 202.695 90.9751Z" fill="#FF78B9"/>
<path d="M214.615 90.1966L229.759 89.2407C230.222 87.0062 230.688 84.3242 231.19 81.3671C232.533 72.8134 232.813 53.707 233.169 40.6826C233.302 35.8206 228.878 31.9854 224.102 32.9069V32.9069C221.133 33.4799 218.8 35.7938 218.428 38.7948C216.784 52.0489 216.229 75.2224 215.039 85.9136C214.883 87.4186 214.71 88.8374 214.615 90.1966Z" fill="#FFAED7"/>
<path d="M260.521 144.917C264.867 142.357 268.536 138.792 271.22 134.521C273.904 130.25 275.525 125.398 275.947 120.372C276.298 116.394 275.846 112.386 274.617 108.586C273.389 104.787 271.409 101.273 268.795 98.2532C266.182 95.2338 262.988 92.7705 259.404 91.0098C255.82 89.2491 251.918 88.2268 247.931 88.0037L149.933 82.2186C133.886 81.2762 119.461 93.7241 117.605 110.102C116.466 120.272 120.442 129.65 127.444 135.57C115.435 139.658 106.153 150.699 104.619 164.259C102.546 182.399 115.078 198.358 132.674 199.787L242.215 208.87C260.736 210.407 277.049 196.285 278.578 177.501C279.152 170.89 277.74 164.258 274.523 158.453C271.306 152.649 266.431 147.936 260.521 144.917V144.917Z" fill="#FF78B9"/>
<path d="M218.576 135.277C221.281 131.372 221.761 127.021 219.649 125.558C217.538 124.095 213.633 126.075 210.928 129.98C208.224 133.885 207.743 138.237 209.855 139.699C211.967 141.162 215.872 139.182 218.576 135.277Z" fill="black"/>
<path d="M172.677 137.819C175.092 136.945 175.74 132.615 174.124 128.149C172.507 123.682 169.239 120.77 166.823 121.644C164.408 122.518 163.76 126.848 165.376 131.314C166.992 135.781 170.261 138.693 172.677 137.819Z" fill="black"/>
<path d="M203.91 158.992C202.706 161.657 200.321 164.441 197.128 166.587C193.031 169.372 188.666 170.32 185.701 169.431C183.451 169.007 180.866 167.494 178.61 165.139C178.112 164.581 177.659 164.022 177.204 163.42C173.385 158.383 171.657 152.722 175.094 149.822C178.53 146.923 182.087 150.342 185.085 152.547C185.984 153.219 187.047 153.635 188.163 153.753C189.278 153.871 190.405 153.685 191.424 153.216C195.243 151.536 200.71 149.067 203.826 152.409C205.056 154.133 204.987 156.549 203.91 158.992Z" fill="#9E0960"/>
<path d="M185.701 169.428C183.451 169.004 180.866 167.491 178.61 165.135C181.653 160.622 187.981 157.516 195.311 157.501C198.244 157.47 201.158 157.974 203.91 158.988C202.706 161.654 200.321 164.437 197.128 166.584C193.031 169.368 188.666 170.316 185.701 169.428Z" fill="#EB459F"/>
<defs>
<linearGradient id="paint0_linear_16233_109142" x1="72.9118" y1="192.093" x2="41.7748" y2="91.7351" gradientUnits="userSpaceOnUse">
<stop stop-color="#EB459F"/>
<stop offset="0.23" stop-color="#F154A7"/>
<stop offset="0.71" stop-color="#FB6EB4"/>
<stop offset="1" stop-color="#FF78B9"/>
</linearGradient>
<linearGradient id="paint1_linear_16233_109142" x1="184.928" y1="229.818" x2="183.935" y2="191.706" gradientUnits="userSpaceOnUse">
<stop stop-color="#EB459F"/>
<stop offset="0.42" stop-color="#F45CAB"/>
<stop offset="1" stop-color="#FF78B9"/>
</linearGradient>
<linearGradient id="paint2_linear_16233_109142" x1="740.461" y1="788.967" x2="740.137" y2="776.538" gradientUnits="userSpaceOnUse">
<stop stop-color="#EB459F"/>
<stop offset="0.42" stop-color="#F45CAB"/>
<stop offset="1" stop-color="#FF78B9"/>
</linearGradient>
</defs>
</svg>
