<svg width="14" height="14" viewBox="0 0 14 14" fill="none" xmlns="http://www.w3.org/2000/svg">
<g clip-path="url(#clip0_17757_114696)">
<path d="M14 4.37954C14 4.21231 14 4.04509 13.9994 3.87787C13.9987 3.73722 13.9968 3.59593 13.9929 3.45528C13.9844 3.1487 13.9663 2.83889 13.9119 2.53556C13.8568 2.22769 13.766 1.9412 13.6234 1.6612C13.4834 1.38639 13.3006 1.13491 13.0829 0.916481C12.8644 0.698704 12.6136 0.515926 12.3381 0.375926C12.0588 0.233333 11.7723 0.143241 11.4644 0.0881481C11.1611 0.0337037 10.8513 0.0155556 10.5447 0.00712963C10.4041 0.00324074 10.2628 0.00194444 10.1221 0.000648148C9.95491 0 9.78769 0 9.62046 0H4.37954C4.21231 0 4.04509 0 3.87787 0.000648148C3.73722 0.0012963 3.59593 0.00324074 3.45528 0.00712963C3.1487 0.0155556 2.83889 0.0337037 2.53556 0.0881481C2.22769 0.143241 1.9412 0.233981 1.66185 0.375926C1.38704 0.515926 1.13491 0.698704 0.91713 0.916481C0.698704 1.13491 0.516574 1.38574 0.376574 1.6612C0.233981 1.9412 0.143889 2.22769 0.0881481 2.53556C0.0337037 2.83889 0.0155556 3.1487 0.00777778 3.45528C0.00388889 3.59593 0.00194444 3.73722 0.0012963 3.87787C0 4.04509 0 4.21231 0 4.37954V9.62046C0 9.78769 0 9.95491 0.0012963 10.1221C0.00194444 10.2628 0.00388889 10.4041 0.00777778 10.5447C0.0162037 10.8513 0.0343519 11.1611 0.0887963 11.4644C0.143889 11.7723 0.23463 12.0594 0.377222 12.3388C0.517222 12.6136 0.7 12.8651 0.917778 13.0829C1.13556 13.3013 1.38704 13.4841 1.6625 13.6241C1.94185 13.7667 2.22833 13.8568 2.5362 13.9119C2.83954 13.9663 3.14935 13.9844 3.45593 13.9929C3.59657 13.9968 3.73787 13.9981 3.87852 13.9994C4.04574 14 4.21296 14 4.38019 14H9.62111C9.78833 14 9.95556 14 10.1228 13.9994C10.2634 13.9987 10.4047 13.9968 10.5454 13.9929C10.8519 13.9844 11.1618 13.9663 11.4651 13.9119C11.773 13.8568 12.0594 13.766 12.3388 13.6241C12.6136 13.4841 12.8651 13.3013 13.0835 13.0829C13.3019 12.8651 13.4841 12.6136 13.6241 12.3388C13.7667 12.0588 13.8568 11.7723 13.9125 11.4644C13.9669 11.1611 13.9851 10.8519 13.9935 10.5447C13.9974 10.4041 13.9987 10.2628 14 10.1221C14.0006 9.95491 14.0006 9.78769 14.0006 9.62046V4.37954H14Z" fill="white"/>
<path d="M5.22575 11.4532V4.93994H4.95223L3.29297 6.03855V6.31661L4.93343 5.24263H4.95288V11.4538H5.22575V11.4532Z" fill="black"/>
<path d="M6.84668 4.93994V5.18948H10.4245V5.20892L7.55122 11.4538H7.85844L10.7077 5.20374V4.93994H6.84668Z" fill="black"/>
<path d="M2.54443 3.66273V2.25431H2.54961L3.10637 3.51884H3.29109L3.84591 2.25431H3.85239V3.66273H4.03711V1.79736H3.84137L3.2023 3.29199H3.19711L2.55609 1.79801H2.36035V3.66273H2.54443Z" fill="#FF0000"/>
<path d="M5.04059 2.20752C4.65105 2.20752 4.43457 2.49076 4.43457 2.87446V3.01511C4.43457 3.40076 4.64911 3.6853 5.04059 3.6853C5.43142 3.6853 5.64466 3.40076 5.64466 3.01511V2.87446C5.64531 2.49076 5.42883 2.20752 5.04059 2.20752ZM5.04059 2.38382C5.29466 2.38382 5.44374 2.57372 5.44374 2.88419V3.00474C5.44374 3.3165 5.29466 3.50641 5.04059 3.50641C4.78457 3.50641 4.63614 3.3152 4.63614 3.00474V2.88419C4.63614 2.57437 4.78522 2.38382 5.04059 2.38382Z" fill="#FF0000"/>
<path d="M6.02148 3.66244H6.22241V2.7855C6.22241 2.58068 6.33454 2.39143 6.59704 2.39143C6.8213 2.39143 6.96519 2.52689 6.96519 2.77124V3.66115H7.16611V2.74078C7.16611 2.39337 6.94574 2.20605 6.65084 2.20605C6.41556 2.20605 6.28139 2.3292 6.22824 2.42513H6.22241V2.22939H6.02148V3.66244Z" fill="#FF0000"/>
<path d="M8.09054 2.20606C7.73471 2.20606 7.51758 2.48347 7.51758 2.87171V3.01819C7.51758 3.41356 7.7185 3.68384 8.09054 3.68384C8.296 3.68384 8.44313 3.58014 8.51961 3.43884H8.5248V3.6618H8.71471V1.69727H8.51378V2.43551H8.5086C8.43924 2.31171 8.29147 2.20606 8.09054 2.20606ZM8.10869 2.3856C8.36276 2.3856 8.51897 2.58523 8.51897 2.88078V3.01365C8.51897 3.32152 8.3673 3.5056 8.11128 3.5056C7.88443 3.5056 7.71915 3.34032 7.71915 3.01236V2.88273C7.7185 2.54828 7.88702 2.3856 8.10869 2.3856Z" fill="#FF0000"/>
<path d="M9.95892 3.47659H9.96411V3.66261H10.1598V2.66706C10.1598 2.3728 9.94402 2.20752 9.64587 2.20752C9.31402 2.20752 9.1429 2.38122 9.12605 2.63011H9.31596C9.33216 2.47845 9.44041 2.38122 9.63744 2.38122C9.84096 2.38122 9.95892 2.48946 9.95892 2.69039V2.84465H9.56939C9.24272 2.84595 9.07031 3.00474 9.07031 3.25233C9.07031 3.51483 9.26022 3.68595 9.53828 3.68595C9.7567 3.6853 9.89022 3.59132 9.95892 3.47659ZM9.58559 3.51224C9.4242 3.51224 9.27772 3.42604 9.27772 3.24845C9.27772 3.10909 9.36652 3.00928 9.57587 3.00928H9.95892V3.18558C9.95892 3.37808 9.79883 3.51224 9.58559 3.51224Z" fill="#FF0000"/>
<path d="M11.6402 2.23096H11.4257L11.0167 3.42873H11.0095L10.6006 2.23096H10.377L10.9117 3.6854L10.8845 3.7729C10.8423 3.92068 10.7697 4.00688 10.6012 4.00688C10.5701 4.00688 10.5189 4.00299 10.4962 3.99846V4.16957C10.5319 4.17475 10.585 4.18059 10.633 4.18059C10.9117 4.18059 11.0076 3.98938 11.0828 3.78262L11.1236 3.67568L11.6402 2.23096Z" fill="#FF0000"/>
</g>
<defs>
<clipPath id="clip0_17757_114696">
<rect width="14" height="14" fill="white"/>
</clipPath>
</defs>
</svg>
