<svg width="157" height="343" viewBox="0 0 157 343" fill="none" xmlns="http://www.w3.org/2000/svg">
<path d="M156.7 171.142L154.872 171.726L152.979 172.583L151.076 173.421L149.324 174.56L147.44 175.436L145.612 176.406L143.841 177.499L141.967 178.431L140.271 179.636L138.736 181.058L137.021 182.245L135.279 183.384L133.658 184.703L132.123 186.106L130.719 187.65L129.156 189.025L127.733 190.532L126.386 192.114L125.124 193.762L123.739 195.325L122.495 197.001L121.327 198.725L120.301 200.542L119.189 202.294L118.275 204.168L117.343 206.032L116.325 207.85L115.317 209.686L114.535 211.636L114.112 213.707L113.264 215.638L112.68 217.644L112.284 219.706L111.596 221.693L111.285 223.774L110.852 225.818L110.494 227.89L110.504 229.99L110.268 232.071L110.155 234.152L110.108 236.243L110.23 238.333L110.485 240.405L110.654 242.486V244.605L111.097 246.658L111.389 248.739L111.766 250.792L112.256 252.836L112.736 254.87L113.33 256.866L114.13 258.797L114.818 260.765L115.543 262.724L116.288 264.673L117.06 266.613L117.795 268.562L118.85 270.38L119.811 272.226L120.96 273.949L122.015 275.889L120.018 274.994L117.974 274.533L115.873 274.307L113.829 273.874L111.757 273.563L109.693 273.167L107.602 273.073L105.502 273.017L103.401 272.857L101.319 273.205L99.2089 273.073L97.1082 273.196L95.0734 273.798L93.001 274.053L90.9003 274.26L88.9033 274.891L86.9062 275.531L84.8526 275.983L82.8838 276.708L80.9527 277.528L79.0309 278.366L77.1658 279.317L75.3006 280.268L73.5578 281.426L71.7209 282.434L69.9405 283.536L68.2072 284.722L66.634 286.116L65.042 287.463L63.4029 288.781L62.037 290.382L60.445 291.747L59.3052 293.527L57.7697 294.959L56.6581 296.729L55.3676 298.368L54.3879 300.213L53.1727 301.918L52.3249 303.82L51.3263 305.647L50.3937 307.521L49.8851 309.555L49.0655 311.476L48.4155 313.454L48.0104 315.507L47.238 317.466L47.0119 319.547L46.5126 321.572L46.2112 323.624L45.938 325.687L45.9569 327.777L45.6366 329.849L45.8909 331.93L45.7308 334.012L45.9945 336.083L46.0793 338.155L46.2866 340.208L46.6257 342.101L45.1467 340.754L43.8185 339.191L42.2736 337.835L40.6816 336.554L39.0142 335.368L37.4693 334.012L35.7831 332.844L34.031 331.77L32.1658 330.923L30.3759 329.906L28.4919 329.096L26.542 328.455L24.6579 327.655L22.6043 327.382L20.6261 326.864L18.6102 326.534L16.632 325.941L14.5878 325.762L12.5436 325.612L10.49 325.715L8.43645 325.593L6.40171 325.875L4.36696 326.092L2.33221 326.308L0.363399 326.911L-1.53005 327.438L-3.45176 327.881L-5.38288 328.333L-7.11619 329.303L-8.18066 329.604V315.78L-7.49299 315.733L-6.98431 315.639L-5.44882 315.347L-3.44234 314.801L-1.36049 314.593L0.627163 313.981L2.66191 313.567L4.64014 312.945L6.65605 312.418L8.68138 311.985L9.17123 311.862L10.6973 311.476L12.6473 310.742L13.674 310.375L14.6066 310.045L16.566 309.376L18.5725 308.821L20.4377 307.888L22.35 307.079L23.0942 306.9L24.3942 306.589L26.2028 305.544L27.5499 305.092L28.1811 304.875L30.0651 303.99L31.9491 303.123L33.7672 302.106L35.5947 301.127L37.4128 300.119L39.3439 299.319L41.0678 298.161L42.8011 297.002L44.638 296.032L46.3902 294.912L48.18 293.866L48.3967 293.734L49.0655 293.301L49.9416 292.755L51.5242 291.39L53.3234 290.335L54.9154 289.007L56.5357 287.707L58.1371 286.389L59.9175 285.287L61.3588 283.78L63.1015 282.632L64.7029 281.304L66.2007 279.863L67.6891 278.422L69.2057 277L70.6564 275.512L72.2296 274.156L73.5955 272.584L74.9332 271.001L76.4404 269.561L77.6839 267.894L79.1157 266.387L80.5476 264.89L81.8947 263.298L83.1475 261.65L84.4758 260.049L85.6816 258.364L86.7272 256.556L87.9895 254.917L89.3177 253.307L90.2974 251.47L91.3996 249.709L92.6242 248.033L93.651 246.225L94.593 244.379L95.8459 242.712L96.8162 240.876L97.6263 238.955L98.6625 237.156L99.5386 235.273L100.462 233.418L101.423 231.581L102.308 229.698L103.128 227.796L103.91 225.865L104.72 223.953L105.228 221.929L105.907 219.97L106.67 218.039L107.235 216.043L107.866 214.065L108.591 212.125L108.978 210.082L109.731 208.133L110.183 206.108L110.739 204.111L111.078 202.058L111.596 200.043L111.907 197.99L112.341 195.966L112.52 193.884L112.774 191.831L113.019 189.769L113.367 187.726L113.659 185.673L113.706 183.591L114.008 181.529L114.177 179.457L114.234 177.385L114.385 175.314L114.488 173.233L114.404 171.151L114.366 169.07L114.121 166.998L114.356 164.908L113.951 162.855L114.064 160.764L113.867 158.692L113.49 156.64L113.349 154.568L113.066 152.515L112.868 150.443L112.454 148.409L112.114 146.365L111.813 144.312L111.417 142.278L111.238 140.188L110.692 138.182L110.183 136.167L109.628 134.17L109.138 132.155L108.676 130.121L107.809 128.219L107.207 126.232L106.792 124.188L106.123 122.22L105.332 120.299L104.55 118.368L103.881 116.4L103.052 114.498L102.139 112.633L101.423 110.674L100.49 108.829L99.6045 106.945L98.5872 105.137L97.7299 103.235L96.7785 101.398L95.6481 99.6469L94.8474 97.7164L93.5945 96.0401L92.6807 94.1661L91.475 92.471L90.2598 90.7853L89.1859 89.0055L88.0083 87.301L86.7931 85.6153L85.5591 83.9485L84.4475 82.1875L83.1475 80.5677L81.7345 79.0422L80.4157 77.4318L79.2005 75.7461L77.7498 74.2676L76.3839 72.695L75.0086 71.1412L73.6426 69.5779L72.0601 68.2312L70.6564 66.6963L69.0362 65.3779L67.6797 63.8052L66.1913 62.355L64.6652 60.933L63.045 59.6428L61.4624 58.2962L59.7479 57.1096L58.1842 55.7535L56.5074 54.5293L54.9342 53.1732L53.2198 51.9961L51.5524 50.753L50.78 50.2068L50.3372 49.8961L49.8568 49.557L48.0293 48.5588L46.2583 47.4853L44.6192 46.1951L43.8562 45.6866L42.8859 45.0462L41.9721 44.5754L41.0395 44.0951L39.1461 43.2287L37.4411 42.0327L35.4911 41.2888L33.6542 40.3188L31.8549 39.2829L30.9977 38.8215L30.7245 38.6802L30.0274 38.3035L28.0869 37.5407L26.2311 36.6179L24.3188 35.7986L22.35 35.1488L20.4565 34.2918L18.5348 33.4914L16.5755 32.8322L14.5784 32.2295L14.032 32.0505L12.8545 31.6456L12.619 31.5703L10.6784 30.7981L8.60602 30.4873L7.00459 29.8658L6.67489 29.7339L4.63072 29.3196L4.55536 29.2913L2.68075 28.5944L0.655423 28.1236L-1.42643 27.9541L-3.45176 27.5115L-5.17564 26.9841L-5.44882 26.8994L-6.6075 26.7864L-7.52125 26.6922L-8.18066 26.5603V12.7642L-7.15387 13.1409L-5.2981 13.7907L-3.48002 14.5252L-1.60541 15.1562L0.325718 15.5234L2.36047 15.8154L4.39522 16.0414L6.39229 16.5405L8.44588 16.5499L10.4995 16.7571L12.5342 16.4369L14.5878 16.5028L16.6131 16.1544L18.6573 15.9943L20.6826 15.6553L22.6609 15.0997L24.6108 14.4781L26.5231 13.753L28.4637 13.0844L30.3948 12.3969L32.1375 11.3046L33.9556 10.3723L35.7266 9.33637L37.4505 8.24398L39.0048 6.91616L40.7475 5.82377L42.2265 4.40178L43.696 2.97979L45.0714 1.47305L46.6068 0.164062L46.1076 2.08516L46.1358 4.16635L45.825 6.21929L45.759 8.30048V10.3817L45.938 12.4534L45.9851 14.5346L46.0511 16.6158L46.296 18.6782L46.6728 20.7217L46.8895 22.8029L47.3322 24.8276L47.7655 26.8711L48.4815 28.8299L49.1974 30.7792L49.7626 32.7757L50.6952 34.6403L51.4394 36.5802L52.3531 38.4448L53.1633 40.3753L54.3973 42.0704L55.4147 43.8879L56.5733 45.6207L58.0052 47.1462L59.1168 48.9167L60.6428 50.3669L61.9993 51.949L63.4312 53.484L65.1362 54.7176L66.6529 56.1585L68.2355 57.5428L69.9028 58.8235L71.6644 59.9536L73.5107 60.9612L75.2629 62.1101L77.0998 63.1366L78.9838 64.0595L80.915 64.8693L82.9403 65.4626L84.8997 66.1877L86.9062 66.7904L88.8938 67.4496L90.9757 67.7416L92.9916 68.3631L95.0546 68.7115L97.1459 68.8622L99.2277 69.0694L101.31 69.4178L103.41 69.4272L105.502 69.3236L107.593 69.107L109.675 68.9281L111.766 68.8151L113.829 68.4573L115.901 68.1182L117.974 67.7981L119.943 66.9976L121.987 66.5927L120.79 68.2501L119.971 70.1712L118.756 71.8945L117.946 73.8156L117.164 75.7461L116.306 77.6484L115.506 79.5789L114.686 81.4906L114.187 83.5153L113.565 85.5023L112.699 87.4328L112.35 89.4952L111.935 91.5481L111.38 93.5728L110.984 95.6258L110.739 97.7069L110.551 99.7881L110.494 101.869L110.306 103.941L110.117 106.022L110.099 108.113L110.419 110.194V112.294L110.777 114.356V116.475L111.276 118.519L111.822 120.534L112.133 122.606L112.793 124.602L113.273 126.636L113.904 128.652L114.639 130.62L115.402 132.569L116.382 134.415L117.333 136.261L118.03 138.248L119.151 140.009L120.122 141.855L121.327 143.559L122.439 145.32L123.861 146.855L124.954 148.635L126.433 150.123L127.714 151.771L129.278 153.146L130.587 154.794L132.179 156.15L133.743 157.534L135.439 158.74L137.078 160.02L138.67 161.348L140.403 162.497L142.155 163.599L143.757 164.964L145.669 165.831L147.383 167.017L149.267 167.893L151.17 168.75L153.036 169.626L154.92 170.473L156.7 171.142Z" fill="#DBE0DC"/>
<path d="M114.95 181.531L115.091 183.631L114.846 185.693L113.82 187.671L113.641 189.733V191.824L113.17 193.849L113.009 195.93L112.623 197.964L111.992 199.951L111.851 202.042L111.785 204.151L111.304 206.176L110.381 208.078L109.675 210.037L109.797 212.231L108.572 214.03L108.064 216.045L107.555 218.06L106.491 219.878L106.698 222.166L105.125 223.786L104.993 225.961L103.844 227.741L102.647 229.474L102.195 231.545L101.545 233.532L100.697 235.435L99.435 237.12L99.0958 239.286L97.9654 241.047L96.185 242.432L95.243 244.277L94.6966 246.359L93.0198 247.762L92.351 249.796L91.1076 251.453L90.5329 253.572L88.9221 254.985L88.0649 256.925L86.6801 258.488L85.1823 259.957L84.1461 261.775L83.1758 263.667L81.4896 264.967L80.0577 266.483L78.2868 267.688L77.3824 269.657L75.9035 271.116L74.3491 272.501L73.4071 274.478L71.947 275.966L70.3644 277.322L68.7253 278.612L67.3217 280.166L65.4848 281.221L63.987 282.671L62.2914 283.877L60.5486 285.016L58.8436 286.193L57.4777 287.813L55.7067 288.915L54.2277 290.403L52.5038 291.561L51.0249 293.077L49.0655 293.303L48.7075 293.35L48.3967 293.736L47.3322 295.036L45.3634 295.799L43.7808 297.183L42.2171 298.614L40.2388 299.349L38.562 300.611L36.5085 301.176L34.6621 302.127L32.844 303.125L30.9317 303.945L29.1325 304.99L27.5499 305.093L26.9282 305.131L25.1101 306.148L23.1695 306.864L23.0942 306.902L21.3232 307.824L19.458 308.757L17.4138 309.199L15.5016 310L13.674 310.376L13.4574 310.424L11.498 311.083L9.48209 311.591L9.17122 311.864L7.7582 313.098L5.63867 313.22L3.66987 313.936L1.5315 313.908L-0.474993 314.426L-2.4909 314.897L-4.42203 315.867L-6.56982 315.669L-6.98431 315.641L-8.18066 315.546V25.9219L-6.6075 26.7883L-6.58866 26.7977L-5.17564 26.986L-4.52565 27.0708L-2.42496 27.1555L-0.324271 27.2497L1.7199 27.6829L3.58508 28.8129L4.55536 29.2932L5.48795 29.7547L7.00459 29.8677L7.58864 29.9053L9.59513 30.4233L11.677 30.7435L12.8545 31.6475L13.4197 32.0901L14.032 32.0524L15.6523 31.9394L17.6022 32.6834L19.5522 33.3897L21.5399 34.0112L23.5652 34.5668L25.4586 35.4426L27.1637 36.7328L29.189 37.279L30.7245 38.6821L30.7999 38.748L30.9977 38.8234L32.7404 39.5014L34.7563 40.1041L36.6498 40.9705L38.6562 41.6297L40.0787 43.3624L41.8214 44.4831L41.9721 44.5773L43.5736 45.5849L43.8562 45.6885L45.5518 46.3288L47.3416 47.3836L49.3481 48.1087L50.3372 49.898L50.4785 50.1522L50.78 50.2087L52.7111 50.5666L54.0205 52.3087L56.14 52.9303L57.8545 54.1074L59.3334 55.6047L60.8878 56.9796L62.2819 58.5523L64.1942 59.5035L65.4 61.2833L67.0014 62.6111L68.292 64.2591L70.5246 64.9089L71.7209 66.6699L73.068 68.2614L74.4528 69.8058L75.5361 71.6327L76.9868 73.1018L78.4846 74.5426L80.1708 75.814L81.0186 77.8104L83.157 78.7427L83.9954 80.7297L85.6627 82.0669L86.2656 84.2141L88.2533 85.3253L88.7054 87.5477L90.2598 88.998L91.6257 90.5801L92.4358 92.5294L93.6416 94.2245L94.9227 95.8819L95.9212 97.6994L96.8727 99.5546L97.2118 101.721L98.8226 103.218L99.2183 105.337L100.895 106.825L101.903 108.652L102.035 110.874L103.467 112.503L103.787 114.622L105.078 116.336L105.012 118.596L106.773 120.15L106.915 122.306L107.913 124.162L108.271 126.224L109.27 128.089L109.439 130.207L110.108 132.176L110.033 134.332L110.56 136.329L111.898 138.137L111.625 140.331L111.926 142.374L113.066 144.267L113.659 146.273L113.867 148.345L113.697 150.473L113.527 152.583L114.422 154.56L114.771 156.613L114.356 158.732L115.035 160.757L115.43 162.819L114.827 164.928L114.667 167.01L115.035 169.072L114.818 171.153L114.743 173.216L115.751 175.316L114.856 177.369L114.564 179.431L114.95 181.531Z" fill="#B3C4AD"/>
</svg>
