<svg width="164" height="294" viewBox="0 0 164 294" fill="none" xmlns="http://www.w3.org/2000/svg">
<path d="M79.5629 83.6533C79.5629 55.9857 87.2402 30.1168 100.589 8.04297C42.5134 27.4706 0.650391 82.2878 0.650391 146.889C0.650391 227.736 66.2051 293.279 147.086 293.279C156.28 293.279 165.277 292.413 174.009 290.793V220.532C118.807 199.56 79.5722 146.193 79.5722 83.6533H79.5629Z" fill="#DBE0DC"/>
<path d="M173.999 220.53V2.98452C165.276 1.36477 156.28 0.507812 147.076 0.507812C130.826 0.507812 115.189 3.16345 100.578 8.04154C87.2395 30.1059 79.5527 55.9843 79.5527 83.6519C79.5527 146.191 118.788 199.558 173.99 220.53H173.999Z" fill="#556688"/>
</svg>
