<svg width="976" height="100" viewBox="0 0 976 100" fill="none" xmlns="http://www.w3.org/2000/svg">
<path d="M948.312 60.2343C946.045 58.7226 944.115 56.7529 942.644 54.4503C941.173 52.1477 940.194 49.5624 939.769 46.8586L938.398 37.5168C938.349 37.3017 938.228 37.1101 938.055 36.9747C937.882 36.8392 937.668 36.7682 937.449 36.7737C937.242 36.7721 937.042 36.8469 936.887 36.9838C936.731 37.1208 936.631 37.3105 936.605 37.5168L935.234 46.8586C934.809 49.5753 933.819 52.171 932.329 54.476C930.838 56.781 928.881 58.7432 926.585 60.2343L925.425 60.9774C925.296 61.0526 925.189 61.161 925.114 61.2916C925.04 61.4221 925.002 61.5701 925.003 61.7205C924.989 61.873 925.022 62.0263 925.097 62.1593C925.173 62.2923 925.287 62.3986 925.425 62.4636L926.585 63.3129C928.878 64.7823 930.835 66.725 932.326 69.0126C933.817 71.3002 934.808 73.8804 935.234 76.5824L936.605 85.9242C936.628 86.1415 936.724 86.3444 936.878 86.4989C937.031 86.6535 937.233 86.7504 937.449 86.7734C937.677 86.7549 937.893 86.662 938.065 86.5087C938.236 86.3555 938.353 86.1503 938.398 85.9242L939.769 76.5824C940.196 73.8934 941.176 71.3238 942.647 69.0387C944.118 66.7535 946.048 64.8031 948.312 63.3129L949.578 62.4636C949.707 62.3884 949.815 62.28 949.889 62.1495C949.963 62.0189 950.001 61.8709 950 61.7205C949.985 61.574 949.939 61.4322 949.867 61.3043C949.794 61.1763 949.696 61.065 949.578 60.9774L948.312 60.2343Z" fill="#FEE75C"/>
<path d="M31.8455 26.0689C34.2613 24.3884 36.3204 22.2405 37.9026 19.7505C39.4848 17.2605 40.5585 14.4783 41.061 11.5662L42.569 1.61672C42.569 1.39309 42.6572 1.17861 42.8143 1.02048C42.9714 0.862358 43.1845 0.773536 43.4067 0.773536C43.6467 0.770162 43.88 0.85331 44.0644 1.00795C44.2487 1.1626 44.3721 1.37853 44.4121 1.61672L45.92 11.5662C46.4225 14.4783 47.4962 17.2605 49.0784 19.7505C50.6607 22.2405 52.7197 24.3884 55.1355 26.0689L56.476 26.7435C56.6372 26.8563 56.7677 27.0081 56.8556 27.1849C56.9434 27.3617 56.9857 27.5578 56.9786 27.7553C56.993 27.9311 56.9522 28.1071 56.8621 28.2583C56.7719 28.4096 56.6368 28.5285 56.476 28.5985L55.1355 29.4417C52.705 31.0672 50.6326 33.1786 49.0472 35.6445C47.4619 38.1105 46.3974 40.8782 45.92 43.7757L44.4121 53.8939C44.3721 54.1321 44.2487 54.348 44.0644 54.5027C43.88 54.6573 43.6467 54.7405 43.4067 54.7371C43.1845 54.7371 42.9714 54.6483 42.8143 54.4902C42.6572 54.3321 42.569 54.1175 42.569 53.8939L41.061 43.7757C40.5836 40.8782 39.5191 38.1105 37.9338 35.6445C36.3484 33.1786 34.276 31.0672 31.8455 29.4417L30.505 28.5985C30.3442 28.5285 30.2091 28.4096 30.119 28.2583C30.0288 28.1071 29.988 27.9311 30.0024 27.7553C29.9953 27.5578 30.0376 27.3617 30.1255 27.1849C30.2133 27.0081 30.3438 26.8563 30.505 26.7435L31.8455 26.0689Z" fill="#FEE75C"/>
<path d="M1.29986 65.5234C3.001 64.2777 4.45095 62.6856 5.56511 60.84C6.67927 58.9943 7.43534 56.932 7.78918 54.7735L8.85107 47.3985C8.85107 47.2327 8.91322 47.0738 9.02386 46.9566C9.13449 46.8393 9.28454 46.7735 9.441 46.7735C9.61 46.771 9.77426 46.8326 9.9041 46.9473C10.0339 47.0619 10.1208 47.222 10.1489 47.3985L11.2108 54.7735C11.5647 56.932 12.3207 58.9943 13.4349 60.84C14.549 62.6856 15.999 64.2777 17.7001 65.5234L18.644 66.0235C18.7576 66.1071 18.8495 66.2196 18.9114 66.3506C18.9732 66.4816 19.003 66.627 18.998 66.7734C19.0081 66.9037 18.9794 67.0342 18.9159 67.1463C18.8524 67.2584 18.7573 67.3466 18.644 67.3984L17.7001 68.0234C15.9886 69.2284 14.5293 70.7934 13.4129 72.6212C12.2965 74.4491 11.547 76.5006 11.2108 78.6484L10.1489 86.1484C10.1208 86.3249 10.0339 86.485 9.9041 86.5996C9.77426 86.7142 9.61 86.7759 9.441 86.7734C9.28454 86.7734 9.13449 86.7075 9.02386 86.5903C8.91322 86.4731 8.85107 86.3141 8.85107 86.1484L7.78918 78.6484C7.45302 76.5006 6.70345 74.4491 5.58708 72.6212C4.47071 70.7934 3.0114 69.2284 1.29986 68.0234L0.355951 67.3984C0.242657 67.3466 0.14757 67.2584 0.0840721 67.1463C0.0205746 67.0342 -0.00813293 66.9037 0.00198936 66.7734C-0.00299454 66.627 0.0268059 66.4816 0.0886497 66.3506C0.150494 66.2196 0.242401 66.1071 0.355951 66.0235L1.29986 65.5234Z" fill="#57F287"/>
<path d="M962.026 82.2422C963.369 81.2145 964.514 79.901 965.394 78.3783C966.273 76.8556 966.87 75.1543 967.149 73.3735L967.988 67.2891C967.988 67.1524 968.037 67.0212 968.124 66.9245C968.211 66.8278 968.33 66.7735 968.453 66.7735C968.587 66.7714 968.717 66.8223 968.819 66.9168C968.922 67.0114 968.99 67.1435 969.012 67.2891L969.851 73.3735C970.13 75.1543 970.727 76.8556 971.606 78.3783C972.486 79.901 973.631 81.2145 974.974 82.2422L975.719 82.6547C975.809 82.7237 975.881 82.8165 975.93 82.9246C975.979 83.0327 976.002 83.1526 975.998 83.2734C976.006 83.3809 975.984 83.4885 975.934 83.581C975.883 83.6735 975.808 83.7463 975.719 83.7891L974.974 84.3047C973.623 85.2987 972.47 86.5899 971.589 88.0979C970.708 89.6058 970.116 91.2984 969.851 93.0703L969.012 99.2578C968.99 99.4034 968.922 99.5355 968.819 99.63C968.717 99.7246 968.587 99.7754 968.453 99.7734C968.33 99.7734 968.211 99.7191 968.124 99.6224C968.037 99.5257 967.988 99.3945 967.988 99.2578L967.149 93.0703C966.884 91.2984 966.292 89.6058 965.411 88.0979C964.53 86.5899 963.377 85.2987 962.026 84.3047L961.281 83.7891C961.192 83.7463 961.117 83.6735 961.066 83.581C961.016 83.4885 960.994 83.3809 961.002 83.2734C960.998 83.1526 961.021 83.0327 961.07 82.9246C961.119 82.8165 961.191 82.7237 961.281 82.6547L962.026 82.2422Z" fill="#FFCDEE"/>
</svg>
