<svg width="310" height="237" viewBox="0 0 310 237" fill="none" xmlns="http://www.w3.org/2000/svg">
<path d="M150.688 200.25L145.462 260.091L114.685 248.817C99.4328 241.314 84.544 229.235 73.0322 215.356C70.8117 212.693 68.7206 209.938 66.8038 207.134C64.0883 203.34 62.7873 198.715 63.1268 194.061C64.0813 180.165 78.9067 167.926 91.4688 173.261C93.6849 174.21 95.6905 175.591 97.3691 177.321C100.034 180.232 103.017 182.834 106.263 185.079C110.572 188.034 115.236 190.435 120.145 192.223L122.627 193.124C130.157 195.693 138.233 197.37 146.712 199.3C148.036 199.587 149.362 199.904 150.688 200.25Z" fill="#FFD997"/>
<path d="M99.9802 171.415C94.218 164.235 89.2013 153.655 78.2057 157.892C70.7223 160.458 64.1997 166.203 57.8656 170.758C53.126 174.174 47.6436 179.409 48.2424 185.539C49.336 193.807 59.4303 207.195 66.1477 212.288C76.8978 220.524 96.8602 213.375 104.376 200.273C109.444 190.922 105.786 178.595 99.9802 171.415Z" fill="#FFF2A6"/>
<path d="M60.8453 101.497C62.6675 104.04 61.4629 106.661 62.7014 112.072C63.9399 117.483 70.2032 133.781 74.1287 141.229C78.0542 148.677 82.4172 156.07 86.9927 163.193C92.9414 172.476 93.4376 178.038 87.0622 186.062C82.5137 191.756 72.0674 196.857 65.1669 194.842C58.2664 192.827 55.4731 186.71 49.4161 176.64C32.4797 148.329 27.2861 124.233 28.5623 107.519C29.0544 101.141 31.7056 93.3897 37.4645 90.3423C43.2234 87.2949 49.1924 88.939 52.0262 94.923C52.8154 96.5705 53.3273 99.3666 55.1373 99.7584C55.9326 99.9571 58.7081 98.6556 60.8453 101.497Z" fill="url(#paint0_linear_21986_128424)"/>
<path d="M248.115 200.965L249.271 245.315L148.264 343.504C150.702 325.882 131.368 213.535 140.082 199.217L146.713 199.307L236.565 200.783L236.609 200.782L243.899 200.899L248.115 200.965Z" fill="#423D80"/>
<path d="M279.585 244.52L231.506 245.774C230.946 244.471 230.385 243.169 229.869 241.909C223.404 226.275 219.641 209.912 233.57 202.042C234.509 201.491 235.517 201.066 236.566 200.779L236.61 200.777C238.998 200.094 241.535 200.135 243.9 200.895C245.395 201.331 246.828 201.958 248.163 202.759C258.371 208.726 269.02 224.866 279.585 244.52Z" fill="#FFD997"/>
<path d="M207.041 203.132L188.879 222.086L171.956 239.735C168.294 233.992 165.908 226.636 164.327 219.873C162.854 213.59 161.88 207.201 161.414 200.766L207.041 203.132Z" fill="#FFD997"/>
<path d="M161.414 200.766L207.041 203.132L188.879 222.086C179.75 223.816 171.035 222.946 164.327 219.873C162.854 213.59 161.88 207.201 161.414 200.766V200.766Z" fill="url(#paint1_linear_21986_128424)"/>
<path d="M224.293 194.814C224.293 194.814 223.96 195.482 223.33 196.595L223.283 194.797L224.293 194.814Z" fill="url(#paint2_linear_21986_128424)"/>
<path d="M114.89 226.329C114.561 226.33 114.236 226.26 113.937 226.124C113.638 225.988 113.372 225.789 113.157 225.54C112.802 225.085 112.637 224.511 112.695 223.937C112.754 223.363 113.032 222.833 113.472 222.459C123.4 214.343 119.979 199.288 118.723 194.887C118.599 194.601 118.538 194.292 118.544 193.98C118.549 193.669 118.621 193.362 118.754 193.08C118.887 192.799 119.078 192.549 119.315 192.347C119.553 192.145 119.83 191.996 120.129 191.91C120.429 191.823 120.743 191.802 121.051 191.846C121.359 191.891 121.655 192 121.917 192.168C122.18 192.335 122.404 192.557 122.574 192.818C122.745 193.078 122.858 193.372 122.905 193.68C124.354 198.735 128.229 216.017 116.237 225.811C115.857 226.128 115.384 226.31 114.89 226.329V226.329Z" fill="#FFC257"/>
<path d="M199.432 85.6371L162.069 95.4786C162.069 95.4786 159.814 89.7869 156.967 81.6085C155 75.9913 151.703 59.7751 148.797 45.1385C146.333 32.7279 155.756 20.824 168.404 20.4942V20.4942C176.384 20.2862 183.498 24.9467 185.598 32.6477C189.995 48.77 195.404 73.7763 198.91 84.1144C198.929 84.1912 198.961 84.2645 199.003 84.3314C199.104 84.601 199.185 84.8777 199.244 85.1592C199.337 85.3323 199.34 85.4639 199.432 85.6371Z" fill="#FF78B9"/>
<path d="M187.624 87.4409L172.628 89.7634C171.696 87.6807 170.664 85.1615 169.538 82.3815C166.387 74.3168 162.007 55.7172 158.858 43.0739C157.683 38.3542 161.179 33.6575 166.041 33.5307V33.5307C169.064 33.4519 171.84 35.2102 172.849 38.061C177.304 50.6517 182.828 73.1639 186.288 83.3494C186.765 84.7856 187.239 86.134 187.624 87.4409Z" fill="#FFAED7"/>
<path d="M202.695 89.979L241.3 91.5574C241.3 91.5574 242.279 85.5138 243.302 76.9145C244.015 71.0059 243.748 54.4602 243.439 39.541C243.177 26.8909 231.416 17.2912 218.992 19.6885V19.6885C211.155 21.2008 205.209 27.282 204.813 35.2544C203.986 51.9449 204.08 77.5293 202.878 88.3795C202.875 88.4587 202.86 88.537 202.833 88.6115C202.793 88.8964 202.774 89.184 202.776 89.4717C202.723 89.6607 202.748 89.79 202.695 89.979Z" fill="#FF78B9"/>
<path d="M214.613 89.2044L229.757 88.2485C230.22 86.014 230.686 83.332 231.188 80.3749C232.532 71.8213 232.811 52.7149 233.167 39.6905C233.3 34.8284 228.876 30.9932 224.1 31.9147V31.9147C221.131 32.4877 218.798 34.8016 218.426 37.8026C216.782 51.0567 216.227 74.2302 215.038 84.9214C214.881 86.4264 214.708 87.8453 214.613 89.2044Z" fill="#FFAED7"/>
<path d="M260.521 143.925C264.867 141.365 268.536 137.8 271.22 133.529C273.904 129.258 275.525 124.406 275.947 119.38C276.298 115.402 275.846 111.394 274.617 107.594C273.389 103.794 271.409 100.28 268.795 97.261C266.182 94.2416 262.988 91.7784 259.404 90.0176C255.82 88.2569 251.918 87.2346 247.931 87.0116L149.933 81.2264C133.886 80.284 119.461 92.7319 117.605 109.11C116.466 119.28 120.442 128.658 127.444 134.577C115.435 138.666 106.153 149.706 104.619 163.267C102.546 181.406 115.078 197.366 132.674 198.794L242.215 207.878C260.736 209.414 277.049 195.293 278.578 176.509C279.152 169.898 277.74 163.265 274.523 157.461C271.306 151.656 266.431 146.944 260.521 143.925V143.925Z" fill="#FF78B9"/>
<path d="M218.576 134.281C221.281 130.376 221.761 126.024 219.649 124.562C217.538 123.099 213.633 125.079 210.928 128.984C208.224 132.889 207.743 137.24 209.855 138.703C211.967 140.166 215.872 138.186 218.576 134.281Z" fill="black"/>
<path d="M172.677 136.827C175.092 135.953 175.74 131.623 174.124 127.156C172.507 122.69 169.239 119.777 166.823 120.652C164.408 121.526 163.76 125.855 165.376 130.322C166.992 134.789 170.261 137.701 172.677 136.827Z" fill="black"/>
<path d="M203.91 157.996C202.706 160.661 200.321 163.445 197.128 165.591C193.031 168.376 188.666 169.324 185.701 168.435C183.451 168.011 180.866 166.498 178.61 164.143C178.112 163.585 177.659 163.026 177.204 162.423C173.385 157.387 171.657 151.725 175.094 148.826C178.53 145.927 182.087 149.346 185.085 151.551C185.984 152.223 187.047 152.639 188.163 152.757C189.278 152.875 190.405 152.689 191.424 152.22C195.243 150.54 200.71 148.071 203.826 151.413C205.056 153.137 204.987 155.553 203.91 157.996Z" fill="#9E0960"/>
<path d="M185.701 168.432C183.451 168.008 180.866 166.495 178.61 164.139C181.653 159.626 187.981 156.52 195.311 156.505C198.244 156.474 201.158 156.978 203.91 157.992C202.706 160.658 200.321 163.441 197.128 165.588C193.031 168.372 188.666 169.32 185.701 168.432Z" fill="#EB459F"/>
<defs>
<linearGradient id="paint0_linear_21986_128424" x1="72.9137" y1="191.097" x2="41.7768" y2="90.7391" gradientUnits="userSpaceOnUse">
<stop stop-color="#EB459F"/>
<stop offset="0.23" stop-color="#F154A7"/>
<stop offset="0.71" stop-color="#FB6EB4"/>
<stop offset="1" stop-color="#FF78B9"/>
</linearGradient>
<linearGradient id="paint1_linear_21986_128424" x1="184.928" y1="228.826" x2="183.935" y2="190.714" gradientUnits="userSpaceOnUse">
<stop stop-color="#EB459F"/>
<stop offset="0.42" stop-color="#F45CAB"/>
<stop offset="1" stop-color="#FF78B9"/>
</linearGradient>
<linearGradient id="paint2_linear_21986_128424" x1="740.463" y1="787.967" x2="740.139" y2="775.538" gradientUnits="userSpaceOnUse">
<stop stop-color="#EB459F"/>
<stop offset="0.42" stop-color="#F45CAB"/>
<stop offset="1" stop-color="#FF78B9"/>
</linearGradient>
</defs>
</svg>
