<svg width="1157" height="291" viewBox="0 0 1157 291" fill="none" xmlns="http://www.w3.org/2000/svg">
<path d="M997.688 254.25L992.462 314.091L961.685 302.817C946.433 295.314 931.544 283.235 920.032 269.356C917.812 266.693 915.721 263.938 913.804 261.134C911.088 257.34 909.787 252.715 910.127 248.061C911.081 234.165 925.907 221.926 938.469 227.261C940.685 228.21 942.69 229.591 944.369 231.321C947.034 234.232 950.017 236.834 953.263 239.079C957.572 242.034 962.236 244.435 967.145 246.223L969.627 247.124C977.157 249.693 985.233 251.37 993.712 253.3C995.036 253.587 996.362 253.904 997.688 254.25Z" fill="#FFD997"/>
<path d="M946.98 225.415C941.218 218.235 936.201 207.655 925.206 211.892C917.722 214.458 911.2 220.203 904.866 224.758C900.126 228.174 894.644 233.409 895.242 239.539C896.336 247.807 906.43 261.195 913.148 266.288C923.898 274.524 943.86 267.375 951.376 254.273C956.444 244.922 952.786 232.595 946.98 225.415Z" fill="#FFF2A6"/>
<path d="M907.845 155.497C909.668 158.04 908.463 160.661 909.701 166.072C910.94 171.483 917.203 187.781 921.129 195.229C925.054 202.677 929.417 210.07 933.993 217.193C939.941 226.476 940.438 232.038 934.062 240.062C929.514 245.756 919.067 250.857 912.167 248.842C905.266 246.827 902.473 240.71 896.416 230.64C879.48 202.329 874.286 178.233 875.562 161.519C876.054 155.141 878.706 147.39 884.465 144.342C890.223 141.295 896.192 142.939 899.026 148.923C899.815 150.57 900.327 153.367 902.137 153.758C902.933 153.957 905.708 152.656 907.845 155.497Z" fill="url(#paint0_linear_22138_128582)"/>
<path d="M1095.11 254.965L1096.27 299.315L995.264 397.504C997.702 379.882 978.368 267.535 987.082 253.217L993.713 253.307L1083.56 254.783L1083.61 254.782L1090.9 254.899L1095.11 254.965Z" fill="#423D80"/>
<path d="M1126.58 298.52L1078.51 299.774C1077.95 298.471 1077.38 297.169 1076.87 295.909C1070.4 280.275 1066.64 263.912 1080.57 256.042C1081.51 255.491 1082.52 255.066 1083.57 254.779L1083.61 254.777C1086 254.094 1088.54 254.135 1090.9 254.895C1092.4 255.331 1093.83 255.958 1095.16 256.759C1105.37 262.726 1116.02 278.866 1126.58 298.52Z" fill="#FFD997"/>
<path d="M1054.04 257.132L1035.88 276.086L1018.96 293.735C1015.29 287.992 1012.91 280.636 1011.33 273.873C1009.85 267.59 1008.88 261.201 1008.41 254.766L1054.04 257.132Z" fill="#FFD997"/>
<path d="M1008.41 254.766L1054.04 257.132L1035.88 276.086C1026.75 277.816 1018.04 276.946 1011.33 273.873C1009.85 267.59 1008.88 261.201 1008.41 254.766Z" fill="url(#paint1_linear_22138_128582)"/>
<path d="M1071.29 248.814C1071.29 248.814 1070.96 249.482 1070.33 250.595L1070.28 248.797L1071.29 248.814Z" fill="url(#paint2_linear_22138_128582)"/>
<path d="M961.89 280.329C961.561 280.33 961.236 280.26 960.937 280.124C960.638 279.988 960.372 279.789 960.157 279.54C959.802 279.085 959.637 278.511 959.695 277.937C959.754 277.363 960.032 276.833 960.472 276.459C970.4 268.343 966.979 253.288 965.723 248.887C965.599 248.601 965.538 248.292 965.544 247.98C965.549 247.669 965.621 247.362 965.754 247.08C965.887 246.799 966.078 246.549 966.315 246.347C966.553 246.145 966.83 245.996 967.129 245.91C967.429 245.823 967.743 245.802 968.051 245.846C968.359 245.891 968.655 246 968.917 246.168C969.18 246.335 969.404 246.557 969.574 246.818C969.745 247.078 969.858 247.372 969.905 247.68C971.354 252.735 975.229 270.017 963.237 279.811C962.857 280.128 962.384 280.31 961.89 280.329Z" fill="#FFC257"/>
<path d="M1046.43 139.637L1009.07 149.479C1009.07 149.479 1006.81 143.787 1003.97 135.608C1002 129.991 998.703 113.775 995.797 99.1385C993.333 86.7279 1002.76 74.824 1015.4 74.4942C1023.38 74.2862 1030.5 78.9467 1032.6 86.6477C1036.99 102.77 1042.4 127.776 1045.91 138.114C1045.93 138.191 1045.96 138.264 1046 138.331C1046.1 138.601 1046.18 138.878 1046.24 139.159C1046.34 139.332 1046.34 139.464 1046.43 139.637Z" fill="#FF78B9"/>
<path d="M1034.62 141.441L1019.63 143.763C1018.7 141.681 1017.66 139.162 1016.54 136.381C1013.39 128.317 1009.01 109.717 1005.86 97.0739C1004.68 92.3542 1008.18 87.6575 1013.04 87.5307C1016.06 87.4519 1018.84 89.2102 1019.85 92.061C1024.3 104.652 1029.83 127.164 1033.29 137.349C1033.76 138.786 1034.24 140.134 1034.62 141.441Z" fill="#FFAED7"/>
<path d="M1049.69 143.979L1088.3 145.557C1088.3 145.557 1089.28 139.514 1090.3 130.915C1091.01 125.006 1090.75 108.46 1090.44 93.541C1090.18 80.8909 1078.42 71.2912 1065.99 73.6885C1058.15 75.2008 1052.21 81.282 1051.81 89.2544C1050.99 105.945 1051.08 131.529 1049.88 142.379C1049.88 142.459 1049.86 142.537 1049.83 142.612C1049.79 142.896 1049.77 143.184 1049.78 143.472C1049.72 143.661 1049.75 143.79 1049.69 143.979Z" fill="#FF78B9"/>
<path d="M1061.61 143.204L1076.76 142.248C1077.22 140.014 1077.69 137.332 1078.19 134.375C1079.53 125.821 1079.81 106.715 1080.17 93.6905C1080.3 88.8284 1075.88 84.9932 1071.1 85.9147C1068.13 86.4877 1065.8 88.8016 1065.43 91.8026C1063.78 105.057 1063.23 128.23 1062.04 138.921C1061.88 140.426 1061.71 141.845 1061.61 143.204Z" fill="#FFAED7"/>
<path d="M1107.52 197.925C1111.87 195.365 1115.54 191.8 1118.22 187.529C1120.9 183.258 1122.53 178.406 1122.95 173.38C1123.3 169.402 1122.85 165.394 1121.62 161.594C1120.39 157.794 1118.41 154.28 1115.8 151.261C1113.18 148.242 1109.99 145.778 1106.4 144.018C1102.82 142.257 1098.92 141.235 1094.93 141.012L996.933 135.226C980.886 134.284 966.461 146.732 964.605 163.11C963.466 173.28 967.442 182.658 974.444 188.577C962.435 192.666 953.153 203.706 951.619 217.267C949.546 235.406 962.078 251.366 979.674 252.794L1089.22 261.878C1107.74 263.414 1124.05 249.293 1125.58 230.509C1126.15 223.898 1124.74 217.265 1121.52 211.461C1118.31 205.656 1113.43 200.944 1107.52 197.925Z" fill="#FF78B9"/>
<path d="M1065.58 188.281C1068.28 184.376 1068.76 180.024 1066.65 178.562C1064.54 177.099 1060.63 179.079 1057.93 182.984C1055.22 186.889 1054.74 191.24 1056.86 192.703C1058.97 194.166 1062.87 192.186 1065.58 188.281Z" fill="black"/>
<path d="M1019.68 190.827C1022.09 189.953 1022.74 185.623 1021.12 181.156C1019.51 176.69 1016.24 173.777 1013.82 174.652C1011.41 175.526 1010.76 179.855 1012.38 184.322C1013.99 188.789 1017.26 191.701 1019.68 190.827Z" fill="black"/>
<path d="M1050.91 211.996C1049.71 214.661 1047.32 217.445 1044.13 219.591C1040.03 222.376 1035.67 223.324 1032.7 222.435C1030.45 222.011 1027.87 220.498 1025.61 218.143C1025.11 217.585 1024.66 217.026 1024.2 216.423C1020.39 211.387 1018.66 205.725 1022.09 202.826C1025.53 199.927 1029.09 203.346 1032.09 205.551C1032.98 206.223 1034.05 206.639 1035.16 206.757C1036.28 206.875 1037.41 206.689 1038.42 206.22C1042.24 204.54 1047.71 202.071 1050.83 205.413C1052.06 207.137 1051.99 209.553 1050.91 211.996Z" fill="#9E0960"/>
<path d="M1032.7 222.432C1030.45 222.008 1027.87 220.495 1025.61 218.139C1028.65 213.626 1034.98 210.52 1042.31 210.505C1045.24 210.474 1048.16 210.978 1050.91 211.992C1049.71 214.658 1047.32 217.441 1044.13 219.588C1040.03 222.372 1035.67 223.32 1032.7 222.432Z" fill="#EB459F"/>
<path d="M260.003 150.08C251.612 143.001 233.531 132.373 222.736 124.984C199.174 108.957 197.694 84.5107 173.753 77.1496C149.812 69.7886 134.788 89.1604 106.357 89.2015C93.2104 89.2294 72.3463 87.884 61.3627 89.0053C49.1949 90.2623 34.2028 94.4353 31.7116 106.95C30.4534 113.132 32.4467 118.957 38.3988 124.215C44.351 129.472 72.4735 143.902 148.016 167.129C223.558 190.355 251.126 193.119 259.284 192.129C267.443 191.139 272.018 187.404 274.516 181.603C279.486 169.851 269.428 157.976 260.003 150.08Z" fill="url(#paint3_linear_22138_128582)"/>
<path d="M260.588 177.682C257.318 188.315 208.513 175.665 149.084 157.393C89.6547 139.121 42.1079 122.146 45.3773 111.513C48.6466 100.879 99.5229 107.025 158.952 125.298C218.381 143.57 263.877 166.983 260.588 177.682Z" fill="#8F473B"/>
<path d="M127.247 144.105C127.141 144.451 126.901 144.74 126.581 144.91C126.262 145.079 125.887 145.115 125.541 145.008C116.474 142.22 96.6068 134.613 79.4488 123.768C70.1999 117.854 63.3494 112.035 59.0932 106.37C60.1268 106.26 61.2709 106.255 62.4149 106.249C67.2131 112.009 74.3093 117.261 80.8834 121.424C97.8457 132.209 117.407 139.651 126.344 142.399C126.69 142.505 126.979 142.745 127.149 143.065C127.318 143.385 127.354 143.759 127.247 144.105ZM132.57 137.244C122.092 133.237 103.905 122.719 94.2683 109.474L90.6052 108.848C93.3272 112.994 96.5484 116.79 100.197 120.151C109.406 128.546 120.057 135.207 131.637 139.814L131.702 139.834C132.026 139.935 132.376 139.912 132.684 139.769C132.992 139.626 133.236 139.374 133.368 139.061C133.495 138.713 133.483 138.33 133.334 137.992C133.185 137.654 132.911 137.386 132.57 137.244ZM143.719 136.745C136.671 131.707 130.593 125.435 125.777 118.233C125.305 117.446 124.768 116.638 124.271 115.7L120.753 114.832C121.572 116.53 122.498 118.174 123.524 119.754C128.552 127.218 134.867 133.729 142.174 138.983L142.565 139.104C142.875 139.195 143.208 139.173 143.503 139.042C143.799 138.912 144.039 138.68 144.179 138.389C144.32 138.098 144.353 137.767 144.273 137.454C144.192 137.141 144.003 136.867 143.739 136.68L143.719 136.745ZM147.514 121.847L144.774 121.004C145.138 131.898 148.687 138.701 148.848 139.107C148.925 139.27 149.035 139.414 149.171 139.532C149.307 139.649 149.466 139.737 149.638 139.79C149.809 139.843 149.99 139.859 150.169 139.838C150.347 139.818 150.519 139.76 150.674 139.669C150.836 139.592 150.981 139.482 151.098 139.346C151.216 139.21 151.304 139.051 151.357 138.879C151.409 138.707 151.426 138.527 151.405 138.348C151.384 138.17 151.327 137.998 151.236 137.842C151.171 137.822 148.068 131.656 147.514 121.847ZM249.509 163.774C228.902 169.719 191.84 162.536 176.314 157.763C175.968 157.656 175.594 157.692 175.274 157.861C174.954 158.031 174.714 158.32 174.608 158.666C174.502 159.012 174.537 159.386 174.706 159.706C174.876 160.026 175.165 160.266 175.511 160.372C184.514 163.14 205.223 168.008 225.575 168.696C236.549 169 245.486 168.035 252.189 165.74L249.509 163.774ZM224.728 150.085L221.346 148.546C205.868 154.068 184.978 152.573 173.994 149.981C173.817 149.944 173.635 149.943 173.458 149.977C173.281 150.012 173.112 150.081 172.962 150.181C172.812 150.281 172.683 150.409 172.583 150.559C172.483 150.709 172.413 150.878 172.378 151.055C172.337 151.22 172.328 151.392 172.353 151.561C172.378 151.73 172.436 151.892 172.523 152.038C172.611 152.185 172.727 152.312 172.864 152.414C173.001 152.515 173.157 152.589 173.322 152.63L173.387 152.65C185.535 155.329 198.066 155.796 210.379 154.027C215.304 153.302 220.124 151.979 224.728 150.085ZM196.361 138.079L193.029 136.84C184.409 141.187 173.25 143.112 165.051 143.304C164.699 143.325 164.368 143.481 164.129 143.74C163.889 143.999 163.759 144.341 163.767 144.694C163.744 144.989 163.828 145.283 164.004 145.52C164.18 145.758 164.436 145.924 164.725 145.988L165.117 146.109C174.113 145.867 182.995 144.029 191.348 140.679C193.084 139.943 194.759 139.074 196.361 138.079ZM170.281 128.847C164.312 136.651 158.281 140.009 158.196 140.054C158.034 140.131 157.889 140.241 157.772 140.377C157.654 140.513 157.566 140.672 157.514 140.844C157.461 141.015 157.444 141.196 157.465 141.375C157.486 141.553 157.543 141.725 157.634 141.88C157.712 142.043 157.822 142.187 157.958 142.305C158.094 142.422 158.252 142.51 158.424 142.563C158.596 142.616 158.777 142.632 158.955 142.611C159.134 142.591 159.306 142.533 159.461 142.442C159.887 142.216 166.58 138.562 173.066 129.774L170.281 128.847Z" fill="#4C131A"/>
<path d="M193.082 122.505C177.013 112.995 192.08 108.345 200.225 115.062C208.371 121.78 209.918 132.537 193.082 122.505ZM198.084 97.4104C191.875 88.5755 185.561 80.7792 173.754 77.1489L172.384 76.7276C172.676 79.959 174.518 84.8811 178.549 91.9753C185.827 104.995 195.868 104.155 198.084 97.4104ZM106.358 89.2007C101.35 89.2318 95.2788 89.0073 88.9715 88.8531C87.3521 95.2812 103.154 98.9258 112.246 99.0794C130.751 99.2712 135.562 90.8253 132.294 84.0369C124.652 86.8284 116.353 89.2036 106.358 89.2007ZM151.182 93.2004C132.489 106.16 156.35 115.639 161.1 104.604C167.138 90.5376 161.272 86.1634 151.182 93.2004Z" fill="#EDB997"/>
<path d="M179.52 150.851C179.177 144.534 168.338 139.845 155.813 135.994L155.487 135.893C142.962 132.042 131.36 129.832 127.528 134.866C123.695 139.899 104.574 193.498 95.7281 220.41L157.766 239.485C165.634 212.272 179.913 157.47 179.52 150.851Z" fill="url(#paint4_linear_22138_128582)"/>
<path d="M149.285 180.675C145.454 193.135 140.311 195.695 137.571 194.853C134.831 194.011 131.95 188.983 135.781 176.523L149.285 180.675Z" fill="white"/>
<path d="M141.341 163.318C142.29 162.774 142.147 160.743 141.023 158.781C139.899 156.818 138.218 155.668 137.27 156.211C136.321 156.755 136.464 158.786 137.588 160.748C138.713 162.711 140.393 163.861 141.341 163.318Z" fill="black"/>
<path d="M156.658 166.863C158.691 165.872 159.95 164.271 159.47 163.289C158.991 162.307 156.955 162.314 154.922 163.306C152.89 164.298 151.631 165.898 152.11 166.88C152.589 167.863 154.626 167.855 156.658 166.863Z" fill="black"/>
<path d="M196.772 191.349C195.603 190.275 191.308 192.168 184.805 192.882C178.302 193.596 173.51 192.693 169.716 187.386C165.921 182.078 162.443 176.438 159.03 174.532C155.618 172.626 151.89 172.908 145.066 175.594C144.549 175.813 143.971 175.842 143.434 175.677C142.897 175.512 142.436 175.163 142.13 174.691C138.06 168.656 134.833 166.379 131.24 165.988C127.647 165.597 121.15 168.383 115.179 170.618C109.209 172.852 104.918 171.247 99.6084 166.687C94.2987 162.127 92.1403 158.465 90.5698 158.696C88.9993 158.927 90.8679 168.641 93.1164 171.546C94.5442 173.233 96.5465 174.332 98.737 174.63C98.8646 174.649 98.9866 174.695 99.0946 174.765C99.2026 174.836 99.294 174.929 99.3623 175.038C99.4306 175.148 99.4743 175.271 99.4903 175.399C99.5062 175.527 99.4941 175.656 99.4547 175.779C98.7627 177.566 98.0057 181.189 101.699 183.11C105.393 185.031 111.168 182.736 113.385 181.562C113.652 181.426 113.958 181.386 114.251 181.45C114.544 181.514 114.805 181.678 114.991 181.913C115.859 183.036 117.847 184.933 121.645 185.815C127.853 187.224 136.568 183.263 140.406 181.23C140.839 181.022 141.335 180.985 141.794 181.126C142.254 181.267 142.643 181.577 142.885 181.992C144.918 185.83 149.902 194.003 155.763 196.305C159.467 197.729 162.111 197.257 163.526 196.835C163.812 196.758 164.116 196.775 164.391 196.886C164.666 196.996 164.898 197.193 165.051 197.447C166.226 199.665 169.368 204.772 173.849 205.293C178.33 205.814 179.328 202.336 179.824 200.49C179.848 200.358 179.904 200.235 179.987 200.13C180.07 200.025 180.177 199.942 180.299 199.888C180.421 199.834 180.555 199.811 180.688 199.82C180.821 199.83 180.95 199.872 181.063 199.943C183.043 200.927 185.317 201.142 187.446 200.548C190.938 199.409 198.754 193.029 196.772 191.349Z" fill="#6A2D32"/>
<path d="M302.626 374.473L302.372 311.204C302.372 311.204 306.566 309.637 308.051 306.667C309.535 303.696 306.604 297.439 306.604 297.439C306.604 297.439 315.123 293.418 320.581 288.67C323.732 285.855 331.718 277.528 326.348 270.379C322.624 265.307 315.644 266.874 315.644 266.874C315.644 266.874 320.154 261.263 316.591 256.598C313.027 251.932 308.115 253.278 308.115 253.278C308.115 253.278 323.623 220.488 325.197 215.831C326.772 211.175 314.051 205.407 311.779 208.85C304.099 220.126 289.864 249.237 288.911 250.943C288.58 251.556 285.565 250.914 285.72 250.176C285.875 249.439 294.849 208.642 294.542 204.764C294.235 200.885 284.53 197.616 281.299 201.62C279.498 203.994 265.166 245.499 260.704 261.406C253.383 263.154 249.947 268.524 251.65 274.831C252.995 279.743 264.486 302.983 264.486 302.983C264.486 302.983 260.211 302.954 258.656 305.689C257.101 308.424 260.524 311.689 261.854 313.169C262.029 313.377 262.15 313.626 262.205 313.892C262.26 314.158 262.248 314.434 262.17 314.695C260.47 320.455 248.967 355.547 246.124 364.098C245.951 364.52 245.925 364.988 246.049 365.427C246.172 365.866 246.439 366.251 246.807 366.521C254.947 373.661 264.958 378.325 275.662 379.963C291.563 382.353 298.522 378.066 301.633 376.309C301.948 376.121 302.206 375.85 302.381 375.527C302.556 375.204 302.64 374.84 302.626 374.473Z" fill="#6A2D32"/>
<path d="M321.54 281.831C308.241 292.808 302.591 293.07 300.438 292.408L299.981 292.268C298.736 291.648 297.643 290.761 296.781 289.669C295.919 288.576 295.31 287.307 294.997 285.951C294.764 285.055 294.736 284.116 294.917 283.207C295.097 282.298 295.481 281.442 296.04 280.703C294.896 281.157 293.682 281.411 292.452 281.456C291.804 281.462 291.16 281.36 290.546 281.155C287.806 280.313 285.567 277.84 284.453 276.355C282 277.6 278.387 278.202 275.286 278.534C278.217 280.056 280.647 282.39 282.287 285.257C285.811 291.909 283.479 300.189 283.379 300.515C283.273 300.861 283.033 301.151 282.713 301.32C282.394 301.49 282.019 301.525 281.673 301.419C281.502 301.376 281.342 301.299 281.202 301.192C281.062 301.085 280.945 300.951 280.859 300.797C280.772 300.644 280.718 300.474 280.699 300.299C280.681 300.124 280.698 299.947 280.75 299.778C280.77 299.713 282.881 292.151 279.899 286.522C276.917 280.892 268.708 278.797 268.643 278.777C268.32 278.701 268.035 278.511 267.842 278.242C267.649 277.972 267.561 277.642 267.594 277.312C267.63 276.974 267.791 276.661 268.045 276.436C268.299 276.21 268.628 276.088 268.968 276.092C272.099 276.126 280.875 275.683 283.976 273.495L284.016 273.364L284.081 273.384C284.954 272.774 285.686 271.983 286.226 271.065C286.767 270.147 287.105 269.124 287.216 268.065C287.268 267.343 287.15 266.619 286.872 265.951C286.594 265.282 286.163 264.689 285.615 264.216C282.568 261.352 273.074 258.79 260.636 261.392L261.538 258.456C273.49 256.276 283.646 258.542 287.446 262.209L288.309 263.117C297.078 254.103 299.526 251.714 309.466 250.272C308.769 251.843 308.232 252.892 308.132 253.218C300.435 254.564 298.223 256.883 289.98 265.345L289.599 265.656C289.87 266.474 289.992 267.334 289.961 268.195C289.71 270.744 288.5 273.103 286.575 274.794C287.845 276.469 290.189 278.832 292.346 278.782C295.994 278.761 302.687 274.178 305.231 272.175C307.774 270.173 310.554 268.1 310.744 267.944C311.037 267.731 311.402 267.643 311.76 267.7C311.937 267.728 312.107 267.79 312.26 267.884C312.413 267.977 312.546 268.1 312.651 268.245C312.757 268.39 312.832 268.554 312.874 268.729C312.916 268.903 312.924 269.084 312.896 269.261C312.868 269.438 312.805 269.608 312.712 269.76C312.618 269.913 312.495 270.046 312.35 270.152C312.285 270.132 310.058 271.803 307.218 274.072L307.153 274.052C304.017 276.586 300.335 279.738 298.213 282.228C297.864 282.664 297.621 283.175 297.503 283.721C297.384 284.267 297.394 284.832 297.531 285.374C297.781 286.323 298.226 287.209 298.839 287.976C299.452 288.742 300.219 289.372 301.09 289.824C302.726 290.541 309.048 288.558 319.744 279.779C319.875 279.661 320.029 279.57 320.196 279.513C320.363 279.456 320.541 279.434 320.717 279.448C320.893 279.462 321.065 279.512 321.221 279.595C321.377 279.678 321.515 279.792 321.625 279.929C321.862 280.195 321.985 280.542 321.969 280.898C321.953 281.253 321.799 281.588 321.54 281.831Z" fill="black"/>
<path d="M8.15349 291.994C6.91441 293.47 3.72373 296.416 -0.465327 300.054C-6.43033 305.289 -14.3921 311.909 -21.3656 317.405L-68.7915 302.824L-55.6824 292.002L-28.3454 269.276L-23.474 265.276L8.15349 291.994Z" fill="#AA5F44"/>
<path d="M8.15542 291.991C6.03343 294.48 -1.81286 301.421 -10.4118 308.488C-20.2638 298.033 -28.3408 281.341 -28.3233 269.208L-23.472 265.273L8.15542 291.991Z" fill="black"/>
<path d="M-99.8951 250.701L-64.1395 198.504C-64.1395 198.504 -66.7947 194.831 -66.2886 191.559C-65.7825 188.288 -59.9074 184.739 -59.9074 184.739C-59.9074 184.739 -64.7613 176.606 -66.5441 169.632C-67.6338 165.512 -69.4977 154.158 -61.1036 151.241C-55.1731 149.137 -50.2145 154.374 -50.2145 154.374C-50.2145 154.374 -50.793 147.199 -45.2889 145.321C-39.7848 143.444 -36.4121 147.337 -36.4121 147.337C-36.4121 147.337 -30.7546 111.519 -29.5062 106.761C-28.2577 102.004 -14.4283 104.4 -14.4174 108.545C-14.4647 122.168 -19.0442 154.247 -19.2144 156.194C-19.2845 156.887 -16.4292 158.05 -16.0781 157.373C-15.727 156.695 -0.360705 117.865 2.1375 114.848C4.63571 111.832 14.436 114.56 14.7933 119.668C15.0147 122.663 3.55301 165.051 -1.75751 180.697C3.38184 186.276 3.20756 192.649 -1.74407 196.91C-5.61708 200.217 -28.1792 212.987 -28.1792 212.987C-28.1792 212.987 -24.6914 215.345 -24.8764 218.501C-25.0614 221.657 -29.793 222.416 -31.7899 222.873C-32.0443 222.961 -32.2762 223.104 -32.4695 223.291C-32.6628 223.478 -32.8127 223.706 -32.9087 223.957C-34.6737 229.698 -44.8724 265.191 -47.3242 273.862C-47.4474 274.293 -47.6966 274.678 -48.0398 274.967C-48.383 275.256 -48.8047 275.435 -49.2507 275.483C-59.9959 276.809 -70.8963 275.042 -80.673 270.391C-95.2359 263.415 -98.5844 255.959 -100.105 252.778C-100.276 252.449 -100.346 252.077 -100.309 251.708C-100.272 251.339 -100.128 250.989 -99.8951 250.701Z" fill="#6A2D32"/>
<path d="M-27.4763 171.22C-27.9522 172.185 -28.2285 173.235 -28.2887 174.308C-28.3488 175.382 -28.1915 176.456 -27.8263 177.468L-27.7359 177.638C-26.4657 181.17 -19.4548 186.468 -16.78 188.218C-16.5124 188.415 -16.3256 188.702 -16.2544 189.026C-16.1832 189.35 -16.2326 189.689 -16.3932 189.979C-16.4583 190.136 -16.5549 190.277 -16.677 190.394C-16.7991 190.511 -16.944 190.601 -17.1028 190.66C-17.2615 190.718 -17.4306 190.743 -17.5995 190.733C-17.7683 190.723 -17.9333 190.679 -18.0841 190.602C-18.1493 190.582 -25.8823 187.633 -31.6822 190.705C-37.482 193.777 -39.879 201.109 -39.899 201.174C-40.0001 201.503 -40.2276 201.778 -40.5315 201.939C-40.8354 202.1 -41.1909 202.134 -41.5196 202.032L-41.5848 202.012C-41.7533 201.961 -41.9095 201.876 -42.0439 201.762C-42.1783 201.648 -42.2881 201.508 -42.3665 201.35C-42.445 201.192 -42.4905 201.02 -42.5002 200.844C-42.5099 200.668 -42.4837 200.492 -42.4231 200.327C-42.3229 200 -39.5999 191.841 -32.9471 188.317C-29.98 186.867 -26.6583 186.302 -23.3786 186.689C-25.8227 184.653 -28.4726 182.124 -29.8028 179.716C-31.5589 180.318 -34.8002 181.107 -37.5401 180.265C-38.1404 180.091 -38.7083 179.819 -39.2212 179.462C-40.2352 178.73 -41.1177 177.831 -41.8309 176.803C-41.7733 177.727 -41.9251 178.652 -42.2751 179.509C-42.6251 180.365 -43.1642 181.132 -43.8521 181.751C-44.8775 182.689 -46.0952 183.392 -47.4202 183.811C-48.7451 184.229 -50.1455 184.354 -51.5237 184.176L-51.9803 184.036C-54.1331 183.374 -58.725 179.963 -63.4953 163.43C-63.5515 163.265 -63.5734 163.089 -63.5598 162.914C-63.5462 162.74 -63.4974 162.57 -63.4163 162.415C-63.3353 162.259 -63.2236 162.122 -63.088 162.011C-62.9525 161.9 -62.7958 161.818 -62.6276 161.769C-62.453 161.718 -62.2698 161.701 -62.0888 161.721C-61.9078 161.741 -61.7326 161.797 -61.5736 161.886C-61.4146 161.975 -61.275 162.095 -61.163 162.238C-61.051 162.382 -60.9688 162.547 -60.9214 162.722C-57.07 175.973 -52.9544 181.166 -51.1329 181.512C-50.1674 181.615 -49.191 181.517 -48.2653 181.224C-47.3396 180.931 -46.4846 180.449 -45.7542 179.81C-45.3234 179.449 -44.9881 178.988 -44.7781 178.468C-44.5682 177.947 -44.49 177.382 -44.5506 176.824C-44.8423 173.592 -46.183 168.896 -47.3077 165.123L-47.3981 164.952C-48.4074 161.5 -49.3764 158.846 -49.3764 158.846C-49.4472 158.678 -49.4818 158.498 -49.4781 158.316C-49.4744 158.134 -49.4324 157.954 -49.3548 157.79C-49.2772 157.625 -49.1658 157.478 -49.0278 157.359C-48.8898 157.241 -48.7283 157.152 -48.5538 157.1C-48.392 157.029 -48.2166 156.993 -48.0398 156.996C-47.8629 156.998 -47.6887 157.039 -47.5291 157.115C-47.3695 157.192 -47.2282 157.301 -47.1149 157.437C-47.0016 157.573 -46.919 157.732 -46.8727 157.902C-46.7372 158.158 -45.723 160.898 -44.6886 164.5C-43.6542 168.103 -40.7475 175.137 -37.6762 177.224C-35.9197 178.478 -32.7185 177.82 -30.7266 177.147C-31.3872 174.668 -31.0377 172.028 -29.7547 169.806C-29.3208 169.072 -28.7583 168.423 -28.0942 167.889L-28.1696 167.437C-30.2343 155.806 -30.8271 152.625 -36.3728 147.207C-36.3378 146.861 -36.1273 145.712 -35.8868 144.001C-28.4741 150.778 -27.791 154.13 -25.5355 166.533L-24.3764 166.247C-19.108 165.368 -9.49819 169.179 -0.770539 177.718C-1.09146 178.762 -1.39232 179.74 -1.73836 180.633C-10.5013 171.513 -19.86 168.278 -23.9243 168.957C-24.6471 169.047 -25.3408 169.297 -25.9551 169.689C-26.5695 170.08 -27.0891 170.603 -27.4763 171.22Z" fill="black"/>
<path d="M235.118 348.493L232.921 349.602C227.582 352.102 213.067 358.207 195.435 359.354L192.565 359.4C186.76 359.353 180.968 358.861 175.238 357.929C173.187 363.439 170.8 369.345 167.816 375.568L10.991 327.35C11.9268 321.036 13.1849 314.773 14.7604 308.588C9.47799 306.128 4.38838 303.275 -0.465266 300.051L-2.74868 298.42C-16.6903 287.565 -25.3336 274.34 -28.3453 269.273L-29.54 267.12C-29.54 267.12 -14.7804 254.879 2.27694 240.274C8.87911 234.592 21.6422 224.664 29.3993 223.122C41.6923 220.761 60.7255 225.042 122.373 243.996L122.438 244.017C184.15 262.991 202.236 270.122 211.079 278.982C216.695 284.635 221.61 299.999 223.945 308.428C229.851 330.094 235.118 348.493 235.118 348.493Z" fill="url(#paint5_linear_22138_128582)"/>
<path d="M175.648 357.982C178.958 348.146 181.816 338.386 181.876 338.191C181.981 337.882 182.188 337.618 182.463 337.443C182.549 337.398 188.89 333.492 191.78 329.668C191.88 329.522 192.01 329.398 192.16 329.304C192.311 329.21 192.479 329.148 192.654 329.122C192.83 329.096 193.009 329.106 193.18 329.151C193.352 329.197 193.512 329.277 193.651 329.387C193.797 329.488 193.921 329.617 194.015 329.768C194.109 329.918 194.171 330.086 194.197 330.262C194.224 330.437 194.214 330.616 194.168 330.788C194.123 330.959 194.042 331.119 193.932 331.258C191.234 334.927 185.941 338.441 184.345 339.449C183.703 341.537 181.221 349.842 178.398 358.327L175.648 357.982ZM20.224 287.56C20.1788 287.475 17.1266 280.682 16.95 275.915C16.9423 275.733 16.8983 275.554 16.8205 275.39C16.7428 275.225 16.6328 275.077 16.4972 274.956C16.3616 274.834 16.203 274.741 16.0308 274.682C15.8586 274.623 15.6763 274.598 15.4946 274.611C15.3172 274.612 15.1419 274.649 14.9797 274.721C14.8174 274.793 14.6716 274.897 14.5512 275.027C14.4308 275.158 14.3384 275.311 14.2798 275.479C14.2212 275.646 14.1975 275.824 14.2103 276.001C14.4471 280.572 16.7866 286.432 17.5396 288.163C16.8978 290.251 14.1348 298.54 11.7883 307.101L14.2773 308.295C17.025 298.429 20.2293 288.704 20.2694 288.574C20.3303 288.411 20.3577 288.237 20.3499 288.063C20.3421 287.888 20.2993 287.718 20.224 287.56Z" fill="black"/>
<path d="M197.13 259.558C194.295 257.401 189.222 255.556 189.222 255.556C190.264 248.451 191.426 240.026 189.599 238.536C187.773 237.046 160.267 223.162 131.564 214.337C102.861 205.512 72.6278 201.429 69.8932 201.731C67.1586 202.032 63.8384 209.58 60.6435 216.023C60.6435 216.023 55.4097 214.7 51.9174 214.911C48.4251 215.122 46.6248 220.281 47.7817 233.703C48.8128 245.445 47.5918 261.492 55.5279 275.856C75.5313 312.281 88.2351 331.11 95.0196 333.196C101.804 335.281 122.827 326.822 159.839 307.927C174.539 300.523 182.544 286.562 189.994 277.428C198.492 266.974 200.493 262.092 197.13 259.558Z" fill="#FF6666"/>
<path d="M90.9383 237.548C91.1051 237.232 91.3893 236.994 91.7299 236.885C92.0705 236.776 92.4402 236.805 92.7596 236.966C97.1907 239.042 100.588 242.157 103.83 245.082C108.663 249.567 113.231 253.756 121.495 255.44C129.76 257.124 135.705 255.668 143.222 253.98C149.343 252.649 156.388 251.102 165.259 251.045C177.713 250.947 185.375 251.804 189.625 252.611C189.495 253.499 189.345 254.452 189.3 255.295C185.18 254.528 177.734 253.667 165.28 253.765C156.709 253.772 149.815 255.294 143.759 256.645C135.962 258.317 129.218 259.814 120.954 258.13L117.913 257.338C110.737 255.131 106.28 251.048 101.999 247.09C98.7573 244.165 95.6909 241.366 91.586 239.39C91.4211 239.313 91.2733 239.204 91.1512 239.069C91.029 238.934 90.935 238.777 90.8747 238.605C90.8144 238.434 90.7889 238.252 90.7998 238.07C90.8108 237.889 90.8578 237.711 90.9383 237.548ZM71.4504 242.409L62.632 231.844C57.1663 225.237 59.6084 217.99 60.5112 215.983L57.7563 215.422C56.638 218.362 54.492 226.271 60.5349 233.555L69.3985 244.206C78.9245 255.489 88.7618 267.153 94.6093 276.234C94.7846 276.509 95.0483 276.716 95.3571 276.821C95.7365 276.91 96.1353 276.854 96.476 276.666C96.7733 276.453 96.9831 276.14 97.0661 275.785C97.1492 275.429 97.0998 275.055 96.9272 274.734C90.9692 265.547 81.0868 253.798 71.4504 242.409ZM166.725 278.557C166.59 278.447 166.435 278.365 166.268 278.316C166.101 278.268 165.926 278.253 165.753 278.273C165.581 278.293 165.414 278.348 165.262 278.434C165.111 278.52 164.979 278.635 164.873 278.774C161.753 282.884 156.019 288.761 146.205 293.74C111.025 311.556 104.753 314.769 97.9114 301.955C97.8342 301.793 97.7241 301.648 97.5881 301.531C97.4522 301.413 97.2933 301.325 97.1215 301.272C96.9498 301.22 96.7689 301.203 96.5905 301.224C96.412 301.245 96.2398 301.302 96.0848 301.393C95.7829 301.575 95.5588 301.862 95.4551 302.199C95.3515 302.536 95.3758 302.9 95.5232 303.22C98.1184 308.016 100.733 310.891 104.191 311.954C111.693 314.26 123.277 308.397 147.385 296.174C157.711 290.923 163.761 284.715 167.006 280.429C167.116 280.29 167.197 280.129 167.242 279.958C167.288 279.787 167.298 279.608 167.271 279.432C167.245 279.257 167.183 279.089 167.089 278.938C166.995 278.788 166.871 278.658 166.725 278.557Z" fill="#CC2140"/>
<defs>
<linearGradient id="paint0_linear_22138_128582" x1="919.914" y1="245.097" x2="888.777" y2="144.739" gradientUnits="userSpaceOnUse">
<stop stop-color="#EB459F"/>
<stop offset="0.23" stop-color="#F154A7"/>
<stop offset="0.71" stop-color="#FB6EB4"/>
<stop offset="1" stop-color="#FF78B9"/>
</linearGradient>
<linearGradient id="paint1_linear_22138_128582" x1="1031.93" y1="282.826" x2="1030.93" y2="244.714" gradientUnits="userSpaceOnUse">
<stop stop-color="#EB459F"/>
<stop offset="0.42" stop-color="#F45CAB"/>
<stop offset="1" stop-color="#FF78B9"/>
</linearGradient>
<linearGradient id="paint2_linear_22138_128582" x1="1587.46" y1="841.967" x2="1587.14" y2="829.538" gradientUnits="userSpaceOnUse">
<stop stop-color="#EB459F"/>
<stop offset="0.42" stop-color="#F45CAB"/>
<stop offset="1" stop-color="#FF78B9"/>
</linearGradient>
<linearGradient id="paint3_linear_22138_128582" x1="180.427" y1="55.3962" x2="142.474" y2="178.834" gradientUnits="userSpaceOnUse">
<stop stop-color="#D18D5E"/>
<stop offset="0.31" stop-color="#CE8A5C"/>
<stop offset="0.56" stop-color="#C68057"/>
<stop offset="0.78" stop-color="#B8704D"/>
<stop offset="0.93" stop-color="#AA5F44"/>
</linearGradient>
<linearGradient id="paint4_linear_22138_128582" x1="123.054" y1="242.028" x2="168.201" y2="95.1905" gradientUnits="userSpaceOnUse">
<stop offset="0.36" stop-color="#D18D5E"/>
<stop offset="0.5" stop-color="#CC875A"/>
<stop offset="0.69" stop-color="#BC7450"/>
<stop offset="0.85" stop-color="#AA5F44"/>
</linearGradient>
<linearGradient id="paint5_linear_22138_128582" x1="118.794" y1="255.82" x2="81.8488" y2="375.983" gradientUnits="userSpaceOnUse">
<stop stop-color="#3F99F2"/>
<stop offset="0.25" stop-color="#2F88E9"/>
<stop offset="0.53" stop-color="#247BE2"/>
<stop offset="0.8" stop-color="#2077E0"/>
</linearGradient>
</defs>
</svg>
