<svg width="614" height="453" viewBox="0 0 614 453" fill="none" xmlns="http://www.w3.org/2000/svg">
<path d="M288.621 58.3259C287.47 58.3259 286.32 58.443 285.169 58.5015C280.716 49.661 274.629 41.8794 267.275 35.6287C259.922 29.3781 251.457 24.7889 242.393 22.1395C233.329 19.4902 223.856 18.836 214.549 20.2167C205.241 21.5974 196.293 24.9842 188.248 30.1715C180.353 18.6855 169.519 9.88188 157.05 4.82042C144.582 -0.241046 131.009 -1.34465 117.967 1.64244C104.925 4.62952 92.9686 11.58 83.5376 21.6572C74.1066 31.7344 67.6028 44.5089 64.809 58.4429C63.326 57.1784 61.7503 56.0431 60.0972 55.048C41.3594 43.4 16.9785 50.9507 5.69201 71.7885C-4.38911 90.3434 -0.663482 113.288 13.5816 126.283C5.80158 131.609 0.815819 139.745 0.815819 148.876C0.815819 164.914 16.1567 177.909 35.1683 177.909C41.8214 177.955 48.3846 176.267 54.2896 172.992C60.6659 186.987 71.011 198.477 83.853 205.827C96.6951 213.178 111.38 216.014 125.818 213.933C140.256 211.851 153.712 204.958 164.271 194.235C174.831 183.511 181.955 169.503 184.632 154.203C198.567 164.561 215.582 169.081 232.435 166.901C249.288 164.72 264.802 155.992 276.019 142.379C282.079 144.519 288.527 145.092 294.834 144.051C301.141 143.01 307.127 140.384 312.299 136.39C317.471 132.396 321.682 127.147 324.585 121.075C327.489 115.004 329.002 108.283 329 101.465C329 90.0236 324.746 79.0511 317.173 70.961C309.601 62.8709 299.33 58.3259 288.621 58.3259Z" fill="white" fill-opacity="0.07"/>
<path d="M75.3583 161.129C77.5055 161.129 79.6528 161.348 81.8 161.457C90.11 144.964 101.471 130.446 115.194 118.784C128.917 107.122 144.716 98.5604 161.631 93.6176C178.546 88.6748 196.226 87.4544 213.596 90.0303C230.967 92.6062 247.666 98.9248 262.68 108.603C277.414 87.1734 297.633 70.7488 320.903 61.3058C344.173 51.8628 369.503 49.8038 393.843 55.3767C418.183 60.9497 440.496 73.9169 458.097 92.7177C475.698 111.519 487.836 135.351 493.049 161.348C495.817 158.989 498.758 156.871 501.843 155.014C536.812 133.283 582.314 147.37 603.377 186.246C622.191 220.864 615.238 263.671 588.653 287.915C603.173 297.852 612.477 313.031 612.477 330.067C612.477 359.989 583.847 384.232 548.367 384.232C535.95 384.318 523.702 381.169 512.681 375.059C500.782 401.168 481.475 422.605 457.508 436.318C433.542 450.032 406.136 455.323 379.191 451.44C352.245 447.557 327.133 434.698 307.427 414.691C287.72 394.684 274.424 368.549 269.429 340.005C243.422 359.33 211.668 367.762 180.215 363.694C148.763 359.626 119.811 343.342 98.8758 317.946C87.5674 321.938 75.5332 323.007 63.7627 321.064C51.9922 319.121 40.8215 314.223 31.169 306.771C21.5165 299.319 13.658 289.527 8.23938 278.199C2.8208 266.872 -0.0030474 254.333 3.21975e-05 241.612C3.21975e-05 220.267 7.93955 199.796 22.072 184.702C36.2044 169.609 55.372 161.129 75.3583 161.129Z" fill="#6C79FF"/>
</svg>
