<svg width="497" height="444" viewBox="0 0 497 444" fill="none" xmlns="http://www.w3.org/2000/svg">
<path d="M130.516 67.3214C131.841 67.3214 133.167 67.4565 134.492 67.5241C139.622 57.3202 146.635 48.3384 155.105 41.1237C163.576 33.9091 173.328 28.612 183.769 25.5541C194.21 22.4962 205.123 21.7411 215.845 23.3347C226.567 24.9284 236.875 28.8375 246.143 34.8248C255.238 21.5673 267.718 11.406 282.082 5.56386C296.445 -0.278223 312.081 -1.55203 327.105 1.89575C342.129 5.34353 355.902 13.3659 366.767 24.9974C377.631 36.6288 385.123 51.3735 388.342 67.4565C390.05 65.997 391.865 64.6866 393.77 63.538C415.355 50.0935 443.441 58.8088 456.443 82.8603C468.056 104.277 463.764 130.761 447.354 145.759C456.317 151.907 462.06 161.298 462.06 171.837C462.06 190.349 444.388 205.348 422.487 205.348C414.823 205.4 407.262 203.452 400.46 199.672C393.114 215.826 381.197 229.088 366.403 237.572C351.61 246.056 334.693 249.329 318.061 246.927C301.428 244.525 285.927 236.569 273.763 224.191C261.599 211.814 253.392 195.645 250.309 177.986C234.256 189.942 214.655 195.158 195.24 192.641C175.826 190.125 157.955 180.05 145.032 164.338C138.052 166.808 130.624 167.469 123.358 166.268C116.093 165.066 109.198 162.035 103.239 157.425C97.2813 152.815 92.4305 146.757 89.0858 139.749C85.7412 132.741 83.9981 124.983 84 117.114C84 103.908 88.9008 91.243 97.6242 81.9052C106.348 72.5674 118.179 67.3214 130.516 67.3214Z" fill="white" fill-opacity="0.06"/>
<path d="M60.9985 205.95C62.7366 205.95 64.4746 206.127 66.2127 206.216C72.9392 192.802 82.1355 180.994 93.2436 171.509C104.352 162.024 117.14 155.06 130.832 151.04C144.524 147.02 158.834 146.027 172.895 148.122C186.955 150.218 200.472 155.357 212.626 163.228C224.552 145.799 240.918 132.44 259.754 124.76C278.589 117.08 299.092 115.405 318.795 119.938C338.497 124.47 356.558 135.017 370.805 150.308C385.052 165.6 394.877 184.984 399.097 206.127C401.337 204.209 403.718 202.486 406.215 200.976C434.521 183.301 471.352 194.759 488.401 226.378C503.63 254.534 498.002 289.351 476.483 309.068C488.236 317.151 495.768 329.497 495.768 343.352C495.768 367.689 472.593 387.406 443.873 387.406C433.823 387.476 423.908 384.915 414.988 379.946C405.356 401.182 389.728 418.617 370.328 429.77C350.929 440.924 328.745 445.227 306.935 442.069C285.124 438.911 264.797 428.452 248.845 412.18C232.894 395.907 222.131 374.651 218.088 351.435C197.037 367.153 171.334 374.011 145.875 370.702C120.416 367.394 96.9806 354.15 80.0346 333.493C70.8811 336.741 61.1401 337.61 51.6125 336.03C42.0849 334.45 33.0428 330.466 25.2296 324.405C17.4165 318.344 11.0554 310.38 6.66931 301.167C2.28326 291.954 -0.00249277 281.755 0 271.409C0 254.048 6.42663 237.398 17.8661 225.122C29.3055 212.846 44.8207 205.95 60.9985 205.95Z" fill="#6C79FF"/>
</svg>
