<svg width="238" height="263" viewBox="0 0 238 263" fill="none" xmlns="http://www.w3.org/2000/svg">
<path d="M202.471 154.459L122.606 175.293C122.606 175.293 91.2508 170.055 64.1306 167.202C49.7938 165.6 44.2153 166.997 42.6516 172.767C42.1028 174.859 43.1416 177.41 44.2216 179.709C45.3016 182.007 44.7811 182.651 43.0488 184.036C41.3165 185.421 29.8487 192.991 34.4831 202.806C36.5747 207.185 42.3218 210.172 49.2617 209.666C60.4517 208.901 67.7766 205.394 72.731 206.233C77.6854 207.071 101.621 213.207 128.403 222.284C128.403 222.284 150.694 265.114 165.152 282.87L271.934 249.242C247.731 208.408 202.471 154.459 202.471 154.459Z" fill="url(#paint0_linear_23642_19326)"/>
<path d="M229.892 209.108L267.133 198.321C267.133 198.321 289.374 191.142 314.421 180.291C327.708 174.636 331.882 170.678 330.404 164.89C329.852 162.8 327.69 161.092 325.616 159.623C323.543 158.154 323.679 157.339 324.507 155.282C325.335 153.225 331.604 141.003 322.73 134.743C318.75 131.963 312.268 132.189 306.468 136.042C297.091 142.209 292.432 148.86 287.7 150.567C282.969 152.273 266.752 155.024 238.936 160.295C238.936 160.295 209.846 148.172 188.498 139.835L182.352 197.593C223.562 221.214 229.892 209.108 229.892 209.108Z" fill="url(#paint1_linear_23642_19326)"/>
<path d="M119.654 179.059L194.858 156.232C186.525 172.628 165.98 186.878 146.721 189.106C127.463 191.334 119.654 179.059 119.654 179.059Z" fill="#3D58D9"/>
<path d="M163.359 78.5944C164.262 77.1683 164.855 75.5697 165.1 73.9025C165.345 72.2353 165.236 70.5365 164.781 68.9165C163.142 63.6787 157.801 60.4455 151.528 60.3829C149.656 60.3436 147.789 60.6075 146 61.1644L145.452 61.3368C137.022 63.9909 134.666 69.5278 130.118 77.6724C126.925 83.0271 123.283 88.1036 119.232 92.8475L163.359 78.5944Z" fill="#55F186"/>
<path d="M139.396 86.6283C143.734 81.848 146.97 76.1776 148.872 70.0191C150.775 63.8605 151.298 57.3647 150.404 50.9922" stroke="#008D3C" stroke-width="4.47458" stroke-linecap="round" stroke-linejoin="round"/>
<path d="M147.418 84.052L113.679 95.0369C101.798 95.9 93.2061 89.9704 90.7894 79.9372C88.9733 72.5933 93.8849 64.4499 102.79 61.7655C111.695 59.081 119.507 64.0567 125.513 68.6419C138.996 78.6683 147.418 84.052 147.418 84.052Z" fill="#26CB7A"/>
<path d="M105.897 76.2915C110.734 83.2888 120.502 90.6536 135.894 94.447" stroke="#008D3C" stroke-width="4.47458" stroke-linecap="round" stroke-linejoin="round"/>
<path d="M70.2626 131.453C74.1419 129.992 77.1782 128.916 81.2357 127.638C81.6823 127.497 82.1657 127.53 82.5871 127.732C83.0085 127.934 83.3362 128.29 83.5032 128.725L96.8065 171.239C96.9516 171.702 96.9059 172.205 96.6795 172.637C96.4531 173.068 96.0644 173.393 95.5991 173.54C91.6513 174.782 88.5466 175.64 84.3866 176.589C81.0599 177.448 77.5388 177.08 74.4712 175.553C71.4037 174.026 68.9962 171.443 67.6918 168.279C65.0942 161.58 62.9822 154.702 61.3722 147.698C60.649 144.383 61.1501 140.915 62.7833 137.93C64.4166 134.946 67.0724 132.646 70.2626 131.453Z" fill="#698EFF"/>
<path d="M74.7028 137.984L82.6039 135.136C83.2455 134.9 83.9526 134.921 84.5771 135.195C85.2016 135.468 85.6948 135.973 85.9533 136.602L93.0653 159.332C93.1855 160.006 93.038 160.701 92.6541 161.27C92.2701 161.839 91.6798 162.238 91.0082 162.381C86.9515 163.658 85.9306 163.86 82.9019 164.573C79.8732 165.287 76.4071 164.217 75.2918 161.807C72.9579 156.274 71.1603 150.529 69.9235 144.65C69.466 142.034 71.4819 139.238 74.7028 137.984Z" fill="#B7CCFF"/>
<path d="M217.339 105.139C215.218 97.7312 212.369 90.5538 208.831 83.7112C206.23 78.6453 202.112 74.5181 197.047 71.9013C191.982 69.2846 186.221 68.3079 180.563 69.1065C170.817 70.2567 148.127 76.5627 132.467 81.4946C116.806 86.4264 94.485 94.2954 85.9417 98.9048C75.3105 104.532 69.3982 115.628 71.0613 127.098C72.014 134.75 73.7266 142.286 76.1739 149.595C78.3167 156.959 81.192 164.089 84.7568 170.878C89.9243 181.244 101.096 186.961 113.059 185.592C122.696 184.477 145.495 178.136 161.155 173.204C176.816 168.272 199.028 160.438 207.68 155.794C212.77 153.167 216.927 149.039 219.585 143.973C222.242 138.906 223.27 133.15 222.527 127.492C221.544 119.885 219.806 112.397 217.339 105.139Z" fill="#698EFF"/>
<path d="M147.163 145.674L125.696 152.435C115.181 155.746 106.505 152.241 102.395 145.259C98.2859 138.276 97.214 133.696 95.4872 125.483C93.7604 117.271 98.1286 114.696 103.714 112.936L140.077 101.485C142.808 100.625 145.765 100.881 148.298 102.198C150.831 103.515 152.732 105.784 153.584 108.506L158.058 122.811C161.645 134.276 157.753 142.219 147.163 145.674Z" fill="#B7CCFF"/>
<path d="M116.985 135.263L112.386 136.712C111.34 137.041 110.467 137.771 109.958 138.741C109.449 139.71 109.347 140.841 109.673 141.883C109.999 142.925 110.727 143.794 111.697 144.298C112.667 144.803 113.799 144.901 114.845 144.572L119.444 143.123C120.013 142.993 120.551 142.75 121.025 142.408C121.5 142.067 121.901 141.634 122.205 141.136C122.509 140.637 122.71 140.084 122.796 139.507C122.881 138.93 122.85 138.343 122.704 137.779C122.503 137.233 122.194 136.733 121.795 136.309C121.396 135.885 120.916 135.546 120.383 135.311C119.849 135.077 119.274 134.951 118.69 134.943C118.106 134.935 117.527 135.044 116.985 135.263Z" fill="#698EFF"/>
<path d="M138.61 128.349L134.011 129.797C132.876 130.121 131.907 130.868 131.306 131.883C130.705 132.898 130.519 134.104 130.785 135.25C131.216 136.334 132.057 137.204 133.126 137.675C134.195 138.145 135.408 138.178 136.504 137.766L141.103 136.318C141.673 136.171 142.209 135.913 142.68 135.559C143.151 135.205 143.548 134.762 143.847 134.256C144.147 133.749 144.344 133.189 144.427 132.607C144.509 132.025 144.476 131.433 144.329 130.865C144.128 130.319 143.819 129.819 143.42 129.395C143.021 128.971 142.541 128.632 142.008 128.397C141.474 128.162 140.899 128.037 140.315 128.029C139.731 128.021 139.152 128.13 138.61 128.349Z" fill="#698EFF"/>
<path d="M168.418 114.284C165.029 115.351 161.425 113.477 160.368 110.099C159.312 106.721 161.202 103.117 164.591 102.05C167.979 100.982 171.583 102.856 172.64 106.234C173.697 109.613 171.807 113.216 168.418 114.284Z" fill="black"/>
<path d="M89.0116 139.221C85.6229 140.288 82.0191 138.415 80.9623 135.036C79.9054 131.658 81.7958 128.054 85.1845 126.987C88.5732 125.92 92.177 127.793 93.2339 131.172C94.2907 134.55 92.4003 138.154 89.0116 139.221Z" fill="black"/>
<path d="M176.578 154.014C174.881 155.127 172.977 155.887 170.981 156.248C168.985 156.608 166.938 156.562 164.963 156.113C161.384 155.441 158.771 153.625 158.416 151.338C158.062 149.051 173.851 135.683 178.313 135.717C179.873 135.705 181.228 136.958 182.096 138.963C182.978 141.721 182.915 144.697 181.916 147.423C180.917 150.148 179.039 152.467 176.578 154.014Z" fill="#E9459D"/>
<path d="M215.188 85.9354C211.062 86.9942 207.957 87.8515 204.009 89.0944C203.562 89.2342 203.185 89.5389 202.954 89.9462C202.723 90.3535 202.657 90.8327 202.768 91.2861L216.071 133.8C216.216 134.263 216.54 134.65 216.972 134.874C217.404 135.099 217.907 135.142 218.373 134.996C222.321 133.753 225.357 132.677 229.202 131.106C232.409 129.905 235.074 127.585 236.702 124.577C238.331 121.57 238.813 118.078 238.058 114.752C236.467 107.741 234.317 100.871 231.629 94.2055C230.343 91.0873 227.975 88.5375 224.958 87.0198C221.941 85.5021 218.474 85.1173 215.188 85.9354Z" fill="#698EFF"/>
<path d="M215.263 93.838L207.157 96.0302C206.496 96.2046 205.928 96.6273 205.571 97.2096C205.215 97.7919 205.097 98.4886 205.244 99.1536L212.356 121.884C212.641 122.505 213.158 122.991 213.797 123.238C214.437 123.485 215.148 123.473 215.781 123.206C219.837 121.929 220.79 121.509 223.682 120.358C226.574 119.208 228.809 116.343 228.351 113.726C227.132 107.841 225.296 102.102 222.874 96.6039C221.758 94.194 218.621 93.021 215.263 93.838Z" fill="#B7CCFF"/>
<path d="M248.066 203.306L224.688 198.557" stroke="#3D58D9" stroke-width="4.47458" stroke-miterlimit="10" stroke-linecap="round"/>
<path d="M176.58 154.01C174.883 155.123 172.979 155.883 170.983 156.244C168.988 156.604 166.941 156.558 164.966 156.109C166.966 151.746 169.903 147.873 173.567 144.765C176.094 142.403 178.972 140.445 182.097 138.961C182.98 141.719 182.917 144.695 181.918 147.42C180.919 150.144 179.041 152.463 176.58 154.01Z" fill="#FFADD6"/>
<defs>
<linearGradient id="paint0_linear_23642_19326" x1="193.928" y1="211.148" x2="35.535" y2="190.107" gradientUnits="userSpaceOnUse">
<stop offset="0.09" stop-color="#698EFF"/>
<stop offset="1" stop-color="#4970DE"/>
</linearGradient>
<linearGradient id="paint1_linear_23642_19326" x1="187.302" y1="202.201" x2="335.661" y2="142.438" gradientUnits="userSpaceOnUse">
<stop offset="0.09" stop-color="#698EFF"/>
<stop offset="1" stop-color="#4970DE"/>
</linearGradient>
</defs>
</svg>
