<svg width="642" height="482" viewBox="0 0 642 482" fill="none" xmlns="http://www.w3.org/2000/svg">
<path d="M617.946 190.415C616.929 190.415 615.913 190.511 614.896 190.559C610.961 183.31 605.581 176.93 599.083 171.805C592.584 166.681 585.103 162.918 577.093 160.746C569.083 158.574 560.712 158.037 552.486 159.169C544.261 160.301 536.353 163.078 529.243 167.331C522.267 157.914 512.692 150.696 501.673 146.546C490.654 142.396 478.66 141.491 467.134 143.94C455.608 146.389 445.042 152.088 436.708 160.35C428.373 168.612 422.626 179.086 420.157 190.511C418.846 189.474 417.454 188.543 415.993 187.727C399.433 178.177 377.887 184.368 367.913 201.452C359.004 216.665 362.296 235.478 374.885 246.132C368.01 250.499 363.604 257.169 363.604 264.656C363.604 277.805 377.161 288.459 393.962 288.459C399.842 288.497 405.642 287.113 410.86 284.428C416.495 295.902 425.638 305.323 436.986 311.349C448.335 317.376 461.313 319.701 474.072 317.995C486.832 316.288 498.723 310.637 508.055 301.845C517.386 293.053 523.683 281.567 526.048 269.023C538.363 277.516 553.399 281.222 568.293 279.434C583.187 277.646 596.896 270.49 606.81 259.329C612.165 261.084 617.863 261.553 623.437 260.7C629.011 259.846 634.3 257.693 638.871 254.418C643.442 251.143 647.163 246.84 649.729 241.862C652.295 236.884 653.632 231.374 653.631 225.784C653.631 216.403 649.871 207.407 643.179 200.774C636.487 194.141 627.41 190.415 617.946 190.415Z" fill="white" fill-opacity="0.25"/>
<path d="M299.986 88.9438C298.79 88.9438 297.594 89.0571 296.399 89.1138C291.771 80.5562 285.444 73.0236 277.802 66.973C270.16 60.9224 261.363 56.48 251.943 53.9154C242.523 51.3509 232.678 50.7176 223.005 52.0542C213.332 53.3907 204.033 56.6691 195.671 61.6904C187.467 50.5719 176.207 42.05 163.249 37.1505C150.29 32.251 136.185 31.1828 122.631 34.0743C109.076 36.9657 96.6506 43.6938 86.8493 53.4485C77.048 63.2033 70.2887 75.5689 67.3852 89.0571C65.8439 87.833 64.2064 86.7341 62.4884 85.7708C43.0148 74.4955 17.6765 81.8046 5.94678 101.976C-4.53021 119.937 -0.658286 142.147 14.1462 154.726C6.06065 159.882 0.879105 167.758 0.879105 176.597C0.879105 192.121 16.8224 204.7 36.5806 204.7C43.4949 204.744 50.3159 203.111 56.4527 199.941C63.0794 213.487 73.8308 224.61 87.1771 231.725C100.523 238.84 115.785 241.586 130.79 239.571C145.795 237.556 159.779 230.884 170.753 220.503C181.727 210.123 189.132 196.563 191.913 181.753C206.396 191.78 224.079 196.155 241.594 194.044C259.109 191.933 275.231 183.484 286.89 170.307C293.187 172.379 299.888 172.933 306.443 171.925C312.998 170.917 319.218 168.376 324.594 164.509C329.969 160.643 334.345 155.562 337.362 149.685C340.38 143.808 341.952 137.302 341.951 130.702C341.951 119.627 337.529 109.006 329.659 101.175C321.79 93.3433 311.116 88.9438 299.986 88.9438Z" fill="white" fill-opacity="0.25"/>
<g clip-path="url(#clip0_25438_24587)">
<path d="M440.471 46.6875H113.562V282.999H440.471V46.6875Z" fill="#FFE75C"/>
<path d="M108.439 367.324C112.406 372.911 101.929 400.297 84.4619 412.654C74.5556 419.665 60.5289 416.904 53.143 406.454C45.7571 396.025 47.7953 381.872 57.7017 374.861C75.1912 362.482 104.494 361.715 108.461 367.302L108.439 367.324ZM296.747 460.284C294.051 455.837 284.693 411.383 269.285 371.224C288.703 316.999 276.934 256.048 276.934 256.048L196.018 208.352L151.461 252.126C135.506 280.17 124.832 315.312 123.737 348.394C122.027 399.618 144.514 449.439 146.552 462.146C148.612 474.832 150.343 481.996 156.129 481.996H188.939C198.976 481.996 200.248 467.646 200.554 447.314C200.861 426.873 193.059 381.981 193.059 381.981C193.059 381.981 198.429 384.983 203.754 386.516C203.754 386.516 223.479 435.834 241.473 465.608C248.377 477.045 252.278 481.996 261.636 481.996H291.947C299.574 481.996 305.842 475.314 296.769 460.306L296.747 460.284Z" fill="url(#paint0_linear_25438_24587)"/>
<path d="M208.601 214.356L97.5707 171.195L96.5625 224.982C96.5625 224.982 123.827 246.256 155.759 259.226L208.579 214.356H208.601Z" fill="#6990FF"/>
<path d="M266.373 244.68C266.373 244.68 295.194 259.425 312.924 286.57L261.617 289.484L266.373 244.68Z" fill="#6990FF"/>
<path d="M382.595 225.683C368.284 259.225 356.01 253.858 334.992 244.656L349.304 211.113L363.615 177.57C384.633 186.772 396.907 192.14 382.617 225.683H382.595Z" fill="#4970DE"/>
<path d="M368.129 212.519C361.445 227.789 358.837 227.307 344.547 221.063L351.473 205.223L358.398 189.383C372.688 195.627 374.792 197.226 368.107 212.497L368.129 212.519Z" fill="#B7CCFF"/>
<path d="M190.889 211.445C190.889 211.445 206.034 241.811 229.462 254.891C248.53 265.539 269.811 259.777 274.019 251.561L190.867 211.445H190.889Z" fill="#4970DE"/>
<path d="M251.752 97.1271C251.752 97.1271 250.13 76.2259 269.526 77.2556C281.778 77.9129 294.073 85.9097 297.383 108.016L280.025 113.011L251.752 97.1271Z" fill="#57F287"/>
<path d="M280.174 113.183C279.451 113.183 278.728 112.942 278.114 112.46C264.394 101.483 272.569 70.7667 273.555 67.3051C274.037 65.5524 275.857 64.5446 277.61 65.0266C279.363 65.5086 280.371 67.327 279.889 69.0798C277.566 77.3395 273.468 100.3 282.234 107.311C283.659 108.45 283.878 110.51 282.738 111.934C282.081 112.745 281.138 113.161 280.174 113.161V113.183Z" fill="#008D3C"/>
<path d="M288.641 105.011C297.868 108.604 314.174 83.8685 334.688 90.2879C356.889 97.255 349.722 120.961 333.877 128.563C323.269 133.646 288.641 105.011 288.641 105.011Z" fill="#29CC7A"/>
<path d="M301.79 122.057C298.743 122.057 295.522 121.728 292.125 120.983C290.349 120.589 289.232 118.836 289.626 117.061C290.021 115.287 291.752 114.169 293.549 114.564C315.093 119.296 328.725 104.025 329.295 103.368C330.479 102.01 332.561 101.856 333.942 103.039C335.3 104.223 335.454 106.304 334.27 107.662C333.7 108.341 321.581 122.057 301.79 122.057Z" fill="#008D3C"/>
<path d="M299.53 109.371C232.597 80.0786 206.648 76.5074 180.698 135.728C154.749 194.948 174.978 211.599 241.911 240.891C308.845 270.184 334.794 273.755 360.744 214.535C386.693 155.314 366.464 138.663 299.53 109.371Z" fill="#6990FF"/>
<path d="M230.272 132.992C234.327 132.992 237.614 129.706 237.614 125.652C237.614 121.599 234.327 118.312 230.272 118.312C226.217 118.312 222.93 121.599 222.93 125.652C222.93 129.706 226.217 132.992 230.272 132.992Z" fill="#231F20"/>
<path d="M354.975 187.57C359.03 187.57 362.317 184.284 362.317 180.23C362.317 176.177 359.03 172.891 354.975 172.891C350.92 172.891 347.633 176.177 347.633 180.23C347.633 184.284 350.92 187.57 354.975 187.57Z" fill="#231F20"/>
<path d="M348.977 165.133C354.478 150.234 346.149 139.565 310.863 124.097C275.578 108.629 262.077 109.768 254.844 123.922C246.165 140.945 239.963 161.255 243.185 171.311C246.867 182.813 260.389 190.985 278.142 198.763C295.894 206.541 311.105 210.923 322.041 205.818C331.619 201.348 342.358 183.032 348.977 165.111V165.133Z" fill="#B7CCFF"/>
<path d="M324.01 171.949L314.016 167.567C310.444 166.012 306.28 167.633 304.724 171.204C303.168 174.775 304.789 178.938 308.362 180.494L318.356 184.875C321.928 186.431 326.092 184.81 327.649 181.239C329.205 177.667 327.583 173.505 324.01 171.949Z" fill="#6990FF"/>
<path d="M283.206 154.09L273.212 149.708C269.639 148.152 265.475 149.774 263.919 153.345C262.363 156.916 263.985 161.079 267.557 162.634L277.551 167.016C281.124 168.572 285.288 166.95 286.844 163.379C288.4 159.808 286.778 155.645 283.206 154.09Z" fill="#6990FF"/>
<path d="M152.797 125.098C138.485 158.641 150.78 164.03 171.798 173.21L186.11 139.667L200.422 106.125C179.404 96.9227 167.13 91.555 152.819 125.098H152.797Z" fill="#6990FF"/>
<path d="M171.621 126.521C164.936 141.792 167.04 143.391 181.33 149.636L188.256 133.795L195.181 117.955C180.892 111.711 178.284 111.229 171.599 126.5L171.621 126.521Z" fill="#B7CCFF"/>
<path d="M226.785 178.118C216.835 165.169 211.509 164.907 206.644 174.722C203.466 181.119 215.06 196.784 220.67 194.681C222.95 193.827 225.141 192.731 227.048 191.504C231.782 188.481 232.308 185.282 226.807 178.118H226.785Z" fill="#231F20"/>
<path d="M222.032 194.114C216.071 196.655 209.255 197.597 206.164 194.245C202.526 190.345 203.447 181.122 206.625 174.702C206.712 174.549 206.778 174.396 206.866 174.242C208.137 174.921 209.408 175.71 210.635 176.586C217.78 181.669 221.944 188.461 222.032 194.114Z" fill="#FF78B9"/>
<path d="M436.75 38.4907H113.041C99.8251 38.4907 89.0859 49.2042 89.0859 62.4373V331.722C89.0859 344.933 99.8032 355.669 113.041 355.669H436.728C449.944 355.669 460.683 350.936 460.683 337.725V62.4154C460.683 49.2042 449.966 38.4688 436.728 38.4688L436.75 38.4907ZM426.559 59.2386V268.909C426.559 271.121 424.762 272.896 422.57 272.896H127.243C125.029 272.896 123.254 271.099 123.254 268.909V59.2386C123.254 57.0258 125.051 55.2511 127.243 55.2511H422.57C424.784 55.2511 426.559 57.0477 426.559 59.2386Z" fill="#302C5D"/>
<path d="M89.1052 220.662C89.1052 220.662 64.7558 199.826 65.6325 161.705C66.3338 131.098 93.905 112.935 107.537 135.216C118.759 153.554 102.891 179.867 89.1052 188.105V220.662Z" fill="#6990FF"/>
<path d="M219.315 286.852H154.88C151.248 286.852 148.305 289.794 148.305 293.424V335.073C148.305 338.704 151.248 341.646 154.88 341.646H219.315C222.946 341.646 225.89 338.704 225.89 335.073V293.424C225.89 289.794 222.946 286.852 219.315 286.852Z" fill="#474582"/>
<path d="M187.098 332.2C197.012 332.2 205.048 324.166 205.048 314.256C205.048 304.346 197.012 296.312 187.098 296.312C177.185 296.312 169.148 304.346 169.148 314.256C169.148 324.166 177.185 332.2 187.098 332.2Z" fill="#FF78B9"/>
<path d="M188.892 314.545C190.776 313.822 192.135 311.982 192.135 309.834C192.135 307.052 189.878 304.773 187.072 304.773C184.267 304.773 182.01 307.03 182.01 309.834C182.01 311.938 183.303 313.756 185.144 314.501C181.659 315.377 178.547 318.664 178.547 322.125H195.598C195.598 318.686 192.376 315.465 188.892 314.545Z" fill="white"/>
<path d="M307.112 286.852H242.677C239.045 286.852 236.102 289.794 236.102 293.424V335.073C236.102 338.704 239.045 341.646 242.677 341.646H307.112C310.743 341.646 313.687 338.704 313.687 335.073V293.424C313.687 289.794 310.743 286.852 307.112 286.852Z" fill="#474582"/>
<path d="M274.895 332.2C284.808 332.2 292.845 324.166 292.845 314.256C292.845 304.346 284.808 296.312 274.895 296.312C264.982 296.312 256.945 304.346 256.945 314.256C256.945 324.166 264.982 332.2 274.895 332.2Z" fill="#66BCFF"/>
<path d="M276.516 314.524C278.204 313.867 279.409 312.246 279.409 310.318C279.409 307.82 277.393 305.805 274.894 305.805C272.396 305.805 270.379 307.82 270.379 310.318C270.379 312.202 271.541 313.801 273.185 314.481C270.072 315.269 267.289 318.183 267.289 321.273H282.499C282.499 318.205 279.628 315.335 276.516 314.503V314.524Z" fill="white"/>
<path d="M394.932 286.852H330.497C326.866 286.852 323.922 289.794 323.922 293.424V335.073C323.922 338.704 326.866 341.646 330.497 341.646H394.932C398.563 341.646 401.507 338.704 401.507 335.073V293.424C401.507 289.794 398.563 286.852 394.932 286.852Z" fill="#474582"/>
<path d="M362.715 332.2C372.629 332.2 380.665 324.166 380.665 314.256C380.665 304.346 372.629 296.312 362.715 296.312C352.802 296.312 344.766 304.346 344.766 314.256C344.766 324.166 352.802 332.2 362.715 332.2Z" fill="#29CC7A"/>
<path d="M364.313 314.524C366 313.867 367.206 312.246 367.206 310.318C367.206 307.82 365.19 305.805 362.691 305.805C360.193 305.805 358.176 307.82 358.176 310.318C358.176 312.202 359.338 313.801 360.982 314.481C357.869 315.269 355.086 318.183 355.086 321.273H370.296C370.296 318.205 367.425 315.335 364.313 314.503V314.524Z" fill="white"/>
<path d="M292.117 355.646C315.042 379.877 355.632 380.162 372.245 372.801C393.197 363.489 390.238 341.032 371.127 337.111C345.177 331.787 330.91 355.646 330.91 355.646H292.117Z" fill="#6990FF"/>
<path d="M50.5544 49.0535C43.8698 44.8251 39.355 37.9018 38.1277 30.1022L36.0456 16.8033C35.936 16.1461 35.3662 15.6641 34.7087 15.6641C34.0512 15.6641 33.4813 16.1461 33.3937 16.8033L31.4869 30.1241C30.3692 37.9456 25.9201 44.9127 19.3012 49.2288L17.5918 50.3461C17.2192 50.631 17 51.0692 17 51.5073V51.595C17 52.0551 17.2411 52.4713 17.6137 52.7123L19.3451 53.8078C26.0297 58.0362 30.5445 64.9595 31.7718 72.7591L33.8539 86.058C33.9635 86.7152 34.5333 87.1972 35.1908 87.1972C35.8483 87.1972 36.4182 86.7152 36.5058 86.058L38.4126 72.7372C39.5303 64.9157 43.9794 57.9486 50.5982 53.6325L52.3078 52.5151C52.6803 52.2742 52.9214 51.836 52.9214 51.3759V51.2882C52.9214 50.8282 52.6803 50.4119 52.3078 50.1709L50.5763 49.0754L50.5544 49.0535Z" fill="#57F287"/>
<path d="M540.544 101.545C533.552 97.054 528.862 89.7583 527.613 81.5424L525.509 67.5644C525.399 66.8852 524.807 66.3594 524.128 66.3594C523.427 66.3594 522.835 66.8633 522.747 67.5644L520.643 81.5424C519.416 89.7583 514.704 97.0321 507.712 101.545L505.893 102.707C505.499 102.969 505.258 103.408 505.258 103.89V103.977C505.258 104.459 505.499 104.897 505.893 105.16L507.712 106.322C514.704 110.813 519.394 118.109 520.643 126.325L522.747 140.303C522.857 140.982 523.449 141.508 524.128 141.508C524.829 141.508 525.421 141.004 525.509 140.303L527.613 126.325C528.84 118.109 533.552 110.835 540.544 106.322L542.363 105.16C542.757 104.897 542.998 104.459 542.998 103.977V103.89C542.998 103.408 542.757 102.969 542.363 102.707L540.544 101.545Z" fill="#5865F2"/>
<path d="M503.75 24.4067C498.906 21.2956 495.64 16.2346 494.786 10.5383L493.339 0.832545C493.273 0.350545 492.857 0 492.375 0C491.893 0 491.476 0.350545 491.411 0.832545L489.964 10.5383C489.109 16.2346 485.844 21.2956 481 24.4067L479.751 25.2174C479.466 25.3926 479.312 25.6994 479.312 26.028V26.0937C479.312 26.4224 479.488 26.7291 479.751 26.9044L481 27.715C485.844 30.8261 489.109 35.8871 489.964 41.5835L491.411 51.2892C491.476 51.7712 491.893 52.1217 492.375 52.1217C492.857 52.1217 493.273 51.7712 493.339 51.2892L494.786 41.5835C495.64 35.8871 498.906 30.8261 503.75 27.715L504.999 26.9044C505.284 26.7291 505.437 26.4224 505.437 26.0937V26.028C505.437 25.6994 505.262 25.3926 504.999 25.2174L503.75 24.4067Z" fill="#FF78B9"/>
<path d="M398.266 125.255C394.65 122.932 392.217 119.164 391.581 114.914L390.507 107.684C390.464 107.333 390.157 107.07 389.784 107.07C389.433 107.07 389.127 107.333 389.061 107.684L387.987 114.914C387.351 119.164 384.919 122.932 381.302 125.255L380.36 125.868C380.163 126 380.031 126.241 380.031 126.482V126.526C380.031 126.767 380.163 127.008 380.36 127.139L381.302 127.752C384.919 130.075 387.351 133.843 387.987 138.094L389.061 145.324C389.105 145.674 389.412 145.937 389.784 145.937C390.135 145.937 390.442 145.674 390.507 145.324L391.581 138.094C392.217 133.843 394.65 130.075 398.266 127.752L399.208 127.139C399.406 127.008 399.537 126.767 399.537 126.526V126.482C399.537 126.241 399.406 126 399.208 125.868L398.266 125.255Z" fill="#FF8C19"/>
</g>
<defs>
<linearGradient id="paint0_linear_25438_24587" x1="189.903" y1="270.836" x2="176.587" y2="415.284" gradientUnits="userSpaceOnUse">
<stop offset="0.13" stop-color="#6990FF"/>
<stop offset="0.97" stop-color="#4970DE"/>
</linearGradient>
<clipPath id="clip0_25438_24587">
<rect width="526" height="482" fill="white" transform="translate(17)"/>
</clipPath>
</defs>
</svg>
