<svg width="584" height="504" viewBox="0 0 584 504" fill="none" xmlns="http://www.w3.org/2000/svg">
<path d="M552.332 312.128C551.436 312.128 550.54 312.212 549.644 312.255C546.178 305.869 541.438 300.249 535.713 295.734C529.988 291.219 523.398 287.905 516.341 285.991C509.284 284.077 501.909 283.605 494.663 284.602C487.416 285.599 480.45 288.046 474.186 291.792C468.04 283.496 459.605 277.138 449.897 273.482C440.19 269.826 429.623 269.029 419.469 271.186C409.315 273.344 400.006 278.364 392.664 285.643C385.321 292.921 380.257 302.148 378.082 312.212C376.928 311.299 375.701 310.479 374.414 309.76C359.826 301.347 340.844 306.801 332.057 321.852C324.208 335.254 327.108 351.826 338.199 361.212C332.142 365.059 328.26 370.936 328.26 377.531C328.26 389.115 340.204 398.501 355.005 398.501C360.185 398.534 365.295 397.315 369.892 394.949C374.857 405.058 382.911 413.357 392.909 418.666C402.907 423.975 414.34 426.023 425.581 424.52C436.822 423.017 447.298 418.038 455.519 410.293C463.74 402.547 469.287 392.429 471.371 381.378C482.22 388.86 495.467 392.124 508.588 390.55C521.709 388.975 533.787 382.671 542.521 372.838C547.238 374.384 552.259 374.798 557.169 374.046C562.079 373.293 566.739 371.397 570.766 368.512C574.793 365.627 578.071 361.836 580.332 357.451C582.592 353.065 583.77 348.211 583.769 343.286C583.769 335.023 580.457 327.097 574.561 321.254C568.666 315.411 560.669 312.128 552.332 312.128Z" fill="white" fill-opacity="0.2"/>
<path d="M310.122 222.738C309.069 222.738 308.015 222.838 306.962 222.888C302.885 215.349 297.311 208.713 290.579 203.383C283.846 198.053 276.096 194.139 267.797 191.88C259.499 189.62 250.825 189.063 242.303 190.24C233.782 191.417 225.589 194.306 218.223 198.729C210.995 188.934 201.075 181.427 189.659 177.111C178.243 172.794 165.816 171.853 153.875 174.401C141.934 176.948 130.987 182.875 122.352 191.468C113.718 200.062 107.763 210.955 105.205 222.838C103.847 221.76 102.404 220.791 100.891 219.943C83.735 210.01 61.4123 216.449 51.0787 234.218C41.8486 250.041 45.2597 269.608 58.3022 280.689C51.179 285.231 46.6141 292.169 46.6141 299.956C46.6141 313.633 60.6599 324.714 78.0666 324.714C84.158 324.753 90.1671 323.314 95.5736 320.521C101.412 332.455 110.883 342.253 122.641 348.521C134.399 354.789 147.844 357.208 161.063 355.433C174.283 353.658 186.603 347.781 196.271 338.636C205.938 329.491 212.462 317.545 214.912 304.498C227.671 313.332 243.249 317.186 258.68 315.326C274.11 313.467 288.314 306.024 298.585 294.416C304.132 296.24 310.036 296.729 315.811 295.841C321.585 294.953 327.066 292.714 331.801 289.308C336.537 285.902 340.392 281.426 343.05 276.248C345.709 271.071 347.094 265.339 347.093 259.525C347.093 249.769 343.198 240.412 336.264 233.513C329.331 226.614 319.927 222.738 310.122 222.738Z" fill="white" fill-opacity="0.2"/>
<g clip-path="url(#clip0_25439_24589)">
<g clip-path="url(#clip1_25439_24589)">
<path d="M104.439 243.525C104.439 233.235 96.6536 224.761 86.6351 223.565C84.7358 217.714 83.6919 211.46 83.6919 204.975C83.6919 171.57 110.935 144.477 144.557 144.477C178.179 144.477 205.422 171.555 205.422 204.975C205.422 238.394 178.179 265.473 144.557 265.473C128.739 265.473 114.327 259.464 103.497 249.621C104.106 247.704 104.454 245.658 104.454 243.525H104.439Z" fill="#8CD9FF"/>
<path d="M84.198 258.153C76.0706 258.153 69.482 251.604 69.482 243.526C69.482 235.447 76.0706 228.898 84.198 228.898C92.3255 228.898 98.9141 235.447 98.9141 243.526C98.9141 251.604 92.3255 258.153 84.198 258.153Z" fill="#57F287"/>
<path d="M137.383 153.125C128.582 136.019 102.862 116.693 84.4195 118.653C71.1534 120.066 74.14 131.739 83.8976 135.457C95.6124 139.924 104.921 141.092 129.554 157.722C134.106 160.806 137.383 153.111 137.383 153.111V153.125Z" fill="#FF78B9"/>
<path d="M134.945 154.469C129.566 144.035 116.155 132.463 105.745 128.053C94.7408 123.384 93.6969 130.215 101.352 134.495C108.021 138.228 117.025 142.522 131.857 155.982C134.336 158.23 134.945 154.469 134.945 154.469Z" fill="#FFAED7"/>
<path d="M155.118 146.041C155.466 126.831 141.968 97.7349 124.773 90.8175C112.406 85.8457 109.491 97.5332 116.335 105.387C124.541 114.812 132.196 120.202 146.028 146.43C148.58 151.287 155.118 146.027 155.118 146.027V146.041Z" fill="#FF78B9"/>
<path d="M152.323 146.097C152.54 134.381 146.19 117.88 139.115 109.118C131.619 99.8371 127.472 105.371 132.184 112.735C136.302 119.148 142.203 127.175 148.887 145.996C150.003 149.152 152.323 146.111 152.323 146.111V146.097Z" fill="#FFAED7"/>
<path d="M212.652 206.496C196.747 214.884 166.198 229.367 143.407 241.271C115.192 255.985 107.001 233.589 112.771 207.779C94.0825 197.201 80.7438 180.801 106.537 167.096C135.679 151.604 164.531 137.582 178.537 130.866C191.774 124.525 204.779 132.308 203.938 162.052C233.53 168.422 238.735 192.763 212.666 206.511L212.652 206.496Z" fill="#FF78B9"/>
<path d="M141.572 180.888C138.501 178.164 137.36 174.454 139.023 172.601C140.687 170.749 144.525 171.454 147.596 174.178C150.667 176.901 151.808 180.611 150.145 182.464C148.481 184.317 144.644 183.612 141.572 180.888Z" fill="black"/>
<path d="M166.635 167.677C163.564 164.953 162.423 161.243 164.086 159.391C165.749 157.538 169.587 158.243 172.658 160.967C175.729 163.691 176.87 167.401 175.207 169.253C173.544 171.106 169.706 170.401 166.635 167.677Z" fill="black"/>
<path d="M155.62 199.371C154.692 197.181 153.822 194.529 153.053 191.445C152.865 190.667 153.474 189.932 154.271 189.961C158.389 190.105 162.869 189.629 166.74 188.375C167.523 188.116 168.32 188.692 168.335 189.499C168.364 194.904 167.842 199.054 166.972 201.965L155.634 199.371H155.62Z" fill="black"/>
<path d="M166.969 201.962C164.591 209.816 159.589 208.736 155.631 199.368C159.632 199.022 163.46 199.671 166.969 201.962Z" fill="#EB459F"/>
<path d="M285.33 147.923C285.33 137.634 277.544 129.16 267.526 127.964C265.626 122.113 264.583 115.858 264.583 109.373C264.583 75.9681 291.825 48.875 325.448 48.875C359.07 48.875 386.312 75.9536 386.312 109.373C386.312 142.793 359.07 169.871 325.448 169.871C309.63 169.871 295.218 163.862 284.388 154.019C284.997 152.102 285.344 150.056 285.344 147.923H285.33Z" fill="#EB459E"/>
<path d="M265.089 162.552C256.961 162.552 250.373 156.003 250.373 147.924C250.373 139.846 256.961 133.297 265.089 133.297C273.216 133.297 279.805 139.846 279.805 147.924C279.805 156.003 273.216 162.552 265.089 162.552Z" fill="#57F287"/>
<path d="M382.591 66.842C399.917 64.493 414.909 64.0895 408.051 47.4878C401.106 30.6555 389.71 41.6657 376.908 51.0329L382.591 66.8564V66.842Z" fill="#242145"/>
<path d="M380.32 48.4957C382.741 51.7382 384.466 55.4131 385.235 59.5347C385.626 61.682 385.829 64.0022 385.843 66.4089C387.322 66.2215 388.758 66.0341 390.164 65.8468C390.092 63.6563 389.874 61.5523 389.512 59.5491C388.584 54.534 386.394 50.0954 383.35 46.2188C382.349 46.9537 381.334 47.7175 380.32 48.4957Z" fill="#EB459F"/>
<path d="M315.303 144.432C339.487 152.314 363.714 147.66 373.442 118.146C376.241 109.643 379.851 99.3533 382.461 89.1358C382.548 88.8043 382.634 88.4873 382.707 88.1558C385.259 77.823 386.738 67.6343 385.23 59.5352C385.157 59.1316 385.07 58.7425 384.983 58.339C381.127 41.6797 363.076 32.86 347.316 31.9953C344.75 31.8656 342.241 31.9233 339.864 32.2115C337.573 32.4853 335.413 32.9465 333.441 33.6094C319.957 38.1201 309.069 49.7211 301.428 71.1362C272.692 70.675 260.049 126.403 315.289 144.417L315.303 144.432Z" fill="#4B7DFF"/>
<path d="M329.368 90.2949C319.611 89.3798 312.525 79.9533 313.542 69.2402C314.559 58.527 323.293 50.5842 333.051 51.4993C342.809 52.4144 349.894 61.8409 348.877 72.554C347.861 83.2671 339.126 91.21 329.368 90.2949Z" fill="white"/>
<path d="M316.442 64.458C314.421 61.4158 316.402 56.5752 320.866 53.6461C325.33 50.7171 330.587 50.8088 332.607 53.851C334.628 56.8932 332.647 61.7338 328.183 64.6629C323.719 67.5919 318.462 67.5002 316.442 64.458Z" fill="#242145"/>
<path d="M308.503 97.2522C307.025 109.041 310.562 117.183 316.376 121.506L351.999 109.545C353.768 106.576 357.48 100.106 358.625 96.2578C340.415 104.991 318.464 107.427 308.503 97.2666V97.2522Z" fill="#242145"/>
<path d="M316.377 121.489C326.28 128.882 342.764 125.15 352 109.528C335.095 107.885 323.307 111.791 316.377 121.489Z" fill="#EB459F"/>
<path d="M335.686 123.713C338.223 122.805 340.746 121.451 343.109 119.649C341.486 117.502 338.76 114 337.803 113.035C336.498 111.723 335.135 117.372 335.686 123.713Z" fill="white"/>
<path d="M380.88 53.9693C377.14 56.4768 373.79 61.0164 371.92 66.68C368.571 76.8255 371.21 86.798 377.792 88.9452C379.285 89.4352 380.88 89.4785 382.461 89.1326C382.548 88.8011 382.634 88.4841 382.707 88.1526C385.259 77.8198 386.738 67.6311 385.23 59.532C385.157 59.1285 385.07 58.7394 384.983 58.3359C381.127 41.6765 363.076 32.8569 347.316 31.9922C357.784 46.2016 380.184 53.7099 380.88 53.9549V53.9693Z" fill="#242145"/>
<path d="M357.719 50.5607C356.197 41.7554 348.208 34.4634 338.915 37.0286C336.261 37.8068 336.711 41.6546 339.451 41.8275C341.06 41.8996 342.612 42.1301 343.989 42.5913C348.469 43.9748 351.035 48.0099 353.08 52.0594C354.327 54.6535 358.256 53.3853 357.734 50.5751L357.719 50.5607Z" fill="#242145"/>
<path d="M369.185 89.7704C377.348 81.8154 391.006 76.3248 396.965 75.143C398.559 74.826 399.893 76.3824 399.342 77.91C391.194 100.665 382.118 106.257 374.405 103.749L369.185 89.7704Z" fill="#4B7DFF"/>
<path d="M176.745 341.212C177.47 347.914 180.457 357.281 190.664 361.763C190.664 361.763 171.366 362.858 166.625 344.988C162.044 327.738 176.383 337.783 176.745 341.212Z" fill="white"/>
<path d="M150.845 336.786C142.83 326.276 144.905 311.298 155.479 303.332C166.053 295.365 181.122 297.428 189.137 307.938C197.151 318.448 195.076 333.427 184.502 341.393C173.928 349.359 158.859 347.297 150.845 336.786Z" fill="white"/>
<path d="M158.779 315.245C161.273 312.536 165.507 312.349 168.233 314.827L170.175 316.6L171.959 314.669C174.452 311.96 178.686 311.772 181.412 314.251C184.137 316.73 184.326 320.938 181.832 323.647L171.016 335.392L159.2 324.641C156.474 322.163 156.286 317.955 158.779 315.245Z" fill="#FF78B9"/>
<path d="M485.556 450.001C489.601 447.378 492.327 443.17 493.037 438.443L494.255 430.401C494.313 429.998 494.661 429.695 495.067 429.695C495.473 429.695 495.821 429.998 495.879 430.401L497.097 438.443C497.822 443.184 500.547 447.392 504.578 450.001L505.694 450.707C505.897 450.837 506.013 451.067 505.999 451.312C505.999 451.586 505.897 451.831 505.694 452.018L504.578 452.623C500.533 455.246 497.807 459.454 497.097 464.181L495.879 472.223C495.821 472.626 495.473 472.929 495.067 472.929C494.661 472.929 494.313 472.626 494.255 472.223L493.037 464.181C492.312 459.44 489.586 455.232 485.556 452.623L484.439 452.018C484.236 451.845 484.12 451.586 484.135 451.312C484.135 451.067 484.236 450.851 484.439 450.707L485.556 450.001Z" fill="#FF78B9"/>
<path d="M45.7756 293.787C50.6906 290.544 53.9963 285.399 54.8807 279.606L56.3595 269.821C56.3595 269.331 56.8525 269.086 57.3454 269.086C57.8384 269.086 58.0849 269.331 58.3314 269.821L59.8102 279.606C60.6076 285.428 63.9278 290.616 68.9153 293.787L70.1477 294.522C70.3942 294.767 70.6406 295.012 70.6406 295.257C70.6406 295.502 70.3942 295.747 70.1477 295.992L68.9153 296.727C63.9423 299.897 60.6076 305.085 59.8102 310.907L58.3314 320.692C58.0849 321.182 57.8384 321.427 57.3454 321.427C56.8525 321.427 56.3595 321.182 56.3595 320.692L54.8807 310.907C53.9963 305.114 50.6906 299.969 45.7756 296.727L44.2967 295.992C44.0502 295.747 43.8038 295.502 43.8038 295.257C43.8038 295.012 44.0502 294.767 44.2967 294.522L45.7756 293.787Z" fill="#3442D9"/>
<path d="M100.08 344.237C103.588 341.917 105.966 338.228 106.604 334.077L107.662 327.074C107.662 326.728 108.01 326.555 108.373 326.555C108.721 326.555 108.895 326.728 109.083 327.074L110.142 334.077C110.707 338.242 113.099 341.96 116.666 344.237L117.55 344.756C117.724 344.929 117.898 345.102 117.898 345.275C117.898 345.448 117.724 345.621 117.55 345.794L116.666 346.312C113.099 348.589 110.722 352.293 110.142 356.472L109.083 363.476C108.909 363.822 108.735 363.995 108.373 363.995C108.025 363.995 107.662 363.822 107.662 363.476L106.604 356.472C105.966 352.322 103.603 348.633 100.08 346.312L99.0213 345.794C98.8473 345.621 98.6733 345.448 98.6733 345.275C98.6733 345.102 98.8473 344.929 99.0213 344.756L100.08 344.237Z" fill="#FFE75C"/>
<path d="M248.031 406.241C264.703 398.514 285.596 401.185 301.985 413.127C318.374 425.068 288.551 446.211 288.551 446.211L246.977 433.057L248.031 406.241Z" fill="#3C71E5"/>
<path d="M212.119 404.564L212.169 404.648C219.712 400.583 226.963 397.479 233.291 397.272L230.983 393.389C230.045 391.806 228.002 391.287 226.418 392.224L213.282 400.002C211.697 400.938 211.177 402.978 212.115 404.561L212.119 404.564Z" fill="#009AF8"/>
<path d="M188.195 417.781L188.239 417.868C180.784 422.085 174.3 426.572 170.759 431.816L168.691 427.802C167.848 426.169 168.491 424.165 170.13 423.323L183.71 416.347C185.346 415.505 187.352 416.147 188.195 417.784V417.781Z" fill="#009AF8"/>
<path d="M222.642 451.419C211.927 456.983 208.793 464.094 207.22 471.487C194.294 532.258 175.056 491.004 174.543 489.817C167.83 474.26 164.726 450.036 168.019 437.086C170.708 426.498 185.266 418.469 199.481 410.455C213.697 402.441 228.098 394.14 238.566 397.309C251.371 401.181 270.541 416.346 280.413 430.12C281.165 431.169 306.605 468.928 247.816 448.595C240.663 446.12 232.946 445.125 222.642 451.415V451.419Z" fill="white"/>
<path d="M200.519 457.881C205.232 457.881 209.053 454.065 209.053 449.358C209.053 444.652 205.232 440.836 200.519 440.836C195.805 440.836 191.984 444.652 191.984 449.358C191.984 454.065 195.805 457.881 200.519 457.881Z" fill="#3FBEFF"/>
<path d="M188.416 436.012C190.074 436.012 191.419 434.669 191.419 433.014C191.419 431.358 190.074 430.016 188.416 430.016C186.758 430.016 185.414 431.358 185.414 433.014C185.414 434.669 186.758 436.012 188.416 436.012Z" fill="#3FBEFF"/>
<path d="M177.737 442.035C179.395 442.035 180.739 440.693 180.739 439.037C180.739 437.381 179.395 436.039 177.737 436.039C176.079 436.039 174.734 437.381 174.734 439.037C174.734 440.693 176.079 442.035 177.737 442.035Z" fill="#3FBEFF"/>
<path d="M180.057 433.691C181.715 433.691 183.059 432.349 183.059 430.693C183.059 429.038 181.715 427.695 180.057 427.695C178.399 427.695 177.055 429.038 177.055 430.693C177.055 432.349 178.399 433.691 180.057 433.691Z" fill="#3FBEFF"/>
<path d="M186.088 444.356C187.746 444.356 189.091 443.013 189.091 441.357C189.091 439.702 187.746 438.359 186.088 438.359C184.43 438.359 183.086 439.702 183.086 441.357C183.086 443.013 184.43 444.356 186.088 444.356Z" fill="#3FBEFF"/>
<path d="M231.027 417.67C235.74 417.67 239.561 413.854 239.561 409.147C239.561 404.441 235.74 400.625 231.027 400.625C226.313 400.625 222.492 404.441 222.492 409.147C222.492 413.854 226.313 417.67 231.027 417.67Z" fill="#3FBEFF"/>
<path d="M228.584 431.04L231.23 429.548L229.737 426.906C228.911 425.447 229.428 423.599 230.889 422.775C232.35 421.951 234.2 422.467 235.025 423.926L236.519 426.568L239.165 425.077C240.626 424.253 242.476 424.768 243.301 426.227C244.127 427.686 243.61 429.534 242.149 430.358L239.503 431.849L240.997 434.492C241.822 435.951 241.306 437.798 239.845 438.622C238.384 439.446 236.534 438.931 235.708 437.472L234.215 434.829L231.568 436.321C230.107 437.145 228.257 436.63 227.432 435.171C226.607 433.711 227.123 431.864 228.584 431.04Z" fill="#3FBEFF"/>
<path d="M199.486 410.454C205.287 407.184 211.121 403.867 216.704 401.297L216.959 401.751C220.128 407.453 218.067 414.639 212.357 417.804L199.955 424.675C194.245 427.84 187.048 425.782 183.879 420.08L183.719 419.793C188.571 416.585 194.052 413.518 199.486 410.454Z" fill="#71DAFF" stroke="#71DAFF" stroke-width="0.61" stroke-miterlimit="10"/>
<path d="M266.531 409.402C258.651 415.231 252.25 421.863 259.636 429.434C267.022 437.005 286.864 433.565 286.864 433.565L266.531 409.398V409.402Z" fill="#3C71E5"/>
<path d="M427.659 251.956L427.684 251.971C431.908 252.878 435.659 253.415 438.992 253.659C488.41 257.259 462.414 205.047 429.952 214.854C421.64 217.344 416.809 218.818 413.185 218.081C411.331 217.722 410.299 217.333 410.299 217.333C410.299 217.333 409.645 218.106 408.584 219.366C400.856 228.527 404.342 242.563 415.464 247.045L427.659 251.96V251.956Z" fill="#00F479"/>
<path d="M425.326 239.596C444.565 239.596 464.036 231.752 484.38 215.883C486.288 214.395 486.626 211.647 485.136 209.745C483.646 207.84 480.894 207.502 478.986 208.99C454.648 227.973 431.996 234.481 409.733 228.888C407.392 228.3 405.008 229.719 404.415 232.064C403.823 234.405 405.248 236.783 407.592 237.371C413.491 238.855 419.398 239.599 425.323 239.599L425.326 239.596Z" fill="#008F2F"/>
<path d="M439 253.659C428.633 253.572 406.643 246.777 388.011 234.919C315.189 188.58 388.091 124.738 407.359 199.628C416.01 233.25 431.487 249.289 439 253.659Z" fill="#00CF71"/>
<mask id="mask0_25439_24589" style="mask-type:luminance" maskUnits="userSpaceOnUse" x="356" y="165" width="83" height="89">
<path d="M439 253.659C428.633 253.572 406.643 246.777 388.011 234.919C315.189 188.58 388.091 124.738 407.359 199.628C416.01 233.25 431.487 249.289 439 253.659Z" fill="white"/>
</mask>
<g mask="url(#mask0_25439_24589)">
<path d="M421.763 259.723C423.202 259.723 424.612 259.015 425.448 257.719C426.76 255.69 426.172 252.983 424.14 251.672C399.074 235.539 384.699 214.367 382.573 190.44C382.358 188.034 380.228 186.263 377.822 186.47C375.412 186.684 373.631 188.807 373.846 191.213C375.503 209.841 384.746 236.725 419.393 259.026C420.127 259.498 420.948 259.723 421.763 259.723Z" fill="#008F2F"/>
</g>
<path d="M340.702 408.96L366.658 418.161C382.611 423.816 399.345 422.48 413.51 415.744C439.317 403.476 449.545 383.335 458.428 358.345C467.311 333.355 472.051 311.192 459.809 285.513C448.636 262.072 415.215 247.764 399.934 242.349C384.654 236.934 350.418 225.838 326.839 237.046C301.033 249.314 297.729 263.924 285.901 297.185C275.248 327.152 269.944 344.465 277.897 371.139C280.852 381.044 287.857 389.226 297.227 393.617C308.68 398.986 324.451 403.2 340.702 408.96Z" fill="#5D90FF"/>
<path d="M300.833 357.2C301.4 359.338 302.665 363.737 304.453 367.715C306.605 372.51 309.513 376.695 312.875 375.595C318.571 373.733 319.996 365.89 319.999 358.503C319.999 353.973 319.469 349.618 319.051 346.918C318.873 345.756 317.473 345.259 316.608 346.046C313.849 348.551 308.412 352.928 301.735 355.454C301.033 355.719 300.648 356.474 300.837 357.2H300.833Z" fill="#AC0062"/>
<path d="M304.453 367.712C306.605 372.507 309.513 376.692 312.875 375.592C318.571 373.73 319.995 365.886 319.999 358.5C313.191 360.674 307.91 363.828 304.457 367.712H304.453Z" fill="#FFA8D8"/>
<path d="M334.981 295.595C337.384 288.832 336.971 282.512 334.058 281.48C331.144 280.447 326.834 285.093 324.43 291.856C322.027 298.619 322.44 304.939 325.353 305.971C328.267 307.004 332.577 302.358 334.981 295.595Z" fill="black"/>
<path d="M273.994 349.816L268.691 347.936C257.377 343.926 251.45 331.497 255.466 320.198L268.648 283.109C272.004 273.665 282.41 268.717 291.867 272.069L300.534 275.141C307.22 277.51 310.722 284.856 308.349 291.533L290.409 342.011C288.036 348.688 280.68 352.185 273.994 349.816Z" fill="#B1CCFF"/>
<path d="M277.248 330.829C278.226 328.079 275.457 324.587 271.064 323.03C266.671 321.473 262.318 322.441 261.34 325.191C260.363 327.942 263.131 331.434 267.524 332.991C271.917 334.548 276.27 333.58 277.248 330.829Z" fill="#5D90FF"/>
<path d="M343.281 397.946C316.551 396.683 300.18 398.929 280.436 430.819C268.51 450.085 263.12 459.199 260.725 463.399C259.54 465.471 257.261 466.669 254.876 466.477C244.794 465.653 218.812 463.286 214.971 460.466C210.187 456.953 200.9 444.732 192.602 444.732C184.3 444.732 179.939 452.038 180.786 459.061C166.857 456.11 151.664 458.92 151.664 482.665C151.664 496.283 158.676 533.716 209.348 513.713C287.498 533.382 307.446 522.576 338.639 466.509L290.664 503.738H438.809C438.809 503.738 431.634 440.097 413.486 408.065L343.281 397.949V397.946Z" fill="#5D90FF"/>
<path d="M313.119 506.565C313.86 506.565 314.602 506.275 315.158 505.701C323.278 497.299 331.038 485.989 341.114 467.88C341.873 466.516 341.379 464.795 340.012 464.037C338.646 463.278 336.923 463.768 336.163 465.133C326.342 482.787 318.84 493.745 311.083 501.774C309.996 502.899 310.029 504.688 311.156 505.77C311.705 506.3 312.414 506.561 313.122 506.561L313.119 506.565Z" fill="#3C71E5"/>
<path d="M398.458 420.588C398.487 420.588 398.512 420.588 398.541 420.588C405.872 420.374 411.895 419.231 417.493 416.991C418.943 416.41 419.648 414.763 419.067 413.314C418.485 411.866 416.835 411.162 415.385 411.743C410.427 413.728 405.018 414.744 398.374 414.937C396.811 414.98 395.583 416.283 395.626 417.844C395.67 419.376 396.927 420.588 398.454 420.588H398.458Z" fill="#3C71E5"/>
<path d="M313.874 395.297C329.078 395.297 343.559 387.551 351.846 374.684L360.333 361.509C361.358 359.919 360.897 357.799 359.305 356.779C357.713 355.756 355.59 356.217 354.569 357.806L346.081 370.982C338.256 383.13 323.913 389.881 309.556 388.208L287.358 385C285.486 384.735 283.745 386.027 283.473 387.896C283.204 389.765 284.501 391.504 286.373 391.776L308.662 394.996C310.403 395.199 312.14 395.3 313.87 395.3L313.874 395.297Z" fill="black"/>
<path d="M296.351 392.95L287.504 392.068C282.492 391.48 278.904 386.943 279.493 381.938C280.082 376.933 284.625 373.35 289.638 373.938L298.485 374.82C303.497 375.408 307.084 379.945 306.496 384.95C305.907 389.956 301.363 393.538 296.351 392.95Z" fill="black"/>
<path d="M345.898 232.389C352.735 231.917 359.79 232.425 366.572 233.467C367.412 233.594 368.244 233.732 369.073 233.877C369.487 233.946 369.902 234.022 370.313 234.098C370.342 234.102 370.371 234.109 370.396 234.113C371.127 234.251 371.857 234.385 372.581 234.534C373.049 234.628 373.518 234.723 373.984 234.821C374.74 234.98 375.488 235.147 376.234 235.311C377.073 235.503 377.909 235.695 378.731 235.899C379.116 235.993 379.505 236.087 379.886 236.182C380.272 236.28 380.65 236.374 381.031 236.476C381.409 236.574 381.78 236.668 382.155 236.766C382.296 236.802 382.438 236.842 382.576 236.879C383.18 237.038 383.779 237.205 384.368 237.369C385.095 237.568 385.807 237.775 386.509 237.975C386.862 238.08 387.21 238.178 387.556 238.28C389.286 238.795 390.943 239.311 392.51 239.815C402.396 243.209 411.687 247.016 408.201 264.29C406.925 272.474 405.032 277.785 402.098 285.501C400.19 290.488 402.705 296.071 407.7 297.954C412.883 299.94 418.731 297.072 420.345 291.777C423.631 281.305 428.094 265.001 425.063 253.488C418.386 227.91 384.303 223.928 357.1 225.456C356.795 225.474 349.242 225.003 345.891 232.382L345.898 232.389Z" fill="black"/>
<path d="M369.762 384.284C348.717 375.783 340.521 347.091 351.454 320.203C362.387 293.311 388.31 278.404 409.356 286.904L412.481 288.207L372.888 385.59L369.762 384.287V384.284Z" fill="black"/>
<path d="M430.73 352.389C441.716 325.52 433.584 296.791 412.566 288.222C391.549 279.653 365.605 294.488 354.619 321.357C343.632 348.226 351.765 376.955 372.782 385.524C393.8 394.093 419.744 379.258 430.73 352.389Z" fill="black"/>
<path d="M434.427 353.866C444.169 330.039 436.959 304.563 418.322 296.964C399.685 289.366 376.679 302.522 366.937 326.349C357.195 350.176 364.405 375.652 383.042 383.251C401.679 390.849 424.684 377.693 434.427 353.866Z" fill="#00DA83"/>
<path d="M396.336 370.85C391.891 368.647 388.878 364.067 387.802 357.824C386.704 351.454 387.74 344.009 390.721 336.863C397.1 321.56 410.01 312.711 420.107 316.722C430.198 320.743 433.12 335.857 426.737 351.16C420.358 366.462 407.448 375.308 397.35 371.301C397.005 371.163 396.667 371.014 396.34 370.85H396.336ZM419.66 319.745C419.435 319.633 419.206 319.531 418.973 319.437C410.948 316.25 399.477 324.812 393.923 338.133C391.128 344.841 390.146 351.773 391.16 357.657C392.116 363.206 394.719 367.079 398.481 368.582C406.506 371.769 417.978 363.206 423.531 349.886C428.922 336.957 427.112 323.437 419.66 319.742V319.745Z" fill="#007E00"/>
<path d="M396.589 373.216C396.193 373.06 395.804 372.886 395.422 372.697C390.381 370.2 386.953 365.039 385.768 358.171C384.605 351.424 385.685 343.573 388.814 336.067C395.633 319.716 409.721 310.373 420.876 314.801C425.002 316.445 428.208 319.745 430.145 324.34C433.296 331.824 432.737 342.143 428.648 351.95C422.974 365.561 412.266 374.316 402.401 374.316C400.413 374.316 398.457 373.96 396.589 373.216ZM395.833 338.927C393.187 345.275 392.249 351.805 393.201 357.311C394.03 362.117 396.178 365.442 399.25 366.668C406.134 369.387 416.591 361.191 421.629 349.097C426.514 337.385 425.195 324.79 418.743 321.592C418.568 321.505 418.394 321.429 418.216 321.356C417.318 321 416.362 320.83 415.366 320.83C408.704 320.83 400.224 328.412 395.837 338.927H395.833Z" fill="#007E00"/>
<path d="M354.956 238.221C354.956 238.221 354.952 238.221 354.945 238.225C354.991 238.214 354.963 238.221 354.956 238.221Z" fill="#5D90FF"/>
</g>
</g>
<defs>
<clipPath id="clip0_25439_24589">
<rect width="506" height="535" fill="white" transform="translate(0 -31)"/>
</clipPath>
<clipPath id="clip1_25439_24589">
<rect width="506" height="886.289" fill="white" transform="matrix(-1 0 0 1 506 -328.609)"/>
</clipPath>
</defs>
</svg>
