<svg width="630" height="282" viewBox="0 0 630 282" fill="none" xmlns="http://www.w3.org/2000/svg">
<path d="M598.521 156.128C597.626 156.128 596.731 156.212 595.836 156.255C592.372 149.869 587.636 144.249 581.916 139.734C576.196 135.219 569.611 131.905 562.56 129.991C555.509 128.077 548.14 127.605 540.899 128.602C533.659 129.599 526.698 132.046 520.44 135.792C514.298 127.496 505.871 121.138 496.171 117.482C486.471 113.826 475.913 113.029 465.768 115.186C455.622 117.344 446.321 122.364 438.985 129.643C431.648 136.921 426.589 146.148 424.416 156.212C423.262 155.299 422.036 154.479 420.75 153.76C406.174 145.347 387.208 150.801 378.428 165.852C370.586 179.254 373.484 195.826 384.565 205.212C378.513 209.059 374.635 214.936 374.635 221.531C374.635 233.115 386.568 242.501 401.358 242.501C406.533 242.534 411.639 241.315 416.232 238.949C421.193 249.058 429.24 257.357 439.23 262.666C449.22 267.975 460.643 270.023 471.875 268.52C483.107 267.017 493.574 262.038 501.788 254.293C510.002 246.547 515.545 236.429 517.627 225.378C528.467 232.86 541.703 236.124 554.813 234.55C567.924 232.975 579.992 226.671 588.718 216.838C593.432 218.384 598.448 218.798 603.354 218.046C608.26 217.293 612.917 215.397 616.94 212.512C620.964 209.627 624.239 205.836 626.498 201.451C628.756 197.065 629.934 192.211 629.932 187.286C629.932 179.023 626.623 171.097 620.732 165.254C614.841 159.411 606.852 156.128 598.521 156.128Z" fill="white" fill-opacity="0.2"/>
<g clip-path="url(#clip0_25438_24588)">
<path d="M501.195 124.551C505.625 107.123 507.96 99.6314 515.452 97.8159C519.978 96.7266 524.589 98.9899 521.684 105.622C516.904 116.527 509.316 128.049 509.316 128.049L501.195 124.551Z" fill="#FFC619"/>
<path d="M502.719 126.676C502.719 126.676 504.365 119.209 506.894 113.266C509.411 107.36 510.633 105.194 511.807 105.835C512.981 106.464 512.763 107.203 509.883 114.598C507.257 121.327 505.127 127.294 505.127 127.294L502.719 126.676Z" fill="#FF8C19"/>
<path d="M483.459 174.375C460.671 172.414 458.13 173.177 447.891 183.041C441.949 188.765 442.482 192.989 446.124 195.059C451.365 198.036 459.993 191.585 464.047 188.814C472.688 191.198 484.96 195.192 484.96 195.192L483.459 174.375Z" fill="#FFC619"/>
<path d="M541.388 236.826C541.388 236.826 550.465 227.834 554.761 224.542C559.045 221.274 566.476 220.427 564.031 230.787C561.574 241.183 554.458 242.769 539.742 242.769L541.376 236.826H541.388Z" fill="#FF8C19"/>
<path d="M480.203 247.321H541.342C541.342 247.321 550.588 222.933 546.171 213.457C541.729 203.931 523.685 183.695 523.685 183.695C523.685 183.695 526.275 164.548 525.597 152.276C524.702 135.949 521.095 130.442 512.285 126.932C502.216 122.914 491.881 121.425 486.641 123.374C484.075 124.33 479.477 127.586 476.572 136.627C462.522 134.63 456.446 135.235 454.57 139.834C453.179 143.247 452.804 147.761 461.348 151.997C466.89 154.745 473.486 157.952 473.486 157.952C461.916 200.821 472.094 234.964 480.191 247.333L480.203 247.321Z" fill="url(#paint0_linear_25438_24588)"/>
<path d="M479.133 150.301C479.133 150.301 487.096 150.446 491.937 148.461C498.109 155.529 496.548 165.127 492.36 166.845C487.229 168.963 486.394 164.824 483.671 157.938C481.904 153.484 479.133 150.288 479.133 150.288V150.301Z" fill="#FF78B9"/>
<path d="M490.823 162.27C490.243 162.27 489.734 161.822 489.674 161.229C489.153 155.686 485.934 150.736 485.91 150.687C485.559 150.155 485.704 149.441 486.237 149.09C486.769 148.739 487.483 148.884 487.834 149.417C487.98 149.634 491.392 154.863 491.973 160.999C492.034 161.628 491.574 162.197 490.932 162.258C490.896 162.258 490.86 162.258 490.823 162.258V162.27Z" fill="#D11583"/>
<path d="M478.878 151.354C478.333 151.354 477.777 151.354 477.208 151.33C476.579 151.317 476.07 150.785 476.095 150.156C476.107 149.526 476.627 149.042 477.244 149.042C477.244 149.042 477.268 149.042 477.281 149.042C489.528 149.357 496.704 145.811 496.777 145.774C497.346 145.484 498.036 145.714 498.326 146.283C498.616 146.851 498.387 147.541 497.818 147.832C497.515 147.977 490.69 151.366 478.89 151.366L478.878 151.354Z" fill="black"/>
<path d="M495.934 137.98C495.292 139.602 493.901 140.728 492.823 140.498C491.746 140.268 491.383 138.755 492.037 137.133C492.69 135.511 494.082 134.386 495.159 134.616C496.236 134.846 496.587 136.359 495.946 137.968L495.934 137.98Z" fill="black"/>
<path d="M483.276 134.603C482.67 136.249 481.412 137.411 480.468 137.205C479.524 136.999 479.258 135.498 479.863 133.852C480.468 132.206 481.727 131.044 482.67 131.25C483.614 131.456 483.881 132.957 483.276 134.591V134.603Z" fill="black"/>
<path d="M509.379 126.906C516.35 120.382 522.97 113.895 533.136 110.046C541.873 106.742 546.98 108.691 546.339 113.762C545.54 120.08 541.982 122.827 532.385 125.938C523.563 128.806 515.963 131.118 515.963 131.118L509.367 126.906H509.379Z" fill="#FFC619"/>
<path d="M511.203 127.199C511.203 127.199 518.271 121.124 525.568 117.795C532.866 114.467 535.964 113.402 536.484 114.83C537.21 116.851 535.238 117.928 525.919 122.043C516.867 126.037 512.716 128.168 512.716 128.168L511.203 127.199Z" fill="#FF8C19"/>
<path d="M525.326 166.942C525 171.977 524.515 176.685 524.152 179.819C521.32 180.328 517.496 180.945 515.693 180.86C512.873 180.739 511.094 179.384 512.946 176.188C514.12 174.179 520.764 170.222 525.326 166.93V166.942Z" fill="#FFE75C"/>
<path d="M532.659 194.26C531.098 195.628 528.375 197.916 526.572 198.969C524.139 200.385 521.041 200.917 520.352 197.782C519.783 195.204 522.421 190.4 524.999 185.195C526.608 187.035 529.489 190.388 532.671 194.273L532.659 194.26Z" fill="#FFE75C"/>
<path d="M544.28 210.011C541.835 210.604 538.217 211.415 536.329 211.487C533.582 211.584 530.641 211.693 531.113 208.401C531.427 206.15 533.715 203.983 537.841 200.812C540.286 204.02 542.573 207.227 544.28 210.011Z" fill="#FFE75C"/>
<path d="M495.33 177.477C481.437 195.026 480.348 199.431 482.756 213.205C484.148 221.205 492.171 222.125 495.475 216.763C498.839 211.28 498.186 205.422 498.15 200.581C504.733 194.82 512.902 187.667 512.902 187.667L495.33 177.477Z" fill="url(#paint1_linear_25438_24588)"/>
<path d="M534.232 212.394C530.795 208.932 525.495 207.674 520.364 208.037C509.133 208.823 501.932 219.184 503.784 230.464C504.171 232.836 504.945 235.075 506.01 237.132C492.178 239.722 486.744 241.102 489.733 247.323H533.676C542.583 226.312 540.731 218.929 534.22 212.382L534.232 212.394Z" fill="url(#paint2_linear_25438_24588)"/>
<path d="M363.565 225.219C354.718 233.098 343.064 237.903 330.284 237.903C317.504 237.903 305.862 233.098 297.016 225.219H363.565Z" fill="#423D80"/>
<path d="M247.414 49.1849C250.319 26.988 266.1 21.5537 281.59 18.5159C297.081 15.478 277.923 51.9081 277.923 51.9081L247.414 49.1849Z" fill="#29CC7A"/>
<path d="M250.337 97.7802C259.066 97.7802 266.142 86.0542 266.142 71.5893C266.142 57.1245 259.066 45.3984 250.337 45.3984C241.608 45.3984 234.531 57.1245 234.531 71.5893C234.531 86.0542 241.608 97.7802 250.337 97.7802Z" fill="#29CC7A"/>
<path d="M293.953 213.469L397.038 214.05L437.169 71.5859H347.928C341.514 71.5859 335.85 75.7857 333.987 81.9219L293.965 213.469H293.953Z" fill="url(#paint3_linear_25438_24588)"/>
<path d="M326.641 106.009H427.463L428.661 101.773H327.936L326.641 106.009Z" fill="#C5C5DB"/>
<path d="M311.086 157.127H413.07L414.256 152.891H312.381L311.086 157.127Z" fill="#C5C5DB"/>
<path d="M349.693 110.555H285.963C283.543 133.502 282.478 172.425 296.202 199.463H376.015C377.285 154.392 362.037 125.913 349.693 110.555Z" fill="#698EFF"/>
<path d="M389.653 146.646C380.249 126.107 365.739 113.036 349.68 110.555L364.202 172.074H373.267C388.612 172.074 396.043 160.613 389.653 146.658V146.646Z" fill="#698EFF"/>
<path d="M285.964 110.555C271.357 115.009 255.225 138.392 250.336 160.794L274.358 165.248L297.28 135.221L285.964 110.555Z" fill="#698EFF"/>
<path d="M392.266 228.621H271.391C263.343 228.621 256.82 222.097 256.82 214.049C256.82 206 263.343 199.477 271.391 199.477H401.137L392.266 228.633V228.621Z" fill="#D7D7E3"/>
<path d="M381.161 220.138L423.215 81.9219C425.079 75.7857 430.743 71.5859 437.157 71.5859C446.947 71.5859 453.954 81.0384 451.098 90.4061L413.146 215.14C410.714 223.152 403.32 228.622 394.945 228.622H380.773L381.149 220.138H381.161Z" fill="#B4B4C8"/>
<path d="M394.957 228.621H358.227C350.179 228.621 343.656 222.097 343.656 214.049C343.656 206 350.179 199.477 358.227 199.477H417.926L413.158 215.15C410.726 223.162 403.331 228.633 394.957 228.633V228.621Z" fill="#B4B4C8"/>
<path d="M335.911 229.359H324.656V281.995H335.911V229.359Z" fill="#423D80"/>
<path d="M284.484 282V280.233C284.484 278.902 285.416 277.74 286.723 277.462L324.663 269.195H335.918L373.858 277.462C375.165 277.752 376.097 278.902 376.097 280.233V282H284.484Z" fill="#423D80"/>
<path d="M354.025 245.709H333.222C332.217 245.709 331.406 244.898 331.406 243.894C331.406 242.889 332.217 242.078 333.222 242.078H354.025C355.029 242.078 355.84 242.889 355.84 243.894C355.84 244.898 355.029 245.709 354.025 245.709Z" fill="black"/>
<path d="M345.795 253.592H350.599C352.245 253.592 353.77 252.708 354.581 251.28L358.466 244.466C359.071 243.401 358.308 242.094 357.086 242.094H349.619L344.415 251.219C343.81 252.284 344.572 253.592 345.795 253.592Z" fill="black"/>
<path d="M320.766 15.9688C267.905 15.9688 260.946 23.7631 256.117 38.0688L377.368 53.8148H387.461C387.461 28.4469 373.628 15.9688 320.766 15.9688Z" fill="#29CC7A"/>
<path d="M256.167 97.7802C247.26 97.7802 240.047 87.65 240.047 71.5893C240.047 55.5287 247.26 45.3984 256.167 45.3984H260.62V97.7802H256.167Z" fill="black"/>
<path d="M296.562 124.997C311.629 128.071 335.252 121.826 351.565 110.764L283.746 110.086C283.746 110.086 281.483 121.911 296.562 124.985V124.997Z" fill="#3D58D9"/>
<path d="M382.612 71.5891C382.612 62.2334 382.236 58.2395 381.002 50.7235C379.284 40.2544 371.199 32.2664 360.465 30.2089C351.764 28.5387 330.379 27.8125 315.482 27.8125C300.572 27.8125 279.188 28.5387 270.498 30.2089C259.764 32.2664 251.68 40.2544 249.961 50.7235C248.727 58.2395 248.352 62.2334 248.352 71.5891C248.352 80.9447 248.727 84.9387 249.961 92.4546C251.68 102.924 259.764 110.912 270.498 112.969C279.2 114.639 300.584 115.366 315.482 115.366C330.391 115.366 351.776 114.639 360.465 112.969C371.199 110.912 379.284 102.924 381.002 92.4546C382.236 84.9387 382.612 80.9447 382.612 71.5891Z" fill="#698EFF"/>
<path d="M321.188 47.1756C310.333 45.8927 298.63 45.7959 288.682 47.6718C282.389 48.87 277.585 53.6991 276.834 59.6296C276.181 64.8097 276.011 70.1592 276.749 75.5814C277.585 81.7176 282.97 86.3167 289.602 86.7282C298.981 87.2971 310.091 87.5149 319.978 86.7282C327.191 86.1473 332.903 80.5678 333.314 73.8143C333.617 68.7432 333.544 63.4662 333.036 58.5766C332.419 52.6341 327.53 47.926 321.188 47.1756Z" fill="#B7CCFF"/>
<path d="M294.602 71.086H290.197C287.849 71.0981 285.961 72.8046 285.961 74.8863C285.961 76.9681 287.873 78.6746 290.209 78.6625H294.614C296.962 78.6504 298.85 76.9439 298.85 74.8621C298.85 72.7683 296.937 71.0739 294.602 71.086Z" fill="#698EFF"/>
<path d="M315.795 71.0391H310.228C307.88 71.0512 305.992 72.7578 305.992 74.8395C305.992 76.9333 307.904 78.6277 310.24 78.6156H315.807C318.155 78.6035 320.043 76.897 320.043 74.8153C320.043 72.7214 318.131 71.027 315.795 71.0391Z" fill="#698EFF"/>
<path d="M350.627 60.3805C350.627 63.5999 348.013 66.2142 344.794 66.2142C341.575 66.2142 338.961 63.5999 338.961 60.3805C338.961 57.1611 341.575 54.5469 344.794 54.5469C348.013 54.5469 350.627 57.1611 350.627 60.3805Z" fill="black"/>
<path d="M267.107 66.2142C270.328 66.2142 272.94 63.6024 272.94 60.3805C272.94 57.1587 270.328 54.5469 267.107 54.5469C263.885 54.5469 261.273 57.1587 261.273 60.3805C261.273 63.6024 263.885 66.2142 267.107 66.2142Z" fill="black"/>
<path d="M334.574 107.499C330.702 108.6 326.744 107.789 323.864 106.179C321.02 104.606 319.217 102.258 319.507 100.213C319.991 96.7633 337.152 90.8328 340.94 92.0431C342.38 92.5151 343.191 93.9917 343.324 95.8797C343.614 99.8858 340.867 105.695 334.574 107.499Z" fill="#E9459D"/>
<path d="M334.578 107.494C330.705 108.595 326.747 107.784 323.867 106.175C326.251 103.355 329.918 100.631 334.384 98.5982C337.458 97.1942 340.52 96.2986 343.327 95.875C343.618 99.8811 340.871 105.691 334.578 107.494Z" fill="#FFADD6"/>
<path d="M382.196 97.7802C371.692 97.7802 363.172 87.65 363.172 71.5893C363.172 55.5287 371.692 45.3984 382.196 45.3984H387.449V97.7802H382.196Z" fill="black"/>
<path d="M345.781 100.751C344.983 100.751 344.256 100.219 344.026 99.4076C343.76 98.4394 344.329 97.4469 345.297 97.1807C353.999 94.8085 366.936 89.0111 374.778 81.8946C375.516 81.2168 376.666 81.2773 377.343 82.0156C378.021 82.7539 377.961 83.9037 377.222 84.5814C368.933 92.0974 355.366 98.1973 346.253 100.678C346.096 100.727 345.939 100.739 345.769 100.739L345.781 100.751Z" fill="#29CC7A"/>
<path d="M345.785 104.727C348.98 104.727 351.57 102.137 351.57 98.9415C351.57 95.7464 348.98 93.1562 345.785 93.1562C342.59 93.1562 340 95.7464 340 98.9415C340 102.137 342.59 104.727 345.785 104.727Z" fill="#423D80"/>
<path d="M387.454 97.7802C396.183 97.7802 403.259 86.0542 403.259 71.5893C403.259 57.1245 396.183 45.3984 387.454 45.3984C378.725 45.3984 371.648 57.1245 371.648 71.5893C371.648 86.0542 378.725 97.7802 387.454 97.7802Z" fill="#29CC7A"/>
<path d="M391.044 87.7697C395.703 87.7697 399.48 80.5249 399.48 71.588C399.48 62.6511 395.703 55.4062 391.044 55.4062C386.386 55.4062 382.609 62.6511 382.609 71.588C382.609 80.5249 386.386 87.7697 391.044 87.7697Z" fill="#F6F6F6"/>
<path d="M387.452 53.8191H377.371C377.371 45.2018 374.938 33.0625 360.452 30.2062C352.731 28.6933 334.977 27.9792 320.66 27.834C317.78 27.8098 315.469 25.4618 315.469 22.5813V21.2136C315.469 18.321 317.804 15.9609 320.709 15.9609C320.721 15.9609 320.745 15.9609 320.757 15.9609C373.619 15.9609 387.452 28.4391 387.452 53.807V53.8191Z" fill="#29CC7A"/>
<path d="M395.544 66.1265C395.83 64.9921 395.141 63.8411 394.007 63.5558C392.873 63.2704 391.722 63.9587 391.436 65.0931L388.446 76.983C388.16 78.1174 388.849 79.2684 389.983 79.5537C391.117 79.8391 392.268 79.1508 392.553 78.0164L395.544 66.1265Z" fill="#29CC7A"/>
<path d="M339.1 166.207C333.206 169.596 325.412 162.297 318.502 154.225C314.036 157.916 309.583 159.998 305.069 160.046C301.257 160.095 296.997 158.582 291.781 155.06C289.372 161.595 285.439 168.313 279.533 165.638C272.611 162.515 273.204 154.878 275.552 145.644C276.568 141.625 279.376 138.576 283.249 137.377C287.533 136.058 293.402 135.513 300.143 135.32C309.062 135.066 318.635 135.078 325.763 136.93C329.043 137.777 332.056 139.955 334.077 142.921C340.019 151.659 346.506 161.959 339.124 166.207H339.1Z" fill="#D7D7E3"/>
<path d="M291.712 145.871L296.553 149.357C300.389 152.129 305.448 152.092 308.872 149.272L312.987 145.883C314.851 144.346 313.556 141.188 311.051 141.188H292.97C290.477 141.188 289.618 144.358 291.712 145.871Z" fill="#FF78B9"/>
<path d="M287.366 143.269C287.366 142.12 286.434 141.188 285.285 141.188C284.135 141.188 283.203 142.12 283.203 143.269V147.82C283.203 148.97 284.135 149.902 285.285 149.902C286.434 149.902 287.366 148.97 287.366 147.82V143.269Z" fill="#423D80"/>
<path d="M322.101 143.269C322.101 142.12 321.169 141.188 320.019 141.188C318.869 141.188 317.938 142.12 317.938 143.269V147.82C317.938 148.97 318.869 149.902 320.019 149.902C321.169 149.902 322.101 148.97 322.101 147.82V143.269Z" fill="#423D80"/>
<path d="M316.342 170.965H285.082C281.343 170.965 277.591 171.389 273.985 172.381C252.951 178.167 254.537 192.315 244.165 229.556C243.609 231.577 242.29 233.32 240.474 234.385C231.289 239.783 231.531 246.972 246.574 252.467C259.341 257.139 271.867 258.361 275.183 248.17C279.334 235.438 288.362 199.456 288.362 199.456H317.867C318.157 189.083 317.564 179.607 316.354 170.953L316.342 170.965Z" fill="#698EFF"/>
<path d="M275.699 149.081C272.214 146.031 268.801 144.312 265.255 143.332C256.094 140.778 246.315 146.128 244.27 155.435C242.745 162.382 246.17 168.264 251.616 172.766C261.987 181.36 270.314 180.888 277.212 171.689C283.88 162.794 282.186 154.769 275.711 149.093L275.699 149.081Z" fill="url(#paint4_linear_25438_24588)"/>
<path d="M374.503 170.965H334.106C330.608 170.965 327.111 171.304 323.722 172.188C301.927 177.852 301.927 197.592 291.337 235.595C290.781 237.616 289.461 239.359 287.646 240.424C278.461 245.822 278.703 253.011 293.746 258.506C306.513 263.178 319.039 264.4 322.355 254.21C326.506 241.477 337.373 199.456 337.373 199.456H376.015C376.306 189.083 375.713 179.607 374.503 170.953V170.965Z" fill="url(#paint5_linear_25438_24588)"/>
<path d="M360.787 154.372C360.182 154.372 359.589 154.07 359.25 153.513L347.572 134.741C347.039 133.894 347.306 132.768 348.153 132.236C349 131.703 350.125 131.97 350.658 132.817L362.336 151.601C362.869 152.448 362.603 153.573 361.755 154.106C361.453 154.288 361.126 154.384 360.799 154.384L360.787 154.372Z" fill="#3D58D9"/>
<path d="M389.655 146.65C389.243 145.754 388.832 144.883 388.396 144.023H353.821C345.265 144.023 338.391 144.229 330.924 149.688C324.243 154.565 322.21 161.766 328.443 170.081C334.397 178.021 341.198 178.227 351.243 173.397C352.998 172.55 354.922 172.078 356.883 172.078H373.281C388.626 172.078 396.057 160.617 389.667 146.662L389.655 146.65Z" fill="url(#paint6_linear_25438_24588)"/>
<path d="M369.746 172.062H372.456L389.327 225.013C389.895 226.792 388.564 228.62 386.688 228.62H375.736C374.042 228.62 372.553 227.531 372.033 225.921L359.386 186.223C357.159 179.215 362.375 172.075 369.733 172.075L369.746 172.062Z" fill="#423D80"/>
<path d="M360.233 188.801L359.41 186.211C357.183 179.203 362.399 172.062 369.757 172.062H427.786C430.122 172.062 431.792 174.314 431.114 176.553L428.73 184.371C427.931 187.01 425.499 188.801 422.74 188.801H360.233Z" fill="#423D80"/>
<path d="M593.002 262.617C593.002 269.89 590.594 276.596 586.527 281.993H415.889C411.81 276.596 409.414 269.89 409.414 262.617C409.414 244.692 426.139 232.674 454.93 237.6C485.609 242.877 516.832 242.877 547.51 237.6C576.289 232.662 593.014 244.68 593.014 262.617H593.002Z" fill="url(#paint7_linear_25438_24588)"/>
<path d="M566.79 58.2507C560.581 54.2567 556.406 47.7816 555.305 40.4714L553.441 28.0416C553.344 27.4244 552.824 26.9766 552.207 26.9766C551.589 26.9766 551.057 27.4244 550.972 28.0416L549.109 40.4714C548.019 47.7695 543.832 54.2446 537.624 58.2507L536.014 59.2916C535.651 59.5215 535.445 59.9209 535.445 60.3445V60.4172C535.445 60.8408 535.663 61.2402 536.014 61.4701L537.624 62.511C543.832 66.505 548.007 72.9801 549.109 80.2903L550.972 92.7201C551.069 93.3373 551.589 93.7851 552.207 93.7851C552.824 93.7851 553.356 93.3373 553.441 92.7201L555.305 80.2903C556.394 72.9922 560.581 66.5171 566.79 62.511L568.399 61.4701C568.762 61.2402 568.968 60.8408 568.968 60.4172V60.3445C568.968 59.9209 568.75 59.5215 568.399 59.2916L566.79 58.2507Z" fill="#8CD9FF"/>
<path d="M422.483 13.334C419.833 11.6275 418.054 8.86798 417.582 5.74541L416.783 0.444289C416.747 0.178023 416.517 -0.015625 416.25 -0.015625C415.984 -0.015625 415.766 0.178023 415.718 0.444289L414.919 5.74541C414.447 8.85588 412.668 11.6275 410.018 13.334L409.328 13.7818C409.171 13.8786 409.086 14.0481 409.086 14.2296V14.2659C409.086 14.4475 409.183 14.6169 409.328 14.7137L410.018 15.1615C412.668 16.8681 414.447 19.6276 414.919 22.7501L415.718 28.0512C415.754 28.3175 415.984 28.5112 416.25 28.5112C416.517 28.5112 416.734 28.3175 416.783 28.0512L417.582 22.7501C418.054 19.6397 419.833 16.8681 422.483 15.1615L423.173 14.7137C423.33 14.6169 423.415 14.4475 423.415 14.2659V14.2296C423.415 14.0481 423.318 13.8786 423.173 13.7818L422.483 13.334Z" fill="#808AFF"/>
<path d="M246.264 133.467C243.614 131.76 241.835 129.001 241.363 125.878L240.564 120.577C240.528 120.311 240.298 120.117 240.032 120.117C239.765 120.117 239.548 120.311 239.499 120.577L238.7 125.878C238.228 128.989 236.449 131.76 233.799 133.467L233.109 133.915C232.952 134.011 232.867 134.181 232.867 134.362V134.399C232.867 134.58 232.964 134.75 233.109 134.847L233.799 135.294C236.449 137.001 238.228 139.76 238.7 142.883L239.499 148.184C239.535 148.45 239.765 148.644 240.032 148.644C240.298 148.644 240.516 148.45 240.564 148.184L241.363 142.883C241.835 139.772 243.614 137.001 246.264 135.294L246.954 134.847C247.111 134.75 247.196 134.58 247.196 134.399V134.362C247.196 134.181 247.099 134.011 246.954 133.915L246.264 133.467Z" fill="#FF78B9"/>
<path d="M61.8836 22.0515C59.2212 20.3329 57.418 17.5492 56.946 14.4145L56.1473 9.0771C56.111 8.81084 55.881 8.61719 55.6148 8.61719C55.3485 8.61719 55.1186 8.81084 55.0823 9.0771L54.2836 14.4145C53.8116 17.5492 52.0205 20.3329 49.3459 22.0515L48.6561 22.4993C48.4988 22.5962 48.4141 22.7656 48.4141 22.9471V22.9835C48.4141 23.165 48.5109 23.3344 48.6561 23.4313L49.3459 23.8791C52.0084 25.5977 53.8116 28.3814 54.2836 31.5161L55.0823 36.8535C55.1186 37.1198 55.3485 37.3134 55.6148 37.3134C55.881 37.3134 56.111 37.1198 56.1473 36.8535L56.946 31.5161C57.418 28.3814 59.2091 25.5977 61.8836 23.8791L62.5735 23.4313C62.7308 23.3344 62.8155 23.165 62.8155 22.9835V22.9471C62.8155 22.7656 62.7187 22.5962 62.5735 22.4993L61.8836 22.0515Z" fill="#FF78B9"/>
<path d="M33.6834 37.9184C32.0981 36.8897 31.021 35.2316 30.7426 33.3677L30.2707 30.1846C30.2464 30.0273 30.1133 29.9062 29.956 29.9062C29.7987 29.9062 29.6655 30.0273 29.6413 30.1846L29.1694 33.3677C28.891 35.2437 27.8139 36.9018 26.2286 37.9184L25.8171 38.1847C25.7203 38.2452 25.6719 38.342 25.6719 38.451V38.4752C25.6719 38.5841 25.7324 38.6809 25.8171 38.7414L26.2286 39.0077C27.8139 40.0365 28.891 41.6946 29.1694 43.5584L29.6413 46.7415C29.6655 46.8989 29.7987 47.0199 29.956 47.0199C30.1133 47.0199 30.2464 46.8989 30.2707 46.7415L30.7426 43.5584C31.021 41.6825 32.0981 40.0244 33.6834 39.0077L34.0949 38.7414C34.1917 38.6809 34.2401 38.5841 34.2401 38.4752V38.451C34.2401 38.342 34.1796 38.2452 34.0949 38.1847L33.6834 37.9184Z" fill="#91FFAD"/>
<path d="M454.23 262.49C454.52 262.659 454.847 262.744 455.162 262.744C455.827 262.744 456.469 262.369 456.796 261.739C462.968 249.261 475.094 242.834 495.413 241.515C492.509 241.455 489.604 241.346 486.712 241.188C476.861 240.656 467.058 243.948 460.099 250.931C457.57 253.473 455.367 256.475 453.601 260.021C453.165 260.88 453.419 262.006 454.254 262.49H454.23Z" fill="#E03593"/>
<path d="M523.547 240.64C523.547 240.64 523.607 240.64 523.644 240.64C539.812 239.018 553.378 245.227 555.896 255.393C556.089 256.168 556.743 256.7 557.493 256.761C557.699 256.785 557.905 256.761 558.11 256.712C559.078 256.458 559.635 255.369 559.381 254.401C558.473 250.842 556.477 247.696 553.645 245.081C548.683 240.507 541.809 238.606 535.104 239.441C531.256 239.926 527.407 240.313 523.547 240.64Z" fill="#EB459F"/>
<path d="M248.866 281.998H258.088L240.987 172.672H231.766L248.866 281.998Z" fill="#676394"/>
<path d="M170.675 281.998H161.453L178.553 172.672H187.775L170.675 281.998Z" fill="#676394"/>
<path d="M260.253 161.156H45.9985C42.8237 161.156 40.25 163.73 40.25 166.905V166.917C40.25 170.092 42.8237 172.666 45.9985 172.666H260.253C263.428 172.666 266.001 170.092 266.001 166.917V166.905C266.001 163.73 263.428 161.156 260.253 161.156Z" fill="#FFE75C"/>
<path d="M203.18 161.156H45.9985C42.8237 161.156 40.25 163.73 40.25 166.905V166.917C40.25 170.092 42.8237 172.666 45.9985 172.666H203.18C206.355 172.666 208.928 170.092 208.928 166.917V166.905C208.928 163.73 206.355 161.156 203.18 161.156Z" fill="#FFC619"/>
<path d="M211.557 137.765H73.4122C69.9389 137.765 66.9739 135.248 66.393 131.822L54.1094 57.9457C53.589 54.7868 56.0215 51.9062 59.2165 51.9062H197.361C200.835 51.9062 203.8 54.4237 204.38 57.8488L216.664 131.726C217.184 134.884 214.752 137.765 211.557 137.765Z" fill="#423D80"/>
<path d="M194.87 132.736C195.519 132.016 195.324 130.783 194.435 129.983C193.546 129.182 192.3 129.117 191.651 129.837C191.002 130.557 191.197 131.79 192.086 132.591C192.975 133.391 194.222 133.457 194.87 132.736Z" fill="#676394"/>
<path d="M186.675 132.744C187.323 132.024 187.129 130.791 186.24 129.99C185.351 129.19 184.104 129.124 183.456 129.844C182.807 130.565 183.002 131.798 183.891 132.598C184.78 133.399 186.026 133.464 186.675 132.744Z" fill="#676394"/>
<path d="M178.48 132.744C179.128 132.024 178.933 130.791 178.044 129.99C177.155 129.19 175.909 129.124 175.26 129.844C174.612 130.565 174.807 131.798 175.696 132.598C176.584 133.399 177.831 133.464 178.48 132.744Z" fill="#676394"/>
<path d="M211.553 137.765C208.08 137.765 205.115 135.248 204.534 131.822L192.25 57.9457C191.73 54.7868 194.162 51.9062 197.357 51.9062C200.83 51.9062 203.795 54.4237 204.376 57.8488L216.66 131.726C217.18 134.884 214.748 137.765 211.553 137.765Z" fill="black"/>
<path d="M127.194 124.475C115.709 124.475 104.442 112.941 102.094 98.7686C100.763 90.7806 102.445 83.313 106.705 78.2782C109.876 74.5263 114.305 72.4688 119.158 72.4688C130.643 72.4688 141.91 84.0029 144.258 98.1755C145.589 106.164 143.907 113.631 139.647 118.666C136.476 122.418 132.047 124.475 127.194 124.475ZM119.146 76.0997C115.322 76.0997 111.982 77.6609 109.464 80.6262C105.894 84.838 104.503 91.2405 105.664 98.1755C107.746 110.678 117.403 120.844 127.194 120.844C131.018 120.844 134.358 119.283 136.876 116.318C140.446 112.106 141.837 105.704 140.676 98.7686C138.594 86.2662 128.937 76.0997 119.146 76.0997Z" fill="black"/>
<path d="M114.627 87.9219H124.139C125.132 87.9219 125.93 88.7207 125.93 89.7131V155.687H112.836V89.7131C112.836 88.7207 113.635 87.9219 114.627 87.9219Z" fill="#676394"/>
<path d="M125.935 151.43H112.841L106.584 155.303C105.253 156.126 104.43 157.59 104.43 159.163V161.161H159.385V159.321C159.385 157.59 158.114 156.114 156.396 155.859L125.935 151.43Z" fill="#676394"/>
<path d="M249.353 258.906H170.859V266.047H249.353V258.906Z" fill="#676394"/>
<path d="M46.5655 281.998H37.3438L54.4439 172.672H63.6657L46.5655 281.998Z" fill="#676394"/>
<path d="M124.756 281.998H133.978L116.878 172.672H107.656L124.756 281.998Z" fill="#676394"/>
<path d="M46.0843 266.031H124.578V258.89H46.0843V266.031Z" fill="#676394"/>
<path d="M2.14206 197.359H103.013C104.199 197.359 105.155 198.315 105.155 199.502V281.996H0V199.502C0 198.315 0.956061 197.359 2.14206 197.359Z" fill="#1E1C3B"/>
<path d="M100.642 202.469H38.4375V264.799H100.642V202.469Z" fill="#393566"/>
<path d="M51.5452 260.609H38.4387L38.4387 210.902H51.5452C54.2924 210.902 56.5312 213.129 56.5312 215.889L56.5312 255.623C56.5312 258.37 54.3045 260.609 51.5452 260.609Z" fill="#232145"/>
<path d="M100.639 202.469H71.2188V264.799H100.639V202.469Z" fill="black"/>
<path d="M85.9219 249.369V242.628C85.9219 241.89 86.5875 241.333 87.3136 241.454C88.9837 241.745 90.3875 242.555 91.5372 243.693C92.3239 244.468 92.1423 245.787 91.1863 246.332C90.92 246.489 90.6175 246.562 90.3028 246.549C88.8748 246.477 87.3983 247.215 85.9219 249.357V249.369Z" fill="#232145"/>
<path d="M85.9219 249.367H92.6627C93.4009 249.367 93.9576 250.033 93.8366 250.759C93.5462 252.429 92.7353 253.833 91.5977 254.983C90.8232 255.77 89.5041 255.588 88.9595 254.632C88.8022 254.366 88.7296 254.063 88.7417 253.748C88.8143 252.32 88.076 250.844 85.934 249.367H85.9219Z" fill="#232145"/>
<path d="M85.921 249.367V256.109C85.921 256.847 85.2554 257.404 84.5293 257.283C82.8592 256.992 81.4554 256.181 80.3057 255.043C79.5191 254.269 79.7006 252.95 80.6567 252.405C80.9229 252.248 81.2254 252.175 81.5401 252.187C82.9681 252.26 84.4446 251.522 85.921 249.379V249.367Z" fill="#232145"/>
<path d="M85.9235 249.367H79.1827C78.4444 249.367 77.8877 248.701 78.0088 247.975C78.2992 246.305 79.1101 244.901 80.2476 243.751C81.0222 242.964 82.3413 243.146 82.8859 244.102C83.0432 244.368 83.1158 244.671 83.1037 244.986C83.0311 246.414 83.7693 247.89 85.9114 249.367H85.9235Z" fill="#232145"/>
<path d="M2.14206 197.359H31.78C32.966 197.359 33.922 198.315 33.922 199.502V281.996H0V199.502C0 198.315 0.956061 197.359 2.14206 197.359Z" fill="#423D80"/>
<path d="M85.9265 240.582C90.7794 240.582 94.7246 244.527 94.7246 249.38C94.7246 254.234 90.7794 258.179 85.9265 258.179C81.0735 258.179 77.1283 254.234 77.1283 249.38C77.1283 244.527 81.0735 240.582 85.9265 240.582ZM85.9265 238.258C79.7786 238.258 74.8047 243.244 74.8047 249.38C74.8047 255.517 79.7907 260.503 85.9265 260.503C92.0622 260.503 97.0482 255.517 97.0482 249.38C97.0482 243.244 92.0622 238.258 85.9265 238.258Z" fill="url(#paint8_linear_25438_24588)"/>
<path d="M85.9265 212.668C90.7794 212.668 94.7246 216.613 94.7246 221.466C94.7246 226.32 90.7794 230.265 85.9265 230.265C81.0735 230.265 77.1283 226.32 77.1283 221.466C77.1283 216.613 81.0735 212.668 85.9265 212.668ZM85.9265 210.344C79.7786 210.344 74.8047 215.33 74.8047 221.466C74.8047 227.603 79.7907 232.589 85.9265 232.589C92.0622 232.589 97.0482 227.603 97.0482 221.466C97.0482 215.33 92.0622 210.344 85.9265 210.344Z" fill="url(#paint9_linear_25438_24588)"/>
<path d="M85.9219 221.471V214.73C85.9219 213.991 86.5875 213.435 87.3136 213.556C88.9837 213.846 90.3875 214.657 91.5372 215.795C92.3239 216.569 92.1423 217.889 91.1863 218.433C90.92 218.59 90.6175 218.663 90.3028 218.651C88.8748 218.578 87.3983 219.317 85.9219 221.459V221.471Z" fill="#232145"/>
<path d="M85.9219 221.469H92.6627C93.4009 221.469 93.9576 222.134 93.8366 222.861C93.5462 224.531 92.7353 225.935 91.5977 227.085C90.8232 227.871 89.5041 227.69 88.9595 226.734C88.8022 226.467 88.7296 226.165 88.7417 225.85C88.8143 224.422 88.076 222.945 85.934 221.469H85.9219Z" fill="#232145"/>
<path d="M85.921 221.469V228.21C85.921 228.948 85.2554 229.505 84.5293 229.384C82.8592 229.094 81.4554 228.283 80.3057 227.145C79.5191 226.37 79.7006 225.051 80.6567 224.507C80.9229 224.349 81.2254 224.277 81.5401 224.289C82.9681 224.361 84.4446 223.623 85.921 221.481V221.469Z" fill="#232145"/>
<path d="M85.9235 221.468H79.1827C78.4444 221.468 77.8877 220.803 78.0088 220.077C78.2992 218.406 79.1101 217.002 80.2476 215.853C81.0222 215.066 82.3413 215.247 82.8859 216.204C83.0432 216.47 83.1158 216.772 83.1037 217.087C83.0311 218.515 83.7693 219.992 85.9114 221.468H85.9235Z" fill="#232145"/>
<path d="M85.9273 224.722C87.7253 224.722 89.1828 223.265 89.1828 221.467C89.1828 219.669 87.7253 218.211 85.9273 218.211C84.1294 218.211 82.6719 219.669 82.6719 221.467C82.6719 223.265 84.1294 224.722 85.9273 224.722Z" fill="#3D6EC3"/>
<path d="M89.1814 236.805H38.4375V244.563H89.1814V236.805Z" fill="#4F4A9C"/>
<path d="M89.1814 239.672H38.4375V242.044H89.1814V239.672Z" fill="black"/>
<path d="M48.8047 247.308C58.8736 247.308 62.5526 250.757 66.6915 256.47C70.9151 262.291 78.733 261.045 80.9961 255.381C82.9082 250.612 80.1973 245.069 77.426 242.079C76.9298 241.547 77.305 240.688 78.0311 240.688H82.4725C83.2713 240.688 84.0337 240.99 84.6025 241.547C87.5312 244.379 90.7261 250.322 88.693 255.393C86.4299 261.057 80.5362 261.626 76.4578 261.626H68.7004C63.1456 261.626 61.5118 260.004 58.6194 256.482C55.727 252.96 53.6334 248.881 47.183 248.881H44.8836C44.5326 248.881 44.2422 248.591 44.2422 248.24V247.961C44.2422 247.61 44.5326 247.32 44.8836 247.32H48.8047V247.308Z" fill="#3D6EC3"/>
<path d="M79.8265 202.469H38.4375V208.097H79.8265V202.469Z" fill="#424D80"/>
<path d="M100.642 272.242H38.4375V275.05H100.642V272.242Z" fill="black"/>
<path d="M241.98 179.002L240.987 172.672H231.766L232.758 179.002H241.98Z" fill="#423D80"/>
<path d="M186.784 179.002L187.777 172.672H178.555L177.562 179.002H186.784Z" fill="#423D80"/>
<path d="M117.87 179.002L116.878 172.672H107.656L108.649 179.002H117.87Z" fill="#423D80"/>
<path d="M62.687 179.002L63.6673 172.672H54.4455L53.4531 179.002H62.687Z" fill="#423D80"/>
</g>
<defs>
<linearGradient id="paint0_linear_25438_24588" x1="505.919" y1="244.61" x2="505.919" y2="126.581" gradientUnits="userSpaceOnUse">
<stop stop-color="#FF8C19"/>
<stop offset="0.16" stop-color="#FF9A19"/>
<stop offset="0.55" stop-color="#FFBA19"/>
<stop offset="0.77" stop-color="#FFC619"/>
</linearGradient>
<linearGradient id="paint1_linear_25438_24588" x1="494.882" y1="217.876" x2="507.179" y2="183.093" gradientUnits="userSpaceOnUse">
<stop offset="0.24" stop-color="#FFC619"/>
<stop offset="1" stop-color="#FFC619" stop-opacity="0"/>
</linearGradient>
<linearGradient id="paint2_linear_25438_24588" x1="496.111" y1="229.06" x2="546.359" y2="229.06" gradientUnits="userSpaceOnUse">
<stop offset="0.24" stop-color="#FFC619"/>
<stop offset="0.88" stop-color="#FFC619" stop-opacity="0"/>
</linearGradient>
<linearGradient id="paint3_linear_25438_24588" x1="365.561" y1="71.5859" x2="365.561" y2="214.038" gradientUnits="userSpaceOnUse">
<stop stop-color="#D7D7E3"/>
<stop offset="0.43" stop-color="#D4D4E1"/>
<stop offset="0.69" stop-color="#CCCCDA"/>
<stop offset="0.9" stop-color="#BDBDCF"/>
<stop offset="1" stop-color="#B4B4C8"/>
</linearGradient>
<linearGradient id="paint4_linear_25438_24588" x1="243.907" y1="160.809" x2="281.448" y2="160.809" gradientUnits="userSpaceOnUse">
<stop offset="0.09" stop-color="#698EFF"/>
<stop offset="1" stop-color="#4970DE"/>
</linearGradient>
<linearGradient id="paint5_linear_25438_24588" x1="366.902" y1="191.54" x2="284.485" y2="234.67" gradientUnits="userSpaceOnUse">
<stop offset="0.09" stop-color="#698EFF"/>
<stop offset="1" stop-color="#4970DE"/>
</linearGradient>
<linearGradient id="paint6_linear_25438_24588" x1="382.515" y1="160.314" x2="327.305" y2="160.314" gradientUnits="userSpaceOnUse">
<stop offset="0.09" stop-color="#698EFF"/>
<stop offset="1" stop-color="#4970DE"/>
</linearGradient>
<linearGradient id="paint7_linear_25438_24588" x1="409.402" y1="259.24" x2="593.002" y2="259.24" gradientUnits="userSpaceOnUse">
<stop stop-color="#EB459F"/>
<stop offset="1" stop-color="#FF78B9"/>
</linearGradient>
<linearGradient id="paint8_linear_25438_24588" x1="74.8047" y1="249.38" x2="97.0603" y2="249.38" gradientUnits="userSpaceOnUse">
<stop stop-color="#5865F0"/>
<stop offset="1" stop-color="#E9459D"/>
</linearGradient>
<linearGradient id="paint9_linear_25438_24588" x1="0.00196735" y1="221.466" x2="1.21217" y2="221.466" gradientUnits="userSpaceOnUse">
<stop stop-color="#5865F0"/>
<stop offset="1" stop-color="#E9459D"/>
</linearGradient>
<clipPath id="clip0_25438_24588">
<rect width="593" height="282" fill="white"/>
</clipPath>
</defs>
</svg>
