<svg id="Layer_1" data-name="Layer 1" xmlns="http://www.w3.org/2000/svg" viewBox="0 0 1812.81 258"><defs><style>.cls-1{fill:#fff;}</style></defs><path class="cls-1" d="M1812.81,258,211.18,256.6l.07,1.4H0V158.24A92.71,92.71,0,0,1,78.49,66.65c8.47-1.31,16.75-2.76,24.33-4.34,44-9.14,68.25-22.16,90.66-26.45a51.62,51.62,0,0,1,16.73-1,137.89,137.89,0,0,1,22.6,4.53,100.58,100.58,0,0,0,49.95.71c32.33-7.75,91.91-8.52,141.59,66,0,0,79.89-165.14,202.73-83.23,0,0,23.28-6.6,83.9-2.64,119.63,7.26,140.14,115.12,191.88,101.72,114.82-29.72,88.27-61.43,171-48.88,31.59,4.8,44.43-23.88,76.27-50.2C1182.6-4,1230.46-1.36,1299.48,44.59c0,0,51.13,26.67,82.58,84,0,0,98.06-86.66,184-16,0,0,10.58-20.74,78.69-14.54,118.35,2.94,168.07,63.19,168.07,63.19Z"/></svg>