<svg width="584" height="505" viewBox="0 0 584 505" fill="none" xmlns="http://www.w3.org/2000/svg">
<path d="M552.332 312.253C551.436 312.253 550.54 312.337 549.644 312.38C546.178 305.994 541.438 300.374 535.713 295.859C529.988 291.344 523.398 288.03 516.341 286.116C509.284 284.202 501.909 283.73 494.663 284.727C487.416 285.724 480.45 288.171 474.186 291.917C468.04 283.621 459.605 277.263 449.897 273.607C440.19 269.951 429.623 269.154 419.469 271.311C409.315 273.469 400.006 278.489 392.664 285.768C385.321 293.046 380.257 302.273 378.082 312.337C376.928 311.424 375.701 310.604 374.414 309.885C359.826 301.472 340.844 306.926 332.057 321.977C324.208 335.379 327.108 351.951 338.199 361.337C332.142 365.184 328.26 371.061 328.26 377.656C328.26 389.24 340.204 398.626 355.005 398.626C360.185 398.659 365.295 397.44 369.892 395.074C374.857 405.183 382.911 413.482 392.909 418.791C402.907 424.1 414.34 426.148 425.581 424.645C436.822 423.142 447.298 418.163 455.519 410.418C463.74 402.672 469.287 392.554 471.371 381.503C482.22 388.985 495.467 392.249 508.588 390.675C521.709 389.1 533.787 382.796 542.521 372.963C547.238 374.509 552.259 374.923 557.169 374.171C562.079 373.418 566.739 371.522 570.766 368.637C574.793 365.752 578.071 361.961 580.332 357.576C582.592 353.19 583.77 348.336 583.769 343.411C583.769 335.148 580.457 327.222 574.561 321.379C568.666 315.536 560.669 312.253 552.332 312.253Z" fill="white" fill-opacity="0.2"/>
<path d="M310.122 222.863C309.069 222.863 308.015 222.963 306.962 223.013C302.885 215.474 297.311 208.838 290.579 203.508C283.846 198.178 276.096 194.264 267.797 192.005C259.499 189.745 250.825 189.188 242.303 190.365C233.782 191.542 225.589 194.431 218.223 198.854C210.995 189.059 201.075 181.552 189.659 177.236C178.243 172.919 165.816 171.978 153.875 174.526C141.934 177.073 130.987 183 122.352 191.593C113.718 200.187 107.763 211.08 105.205 222.963C103.847 221.885 102.404 220.916 100.891 220.068C83.735 210.135 61.4123 216.574 51.0787 234.343C41.8486 250.166 45.2597 269.733 58.3022 280.814C51.179 285.356 46.6141 292.294 46.6141 300.081C46.6141 313.758 60.6599 324.839 78.0666 324.839C84.158 324.878 90.1671 323.439 95.5736 320.646C101.412 332.58 110.883 342.378 122.641 348.646C134.399 354.914 147.844 357.333 161.063 355.558C174.283 353.783 186.603 347.906 196.271 338.761C205.938 329.616 212.462 317.67 214.912 304.623C227.671 313.457 243.249 317.311 258.68 315.451C274.11 313.592 288.314 306.149 298.585 294.541C304.132 296.365 310.036 296.854 315.811 295.966C321.585 295.078 327.066 292.839 331.801 289.433C336.537 286.027 340.392 281.551 343.05 276.373C345.709 271.196 347.094 265.464 347.093 259.65C347.093 249.894 343.198 240.537 336.264 233.638C329.331 226.739 319.927 222.863 310.122 222.863Z" fill="white" fill-opacity="0.2"/>
<g clip-path="url(#clip0_27848_24606)">
<g clip-path="url(#clip1_27848_24606)">
<path d="M104.439 243.65C104.439 233.36 96.6536 224.886 86.6351 223.69C84.7358 217.839 83.6919 211.585 83.6919 205.1C83.6919 171.695 110.935 144.602 144.557 144.602C178.179 144.602 205.422 171.68 205.422 205.1C205.422 238.519 178.179 265.598 144.557 265.598C128.739 265.598 114.327 259.589 103.497 249.746C104.106 247.829 104.454 245.783 104.454 243.65H104.439Z" fill="#8CD9FF"/>
<path d="M84.198 258.278C76.0706 258.278 69.482 251.729 69.482 243.651C69.482 235.572 76.0706 229.023 84.198 229.023C92.3255 229.023 98.9141 235.572 98.9141 243.651C98.9141 251.729 92.3255 258.278 84.198 258.278Z" fill="#57F287"/>
<path d="M137.383 153.25C128.582 136.144 102.862 116.818 84.4195 118.778C71.1534 120.191 74.14 131.864 83.8976 135.582C95.6124 140.049 104.921 141.217 129.554 157.847C134.106 160.931 137.383 153.236 137.383 153.236V153.25Z" fill="#FF78B9"/>
<path d="M134.945 154.594C129.566 144.16 116.155 132.588 105.745 128.178C94.7408 123.509 93.6969 130.34 101.352 134.62C108.021 138.353 117.025 142.647 131.857 156.107C134.336 158.355 134.945 154.594 134.945 154.594Z" fill="#FFAED7"/>
<path d="M155.118 146.166C155.466 126.956 141.968 97.8599 124.773 90.9425C112.406 85.9707 109.491 97.6582 116.335 105.512C124.541 114.937 132.196 120.327 146.028 146.555C148.58 151.412 155.118 146.152 155.118 146.152V146.166Z" fill="#FF78B9"/>
<path d="M152.323 146.222C152.54 134.506 146.19 118.005 139.115 109.243C131.619 99.9621 127.472 105.496 132.184 112.86C136.302 119.273 142.203 127.3 148.887 146.121C150.003 149.277 152.323 146.236 152.323 146.236V146.222Z" fill="#FFAED7"/>
<path d="M212.652 206.621C196.747 215.009 166.198 229.492 143.407 241.396C115.192 256.11 107.001 233.714 112.771 207.904C94.0825 197.326 80.7438 180.926 106.537 167.221C135.679 151.729 164.531 137.707 178.537 130.991C191.774 124.65 204.779 132.433 203.938 162.177C233.53 168.547 238.735 192.888 212.666 206.636L212.652 206.621Z" fill="#FF78B9"/>
<path d="M141.572 181.013C138.501 178.289 137.36 174.579 139.023 172.726C140.687 170.874 144.525 171.579 147.596 174.303C150.667 177.026 151.808 180.736 150.145 182.589C148.481 184.442 144.644 183.737 141.572 181.013Z" fill="black"/>
<path d="M166.635 167.802C163.564 165.078 162.423 161.368 164.086 159.516C165.749 157.663 169.587 158.368 172.658 161.092C175.729 163.816 176.87 167.526 175.207 169.378C173.544 171.231 169.706 170.526 166.635 167.802Z" fill="black"/>
<path d="M155.62 199.496C154.692 197.306 153.822 194.654 153.053 191.57C152.865 190.792 153.474 190.057 154.271 190.086C158.389 190.23 162.869 189.754 166.74 188.5C167.523 188.241 168.32 188.817 168.335 189.624C168.364 195.029 167.842 199.179 166.972 202.09L155.634 199.496H155.62Z" fill="black"/>
<path d="M166.969 202.087C164.591 209.941 159.589 208.861 155.631 199.493C159.632 199.147 163.46 199.796 166.969 202.087Z" fill="#EB459F"/>
<path d="M285.33 148.048C285.33 137.759 277.544 129.285 267.526 128.089C265.626 122.238 264.583 115.983 264.583 109.498C264.583 76.0931 291.825 49 325.448 49C359.07 49 386.312 76.0786 386.312 109.498C386.312 142.918 359.07 169.996 325.448 169.996C309.63 169.996 295.218 163.987 284.388 154.144C284.997 152.227 285.344 150.181 285.344 148.048H285.33Z" fill="#EB459E"/>
<path d="M265.089 162.677C256.961 162.677 250.373 156.128 250.373 148.049C250.373 139.971 256.961 133.422 265.089 133.422C273.216 133.422 279.805 139.971 279.805 148.049C279.805 156.128 273.216 162.677 265.089 162.677Z" fill="#57F287"/>
<path d="M382.591 66.967C399.917 64.618 414.909 64.2145 408.051 47.6128C401.106 30.7805 389.71 41.7907 376.908 51.1579L382.591 66.9814V66.967Z" fill="#242145"/>
<path d="M380.32 48.6207C382.741 51.8632 384.466 55.5381 385.235 59.6597C385.626 61.807 385.829 64.1272 385.843 66.5339C387.322 66.3465 388.758 66.1591 390.164 65.9718C390.092 63.7813 389.874 61.6773 389.512 59.6741C388.584 54.659 386.394 50.2204 383.35 46.3438C382.349 47.0787 381.334 47.8425 380.32 48.6207Z" fill="#EB459F"/>
<path d="M315.303 144.557C339.487 152.439 363.714 147.785 373.442 118.271C376.241 109.768 379.851 99.4783 382.461 89.2608C382.548 88.9293 382.634 88.6123 382.707 88.2808C385.259 77.948 386.738 67.7593 385.23 59.6602C385.157 59.2566 385.07 58.8675 384.983 58.464C381.127 41.8047 363.076 32.985 347.316 32.1203C344.75 31.9906 342.241 32.0483 339.864 32.3365C337.573 32.6103 335.413 33.0715 333.441 33.7344C319.957 38.2451 309.069 49.8461 301.428 71.2612C272.692 70.8 260.049 126.528 315.289 144.542L315.303 144.557Z" fill="#4B7DFF"/>
<path d="M329.368 90.4199C319.611 89.5048 312.525 80.0783 313.542 69.3652C314.559 58.652 323.293 50.7092 333.051 51.6243C342.809 52.5394 349.894 61.9659 348.877 72.679C347.861 83.3921 339.126 91.335 329.368 90.4199Z" fill="white"/>
<path d="M316.442 64.583C314.421 61.5408 316.402 56.7002 320.866 53.7711C325.33 50.8421 330.587 50.9338 332.607 53.976C334.628 57.0182 332.647 61.8588 328.183 64.7879C323.719 67.7169 318.462 67.6252 316.442 64.583Z" fill="#242145"/>
<path d="M308.503 97.3772C307.025 109.166 310.562 117.308 316.376 121.631L351.999 109.67C353.768 106.701 357.48 100.231 358.625 96.3828C340.415 105.116 318.464 107.552 308.503 97.3916V97.3772Z" fill="#242145"/>
<path d="M316.377 121.614C326.28 129.007 342.764 125.275 352 109.653C335.095 108.01 323.307 111.916 316.377 121.614Z" fill="#EB459F"/>
<path d="M335.686 123.838C338.223 122.93 340.746 121.576 343.109 119.774C341.486 117.627 338.76 114.125 337.803 113.16C336.498 111.848 335.135 117.497 335.686 123.838Z" fill="white"/>
<path d="M380.88 54.0943C377.14 56.6018 373.79 61.1414 371.92 66.805C368.571 76.9505 371.21 86.923 377.792 89.0702C379.285 89.5602 380.88 89.6035 382.461 89.2576C382.548 88.9261 382.634 88.6091 382.707 88.2776C385.259 77.9448 386.738 67.7561 385.23 59.657C385.157 59.2535 385.07 58.8644 384.983 58.4609C381.127 41.8015 363.076 32.9819 347.316 32.1172C357.784 46.3266 380.184 53.8349 380.88 54.0799V54.0943Z" fill="#242145"/>
<path d="M357.719 50.6857C356.197 41.8804 348.208 34.5884 338.915 37.1536C336.261 37.9318 336.711 41.7796 339.451 41.9525C341.06 42.0246 342.612 42.2551 343.989 42.7163C348.469 44.0998 351.035 48.1349 353.08 52.1844C354.327 54.7785 358.256 53.5103 357.734 50.7001L357.719 50.6857Z" fill="#242145"/>
<path d="M369.185 89.8954C377.348 81.9404 391.006 76.4498 396.965 75.268C398.559 74.951 399.893 76.5074 399.342 78.035C391.194 100.79 382.118 106.382 374.405 103.874L369.185 89.8954Z" fill="#4B7DFF"/>
<path d="M176.745 341.337C177.47 348.039 180.457 357.406 190.664 361.888C190.664 361.888 171.366 362.983 166.625 345.113C162.044 327.863 176.383 337.908 176.745 341.337Z" fill="white"/>
<path d="M150.845 336.911C142.83 326.401 144.905 311.423 155.479 303.457C166.053 295.49 181.122 297.553 189.137 308.063C197.151 318.573 195.076 333.552 184.502 341.518C173.928 349.484 158.859 347.422 150.845 336.911Z" fill="white"/>
<path d="M158.779 315.37C161.273 312.661 165.507 312.474 168.233 314.952L170.175 316.725L171.959 314.794C174.452 312.085 178.686 311.897 181.412 314.376C184.137 316.855 184.326 321.063 181.832 323.772L171.016 335.517L159.2 324.766C156.474 322.288 156.286 318.08 158.779 315.37Z" fill="#FF78B9"/>
<path d="M485.556 450.126C489.601 447.503 492.327 443.295 493.037 438.568L494.255 430.526C494.313 430.123 494.661 429.82 495.067 429.82C495.473 429.82 495.821 430.123 495.879 430.526L497.097 438.568C497.822 443.309 500.547 447.517 504.578 450.126L505.694 450.832C505.897 450.962 506.013 451.192 505.999 451.437C505.999 451.711 505.897 451.956 505.694 452.143L504.578 452.748C500.533 455.371 497.807 459.579 497.097 464.306L495.879 472.348C495.821 472.751 495.473 473.054 495.067 473.054C494.661 473.054 494.313 472.751 494.255 472.348L493.037 464.306C492.312 459.565 489.586 455.357 485.556 452.748L484.439 452.143C484.236 451.97 484.12 451.711 484.135 451.437C484.135 451.192 484.236 450.976 484.439 450.832L485.556 450.126Z" fill="#FF78B9"/>
<path d="M45.7756 293.912C50.6906 290.669 53.9963 285.524 54.8807 279.731L56.3595 269.946C56.3595 269.456 56.8525 269.211 57.3454 269.211C57.8384 269.211 58.0849 269.456 58.3314 269.946L59.8102 279.731C60.6076 285.553 63.9278 290.741 68.9153 293.912L70.1477 294.647C70.3942 294.892 70.6406 295.137 70.6406 295.382C70.6406 295.627 70.3942 295.872 70.1477 296.117L68.9153 296.852C63.9423 300.022 60.6076 305.21 59.8102 311.032L58.3314 320.817C58.0849 321.307 57.8384 321.552 57.3454 321.552C56.8525 321.552 56.3595 321.307 56.3595 320.817L54.8807 311.032C53.9963 305.239 50.6906 300.094 45.7756 296.852L44.2967 296.117C44.0502 295.872 43.8038 295.627 43.8038 295.382C43.8038 295.137 44.0502 294.892 44.2967 294.647L45.7756 293.912Z" fill="#3442D9"/>
<path d="M100.08 344.362C103.588 342.042 105.966 338.353 106.604 334.202L107.662 327.199C107.662 326.853 108.01 326.68 108.373 326.68C108.721 326.68 108.895 326.853 109.083 327.199L110.142 334.202C110.707 338.367 113.099 342.085 116.666 344.362L117.55 344.881C117.724 345.054 117.898 345.227 117.898 345.4C117.898 345.573 117.724 345.746 117.55 345.919L116.666 346.437C113.099 348.714 110.722 352.418 110.142 356.597L109.083 363.601C108.909 363.947 108.735 364.12 108.373 364.12C108.025 364.12 107.662 363.947 107.662 363.601L106.604 356.597C105.966 352.447 103.603 348.758 100.08 346.437L99.0213 345.919C98.8473 345.746 98.6733 345.573 98.6733 345.4C98.6733 345.227 98.8473 345.054 99.0213 344.881L100.08 344.362Z" fill="#FFE75C"/>
<path d="M248.031 406.366C264.703 398.639 285.596 401.31 301.985 413.252C318.374 425.193 288.551 446.336 288.551 446.336L246.977 433.182L248.031 406.366Z" fill="#3C71E5"/>
<path d="M212.119 404.689L212.169 404.773C219.712 400.708 226.963 397.604 233.291 397.397L230.983 393.514C230.045 391.931 228.002 391.412 226.418 392.349L213.282 400.127C211.697 401.063 211.177 403.103 212.115 404.686L212.119 404.689Z" fill="#009AF8"/>
<path d="M188.195 417.906L188.239 417.993C180.784 422.21 174.3 426.697 170.759 431.941L168.691 427.927C167.848 426.294 168.491 424.29 170.13 423.448L183.71 416.472C185.346 415.63 187.352 416.272 188.195 417.909V417.906Z" fill="#009AF8"/>
<path d="M222.642 451.544C211.927 457.108 208.793 464.219 207.22 471.612C194.294 532.383 175.056 491.129 174.543 489.942C167.83 474.385 164.726 450.161 168.019 437.211C170.708 426.623 185.266 418.594 199.481 410.58C213.697 402.566 228.098 394.265 238.566 397.434C251.371 401.306 270.541 416.471 280.413 430.245C281.165 431.294 306.605 469.053 247.816 448.72C240.663 446.245 232.946 445.25 222.642 451.54V451.544Z" fill="white"/>
<path d="M200.519 458.006C205.232 458.006 209.053 454.19 209.053 449.483C209.053 444.777 205.232 440.961 200.519 440.961C195.805 440.961 191.984 444.777 191.984 449.483C191.984 454.19 195.805 458.006 200.519 458.006Z" fill="#3FBEFF"/>
<path d="M188.416 436.137C190.074 436.137 191.419 434.794 191.419 433.139C191.419 431.483 190.074 430.141 188.416 430.141C186.758 430.141 185.414 431.483 185.414 433.139C185.414 434.794 186.758 436.137 188.416 436.137Z" fill="#3FBEFF"/>
<path d="M177.737 442.16C179.395 442.16 180.739 440.818 180.739 439.162C180.739 437.506 179.395 436.164 177.737 436.164C176.079 436.164 174.734 437.506 174.734 439.162C174.734 440.818 176.079 442.16 177.737 442.16Z" fill="#3FBEFF"/>
<path d="M180.057 433.816C181.715 433.816 183.059 432.474 183.059 430.818C183.059 429.163 181.715 427.82 180.057 427.82C178.399 427.82 177.055 429.163 177.055 430.818C177.055 432.474 178.399 433.816 180.057 433.816Z" fill="#3FBEFF"/>
<path d="M186.088 444.481C187.746 444.481 189.091 443.138 189.091 441.482C189.091 439.827 187.746 438.484 186.088 438.484C184.43 438.484 183.086 439.827 183.086 441.482C183.086 443.138 184.43 444.481 186.088 444.481Z" fill="#3FBEFF"/>
<path d="M231.027 417.795C235.74 417.795 239.561 413.979 239.561 409.272C239.561 404.566 235.74 400.75 231.027 400.75C226.313 400.75 222.492 404.566 222.492 409.272C222.492 413.979 226.313 417.795 231.027 417.795Z" fill="#3FBEFF"/>
<path d="M228.584 431.165L231.23 429.673L229.737 427.031C228.911 425.572 229.428 423.724 230.889 422.9C232.35 422.076 234.2 422.592 235.025 424.051L236.519 426.693L239.165 425.202C240.626 424.378 242.476 424.893 243.301 426.352C244.127 427.811 243.61 429.659 242.149 430.483L239.503 431.974L240.997 434.617C241.822 436.076 241.306 437.923 239.845 438.747C238.384 439.571 236.534 439.056 235.708 437.597L234.215 434.954L231.568 436.446C230.107 437.27 228.257 436.755 227.432 435.296C226.607 433.836 227.123 431.989 228.584 431.165Z" fill="#3FBEFF"/>
<path d="M199.486 410.579C205.287 407.309 211.121 403.992 216.704 401.422L216.959 401.876C220.128 407.578 218.067 414.764 212.357 417.929L199.955 424.8C194.245 427.965 187.048 425.907 183.879 420.205L183.719 419.918C188.571 416.71 194.052 413.643 199.486 410.579Z" fill="#71DAFF" stroke="#71DAFF" stroke-width="0.61" stroke-miterlimit="10"/>
<path d="M266.531 409.527C258.651 415.356 252.25 421.988 259.636 429.559C267.022 437.13 286.864 433.69 286.864 433.69L266.531 409.523V409.527Z" fill="#3C71E5"/>
<path d="M427.659 252.081L427.684 252.096C431.908 253.003 435.659 253.54 438.992 253.784C488.41 257.384 462.414 205.172 429.952 214.979C421.64 217.469 416.809 218.943 413.185 218.206C411.331 217.847 410.299 217.458 410.299 217.458C410.299 217.458 409.645 218.231 408.584 219.491C400.856 228.652 404.342 242.688 415.464 247.17L427.659 252.085V252.081Z" fill="#00F479"/>
<path d="M425.326 239.721C444.565 239.721 464.036 231.877 484.38 216.008C486.288 214.52 486.626 211.772 485.136 209.87C483.646 207.965 480.894 207.627 478.986 209.115C454.648 228.098 431.996 234.606 409.733 229.013C407.392 228.425 405.008 229.844 404.415 232.189C403.823 234.53 405.248 236.908 407.592 237.496C413.491 238.98 419.398 239.724 425.323 239.724L425.326 239.721Z" fill="#008F2F"/>
<path d="M439 253.784C428.633 253.697 406.643 246.902 388.011 235.044C315.189 188.705 388.091 124.863 407.359 199.753C416.01 233.375 431.487 249.414 439 253.784Z" fill="#00CF71"/>
<mask id="mask0_27848_24606" style="mask-type:luminance" maskUnits="userSpaceOnUse" x="356" y="165" width="83" height="89">
<path d="M439 253.784C428.633 253.697 406.643 246.902 388.011 235.044C315.189 188.705 388.091 124.863 407.359 199.753C416.01 233.375 431.487 249.414 439 253.784Z" fill="white"/>
</mask>
<g mask="url(#mask0_27848_24606)">
<path d="M421.763 259.848C423.202 259.848 424.612 259.14 425.448 257.844C426.76 255.815 426.172 253.108 424.14 251.797C399.074 235.664 384.699 214.492 382.573 190.565C382.358 188.159 380.228 186.388 377.822 186.595C375.412 186.809 373.631 188.932 373.846 191.338C375.503 209.966 384.746 236.85 419.393 259.151C420.127 259.623 420.948 259.848 421.763 259.848Z" fill="#008F2F"/>
</g>
<path d="M340.702 409.085L366.658 418.286C382.611 423.941 399.345 422.605 413.51 415.869C439.317 403.601 449.545 383.46 458.428 358.47C467.311 333.48 472.051 311.317 459.809 285.638C448.636 262.197 415.215 247.889 399.934 242.474C384.654 237.059 350.418 225.963 326.839 237.171C301.033 249.439 297.729 264.049 285.901 297.31C275.248 327.277 269.944 344.59 277.897 371.264C280.852 381.169 287.857 389.351 297.227 393.742C308.68 399.111 324.451 403.325 340.702 409.085Z" fill="#5D90FF"/>
<path d="M300.833 357.325C301.4 359.463 302.665 363.862 304.453 367.84C306.605 372.635 309.513 376.82 312.875 375.72C318.571 373.858 319.996 366.015 319.999 358.628C319.999 354.098 319.469 349.743 319.051 347.043C318.873 345.881 317.473 345.384 316.608 346.171C313.849 348.676 308.412 353.053 301.735 355.579C301.033 355.844 300.648 356.599 300.837 357.325H300.833Z" fill="#AC0062"/>
<path d="M304.453 367.837C306.605 372.632 309.513 376.817 312.875 375.717C318.571 373.855 319.995 366.011 319.999 358.625C313.191 360.799 307.91 363.953 304.457 367.837H304.453Z" fill="#FFA8D8"/>
<path d="M334.981 295.72C337.384 288.957 336.971 282.637 334.058 281.605C331.144 280.572 326.834 285.218 324.43 291.981C322.027 298.744 322.44 305.064 325.353 306.096C328.267 307.129 332.577 302.483 334.981 295.72Z" fill="black"/>
<path d="M273.994 349.941L268.691 348.061C257.377 344.051 251.45 331.622 255.466 320.323L268.648 283.234C272.004 273.79 282.41 268.842 291.867 272.194L300.534 275.266C307.22 277.635 310.722 284.981 308.349 291.658L290.409 342.136C288.036 348.813 280.68 352.31 273.994 349.941Z" fill="#B1CCFF"/>
<path d="M277.248 330.954C278.226 328.204 275.457 324.712 271.064 323.155C266.671 321.598 262.318 322.566 261.34 325.316C260.363 328.067 263.131 331.559 267.524 333.116C271.917 334.673 276.27 333.705 277.248 330.954Z" fill="#5D90FF"/>
<path d="M343.281 398.071C316.551 396.808 300.18 399.054 280.436 430.944C268.51 450.21 263.12 459.324 260.725 463.524C259.54 465.596 257.261 466.794 254.876 466.602C244.794 465.778 218.812 463.411 214.971 460.591C210.187 457.078 200.9 444.857 192.602 444.857C184.3 444.857 179.939 452.163 180.786 459.186C166.857 456.235 151.664 459.045 151.664 482.79C151.664 496.408 158.676 533.841 209.348 513.838C287.498 533.507 307.446 522.701 338.639 466.634L290.664 503.863H438.809C438.809 503.863 431.634 440.222 413.486 408.19L343.281 398.074V398.071Z" fill="#5D90FF"/>
<path d="M313.119 506.69C313.86 506.69 314.602 506.4 315.158 505.826C323.278 497.424 331.038 486.114 341.114 468.005C341.873 466.641 341.379 464.92 340.012 464.162C338.646 463.403 336.923 463.893 336.163 465.258C326.342 482.912 318.84 493.87 311.083 501.899C309.996 503.024 310.029 504.813 311.156 505.895C311.705 506.425 312.414 506.686 313.122 506.686L313.119 506.69Z" fill="#3C71E5"/>
<path d="M398.458 420.713C398.487 420.713 398.512 420.713 398.541 420.713C405.872 420.499 411.895 419.356 417.493 417.116C418.943 416.535 419.648 414.888 419.067 413.439C418.485 411.991 416.835 411.287 415.385 411.868C410.427 413.853 405.018 414.869 398.374 415.062C396.811 415.105 395.583 416.408 395.626 417.969C395.67 419.501 396.927 420.713 398.454 420.713H398.458Z" fill="#3C71E5"/>
<path d="M313.874 395.422C329.078 395.422 343.559 387.676 351.846 374.809L360.333 361.634C361.358 360.044 360.897 357.924 359.305 356.904C357.713 355.881 355.59 356.342 354.569 357.931L346.081 371.107C338.256 383.255 323.913 390.006 309.556 388.333L287.358 385.125C285.486 384.86 283.745 386.152 283.473 388.021C283.204 389.89 284.501 391.629 286.373 391.901L308.662 395.121C310.403 395.324 312.14 395.425 313.87 395.425L313.874 395.422Z" fill="black"/>
<path d="M296.351 393.075L287.504 392.193C282.492 391.605 278.904 387.068 279.493 382.063C280.082 377.058 284.625 373.475 289.638 374.063L298.485 374.945C303.497 375.533 307.084 380.07 306.496 385.075C305.907 390.081 301.363 393.663 296.351 393.075Z" fill="black"/>
<path d="M345.898 232.514C352.735 232.042 359.79 232.55 366.572 233.592C367.412 233.719 368.244 233.857 369.073 234.002C369.487 234.071 369.902 234.147 370.313 234.223C370.342 234.227 370.371 234.234 370.396 234.238C371.127 234.376 371.857 234.51 372.581 234.659C373.049 234.753 373.518 234.848 373.984 234.946C374.74 235.105 375.488 235.272 376.234 235.436C377.073 235.628 377.909 235.82 378.731 236.024C379.116 236.118 379.505 236.212 379.886 236.307C380.272 236.405 380.65 236.499 381.031 236.601C381.409 236.699 381.78 236.793 382.155 236.891C382.296 236.927 382.438 236.967 382.576 237.004C383.18 237.163 383.779 237.33 384.368 237.494C385.095 237.693 385.807 237.9 386.509 238.1C386.862 238.205 387.21 238.303 387.556 238.405C389.286 238.92 390.943 239.436 392.51 239.94C402.396 243.334 411.687 247.141 408.201 264.415C406.925 272.599 405.032 277.91 402.098 285.626C400.19 290.613 402.705 296.196 407.7 298.079C412.883 300.065 418.731 297.197 420.345 291.902C423.631 281.43 428.094 265.126 425.063 253.613C418.386 228.035 384.303 224.053 357.1 225.581C356.795 225.599 349.242 225.128 345.891 232.507L345.898 232.514Z" fill="black"/>
<path d="M369.762 384.409C348.717 375.908 340.521 347.216 351.454 320.328C362.387 293.436 388.31 278.529 409.356 287.029L412.481 288.332L372.888 385.715L369.762 384.412V384.409Z" fill="black"/>
<path d="M430.73 352.514C441.716 325.645 433.584 296.916 412.566 288.347C391.549 279.778 365.605 294.613 354.619 321.482C343.632 348.351 351.765 377.08 372.782 385.649C393.8 394.218 419.744 379.383 430.73 352.514Z" fill="black"/>
<path d="M434.427 353.991C444.169 330.164 436.959 304.688 418.322 297.089C399.685 289.491 376.679 302.647 366.937 326.474C357.195 350.301 364.405 375.777 383.042 383.376C401.679 390.974 424.684 377.818 434.427 353.991Z" fill="#00DA83"/>
<path d="M396.336 370.975C391.891 368.772 388.878 364.192 387.802 357.949C386.704 351.579 387.74 344.134 390.721 336.988C397.1 321.685 410.01 312.836 420.107 316.847C430.198 320.868 433.12 335.982 426.737 351.285C420.358 366.587 407.448 375.433 397.35 371.426C397.005 371.288 396.667 371.139 396.34 370.975H396.336ZM419.66 319.87C419.435 319.758 419.206 319.656 418.973 319.562C410.948 316.375 399.477 324.937 393.923 338.258C391.128 344.966 390.146 351.898 391.16 357.782C392.116 363.331 394.719 367.204 398.481 368.707C406.506 371.894 417.978 363.331 423.531 350.011C428.922 337.082 427.112 323.562 419.66 319.867V319.87Z" fill="#007E00"/>
<path d="M396.589 373.341C396.193 373.185 395.804 373.011 395.422 372.822C390.381 370.325 386.953 365.164 385.768 358.296C384.605 351.549 385.685 343.698 388.814 336.192C395.633 319.841 409.721 310.498 420.876 314.926C425.002 316.57 428.208 319.87 430.145 324.465C433.296 331.949 432.737 342.268 428.648 352.075C422.974 365.686 412.266 374.441 402.401 374.441C400.413 374.441 398.457 374.085 396.589 373.341ZM395.833 339.052C393.187 345.4 392.249 351.93 393.201 357.436C394.03 362.242 396.178 365.567 399.25 366.793C406.134 369.512 416.591 361.316 421.629 349.222C426.514 337.51 425.195 324.915 418.743 321.717C418.568 321.63 418.394 321.554 418.216 321.481C417.318 321.125 416.362 320.955 415.366 320.955C408.704 320.955 400.224 328.537 395.837 339.052H395.833Z" fill="#007E00"/>
<path d="M354.956 238.346C354.956 238.346 354.952 238.346 354.945 238.35C354.991 238.339 354.963 238.346 354.956 238.346Z" fill="#5D90FF"/>
</g>
</g>
<defs>
<clipPath id="clip0_27848_24606">
<rect width="506" height="535" fill="white" transform="translate(0 -30.875)"/>
</clipPath>
<clipPath id="clip1_27848_24606">
<rect width="506" height="886.289" fill="white" transform="matrix(-1 0 0 1 506 -328.484)"/>
</clipPath>
</defs>
</svg>
