<svg width="16" height="16" viewBox="0 0 16 16" fill="none" xmlns="http://www.w3.org/2000/svg">
<path d="M4.66659 0.667969C5.03478 0.667969 5.33325 0.966446 5.33325 1.33464V1.83464C5.33325 1.92668 5.40787 2.0013 5.49992 2.0013H10.4999C10.592 2.0013 10.6666 1.92668 10.6666 1.83464V1.33464C10.6666 0.966446 10.9651 0.667969 11.3333 0.667969C11.7014 0.667969 11.9999 0.966446 11.9999 1.33464V1.83464C11.9999 1.92668 12.0745 2.0013 12.1666 2.0013H12.6666C13.7712 2.0013 14.6666 2.89673 14.6666 4.0013C14.6666 4.36949 14.3681 4.66797 13.9999 4.66797H1.99992C1.63173 4.66797 1.33325 4.36949 1.33325 4.0013C1.33325 2.89673 2.22868 2.0013 3.33325 2.0013H3.83325C3.9253 2.0013 3.99992 1.92668 3.99992 1.83464V1.33464C3.99992 0.966446 4.2984 0.667969 4.66659 0.667969Z" fill="#5865F2"/>
<path fill-rule="evenodd" clip-rule="evenodd" d="M1.33325 6.66797C1.33325 6.29978 1.63173 6.0013 1.99992 6.0013H13.9999C14.3681 6.0013 14.6666 6.29978 14.6666 6.66797V12.668C14.6666 13.7725 13.7712 14.668 12.6666 14.668H3.33325C2.22868 14.668 1.33325 13.7725 1.33325 12.668V6.66797ZM3.66659 8.0013C3.48249 8.0013 3.33325 8.15054 3.33325 8.33464V10.3346C3.33325 10.5187 3.48249 10.668 3.66659 10.668H5.66659C5.85068 10.668 5.99992 10.5187 5.99992 10.3346V8.33464C5.99992 8.15054 5.85068 8.0013 5.66659 8.0013H3.66659Z" fill="#5865F2"/>
</svg>
