<svg width="369" height="50" viewBox="0 0 369 50" fill="none" xmlns="http://www.w3.org/2000/svg">
<g opacity="0.7">
<path d="M339.263 39.5536C340.354 38.2202 341.913 37.3996 343.64 37.2201C343.874 37.1945 344.094 37.1817 344.328 37.1817C345.809 37.1817 347.237 37.6817 348.406 38.6176C349.756 39.6946 350.588 41.2331 350.769 42.9255C350.951 44.6307 350.445 46.2974 349.354 47.6308C348.263 48.9642 346.705 49.7847 344.977 49.9642C343.263 50.1437 341.562 49.6437 340.211 48.5667C339.029 47.618 338.276 46.323 337.978 44.8743H-30V42.3101H337.978C338.185 41.31 338.601 40.3613 339.276 39.5536H339.263ZM340.432 43.9896C340.536 45.0153 341.042 45.9256 341.848 46.5795C342.549 47.1436 343.406 47.4385 344.302 47.4385C344.432 47.4385 344.575 47.4385 344.718 47.4128C345.757 47.3103 346.679 46.8102 347.341 46.0153C347.99 45.2204 348.302 44.2204 348.185 43.1947C347.964 41.0793 346.029 39.5536 343.912 39.7715C341.77 39.9895 340.211 41.887 340.445 43.9896H340.432Z" fill="url(#paint0_linear_1011_13849)"/>
<path d="M344.977 12.7826C343.263 12.9621 341.562 12.462 340.211 11.3851C339.029 10.4363 338.276 9.1414 337.977 7.69263H269.701H-6.05957V5.12843H337.977C338.185 4.1284 338.601 3.17965 339.276 2.37193C340.367 1.03855 341.925 0.217996 343.653 0.0385017C343.886 0.0128593 344.107 4.1008e-05 344.341 4.1008e-05C345.821 4.1008e-05 347.25 0.500052 348.419 1.43598C349.769 2.51295 350.6 4.05147 350.782 5.74383C350.964 7.44902 350.458 9.11575 349.367 10.4491C348.276 11.7825 346.717 12.6031 344.99 12.7826H344.977ZM348.185 6.01308C347.964 3.89762 346.029 2.37193 343.912 2.58988C341.77 2.80784 340.211 4.70534 340.445 6.80798C340.549 7.83366 341.055 8.74395 341.86 9.39782C342.562 9.96194 343.419 10.2568 344.315 10.2568C344.445 10.2568 344.588 10.2568 344.731 10.2312C345.769 10.1286 346.691 9.6286 347.354 8.8337C348.003 8.03879 348.315 7.03876 348.198 6.01308H348.185Z" fill="url(#paint1_linear_1011_13849)"/>
<path d="M367.536 29.0409C366.445 30.3743 364.887 31.1949 363.159 31.3744C361.445 31.5538 359.744 31.0538 358.393 29.9769C357.211 29.0281 356.458 27.7332 356.159 26.2844H-14.0391V23.7202H356.159C356.367 22.7202 356.783 21.7714 357.458 20.9637C358.549 19.6303 360.107 18.8098 361.835 18.6303C362.068 18.6047 362.289 18.5918 362.523 18.5918C364.003 18.5918 365.432 19.0918 366.601 20.0278C367.951 21.1047 368.783 22.6433 368.964 24.3356C369.146 26.0408 368.64 27.7075 367.549 29.0409H367.536ZM366.367 24.6049C366.146 22.4894 364.211 20.9637 362.094 21.1817C359.952 21.3996 358.393 23.2971 358.627 25.3998C358.731 26.4255 359.237 27.3357 360.043 27.9896C360.744 28.5537 361.601 28.8486 362.497 28.8486C362.627 28.8486 362.77 28.8486 362.913 28.823C363.952 28.7204 364.874 28.2204 365.536 27.4255C366.185 26.6306 366.497 25.6306 366.38 24.6049H366.367Z" fill="url(#paint2_linear_1011_13849)"/>
</g>
<defs>
<linearGradient id="paint0_linear_1011_13849" x1="353.669" y1="41.0374" x2="45.8855" y2="64.2498" gradientUnits="userSpaceOnUse">
<stop stop-color="#57F287"/>
<stop offset="1" stop-color="#57F287" stop-opacity="0"/>
</linearGradient>
<linearGradient id="paint1_linear_1011_13849" x1="353.502" y1="3.85578" x2="64.859" y2="24.2568" gradientUnits="userSpaceOnUse">
<stop stop-color="#57F287"/>
<stop offset="1" stop-color="#57F287" stop-opacity="0"/>
</linearGradient>
<linearGradient id="paint2_linear_1011_13849" x1="371.881" y1="22.4476" x2="62.3122" y2="45.9316" gradientUnits="userSpaceOnUse">
<stop stop-color="#57F287"/>
<stop offset="1" stop-color="#57F287" stop-opacity="0"/>
</linearGradient>
</defs>
</svg>
