<svg width="373" height="221" viewBox="0 0 373 221" fill="none" xmlns="http://www.w3.org/2000/svg">
<path d="M278.86 187.971L266.746 207.169H259.03L271.145 187.971H278.86ZM280.665 185.715H270.603C270.175 185.715 269.769 185.94 269.543 186.301L256.165 207.484C255.624 208.319 256.233 209.425 257.226 209.425H267.287C267.716 209.425 268.122 209.199 268.347 208.838L281.725 187.655C282.266 186.82 281.657 185.715 280.665 185.715Z" fill="#00EB7A"/>
<path d="M311.007 190.227L301.735 204.913H299.367L308.638 190.227H311.007ZM316.895 185.715H306.834C306.405 185.715 305.999 185.94 305.773 186.301L292.396 207.484C291.854 208.319 292.464 209.425 293.456 209.425H303.518C303.946 209.425 304.352 209.199 304.578 208.838L317.955 187.655C318.497 186.82 317.888 185.715 316.895 185.715Z" fill="#00EB7A"/>
<path d="M292.893 190.227L283.621 204.913H281.252L290.524 190.227H292.893ZM298.781 185.715H288.719C288.291 185.715 287.885 185.94 287.659 186.301L274.282 207.484C273.74 208.319 274.349 209.425 275.342 209.425H285.403C285.832 209.425 286.238 209.199 286.464 208.838L299.841 187.655C300.383 186.82 299.774 185.715 298.781 185.715Z" fill="#00EB7A"/>
<path d="M372.639 220.118H129V175H372.639V220.118ZM133.512 215.607H368.127V179.512H133.512V215.607Z" fill="#5865F2"/>
<path d="M355.767 157.166H112.128V94H355.767V157.166ZM116.64 152.654H351.255V98.5118H116.64V152.654Z" fill="#3A19B6"/>
<path d="M204.62 117.688H143.71C139.349 117.688 135.814 121.223 135.814 125.583C135.814 129.944 139.349 133.479 143.71 133.479H204.62C208.981 133.479 212.516 129.944 212.516 125.583C212.516 121.223 208.981 117.688 204.62 117.688Z" fill="#00EB7A"/>
<path d="M250.867 124.455H175.564V126.711H250.867V124.455Z" fill="#00EB7A"/>
<path d="M279.066 119.943C282.179 119.943 284.706 122.47 284.706 125.583C284.706 128.696 282.179 131.223 279.066 131.223H256.507C253.394 131.223 250.867 128.696 250.867 125.583C250.867 122.47 253.394 119.943 256.507 119.943H279.066ZM279.066 117.688H256.507C252.153 117.688 248.611 121.229 248.611 125.583C248.611 129.937 252.153 133.479 256.507 133.479H279.066C283.42 133.479 286.962 129.937 286.962 125.583C286.962 121.229 283.42 117.688 279.066 117.688Z" fill="#00EB7A"/>
<path d="M112.5 124H-42V128.512H-37.5107H106.823H112.5V124Z" fill="url(#paint0_linear_2607_6044)"/>
<path d="M333 68C331.563 54.6032 330.397 53.4365 317 52C330.397 50.5635 331.563 49.3968 333 36C334.437 49.3968 335.603 50.5635 349 52C335.603 53.4365 334.437 54.6032 333 68Z" fill="#00EB7A"/>
<path d="M291.585 71.2005L290.297 59.1516C288.255 40.1674 287.007 38.9183 268.044 36.8884L256 35.6003L268.044 34.3121C287.02 32.2692 288.268 31.0201 290.297 12.0489L291.585 0L292.872 12.0489C294.914 31.0331 296.163 32.2822 315.126 34.3121L327.17 35.6003L315.126 36.8884C296.15 38.9313 294.901 40.1804 292.872 59.1516L291.585 71.2005ZM277.603 35.5872C286.681 37.3699 289.816 40.5057 291.585 49.5749C293.367 40.4927 296.501 37.3569 305.566 35.5872C296.488 33.8046 293.354 30.6688 291.585 21.5996C289.803 30.6818 286.668 33.8176 277.603 35.5872Z" fill="#00EB7A"/>
<defs>
<linearGradient id="paint0_linear_2607_6044" x1="116.5" y1="126" x2="1.5" y2="126" gradientUnits="userSpaceOnUse">
<stop stop-color="#3A19B6"/>
<stop offset="1" stop-color="#3A19B6" stop-opacity="0"/>
</linearGradient>
</defs>
</svg>
