<svg width="51" height="44" viewBox="0 0 51 44" fill="none" xmlns="http://www.w3.org/2000/svg">
<path d="M12.7063 39.8204L12.7081 39.8212C16.3978 41.533 20.6108 42.375 25.3242 42.375C30.1064 42.375 34.3467 41.5435 38.0203 39.8495L38.0242 39.8477C41.6925 38.1371 44.5522 35.7321 46.5611 32.623C48.5888 29.5134 49.5938 25.9669 49.5938 22.0156C49.5938 17.9437 48.5924 14.2921 46.5689 11.0923C44.5637 7.89242 41.7066 5.411 38.0357 3.6421C34.3581 1.87004 30.1122 1 25.3242 1C20.6063 1 16.3893 1.87105 12.6966 3.64123L12.6948 3.6421C9.0252 5.41036 6.14402 7.88927 4.08526 11.0832C2.02242 14.2835 1 17.929 1 21.9883C1 25.944 2.02559 29.4936 4.09294 32.6043C6.15534 35.7075 9.03895 38.1102 12.7063 39.8204ZM28.4256 26.322L28.424 26.3242C27.7936 27.1961 26.8249 27.6875 25.3242 27.6875C23.8998 27.6875 22.9112 27.2007 22.2141 26.2828C21.4908 25.3063 21.0742 23.9098 21.0742 21.9883C21.0742 20.0896 21.4978 18.6902 22.2428 17.6918C22.9447 16.7514 23.9261 16.2617 25.3242 16.2617C26.8129 16.2617 27.7804 16.7624 28.4157 17.668L28.4157 17.6681L28.4215 17.6761C29.1371 18.675 29.5469 20.0888 29.5469 22.0156C29.5469 23.9435 29.1366 25.3444 28.4256 26.322Z" fill="white" stroke="#4F51F5" stroke-width="2"/>
<path d="M20.8308 11.0002C21.6164 11.0237 22.377 11.1589 23.114 11.4058H23.1875C23.2374 11.4291 23.2748 11.4549 23.2998 11.4783C23.5753 11.5655 23.836 11.6638 24.0853 11.7989L24.5592 12.0078C24.7462 12.1061 24.9707 12.2891 25.0954 12.364C25.2201 12.4365 25.3572 12.5115 25.4694 12.5962C26.8548 11.5532 28.5369 10.9881 30.2702 11.0002C31.057 11.0002 31.8426 11.1097 32.5895 11.3567C37.192 12.8309 38.8504 17.8064 37.465 22.1554C36.6795 24.3778 35.3951 26.4061 33.713 28.0634C31.3051 30.3607 28.6629 32.4001 25.8186 34.1569L25.5069 34.3424L25.1827 34.1446C22.3284 32.4001 19.6712 30.3607 17.2409 28.0511C15.57 26.3938 14.2844 24.3778 13.4863 22.1554C12.0773 17.8064 13.7357 12.8309 18.3881 11.3309C18.7497 11.208 19.1225 11.122 19.4966 11.0741H19.6462C19.9966 11.0237 20.3445 11.0002 20.6937 11.0002H20.8308Z" fill="#4F51F5"/>
</svg>
