<svg width="334" height="197" viewBox="0 0 334 197" fill="none" xmlns="http://www.w3.org/2000/svg">
<path d="M47.9573 49.1602C43.7817 46.4827 40.9779 42.1344 40.2416 37.2325L38.991 28.8982C38.9305 28.4856 38.5775 28.1836 38.1639 28.1836C37.7504 28.1836 37.3974 28.4856 37.3369 28.8982L36.0863 37.2325C35.35 42.1344 32.5361 46.4727 28.3706 49.1602L27.2915 49.8547C27.0494 50.0057 26.9082 50.2775 26.9082 50.5593V50.6096C26.9082 50.8914 27.0494 51.1632 27.2915 51.3142L28.3706 52.0087C32.5462 54.6862 35.35 59.0345 36.0863 63.9364L37.3369 72.2706C37.3974 72.6833 37.7504 72.9853 38.1639 72.9853C38.5775 72.9853 38.9305 72.6833 38.991 72.2706L40.2416 63.9364C40.9779 59.0345 43.7918 54.6962 47.9573 52.0087L49.0364 51.3142C49.2785 51.1632 49.4197 50.8914 49.4197 50.6096V50.5593C49.4197 50.2775 49.2785 50.0057 49.0364 49.8547L47.9573 49.1602Z" fill="#57F287"/>
<path d="M287.619 87.3164C283.444 84.639 280.64 80.2907 279.904 75.3888L278.653 67.0545C278.593 66.6418 278.24 66.3398 277.826 66.3398C277.413 66.3398 277.06 66.6418 276.999 67.0545L275.748 75.3888C275.012 80.2907 272.198 84.6289 268.033 87.3164L266.954 88.0109C266.711 88.1619 266.57 88.4337 266.57 88.7155V88.7659C266.57 89.0477 266.711 89.3195 266.954 89.4705L268.033 90.165C272.208 92.8424 275.012 97.1907 275.748 102.093L276.999 110.427C277.06 110.84 277.413 111.142 277.826 111.142C278.24 111.142 278.593 110.84 278.653 110.427L279.904 102.093C280.64 97.1907 283.454 92.8525 287.619 90.165L288.699 89.4705C288.941 89.3195 289.082 89.0477 289.082 88.7659V88.7155C289.082 88.4337 288.941 88.1619 288.699 88.0109L287.619 87.3164Z" fill="#808AFF"/>
<path d="M13.2427 81.0274C10.6203 79.3464 8.85533 76.6086 8.39139 73.5386L7.60469 68.3045C7.56434 68.0428 7.34246 67.8516 7.08023 67.8516C6.818 67.8516 6.59612 68.0428 6.55577 68.3045L5.76907 73.5386C5.30513 76.6186 3.54011 79.3464 0.917807 81.0274L0.242061 81.4602C0.0907739 81.5608 0 81.7219 0 81.9031V81.9332C0 82.1144 0.0907739 82.2755 0.242061 82.3761L0.917807 82.809C3.54011 84.4899 5.30513 87.2277 5.76907 90.2977L6.55577 95.5318C6.59612 95.7935 6.818 95.9847 7.08023 95.9847C7.34246 95.9847 7.56434 95.7935 7.60469 95.5318L8.39139 90.2977C8.85533 87.2177 10.6203 84.4899 13.2427 82.809L13.9184 82.3761C14.0697 82.2755 14.1605 82.1144 14.1605 81.9332V81.9031C14.1605 81.7219 14.0697 81.5608 13.9184 81.4602L13.2427 81.0274Z" fill="#FF78B9"/>
<path d="M332.583 33.6133C329.96 31.9323 328.195 29.1945 327.731 26.1245L326.945 20.8904C326.904 20.6287 326.682 20.4375 326.42 20.4375C326.158 20.4375 325.936 20.6287 325.896 20.8904L325.109 26.1245C324.645 29.2046 322.88 31.9323 320.258 33.6133L319.582 34.0461C319.431 34.1468 319.34 34.3078 319.34 34.489V34.5192C319.34 34.7004 319.431 34.8614 319.582 34.9621L320.258 35.3949C322.88 37.0758 324.645 39.8137 325.109 42.8836L325.896 48.1177C325.936 48.3794 326.158 48.5707 326.42 48.5707C326.682 48.5707 326.904 48.3794 326.945 48.1177L327.731 42.8836C328.195 39.8036 329.96 37.0758 332.583 35.3949L333.258 34.9621C333.41 34.8614 333.5 34.7004 333.5 34.5192V34.489C333.5 34.3078 333.41 34.1468 333.258 34.0461L332.583 33.6133Z" fill="#8CD9FF"/>
<path d="M78.9866 55.719L111.917 84.0334L114.509 42.9358C114.509 42.9358 89.6675 37.4702 84.6145 34.2996C79.5615 31.1289 74.6699 36.6046 74.6699 42.7848C74.6699 48.965 78.9866 55.719 78.9866 55.719Z" fill="#00C5BC"/>
<path d="M70.5742 186.641H151.271V231.744H73.2873C71.7845 231.744 70.5742 230.526 70.5742 229.037V186.651V186.641Z" fill="#71DBFF"/>
<path d="M115.264 128.078C119.167 144.807 125.118 146.226 136.888 146.881L140.095 129.085L115.254 128.088L115.264 128.078Z" fill="#FFC200"/>
<path d="M248.447 113.25C247.973 105.057 241.488 100.88 235.497 99.4605C235.447 99.4505 235.396 99.4303 235.346 99.4203C235.346 99.4203 235.346 99.4203 235.336 99.4203C234.65 99.2592 233.974 99.1384 233.318 99.0579C215.426 95.8067 195.809 92.5757 166.621 93.5118L203.898 176.945L214.398 176.603L212.713 231.742H226.44C230.777 231.742 236.627 222.431 242.547 175.687C248.467 128.953 249.093 123.99 248.457 113.25H248.447Z" fill="#3FBEFF"/>
<path d="M142.346 24.3635C145.775 8.1781 149.92 0.779924 159.966 3.93044C168.478 6.60787 172.916 13.1706 174.237 22.2397L142.346 24.3635Z" fill="#00C5BC"/>
<path d="M128.307 63.0185C140.662 84.1461 163.324 92.3495 181.287 89.3902C199.25 86.431 215.952 66.8032 214.641 47.0948C213.259 26.3296 192.775 18.4282 173.047 17.8545C149.346 17.1599 110.515 32.6105 128.307 63.0286V63.0185Z" fill="#00F7CC"/>
<path d="M163.688 18.8537C167.187 3.07092 172.149 -1.40824 180.521 0.36329C189.154 2.19522 196.113 12.8446 196.002 23.1416L163.688 18.8537Z" fill="#00F7CC"/>
<path d="M169.748 13.8014C169.304 15.4623 170.263 15.9555 174.236 14.7476C175.154 14.4658 176.193 14.5564 176.778 14.808C178.472 15.5529 179.824 16.5091 181.236 16.2373C183.374 15.8347 181.559 11.3555 178.069 9.30215C174.579 7.24879 170.494 10.9831 169.738 13.7914L169.748 13.8014Z" fill="black"/>
<path d="M155.407 15.5779C155.951 17.0475 155.064 18.0238 152.098 17.1682C151.362 16.9569 150.333 17.3796 149.91 17.6816C148.679 18.5673 147.741 19.594 146.602 19.5236C144.897 19.4028 145.775 15.0847 148.256 12.7897C150.727 10.4948 154.489 13.0917 155.407 15.588V15.5779Z" fill="black"/>
<path d="M213.753 41.5387C212.21 35.6302 208.871 31.0001 204.423 27.457C202.82 31.7449 200.904 38.7808 202.779 41.1764C204.807 43.7733 210.636 43.4612 213.763 41.5387H213.753Z" fill="#00C5BC"/>
<path d="M205.01 58.0205C204.203 61.2415 206.411 65.0362 210.103 67.0795C212.977 61.6139 214.682 55.5746 214.712 49.4648C209.911 51.3974 205.917 54.4272 205.01 58.0306V58.0205Z" fill="#00C5BC"/>
<path d="M177.757 80.3798C166.642 63.671 167.419 62.1008 167.943 39.9062L124.494 42.8957C122.93 48.6431 123.818 55.3568 128.306 63.0167C135.87 75.9409 147.287 84.0134 159.128 87.6672L177.757 80.3798Z" fill="#93FFD9"/>
<path d="M129.304 41.6457C129.304 41.6457 125.552 51.4394 135.366 62.2297C140.681 68.0778 145.673 68.7421 156.344 55.3952C164.382 45.3397 166.198 39.2903 166.198 39.2903C139.511 37.6396 129.304 41.6356 129.304 41.6356V41.6457Z" fill="#FF2EA1"/>
<path d="M183.818 39.1317C185.119 44.8993 182.113 48.5732 176.677 48.5732C171.241 48.5732 165.764 43.6914 163.575 38.2158C161.326 32.5791 162.859 28.1301 169.365 28.1603C175.527 28.1905 182.506 33.3541 183.818 39.1217V39.1317Z" fill="#5466FA"/>
<path d="M132.098 37.3033C131.937 41.7019 128.75 47.9627 124.695 49.5228C124.393 49.6335 124.11 49.7443 123.828 49.8047C123.394 43.3929 125.775 37.9273 129.859 33.418C131.574 33.7803 132.189 34.8976 132.098 37.3033Z" fill="#5466FA"/>
<path d="M149.859 47.993C142.355 52.3212 137.988 60.2025 140.056 65.648C143.808 67.4296 148.72 64.9434 156.344 55.4013C159.36 51.6267 161.498 48.4158 163.001 45.8793C159.521 44.6009 154.63 45.2351 149.859 47.993Z" fill="#FF6DBA"/>
<path d="M190.576 101.27C190.576 101.27 208.761 103.232 222.235 107.279C227.147 108.758 230.213 112.241 228.257 128.819C226.189 146.262 221.328 173.339 221.328 173.339L188.367 166.806L190.586 101.27H190.576Z" fill="#009BF8"/>
<path d="M93.3379 142.625C119.894 145.967 130.01 150.275 130.01 150.275L151.281 161.498L145.976 199.012L128.356 199.445L93.348 142.625H93.3379Z" fill="#FF6DBA"/>
<path d="M160.207 80.6458C155.507 81.8939 149.738 84.4707 150.958 89.0002C152.178 93.5297 155.497 97.3546 155.497 97.3546C155.497 97.3546 135.991 120.676 129.637 138.905C127.226 145.82 126.571 148.709 130 150.269C135.315 152.695 143.848 157.315 150.776 164.16L186.359 166.636L197.171 97.5257C199.965 88.4768 203.656 82.1858 192.986 80.2935C182.174 78.381 168.043 78.5521 160.197 80.6458H160.207Z" fill="#FFC619"/>
<path d="M157.806 123.112C157.806 123.112 146.46 150.863 153.439 165.136C166.349 166.182 210.585 164.844 210.585 164.844C211.382 136.499 207.61 118.834 202.587 105.004C198.23 92.996 186.369 85.6783 174.509 93.6905C166.107 99.3675 157.806 123.112 157.806 123.112Z" fill="url(#paint0_linear_2204_6326)"/>
<path d="M90.7867 70.5541L89.0419 67.0714C89.0419 67.0714 80.3076 25.3699 79.7932 20.0754C79.2687 14.6803 81.538 13.2913 85.8951 12.4156C90.2522 11.5399 92.35 11.1976 94.0949 19.1997C95.8397 27.2119 102.466 58.8882 102.466 58.8882L90.7766 70.5541H90.7867Z" fill="#433D83"/>
<path d="M99.5107 53.3229C99.5107 53.3229 93.4088 22.8646 92.7129 19.9053C92.017 16.946 91.4118 16.6843 90.373 17.2077C89.3241 17.7311 89.9292 21.6466 90.9681 26.8706C92.0069 32.0947 97.423 58.0335 97.423 58.0335L99.5208 53.3329L99.5107 53.3229Z" fill="#FFE534"/>
<path d="M222.619 167.856C209.871 156.28 170.395 153.865 154.752 156.24C138.393 158.716 157.526 231.742 157.526 231.742C157.526 231.742 219.624 231.742 226.422 231.742C230.759 231.742 236.608 222.431 242.529 175.687L222.619 167.856Z" fill="#3FBEFF"/>
<path d="M102.476 35.9871C96.3336 37.6781 94.8711 38.9262 95.6578 42.0566C96.4445 45.187 98.8348 45.9419 107.216 45.9016L104.352 52.6858L103.787 78.1717L111.694 85.1673L121.79 76.6116L115.305 66.6769C115.305 66.6769 119.41 51.2867 119.37 45.0259C119.339 40.0535 118.189 38.2417 116.132 36.9836C112.995 35.061 107.751 34.5477 102.466 35.9971L102.476 35.9871Z" fill="#00C5BC"/>
<path d="M123.202 75.9511C123.202 75.9511 119.389 66.5399 115.879 66.0265C109.596 65.1105 104.765 69.0764 101.164 74.3809L109.666 84.8289L123.202 75.9511Z" fill="#FFF2A6"/>
<path d="M144.13 110.415C136.455 87.2646 129.566 78.8196 126.692 75.4275C124.534 72.8809 120.852 74.4511 118.23 75.82C111.311 79.4436 105.018 87.6974 105.018 87.6974L137.332 115.116L144.13 110.415Z" fill="#FFC200"/>
<path d="M170.122 162.602C169.305 156.482 161.237 156.23 155.8 156.23C150.364 156.23 142.295 156.482 141.479 162.602C140.046 173.382 146.179 231.732 146.179 231.732H165.422C165.422 231.732 171.554 173.382 170.122 162.602Z" fill="#71DBFF"/>
<path d="M112.057 47.9048C111.896 47.945 109.132 48.6999 105.088 48.6999C103.615 48.6999 102.002 48.6093 100.267 48.3376C100.075 47.4116 99.8736 46.4654 99.6719 45.479C106.097 46.6969 111.281 45.2978 111.341 45.2877C112.057 45.0864 112.814 45.5192 113.015 46.2339C113.207 46.9485 112.783 47.7035 112.067 47.9048H112.057Z" fill="black"/>
<path d="M89.1939 66.815L94.9126 65.0937C95.9615 61.6111 96.2943 51.2033 100.904 50.8812C107.419 50.4283 108.226 56.6286 107.883 63.5839C107.53 70.5493 106.723 78.3803 106.723 78.3803L108.992 81.9535L93.9343 97.1827L89.9201 93.1766C89.9201 93.1766 77.8878 91.9587 72.3002 84.1277C66.7228 76.2967 70.0309 69.1602 72.4717 66.3721C71.9472 60.2824 74.388 49.6633 85.1999 48.9688L89.1838 66.815H89.1939Z" fill="#00F7CC"/>
<path d="M114.508 85.8703C114.508 85.8703 110.978 81.4113 109.102 79.2573C106.833 76.6503 98.7139 79.9518 94.4275 85.0047C89.2534 91.0943 88.9307 95.0098 90.847 98.4925C92.7633 101.975 98.7845 108.417 98.7845 108.417L114.508 90.3696V85.8703Z" fill="#FFF2A6"/>
<path d="M190.142 91.3513C194.418 93.7972 193.238 108.412 184.171 116.807C174.227 126.027 155.124 141.468 143.798 142.514C128.921 143.883 113.782 134.09 103.233 121.115C101.286 118.719 94.0748 118.941 92.8544 113.365C91.6341 107.798 94.1454 96.7464 111.604 86.0367C114.781 84.084 118.301 85.2918 119.713 86.8218C136.213 104.577 141.266 111.06 141.266 111.06C141.266 111.06 178.281 84.557 190.142 91.3412V91.3513Z" fill="#FFE534"/>
<path d="M159.068 172.223C159.068 177.779 157.041 181.362 154.812 181.111C152.482 180.849 150.838 176.712 150.838 173.169L154.741 170.854C154.741 170.854 159.068 168.579 159.068 172.223Z" fill="#009BF8"/>
<path d="M159.051 171.964C159.116 169.347 157.233 167.177 154.844 167.117C152.455 167.058 150.465 169.131 150.4 171.749C150.334 174.366 152.218 176.537 154.607 176.596C156.996 176.656 158.985 174.582 159.051 171.964Z" fill="white"/>
<path d="M121.699 158.099L93.3377 142.619C61.0934 139.206 56.2219 146.967 53.3273 162.458C49.4947 183.001 47.7499 193.439 47.2254 199.71C46.7009 205.981 46.4084 206.766 65.7127 209.806C82.2836 212.413 99.2681 214.054 131.452 212.574C135.93 212.373 135.022 207.481 134.165 200.546C132.329 185.659 127.115 163.505 121.709 158.109L121.699 158.099Z" fill="#FF6DBA"/>
<path d="M88.8502 212.494C87.8214 212.424 86.8028 212.343 85.8043 212.263C82.6777 204.834 79.4401 194.708 76.6968 183.757C74.1854 173.651 71.6035 160.576 72.6322 157.043C72.8339 156.328 73.5803 155.906 74.3166 156.117C75.0326 156.318 75.4462 157.083 75.2444 157.798C73.9434 162.257 80.9228 194.487 88.8502 212.494Z" fill="#FF2EA1"/>
<path d="M187.702 124.599C186.653 125.193 164.343 137.865 152.18 142.898C152.371 141.811 152.583 140.724 152.805 139.687C165.14 134.272 186.118 122.384 186.36 122.244C187.016 121.861 187.843 122.093 188.226 122.747C188.589 123.401 188.357 124.226 187.712 124.609L187.702 124.599Z" fill="#FF8300"/>
<path d="M266.792 161.453C269.344 163.546 270.594 164.402 270.726 170.008C270.857 175.625 270.726 176.994 270.726 176.994L263.665 175.494C263.857 165.7 264.644 163.617 260.791 158.977L266.802 161.453H266.792Z" fill="black"/>
<path d="M232.391 177.133C229.446 168.779 227.983 164.29 234.358 161.008C246.652 154.677 250.969 153.57 261.045 158.069C263.566 159.197 266.794 161.451 266.794 161.451C259.673 158.844 256.728 158.361 254.438 158.26C249.991 158.069 244.131 161.3 240.248 163.807C237.827 165.377 236.698 166.605 236.909 168.175C237.303 171.094 238.674 175.875 238.674 175.875L232.391 177.113V177.133Z" fill="#FFE534"/>
<path d="M290.464 271.78H206.218C203.605 189.535 211.271 183.949 224.281 178.302C227.105 177.064 230.615 176.037 234.528 175.212C234.538 175.212 234.569 175.212 234.579 175.202C247.277 172.544 264.332 172.182 277.121 175.171C299.38 180.375 298.583 195.544 290.464 271.78Z" fill="#FFE534"/>
<path d="M223.182 199.808C221.548 220.15 222.96 271.787 222.96 271.787H206.218C203.605 189.541 211.271 183.955 224.281 178.308C227.105 177.07 230.615 176.043 234.528 175.218C234.538 175.218 234.569 175.218 234.579 175.208C236.878 174.735 239.309 174.322 241.841 174C225.028 179.617 224.624 181.932 223.182 199.808Z" fill="#FFA8D8"/>
<path d="M291.252 211.725C291.121 198.539 290.596 189.269 286.411 185.091C282.225 180.914 271.363 176.868 257.111 177.653C242.85 178.438 231.735 180.129 230.162 192.802L253.712 211.473C272.159 210.819 291.252 211.735 291.252 211.735V211.725Z" fill="black"/>
<path d="M274.629 211.224C268.396 211.144 260.922 211.204 253.701 211.466C235.264 212.12 232.4 215.965 228.607 226.413C228.607 226.413 228.587 205.457 230.171 192.794C230.211 192.452 230.262 192.13 230.322 191.808C238.592 187.782 266.954 185.859 270.453 189.02C273.187 191.476 273.62 201.421 274.629 211.235V211.224Z" fill="#57EC81"/>
<path d="M280.116 211.365C272.955 211.204 263.252 211.123 253.711 211.455C249.293 211.606 245.824 212.009 243.04 212.673C243.04 212.673 242.153 207.318 241.558 203.624C240.963 199.93 242.697 199.326 244.916 198.954L273.187 194.334C275.416 193.971 277.05 193.74 277.877 197.686C278.704 201.631 280.116 211.355 280.116 211.355V211.365Z" fill="white"/>
<defs>
<linearGradient id="paint0_linear_2204_6326" x1="172.078" y1="124.753" x2="191.295" y2="156.654" gradientUnits="userSpaceOnUse">
<stop offset="0.16" stop-color="#FFE534"/>
<stop offset="1" stop-color="#FFC200"/>
</linearGradient>
</defs>
</svg>
