<svg width="380" height="257" viewBox="0 0 380 257" fill="none" xmlns="http://www.w3.org/2000/svg">
<g clip-path="url(#clip0_2874_8970)">
<path d="M353.3 0H26.7C9.9 0 0 9.9 0 26.7V257H380V26.7C380 9.9 370.1 0 353.3 0Z" fill="url(#paint0_linear_2874_8970)"/>
<path d="M203.897 40.8125H325.595V115.547C325.595 116.853 325.076 118.106 324.152 119.03C323.229 119.954 321.976 120.473 320.669 120.473H208.822C207.516 120.473 206.263 119.954 205.339 119.03C204.416 118.106 203.897 116.853 203.897 115.547V40.8125Z" fill="#373270"/>
<path d="M251.54 40.8125H325.51V115.547C325.51 116.853 324.991 118.106 324.068 119.03C323.144 119.954 321.891 120.473 320.585 120.473H251.54V40.8125Z" fill="#2D2961"/>
<path d="M203.897 41.832H220.627V120.473H208.822C207.516 120.473 206.263 119.954 205.339 119.03C204.416 118.107 203.897 116.854 203.897 115.547V41.832Z" fill="#3F3B78"/>
<path d="M208.822 33H320.669C321.316 33 321.957 33.1274 322.554 33.3749C323.152 33.6225 323.695 33.9853 324.152 34.4427C324.61 34.9001 324.973 35.4431 325.22 36.0407C325.468 36.6383 325.595 37.2788 325.595 37.9257V41.8323H203.897V37.9257C203.897 36.6193 204.416 35.3664 205.339 34.4427C206.263 33.519 207.516 33 208.822 33Z" fill="#BABAE6"/>
<path d="M209.247 39.3675C210.326 39.3675 211.2 38.493 211.2 37.4142C211.2 36.3355 210.326 35.4609 209.247 35.4609C208.168 35.4609 207.294 36.3355 207.294 37.4142C207.294 38.493 208.168 39.3675 209.247 39.3675Z" fill="#E9459D"/>
<path d="M320.245 39.3675C321.324 39.3675 322.198 38.493 322.198 37.4142C322.198 36.3355 321.324 35.4609 320.245 35.4609C319.166 35.4609 318.292 36.3355 318.292 37.4142C318.292 38.493 319.166 39.3675 320.245 39.3675Z" fill="#8F8FC4"/>
<path d="M216.041 39.3675C217.12 39.3675 217.994 38.493 217.994 37.4142C217.994 36.3355 217.12 35.4609 216.041 35.4609C214.962 35.4609 214.088 36.3355 214.088 37.4142C214.088 38.493 214.962 39.3675 216.041 39.3675Z" fill="#FFE55C"/>
<path d="M222.835 39.3675C223.914 39.3675 224.788 38.493 224.788 37.4142C224.788 36.3355 223.914 35.4609 222.835 35.4609C221.756 35.4609 220.882 36.3355 220.882 37.4142C220.882 38.493 221.756 39.3675 222.835 39.3675Z" fill="#57F085"/>
<path d="M287.718 35.8867H233.79C232.993 35.8867 232.347 36.5331 232.347 37.3305V37.3644C232.347 38.1618 232.993 38.8082 233.79 38.8082H287.718C288.516 38.8082 289.162 38.1618 289.162 37.3644V37.3305C289.162 36.5331 288.516 35.8867 287.718 35.8867Z" fill="#D8D8F5"/>
<path d="M212.219 54.4862C214.893 54.4862 217.06 52.3189 217.06 49.6454C217.06 46.972 214.893 44.8047 212.219 44.8047C209.546 44.8047 207.379 46.972 207.379 49.6454C207.379 52.3189 209.546 54.4862 212.219 54.4862Z" fill="#373270"/>
<path d="M239.82 44.8047H224.364C223.52 44.8047 222.835 45.4815 222.835 46.3164C222.835 47.1512 223.52 47.828 224.364 47.828H239.82C240.665 47.828 241.349 47.1512 241.349 46.3164C241.349 45.4815 240.665 44.8047 239.82 44.8047Z" fill="#4C4791"/>
<path d="M239.82 54.3164H224.364C223.52 54.3164 222.835 54.9932 222.835 55.8281C222.835 56.663 223.52 57.3398 224.364 57.3398H239.82C240.665 57.3398 241.349 56.663 241.349 55.8281C241.349 54.9932 240.665 54.3164 239.82 54.3164Z" fill="#4C4791"/>
<path d="M246.19 63.8281H224.364C223.52 63.8281 222.835 64.5049 222.835 65.3398C222.835 66.1747 223.52 66.8515 224.364 66.8515H246.19C247.034 66.8515 247.718 66.1747 247.718 65.3398C247.718 64.5049 247.034 63.8281 246.19 63.8281Z" fill="#4C4791"/>
<path d="M239.82 73.4258H224.364C223.52 73.4258 222.835 74.1026 222.835 74.9375C222.835 75.7723 223.52 76.4491 224.364 76.4491H239.82C240.665 76.4491 241.349 75.7723 241.349 74.9375C241.349 74.1026 240.665 73.4258 239.82 73.4258Z" fill="#4C4791"/>
<path d="M239.82 82.9375H224.364C223.52 82.9375 222.835 83.6143 222.835 84.4492C222.835 85.2841 223.52 85.9609 224.364 85.9609H239.82C240.665 85.9609 241.349 85.2841 241.349 84.4492C241.349 83.6143 240.665 82.9375 239.82 82.9375Z" fill="#4C4791"/>
<path d="M246.19 92.5352H224.364C223.52 92.5352 222.835 93.212 222.835 94.0468C222.835 94.8817 223.52 95.5585 224.364 95.5585H246.19C247.034 95.5585 247.718 94.8817 247.718 94.0468C247.718 93.212 247.034 92.5352 246.19 92.5352Z" fill="#4C4791"/>
<path d="M239.82 102.047H224.364C223.52 102.047 222.835 102.724 222.835 103.559C222.835 104.393 223.52 105.07 224.364 105.07H239.82C240.665 105.07 241.349 104.393 241.349 103.559C241.349 102.724 240.665 102.047 239.82 102.047Z" fill="#4C4791"/>
<path d="M264.194 44.8047H257.315C256.471 44.8047 255.786 45.4815 255.786 46.3164C255.786 47.1512 256.471 47.828 257.315 47.828H264.194C265.038 47.828 265.723 47.1512 265.723 46.3164C265.723 45.4815 265.038 44.8047 264.194 44.8047Z" fill="#4C4791"/>
<path d="M258.759 58.0523C260.353 58.0523 261.646 56.7595 261.646 55.1648C261.646 53.5701 260.353 52.2773 258.759 52.2773C257.164 52.2773 255.871 53.5701 255.871 55.1648C255.871 56.7595 257.164 58.0523 258.759 58.0523Z" fill="#B473F5"/>
<path d="M258.759 87.0953C260.353 87.0953 261.646 85.8025 261.646 84.2078C261.646 82.6131 260.353 81.3203 258.759 81.3203C257.164 81.3203 255.871 82.6131 255.871 84.2078C255.871 85.8025 257.164 87.0953 258.759 87.0953Z" fill="#5865F0"/>
<path d="M305.468 52.2773H269.204C267.657 52.2773 266.402 53.5321 266.402 55.0799V73.0926C266.402 74.6404 267.657 75.8952 269.204 75.8952H305.468C307.015 75.8952 308.27 74.6404 308.27 73.0926V55.0799C308.27 53.5321 307.015 52.2773 305.468 52.2773Z" fill="url(#paint1_linear_2874_8970)"/>
<path d="M287.209 81.3203H269.289C267.695 81.3203 266.402 82.6131 266.402 84.2078V84.2757C266.402 85.8704 267.695 87.1632 269.289 87.1632H287.209C288.803 87.1632 290.096 85.8704 290.096 84.2757V84.2078C290.096 82.6131 288.803 81.3203 287.209 81.3203Z" fill="#4C4791"/>
<path d="M258.759 98.3921C260.353 98.3921 261.646 97.0994 261.646 95.5047C261.646 93.91 260.353 92.6172 258.759 92.6172C257.164 92.6172 255.871 93.91 255.871 95.5047C255.871 97.0994 257.164 98.3921 258.759 98.3921Z" fill="#2ACA78"/>
<path d="M278.037 92.6172H269.289C267.695 92.6172 266.402 93.91 266.402 95.5047V95.5726C266.402 97.1673 267.695 98.4601 269.289 98.4601H278.037C279.631 98.4601 280.924 97.1673 280.924 95.5726V95.5047C280.924 93.91 279.631 92.6172 278.037 92.6172Z" fill="#4C4791"/>
<path d="M258.759 109.689C260.353 109.689 261.646 108.396 261.646 106.802C261.646 105.207 260.353 103.914 258.759 103.914C257.164 103.914 255.871 105.207 255.871 106.802C255.871 108.396 257.164 109.689 258.759 109.689Z" fill="#8AD7FF"/>
<path d="M296.805 103.914H269.714C267.885 103.914 266.402 105.397 266.402 107.226V110.98C266.402 112.809 267.885 114.292 269.714 114.292H296.805C298.634 114.292 300.117 112.809 300.117 110.98V107.226C300.117 105.397 298.634 103.914 296.805 103.914Z" fill="#4C4791"/>
<path d="M75.4891 157.504V195.381L60.8819 186.718C59.8695 186.085 58.9946 185.256 58.3089 184.278C57.6233 183.301 57.1409 182.196 56.8904 181.028L52.2195 157.504H75.4891Z" fill="#A1A1D1"/>
<path d="M56.1261 177.035L166.105 110.283L151.752 38.691C150.988 35.0392 147.761 33.5955 144.619 35.5488L48.313 94.0625C45.9912 95.4543 44.1621 97.5365 43.0811 100.018C42 102.5 41.7211 105.257 42.2833 107.905L56.1261 177.035Z" fill="#A1A1D1"/>
<path d="M152.262 35.2088L148.101 34.6992L145.893 38.4359H151.583L152.262 35.2088Z" fill="#A1A1D1"/>
<path d="M164.576 123.192C167.803 121.238 173.069 121.154 176.211 123.107L230.309 155.548C233.536 157.417 233.536 160.559 230.394 162.512L131.965 222.3C128.823 224.253 123.557 224.253 120.33 222.3L60.4575 186.461L164.576 123.192Z" fill="#A1A1D1"/>
<path d="M232.686 149.941H223.005V159.071H232.686V149.941Z" fill="#A1A1D1"/>
<path d="M230.308 146.633L170.436 110.795L156.084 39.1173C155.319 35.4655 152.092 34.1067 148.95 36.06L50.521 95.7627C48.8261 96.7796 47.4901 98.2992 46.6986 100.11C45.9072 101.922 45.6997 103.934 46.1048 105.869L60.2874 176.697C60.3348 176.967 60.4438 177.222 60.6058 177.443C60.7678 177.664 60.9785 177.844 61.2216 177.971L120.33 213.47C123.557 215.338 128.822 215.338 131.965 213.385L230.393 153.682C233.536 151.729 233.536 148.586 230.308 146.633Z" fill="#BABAE6"/>
<path d="M168.058 160.902C169.156 160.279 170.394 159.945 171.657 159.93C172.919 159.915 174.164 160.22 175.277 160.817L186.147 167.356C188.186 168.545 188.186 170.499 186.147 171.773L163.132 185.785C162.005 186.373 160.752 186.68 159.481 186.68C158.209 186.68 156.956 186.373 155.829 185.785L144.958 179.246C143.005 178.057 143.005 176.104 144.958 174.915L168.058 160.902Z" fill="#DADAFA"/>
<path d="M163.047 122.004C164.16 121.416 165.399 121.109 166.657 121.109C167.915 121.109 169.154 121.416 170.266 122.004L194.13 136.271C196.168 137.545 196.168 139.499 194.13 140.688L110.224 191.643C109.11 192.266 107.858 192.6 106.583 192.614C105.307 192.629 104.048 192.324 102.92 191.728L79.056 177.375C77.1027 176.187 77.1027 174.233 79.056 173.044L163.047 122.004Z" fill="#55518C"/>
<path d="M164.661 114.275C165.688 113.592 166.497 112.629 166.994 111.5C167.491 110.372 167.654 109.124 167.463 107.906L154.045 40.8994C153.621 38.6064 151.582 37.7571 149.629 38.9461L51.1154 98.8187C50.0885 99.5017 49.2789 100.465 48.7822 101.593C48.2855 102.722 48.1226 103.97 48.3128 105.188L61.7311 172.109C62.1557 174.402 64.1939 175.252 66.1472 174.063L164.661 114.275Z" fill="#19143B"/>
<path d="M100.457 104.253C101.066 103.835 101.547 103.257 101.847 102.582C102.147 101.907 102.254 101.163 102.156 100.431L98.4191 81.5776C98.3899 81.2767 98.2809 80.989 98.1034 80.7442C97.9259 80.4995 97.6863 80.3066 97.4093 80.1854C97.1323 80.0642 96.828 80.0191 96.5277 80.0549C96.2275 80.0906 95.9423 80.2058 95.7015 80.3886L71.2429 95.2506C70.634 95.6682 70.1529 96.2465 69.8531 96.9212C69.5532 97.5959 69.4463 98.3405 69.5444 99.0723L73.366 117.926C73.4035 118.213 73.5137 118.485 73.6861 118.718C73.8585 118.95 74.0874 119.135 74.3511 119.254C74.6149 119.373 74.9046 119.423 75.193 119.398C75.4813 119.374 75.7587 119.276 75.9987 119.115L100.457 104.253Z" fill="#8AD7FF"/>
<path d="M61.4764 104.426C61.882 104.208 62.2123 103.872 62.4244 103.463C62.6365 103.054 62.7204 102.591 62.6653 102.133C62.4955 101.284 61.7311 101.029 60.8819 101.539L54.7672 105.276C54.3548 105.508 54.0212 105.859 53.8094 106.283C53.5976 106.706 53.5171 107.184 53.5783 107.653C53.7481 108.418 54.5125 108.673 55.3617 108.163L61.4764 104.426Z" fill="#6C66A8"/>
<path d="M148.95 51.3449C149.362 51.1121 149.696 50.7613 149.908 50.3376C150.119 49.914 150.2 49.4367 150.139 48.967C149.969 48.2027 149.205 47.9479 148.355 48.3725L146.912 49.3067C146.499 49.5396 146.166 49.8903 145.954 50.314C145.742 50.7376 145.661 51.2149 145.723 51.6846C145.892 52.449 146.657 52.7037 147.506 52.1942L148.95 51.3449Z" fill="#6C66A8"/>
<path d="M141.986 55.591C142.375 55.3388 142.685 54.9819 142.881 54.5612C143.076 54.1405 143.148 53.6732 143.09 53.2131C142.92 52.4488 142.156 52.194 141.391 52.6186L139.863 53.5528C139.477 53.8141 139.166 54.1701 138.958 54.5864C138.749 55.0028 138.652 55.4657 138.674 55.9307C138.717 56.1142 138.806 56.2836 138.933 56.4228C139.06 56.562 139.221 56.6663 139.399 56.7259C139.578 56.7855 139.769 56.7984 139.954 56.7632C140.14 56.7281 140.313 56.6461 140.457 56.5252L141.986 55.591Z" fill="#6C66A8"/>
<path d="M134.003 83.8708C134.619 83.4644 135.102 82.8846 135.389 82.2044C135.676 81.5242 135.755 80.7743 135.617 80.0491L131.88 61.1956C131.625 59.8368 130.436 59.3273 129.162 60.0067L104.789 74.8686C104.18 75.2862 103.699 75.8645 103.399 76.5392C103.099 77.2139 102.992 77.9585 103.09 78.6903L106.827 97.5438C106.856 97.8447 106.965 98.1324 107.142 98.3771C107.32 98.6219 107.56 98.8148 107.837 98.936C108.114 99.0572 108.418 99.1022 108.718 99.0665C109.018 99.0308 109.304 98.9156 109.544 98.7327L134.003 83.8708Z" fill="url(#paint2_linear_2874_8970)"/>
<path d="M106.317 133.468C106.926 133.05 107.407 132.472 107.707 131.797C108.007 131.122 108.114 130.378 108.016 129.646L104.279 110.792C104.25 110.492 104.141 110.204 103.963 109.959C103.786 109.714 103.546 109.521 103.269 109.4C102.992 109.279 102.688 109.234 102.388 109.27C102.087 109.305 101.802 109.421 101.561 109.603L77.1028 124.465C76.4939 124.883 76.0128 125.461 75.7129 126.136C75.4131 126.811 75.3062 127.555 75.4042 128.287L79.2259 147.141C79.2634 147.428 79.3736 147.7 79.546 147.933C79.7184 148.165 79.9473 148.349 80.211 148.469C80.4747 148.588 80.7645 148.637 81.0528 148.613C81.3412 148.589 81.6185 148.491 81.8586 148.33L106.317 133.468Z" fill="#5865F0"/>
<path d="M139.863 113.089C140.479 112.683 140.961 112.103 141.249 111.423C141.536 110.743 141.615 109.993 141.476 109.267L137.74 90.4139C137.697 90.1202 137.579 89.8427 137.396 89.609C137.213 89.3753 136.973 89.1936 136.698 89.0819C136.423 88.9703 136.124 88.9325 135.83 88.9725C135.536 89.0125 135.257 89.1288 135.022 89.3099L110.564 104.087C109.955 104.501 109.479 105.082 109.193 105.76C108.907 106.438 108.822 107.184 108.95 107.909L112.687 126.762C112.716 127.063 112.825 127.351 113.002 127.595C113.18 127.84 113.419 128.033 113.696 128.154C113.973 128.275 114.278 128.321 114.578 128.285C114.878 128.249 115.163 128.134 115.404 127.951L139.863 113.089Z" fill="url(#paint3_linear_2874_8970)"/>
<path d="M131.887 127.538C132.499 125.666 131.947 123.805 130.654 123.383C129.361 122.96 127.817 124.136 127.205 126.008C126.593 127.881 127.145 129.741 128.437 130.164C129.73 130.586 131.275 129.411 131.887 127.538Z" fill="#FF78B7"/>
<path d="M123.241 132.847C123.853 130.975 123.301 129.114 122.008 128.691C120.715 128.269 119.171 129.444 118.559 131.317C117.947 133.189 118.499 135.05 119.791 135.472C121.084 135.895 122.629 134.719 123.241 132.847Z" fill="#B7B1E0"/>
<path d="M114.599 138.132C115.211 136.26 114.659 134.399 113.366 133.977C112.073 133.554 110.529 134.729 109.917 136.602C109.305 138.474 109.857 140.335 111.15 140.757C112.442 141.18 113.987 140.005 114.599 138.132Z" fill="#6C66A8"/>
<path d="M105.872 143.331C106.484 141.459 105.932 139.598 104.639 139.176C103.346 138.753 101.802 139.929 101.19 141.801C100.578 143.673 101.13 145.534 102.423 145.957C103.716 146.379 105.26 145.204 105.872 143.331Z" fill="#6C66A8"/>
<path d="M97.1192 148.695C97.7312 146.822 97.1792 144.962 95.8864 144.539C94.5935 144.117 93.0493 145.292 92.4372 147.164C91.8252 149.037 92.3772 150.897 93.6701 151.32C94.9629 151.742 96.5072 150.567 97.1192 148.695Z" fill="#6C66A8"/>
<path d="M189.204 179.498V178.648L173.069 188.415V189.434C173.072 189.601 173.12 189.763 173.207 189.905C173.294 190.047 173.418 190.163 173.566 190.241C173.713 190.319 173.878 190.356 174.045 190.349C174.211 190.341 174.373 190.289 174.512 190.198L187.676 182.215C188.139 181.928 188.523 181.529 188.79 181.053C189.057 180.578 189.2 180.043 189.204 179.498Z" fill="#8F8FC4"/>
<path d="M189.205 178.649L173.069 188.416C172.858 188.287 172.684 188.106 172.563 187.89C172.442 187.674 172.379 187.431 172.379 187.184C172.379 186.937 172.442 186.694 172.563 186.478C172.684 186.263 172.858 186.082 173.069 185.953L185.043 178.649C185.673 178.275 186.392 178.078 187.124 178.078C187.856 178.078 188.575 178.275 189.205 178.649Z" fill="#A1A1D1"/>
<path d="M67.2515 186.463C67.299 186.954 67.4527 187.428 67.7021 187.854C67.9514 188.279 68.2903 188.645 68.6952 188.926L72.347 191.049C73.1113 191.559 73.7907 191.304 73.7907 190.455C73.7432 189.964 73.5895 189.49 73.3401 189.064C73.0908 188.639 72.7519 188.273 72.347 187.992L68.6952 185.784C67.9309 185.359 67.2515 185.614 67.2515 186.463Z" fill="#8F8FC4"/>
<path d="M75.7441 191.641C75.7955 192.13 75.9605 192.599 76.226 193.012C76.4914 193.425 76.85 193.77 77.2728 194.019L78.7165 194.869C79.4809 195.378 80.1603 195.038 80.1603 194.274C80.1127 193.783 79.959 193.309 79.7097 192.884C79.4604 192.458 79.1215 192.092 78.7165 191.811L77.2728 190.962C76.4235 190.453 75.7441 190.792 75.7441 191.641Z" fill="#8F8FC4"/>
<path d="M81.8586 195.207C81.9062 195.698 82.0599 196.173 82.3092 196.598C82.5585 197.023 82.8974 197.389 83.3024 197.67L84.7461 198.52C85.5954 199.029 86.1898 198.689 86.1898 197.84C86.1544 197.358 86.0051 196.891 85.7541 196.477C85.5031 196.064 85.1577 195.716 84.7461 195.462L83.3024 194.613C82.538 194.103 81.8586 194.358 81.8586 195.207Z" fill="#8F8FC4"/>
<path d="M337.145 166.844H329.417V173.485H337.145V166.844Z" fill="#A1A1D1"/>
<path d="M213.578 189.855H205.85V196.497H213.578V189.855Z" fill="#A1A1D1"/>
<path d="M284.151 146.801C285.938 145.844 287.931 145.335 289.958 145.321C291.986 145.306 293.986 145.785 295.786 146.716L334.767 170.071C337.909 172.024 337.909 175.167 334.767 177.12L258.759 223.234C255.617 225.188 250.351 225.188 247.124 223.234L208.228 199.965C205.001 198.012 205.001 194.869 208.228 192.916L284.151 146.801Z" fill="#A1A1D1"/>
<path d="M284.151 140.176C285.938 139.219 287.931 138.71 289.958 138.696C291.986 138.681 293.986 139.16 295.786 140.091L334.767 163.446C337.909 165.314 337.909 168.542 334.767 170.41L258.759 216.609C255.617 218.563 250.351 218.563 247.124 216.609L208.228 193.34C205.001 191.387 205.001 188.244 208.228 186.291L284.151 140.176Z" fill="#BABAE6"/>
<path d="M286.529 141.535C287.628 140.912 288.866 140.578 290.128 140.563C291.39 140.548 292.636 140.853 293.748 141.45L332.474 164.72C334.512 165.909 334.512 167.862 332.474 169.051L256.466 215.25C255.338 215.838 254.086 216.145 252.814 216.145C251.542 216.145 250.29 215.838 249.162 215.25L210.436 192.066C208.483 190.877 208.483 188.923 210.436 187.65L286.529 141.535Z" fill="#19143B"/>
<path d="M253.239 179.837C251.625 178.903 251.625 177.29 253.239 176.27L273.621 163.871C274.528 163.409 275.532 163.168 276.551 163.168C277.569 163.168 278.573 163.409 279.481 163.871L301.137 176.865C302.75 177.799 302.75 179.413 301.137 180.347L280.669 192.746C279.791 193.242 278.802 193.51 277.793 193.525C276.784 193.54 275.787 193.301 274.895 192.831L253.239 179.837Z" fill="#57EF84"/>
<path d="M230.733 210.072C230.733 210.921 230.054 211.261 229.205 210.751L226.147 208.883C225.736 208.629 225.39 208.281 225.139 207.867C224.888 207.454 224.739 206.987 224.704 206.505C224.704 205.656 225.298 205.316 226.147 205.825L229.205 207.694C229.628 207.943 229.986 208.288 230.251 208.701C230.517 209.114 230.682 209.583 230.733 210.072Z" fill="#7F7FB5"/>
<path d="M312.432 187.395C312.432 188.16 313.111 188.33 313.875 187.82L318.376 185.102C318.76 184.879 319.09 184.572 319.339 184.205C319.589 183.837 319.754 183.419 319.82 182.979C319.82 182.215 319.141 182.045 318.376 182.47L313.875 185.272C313.491 185.496 313.162 185.802 312.912 186.17C312.663 186.537 312.498 186.956 312.432 187.395Z" fill="#5865F0"/>
<path d="M219.738 204.418C220.058 204.346 220.202 203.768 220.058 203.128C219.915 202.487 219.539 202.025 219.219 202.097C218.898 202.169 218.755 202.746 218.898 203.387C219.041 204.028 219.417 204.489 219.738 204.418Z" fill="#8F8FC4"/>
<path d="M217.257 202.886C217.578 202.815 217.721 202.237 217.578 201.596C217.435 200.955 217.059 200.494 216.739 200.566C216.418 200.637 216.275 201.215 216.418 201.856C216.561 202.496 216.937 202.958 217.257 202.886Z" fill="#8F8FC4"/>
<path d="M214.692 201.355C215.013 201.283 215.156 200.706 215.013 200.065C214.87 199.424 214.494 198.963 214.174 199.034C213.853 199.106 213.71 199.684 213.853 200.324C213.996 200.965 214.372 201.427 214.692 201.355Z" fill="#8F8FC4"/>
<path d="M241.312 217.32C241.633 217.248 241.776 216.671 241.633 216.03C241.49 215.389 241.114 214.928 240.794 214.999C240.473 215.071 240.33 215.648 240.473 216.289C240.616 216.93 240.992 217.391 241.312 217.32Z" fill="#8F8FC4"/>
<path d="M238.832 215.789C239.152 215.717 239.296 215.139 239.153 214.499C239.01 213.858 238.634 213.396 238.313 213.468C237.993 213.54 237.849 214.117 237.993 214.758C238.136 215.399 238.512 215.86 238.832 215.789Z" fill="#8F8FC4"/>
<path d="M236.267 214.257C236.588 214.186 236.731 213.608 236.588 212.967C236.445 212.327 236.069 211.865 235.748 211.937C235.428 212.008 235.284 212.586 235.428 213.227C235.571 213.868 235.947 214.329 236.267 214.257Z" fill="#8F8FC4"/>
<path d="M268.706 162.495C270.532 162.396 271.965 161.443 271.907 160.366C271.849 159.288 270.321 158.495 268.494 158.594C266.668 158.693 265.234 159.647 265.293 160.724C265.351 161.801 266.879 162.594 268.706 162.495Z" fill="#5865F0"/>
<path d="M242.963 186.035C241.349 185.101 241.349 183.487 242.963 182.553C243.848 182.07 244.841 181.816 245.85 181.816C246.859 181.816 247.852 182.07 248.738 182.553L270.394 195.546C272.007 196.481 272.007 198.009 270.479 199.028C269.571 199.491 268.567 199.732 267.549 199.732C266.53 199.732 265.526 199.491 264.619 199.028L242.963 186.035Z" fill="#4B448C"/>
<path d="M237.994 181.108C239.821 181.01 241.254 180.056 241.196 178.979C241.137 177.902 239.609 177.109 237.783 177.208C235.956 177.307 234.523 178.26 234.581 179.337C234.64 180.414 236.168 181.207 237.994 181.108Z" fill="#8AD7FF"/>
<path d="M287.973 158.774C286.36 157.755 286.36 156.226 287.888 155.207L292.05 152.744C292.935 152.261 293.928 152.008 294.937 152.008C295.946 152.008 296.939 152.261 297.825 152.744L319.481 165.738C321.094 166.672 321.094 168.286 319.481 169.22L315.404 171.683C314.524 172.181 313.529 172.443 312.517 172.443C311.505 172.443 310.51 172.181 309.629 171.683L287.973 158.774Z" fill="#4B448C"/>
<path d="M287.181 151.319C289.007 151.22 290.441 150.267 290.382 149.19C290.324 148.113 288.796 147.32 286.97 147.419C285.143 147.517 283.71 148.471 283.768 149.548C283.826 150.625 285.354 151.418 287.181 151.319Z" fill="#2ACA78"/>
<path d="M232.687 192.32C231.073 191.301 230.903 189.857 232.262 189.008C233.117 188.593 234.063 188.399 235.012 188.444C235.962 188.488 236.885 188.77 237.697 189.263L244.576 193.339C246.19 194.274 246.36 195.802 245.001 196.567C244.149 196.98 243.209 197.18 242.262 197.15C241.316 197.121 240.391 196.862 239.566 196.397L232.687 192.32Z" fill="#4B448C"/>
<path d="M226.993 187.812C228.82 187.713 230.253 186.759 230.195 185.682C230.136 184.605 228.608 183.812 226.782 183.911C224.955 184.01 223.522 184.963 223.58 186.04C223.639 187.117 225.167 187.911 226.993 187.812Z" fill="#8088FF"/>
<path d="M195.149 108.838C185.468 113.339 175.786 114.613 170.436 115.972C166.444 120.473 164.576 119.963 163.642 118.944C162.708 117.925 163.047 116.991 164.236 115.207C159.99 115.717 154.47 115.972 154.045 111.216C153.621 106.46 157.527 102.469 166.275 101.619C175.022 100.77 185.892 97.373 192.262 94.9102L195.149 108.838Z" fill="url(#paint4_linear_2874_8970)"/>
<path d="M232.432 159.029C224.073 152.546 216.365 145.265 209.417 137.288C209.417 137.288 213.409 120.473 214.937 114.868C220.033 96.0145 217.145 95.0803 210.096 88.4561C203.048 81.8319 193.111 83.4455 184.279 93.7215C175.447 103.997 168.992 117.84 174.767 134.571C180.542 151.301 207.464 166.588 222.665 173.212C233.111 177.713 243.642 176.694 247.209 170.919C250.776 165.144 246.614 161.832 236.678 160.728C235.138 160.544 233.674 159.958 232.432 159.029Z" fill="#698EFF"/>
<path d="M240.669 78.8641C241.455 76.924 241.573 74.7776 241.004 72.7632C240.435 70.7489 239.212 68.9812 237.527 67.7388C231.243 63.2378 222.75 58.6518 214.257 56.6985C210.436 55.8492 206.444 57.7176 204.066 61.4543C200.711 66.6 198.055 72.169 196.168 78.0148C194.979 81.8365 196.253 85.9129 199.311 87.7813C205.68 91.8577 213.833 96.4437 221.476 99.2462C225.638 100.775 230.648 98.7367 233.111 94.3206C236.037 89.3774 238.565 84.2089 240.669 78.8641Z" fill="url(#paint5_linear_2874_8970)"/>
<path d="M242.962 84.1307C243.136 83.6414 243.155 83.1107 243.019 82.6099C242.882 82.109 242.596 81.6618 242.198 81.3282C240.969 80.5285 239.622 79.9267 238.207 79.5447C237.683 79.407 237.129 79.4397 236.625 79.6382C236.121 79.8368 235.693 80.1907 235.404 80.6488C233.075 84.3725 231.139 88.3288 229.629 92.4534C229.371 93.1529 229.356 93.9192 229.587 94.6281C229.818 95.3371 230.282 95.9473 230.903 96.36L233.536 97.6339C234.208 97.8513 234.935 97.8354 235.598 97.5889C236.26 97.3423 236.82 96.8794 237.187 96.2751C239.66 92.5111 241.604 88.4246 242.962 84.1307Z" fill="#B7CCFF"/>
<path d="M225.553 88.9697C225.807 87.5259 225.128 86.5068 223.854 86.4219C222.58 86.337 220.967 87.6109 222.071 91.5174C222.551 93.2523 223.597 94.7769 225.043 95.8487C225.118 95.9118 225.206 95.9579 225.301 95.9838C225.396 96.0097 225.495 96.0148 225.592 95.9986C225.689 95.9825 225.781 95.9455 225.862 95.8903C225.943 95.8351 226.012 95.7629 226.062 95.6788C226.158 95.5963 226.22 95.4811 226.236 95.3555C226.251 95.2299 226.22 95.103 226.147 94.9994C225.439 93.0728 225.234 90.9974 225.553 88.9697Z" fill="#D11583"/>
<path d="M222.41 91.0938C222.985 89.6338 223.273 88.0768 223.26 86.5078C222.156 86.8475 221.137 88.2912 222.071 91.5184V91.6883L222.41 91.0938Z" fill="black"/>
<path d="M206.699 84.3005C207.717 84.9023 208.8 85.3867 209.926 85.7443C210.324 85.8739 210.754 85.8599 211.142 85.7047C211.53 85.5495 211.851 85.2629 212.05 84.895C214.975 79.834 217.503 74.5526 219.608 69.0989C219.727 68.7389 219.735 68.3512 219.628 67.9871C219.522 67.623 219.308 67.2999 219.013 67.0607C217.976 66.3013 216.831 65.7003 215.616 65.2772C214.944 65.0598 214.217 65.0757 213.554 65.3223C212.892 65.5688 212.332 66.0317 211.965 66.636C209.25 70.9902 207.028 75.6331 205.34 80.4789C205.061 81.1719 205.044 81.9434 205.295 82.6475C205.545 83.3516 206.045 83.9397 206.699 84.3005Z" fill="#4774FF"/>
<path d="M219.098 70.2007C218.888 69.8607 218.552 69.6168 218.164 69.5213C217.835 69.3981 217.472 69.3992 217.144 69.5243C216.816 69.6493 216.544 69.8898 216.381 70.2007C214.302 73.903 212.459 77.7322 210.86 81.6656C210.708 82.0171 210.694 82.4129 210.82 82.7746C210.946 83.1363 211.203 83.4376 211.54 83.6189L212.559 83.8737C215.128 79.5128 217.316 74.9381 219.098 70.2007Z" fill="#B7CCFF"/>
<path d="M225.553 96.019C225.523 94.9306 225.239 93.8642 224.723 92.9055C224.207 91.9468 223.473 91.1225 222.58 90.4988L221.731 90.0742C221.794 90.5659 221.908 91.0496 222.071 91.518C222.551 93.2528 223.597 94.7774 225.043 95.8492L225.553 96.019Z" fill="#FFADD6"/>
<path d="M236.892 91.9485L236.817 91.9089C236.319 91.6464 235.703 91.8372 235.44 92.3351L235.021 93.1314C234.758 93.6293 234.949 94.2457 235.447 94.5082L235.522 94.5478C236.02 94.8103 236.636 94.6195 236.899 94.1216L237.319 93.3253C237.581 92.8274 237.39 92.211 236.892 91.9485Z" fill="#698EFF"/>
<path d="M233.155 79.3781C233.725 77.8384 233.58 76.366 232.832 76.0894C232.084 75.8128 231.017 76.8366 230.447 78.3763C229.877 79.9159 230.022 81.3883 230.77 81.6649C231.518 81.9416 232.586 80.9177 233.155 79.3781Z" fill="black"/>
<path d="M243.557 139.836C244.321 123.616 246.19 114.868 239.056 110.792C231.922 106.715 222.241 110.877 201.943 116.142L209.417 137.289C217.23 134.146 226.572 130.664 226.572 130.664C227.081 144.337 225.468 146.461 231.243 149.942C237.018 153.424 242.368 153.255 246.359 151.386C250.351 149.518 249.672 145.356 243.557 139.836Z" fill="url(#paint6_linear_2874_8970)"/>
<path d="M191.498 98.561C180.967 91.8518 173.493 90.0684 164.067 88.7096C157.442 91.4272 152.347 93.0408 150.563 91.5121C148.78 89.9835 149.544 88.6247 152.602 86.4166C147.251 85.3126 142.75 80.4718 146.827 75.631C150.903 70.7903 158.716 70.1958 178.249 73.8476C195.489 77.0748 204.067 81.1512 208.992 90.0684C213.918 98.9856 205.765 103.147 196.848 100.939C194.958 100.41 193.156 99.6091 191.498 98.561Z" fill="#698EFF"/>
<path d="M198.886 117.248H199.141C199.226 117.248 208.058 114.615 215.531 112.577C215.786 111.728 215.956 110.964 216.126 110.199C208.398 112.322 198.631 115.21 198.546 115.295C198.411 115.322 198.283 115.379 198.172 115.461C198.062 115.543 197.971 115.649 197.906 115.771C197.841 115.893 197.803 116.028 197.797 116.166C197.79 116.303 197.814 116.441 197.867 116.569C197.94 116.777 198.079 116.956 198.263 117.079C198.447 117.201 198.665 117.261 198.886 117.248Z" fill="#4774FF"/>
<path d="M182.411 95.928L187.761 98.4757H188.271C188.497 98.4452 188.708 98.3452 188.875 98.1896C189.042 98.034 189.157 97.8304 189.204 97.6068C189.25 97.3832 189.226 97.1507 189.135 96.9413C189.044 96.7319 188.89 96.5559 188.695 96.4375L183.854 94.1445C183.345 94.8239 182.92 95.4184 182.411 95.928Z" fill="#4774FF"/>
<path d="M226.572 130.662C227.846 129.133 228.78 127.859 228.78 127.859" stroke="#4774FF" stroke-width="2.5" stroke-miterlimit="10" stroke-linecap="round"/>
<path d="M228.95 58.9031L227.591 58.1388L225.722 56.78C223.429 54.9116 223.09 51.5995 226.657 51.005C226.657 51.005 230.223 49.1367 233.79 54.1473C234.065 54.5904 234.456 54.9508 234.919 55.1901C235.383 55.4293 235.902 55.5385 236.423 55.5061L231.412 58.988L228.95 58.9031Z" fill="#00F67A"/>
<path d="M233.026 58.6456C233.215 58.6467 233.397 58.578 233.538 58.4525C233.68 58.3271 233.769 58.1538 233.79 57.9662C233.815 57.8657 233.819 57.7611 233.803 57.6589C233.786 57.5567 233.749 57.459 233.693 57.3716C233.638 57.2843 233.565 57.2091 233.479 57.1507C233.394 57.0923 233.297 57.0519 233.196 57.032C233.111 57.032 228.61 55.9279 226.232 46.4163C226.173 46.2266 226.042 46.0674 225.868 45.9722C225.694 45.8771 225.489 45.8536 225.298 45.9067C225.196 45.9267 225.1 45.9671 225.014 46.0255C224.929 46.0839 224.856 46.159 224.8 46.2464C224.745 46.3337 224.707 46.4315 224.691 46.5337C224.674 46.6359 224.678 46.7404 224.703 46.8409C227.421 57.4566 232.686 58.5606 232.856 58.5606L233.026 58.6456Z" fill="#00912F"/>
<path d="M227.591 58.136C227.421 57.9661 229.969 59.5797 234.045 55.9279L235.829 54.3143C237.442 52.8706 241.179 49.8982 244.576 52.1062C244.576 52.1062 247.463 54.3143 244.746 57.3716C244.078 58.133 243.232 58.7166 242.283 59.0701C239.944 60.1262 237.382 60.5932 234.821 60.4304C232.259 60.2675 229.777 59.4798 227.591 58.136Z" fill="#00D071"/>
<path d="M230.308 59.4948L232.007 60.0044C233.411 60.3794 234.879 60.4523 236.314 60.218C237.749 59.9838 239.117 59.4479 240.33 58.6456C241.043 58.2548 241.7 57.7691 242.283 57.2018C242.363 57.1364 242.429 57.0554 242.477 56.9636C242.525 56.8718 242.554 56.7713 242.562 56.668C242.57 56.5648 242.557 56.461 242.523 56.363C242.49 56.265 242.437 56.1747 242.368 56.0978C242.302 56.0175 242.221 55.9514 242.13 55.9034C242.038 55.8554 241.937 55.8266 241.834 55.8187C241.731 55.8107 241.627 55.8238 241.529 55.8572C241.431 55.8906 241.341 55.9436 241.264 56.0129C239.141 58.0511 235.659 59.7496 230.308 59.4948Z" fill="#00912F"/>
<path d="M122.623 48.8824C121.579 48.2251 120.685 47.3565 119.998 46.3327C119.31 45.3088 118.845 44.1523 118.631 42.9376L117.952 38.6914C117.932 38.594 117.879 38.5067 117.801 38.4446C117.723 38.3825 117.627 38.3496 117.527 38.3516C117.437 38.3516 117.351 38.3874 117.287 38.4511C117.223 38.5149 117.188 38.6013 117.188 38.6914L116.593 42.9376C116.416 44.1549 115.984 45.3211 115.325 46.3601C114.667 47.3991 113.797 48.2875 112.771 48.9673L112.177 49.3071C112.073 49.4247 112.013 49.5748 112.007 49.7317C112.007 49.7976 112.022 49.8626 112.052 49.9216C112.081 49.9805 112.124 50.0318 112.177 50.0714L112.771 50.4111C113.818 51.0562 114.709 51.9229 115.384 52.95C116.059 53.9771 116.501 55.1397 116.678 56.3559L117.357 60.6022C117.396 60.6885 117.455 60.7643 117.529 60.8234C117.602 60.8825 117.689 60.9231 117.782 60.9419C117.881 60.9439 117.978 60.911 118.056 60.8489C118.133 60.7868 118.187 60.6995 118.207 60.6022L118.801 56.3559C118.978 55.1386 119.41 53.9724 120.069 52.9334C120.727 51.8944 121.598 51.006 122.623 50.3262L123.217 49.9865C123.321 49.8688 123.381 49.7187 123.387 49.5618C123.387 49.392 123.302 49.3071 123.132 49.2221L122.623 48.8824Z" fill="#FFE55C"/>
<path d="M56.4658 204.21C55.4423 203.52 54.5688 202.63 53.8975 201.594C53.2262 200.558 52.771 199.397 52.5592 198.181L51.8798 194.019C51.8798 193.765 51.625 193.68 51.4551 193.68C51.2004 193.68 51.0305 193.765 51.0305 194.019L50.436 198.266C50.2748 199.488 49.8495 200.66 49.1895 201.702C48.5296 202.743 47.6509 203.628 46.6144 204.295L46.1048 204.635C46.0459 204.668 45.9983 204.718 45.968 204.779C45.9377 204.84 45.9262 204.908 45.935 204.975L46.1048 205.314L46.6144 205.654C47.6579 206.312 48.5521 207.18 49.2396 208.204C49.9271 209.228 50.3925 210.384 50.6059 211.599L51.2853 215.845C51.3051 215.943 51.3585 216.03 51.4361 216.092C51.5137 216.154 51.6106 216.187 51.7099 216.185C51.8026 216.166 51.8895 216.126 51.9633 216.067C52.0372 216.007 52.0959 215.932 52.1345 215.845L52.729 211.599C52.8902 210.377 53.3156 209.204 53.9755 208.163C54.6355 207.122 55.5142 206.237 56.5507 205.569L57.0602 205.145C57.113 205.105 57.1558 205.054 57.1853 204.995C57.2147 204.936 57.2301 204.871 57.2301 204.805C57.2301 204.739 57.2147 204.674 57.1853 204.615C57.1558 204.556 57.113 204.505 57.0602 204.465L56.4658 204.21Z" fill="#FF78B7"/>
<path d="M317.527 121.662C317 121.365 316.55 120.949 316.211 120.448C315.872 119.947 315.654 119.374 315.574 118.774L315.234 116.736C315.234 116.691 315.216 116.648 315.184 116.616C315.153 116.584 315.109 116.566 315.064 116.566C314.894 116.566 314.81 116.651 314.81 116.736L314.555 118.774C314.468 119.373 314.257 119.947 313.935 120.458C313.613 120.97 313.188 121.409 312.686 121.747L312.432 121.917C312.347 121.917 312.347 122.002 312.347 122.087C312.347 122.171 312.347 122.256 312.432 122.256L312.686 122.426C313.194 122.767 313.628 123.205 313.963 123.715C314.298 124.226 314.528 124.798 314.64 125.399L314.979 127.437L315.149 127.607L315.319 127.437L315.659 125.314C315.735 124.724 315.943 124.158 316.266 123.658C316.589 123.159 317.02 122.738 317.527 122.426L317.782 122.256C317.782 122.172 317.867 122.087 317.867 122.002V121.832L317.527 121.662Z" fill="#8088FF"/>
<path d="M94.0877 38.9461C93.5785 38.6167 93.1475 38.18 92.8247 37.6666C92.502 37.1531 92.2954 36.5754 92.2194 35.9737L91.8796 33.9355C91.8796 33.8505 91.7947 33.7656 91.6249 33.7656C91.5798 33.7656 91.5366 33.7835 91.5048 33.8154C91.4729 33.8472 91.455 33.8904 91.455 33.9355L91.2002 36.0586C91.1126 36.6453 90.9006 37.2064 90.5783 37.7044C90.2561 38.2024 89.8311 38.6258 89.3319 38.9461L89.0771 39.1159C89.0464 39.1504 89.023 39.1908 89.0084 39.2346C88.9938 39.2784 88.9883 39.3247 88.9922 39.3707V39.5406L89.247 39.7104C89.7548 40.0301 90.1907 40.4519 90.5269 40.949C90.8632 41.446 91.0925 42.0075 91.2002 42.5979L91.455 44.6361L91.7098 44.806C91.7548 44.806 91.798 44.7881 91.8299 44.7562C91.8618 44.7244 91.8796 44.6811 91.8796 44.6361L92.2194 42.5979C92.306 41.9995 92.5171 41.4258 92.8389 40.9139C93.1606 40.402 93.5861 39.9631 94.0877 39.6255L94.3425 39.4556C94.3916 39.4121 94.4221 39.3512 94.4274 39.2858V39.1159L94.0877 38.9461Z" fill="#57EF84"/>
<path d="M311.073 196.571C310.062 195.87 309.361 194.805 309.119 193.599L308.78 191.56L308.61 191.391L308.44 191.56L308.1 193.599C308.024 194.2 307.818 194.778 307.495 195.292C307.172 195.805 306.741 196.242 306.232 196.571L305.977 196.741C305.892 196.826 305.892 196.826 305.892 196.911V197.081L306.147 197.25C306.672 197.571 307.119 198.004 307.457 198.517C307.795 199.031 308.014 199.614 308.1 200.223L308.44 202.261C308.44 202.306 308.458 202.349 308.49 202.381C308.521 202.413 308.565 202.431 308.61 202.431C308.78 202.431 308.864 202.346 308.864 202.261L309.119 200.223C309.195 199.621 309.402 199.043 309.725 198.53C310.047 198.017 310.478 197.58 310.988 197.25L311.242 197.081V196.911C311.246 196.865 311.241 196.818 311.226 196.775C311.212 196.731 311.188 196.69 311.157 196.656L311.073 196.571Z" fill="#8AD7FF"/>
</g>
<defs>
<linearGradient id="paint0_linear_2874_8970" x1="190" y1="257" x2="190" y2="0" gradientUnits="userSpaceOnUse">
<stop stop-color="#430259"/>
<stop offset="1" stop-color="#060623"/>
</linearGradient>
<linearGradient id="paint1_linear_2874_8970" x1="266.41" y1="64.048" x2="308.245" y2="64.048" gradientUnits="userSpaceOnUse">
<stop stop-color="#3E70DD"/>
<stop offset="1" stop-color="#B377F3"/>
</linearGradient>
<linearGradient id="paint2_linear_2874_8970" x1="103.022" y1="79.3952" x2="135.71" y2="79.3952" gradientUnits="userSpaceOnUse">
<stop stop-color="#3E70DD"/>
<stop offset="1" stop-color="#B377F3"/>
</linearGradient>
<linearGradient id="paint3_linear_2874_8970" x1="108.873" y1="108.613" x2="141.561" y2="108.613" gradientUnits="userSpaceOnUse">
<stop stop-color="#B473F5"/>
<stop offset="1" stop-color="#E292AA"/>
</linearGradient>
<linearGradient id="paint4_linear_2874_8970" x1="156.033" y1="110.273" x2="188.585" y2="105.993" gradientUnits="userSpaceOnUse">
<stop stop-color="#698EFF"/>
<stop offset="0.5" stop-color="#5881FF"/>
<stop offset="0.91" stop-color="#4774FF"/>
</linearGradient>
<linearGradient id="paint5_linear_2874_8970" x1="221.595" y1="78.0743" x2="195.26" y2="78.4649" gradientUnits="userSpaceOnUse">
<stop offset="0.13" stop-color="#698EFF"/>
<stop offset="0.61" stop-color="#5881FF"/>
<stop offset="1" stop-color="#4774FF"/>
</linearGradient>
<linearGradient id="paint6_linear_2874_8970" x1="201.969" y1="130.919" x2="248.856" y2="130.919" gradientUnits="userSpaceOnUse">
<stop offset="0.09" stop-color="#698EFF"/>
<stop offset="1" stop-color="#4774FF"/>
</linearGradient>
<clipPath id="clip0_2874_8970">
<rect width="380" height="257" fill="white"/>
</clipPath>
</defs>
</svg>
