<svg width="380" height="257" viewBox="0 0 380 257" fill="none" xmlns="http://www.w3.org/2000/svg">
<g clip-path="url(#clip0_2874_9079)">
<path d="M353.3 0H26.7C9.9 0 0 9.9 0 26.7V257H380V26.7C380 9.9 370.1 0 353.3 0Z" fill="url(#paint0_linear_2874_9079)"/>
<path d="M91.3 171.102C128.303 171.102 158.3 141.105 158.3 104.102C158.3 67.0985 128.303 37.1016 91.3 37.1016C54.297 37.1016 24.3 67.0985 24.3 104.102C24.3 141.105 54.297 171.102 91.3 171.102Z" fill="#FFE55C"/>
<path d="M72.1 168.403L72.7 122.303C55.7 121.303 45.9 128.803 38 144.803C46.6228 156.038 58.5474 164.291 72.1 168.403Z" fill="#698EFF"/>
<path d="M45.9 102.8C47.3413 102.723 48.6943 102.081 49.6671 101.015C50.64 99.9487 51.1546 98.5426 51.1 97.1003C50.8398 92.4281 51.0072 87.7419 51.6 83.1003C52.2 77.9003 56.2 73.7003 61.7 72.4003C67.2 71.1003 81.9 69.9003 93 69.4003C104.1 68.9003 119 68.8003 124.6 69.6003C127.204 69.872 129.657 70.9545 131.612 72.6948C133.568 74.4352 134.928 76.7457 135.5 79.3003C136.583 83.8921 137.186 88.5839 137.3 93.3003C137.378 94.7151 138.008 96.0427 139.056 96.9967C140.104 97.9508 141.484 98.4549 142.9 98.4003C143.609 98.3745 144.307 98.2091 144.952 97.9136C145.597 97.6182 146.178 97.1984 146.661 96.6783C147.144 96.1582 147.52 95.5479 147.767 94.8825C148.013 94.2171 148.127 93.5095 148.1 92.8003C147.967 87.5185 147.33 82.2614 146.2 77.1003C144.1 67.5003 136.3 60.4003 126.2 58.9003C118.6 57.8003 100.9 58.3003 92.6 58.6003C84.3 58.9003 66.6 60.2003 59.1 61.9003C49.2 64.3003 42 72.1003 40.8 81.8003C40.1102 87.0373 39.9427 92.33 40.3 97.6003C40.3258 98.3096 40.4911 99.0068 40.7866 99.6521C41.0821 100.297 41.5019 100.878 42.022 101.361C42.5421 101.844 43.1523 102.22 43.8177 102.467C44.4832 102.714 45.1907 102.827 45.9 102.8Z" fill="black"/>
<path d="M127.8 147.7L121 118L68.1 122.9C61.8589 134.317 56.4774 146.183 52 158.4C62.1433 165.755 74.1483 170.114 86.6479 170.981C99.1474 171.847 111.639 169.186 122.7 163.3C125.6 154.7 127.8 147.7 127.8 147.7Z" fill="#698EFF"/>
<path d="M112.7 126.601C123.8 115.401 156.1 90.1014 156.1 90.1014C157.86 87.9517 159.464 85.6793 160.9 83.3014C162.4 80.8014 164 78.3014 166.1 78.0014C168.2 77.7014 171.2 79.1014 171 81.2014C170.6 85.4014 170 88.6014 170 88.6014C170 88.6014 175.1 88.5014 179.5 88.9014C183.9 89.3014 186.6 90.8014 188.2 95.4014C189.8 100.001 188.9 102.801 186 104.701C183.1 106.601 176.3 109.201 170.6 111.301C167.6 115.101 140.4 146.601 119.8 159.301L112.7 126.601Z" fill="url(#paint1_linear_2874_9079)"/>
<path d="M126.9 119.5L69.8 122.6C79.5 131.8 97.1 136.4 110.8 133.1C124.5 129.8 126.9 119.5 126.9 119.5Z" fill="#416EFA"/>
<path d="M143.1 79.9C140.6 79.7834 138.096 79.8168 135.6 80C135.447 79.9994 135.295 80.0308 135.155 80.0922C135.014 80.1536 134.888 80.2437 134.785 80.3567C134.681 80.4697 134.602 80.6031 134.553 80.7483C134.504 80.8935 134.486 81.0474 134.5 81.2L135.8 109.9C135.813 110.058 135.856 110.212 135.929 110.352C136.001 110.493 136.1 110.618 136.221 110.721C136.342 110.823 136.482 110.9 136.633 110.948C136.784 110.996 136.942 111.014 137.1 111C139.8 110.9 141.8 110.7 144.5 110.4C146.687 110.184 148.722 109.185 150.229 107.586C151.737 105.986 152.614 103.896 152.7 101.7C152.802 97.0586 152.602 92.4154 152.1 87.8C151.79 85.6257 150.712 83.6341 149.062 82.1852C147.411 80.7363 145.296 79.9258 143.1 79.9Z" fill="#698EFF"/>
<path d="M141.9 84.8H136.5C136.277 84.7865 136.053 84.8171 135.841 84.8903C135.63 84.9635 135.435 85.0776 135.268 85.2263C135.101 85.3749 134.964 85.5551 134.867 85.7565C134.769 85.9579 134.713 86.1766 134.7 86.4L135.4 101.7C135.474 102.134 135.713 102.522 136.067 102.783C136.422 103.045 136.864 103.158 137.3 103.1C140.1 103 140.7 102.9 142.7 102.7C144.7 102.5 146.6 101 146.7 99.3C146.885 95.4262 146.718 91.5435 146.2 87.7C145.9 86.1 144.1 84.9 141.9 84.8Z" fill="#B7CCFF"/>
<path d="M148.505 109.724C154.357 109.56 158.9 102.222 158.652 93.3338C158.403 84.4455 153.458 77.3726 147.606 77.5361C141.754 77.6995 137.212 85.0374 137.46 93.9258C137.708 102.814 142.653 109.887 148.505 109.724Z" fill="#FF78B7"/>
<path d="M144.066 111.747C150.249 111.575 155.036 103.379 154.759 93.4418C154.481 83.5045 149.244 75.5888 143.061 75.7615C136.877 75.9342 132.09 84.13 132.368 94.0672C132.645 104.004 137.883 111.92 144.066 111.747Z" fill="black"/>
<path d="M48.1999 96.4019C47.8425 91.4315 48.0101 86.4372 48.6999 81.5019C49.4999 74.0019 54.9999 68.1019 62.5999 66.3019C70.1999 64.5019 83.7999 63.7019 94.3999 63.2019C105 62.7019 120.2 62.6019 126.4 63.5019C130.062 63.9575 133.492 65.5398 136.215 68.0301C138.938 70.5203 140.82 73.7953 141.6 77.4019C142.673 82.2324 143.276 87.1553 143.4 92.1019C143.757 97.0724 143.59 102.067 142.9 107.002C142.43 110.659 140.843 114.081 138.355 116.802C135.867 119.522 132.6 121.408 129 122.202C122.9 123.602 107.7 124.802 97.1999 125.302C86.6999 125.802 71.3999 125.902 65.1999 125.002C61.5328 124.561 58.0956 122.983 55.3698 120.491C52.6441 117.998 50.7665 114.715 49.9999 111.102C48.9272 106.271 48.3244 101.349 48.1999 96.4019Z" fill="#698EFF"/>
<path d="M99.6002 105.502L114 104.802C121.2 104.502 125.7 100.502 126.6 95.3021C127.5 90.1021 127.2 87.1021 126.4 81.8021C125.6 76.5021 122.5 75.8021 118.7 76.0021L94.1001 77.1021C93.1983 77.1278 92.3106 77.3326 91.4887 77.7047C90.6668 78.0769 89.9272 78.6088 89.3129 79.2696C88.6986 79.9304 88.222 80.7069 87.9108 81.5537C87.5996 82.4005 87.46 83.3008 87.5002 84.2021L88.0002 94.0021C88.3002 101.802 92.4002 105.802 99.6002 105.502Z" fill="#B7CCFF"/>
<path d="M115.6 92.5019L118.7 92.3019C119.076 92.2606 119.456 92.2958 119.818 92.4055C120.18 92.5151 120.516 92.6969 120.805 92.9398C121.095 93.1828 121.332 93.4819 121.503 93.8191C121.674 94.1563 121.775 94.5247 121.8 94.9019C121.8 95.2782 121.725 95.6507 121.578 95.997C121.431 96.3434 121.216 96.6567 120.945 96.918C120.674 97.1794 120.354 97.3835 120.002 97.5182C119.651 97.6529 119.276 97.7154 118.9 97.7019H115.8C115.432 97.7435 115.059 97.7116 114.704 97.6082C114.348 97.5047 114.016 97.3317 113.728 97.0992C113.44 96.8667 113.2 96.5792 113.024 96.2536C112.847 95.9279 112.737 95.5704 112.7 95.2019C112.713 94.8341 112.798 94.4725 112.951 94.1377C113.104 93.8029 113.321 93.5015 113.59 93.2508C113.86 93 114.176 92.8048 114.521 92.6763C114.865 92.5478 115.232 92.4886 115.6 92.5019Z" fill="#698EFF"/>
<path d="M100.9 93.1004H104.1C104.487 93.011 104.89 93.0083 105.278 93.0924C105.667 93.1765 106.032 93.3454 106.348 93.587C106.664 93.8286 106.922 94.1369 107.105 94.49C107.288 94.8431 107.39 95.2321 107.405 95.6294C107.42 96.0267 107.347 96.4224 107.192 96.7883C107.036 97.1541 106.801 97.4811 106.505 97.7458C106.208 98.0105 105.857 98.2064 105.476 98.3196C105.094 98.4327 104.693 98.4603 104.3 98.4004L101.2 98.6004C100.42 98.6562 99.6488 98.4053 99.0511 97.9009C98.4534 97.3966 98.0762 96.6787 98 95.9004C98.0493 95.1569 98.3736 94.4583 98.9096 93.9407C99.4457 93.4231 100.155 93.1236 100.9 93.1004Z" fill="#698EFF"/>
<path d="M79.6 91.1023C81.8644 91.1023 83.7 89.2667 83.7 87.0023C83.7 84.738 81.8644 82.9023 79.6 82.9023C77.3356 82.9023 75.5 84.738 75.5 87.0023C75.5 89.2667 77.3356 91.1023 79.6 91.1023Z" fill="black"/>
<path d="M134.5 88.7C136.709 88.7 138.5 86.8644 138.5 84.6C138.5 82.3356 136.709 80.5 134.5 80.5C132.291 80.5 130.5 82.3356 130.5 84.6C130.5 86.8644 132.291 88.7 134.5 88.7Z" fill="black"/>
<path d="M45.2001 84.2018L52.6001 83.6018C52.7659 83.588 52.9328 83.6087 53.0901 83.6628C53.2474 83.7169 53.3918 83.8031 53.514 83.9159C53.6363 84.0287 53.7337 84.1658 53.8002 84.3183C53.8667 84.4708 53.9007 84.6355 53.9001 84.8018L55.1001 113.502C55.1012 113.804 54.9885 114.094 54.7847 114.317C54.5809 114.539 54.3007 114.677 54.0001 114.702H46.5001C44.3153 114.673 42.2139 113.859 40.5798 112.408C38.9457 110.958 37.888 108.968 37.6001 106.802C36.9988 102.195 36.7981 97.5438 37.0001 92.9018C37.1262 90.7191 38.0173 88.6507 39.5169 87.0596C41.0165 85.4686 43.0287 84.4568 45.2001 84.2018Z" fill="#698EFF"/>
<path d="M46.9 89.0999C48.6847 88.7962 50.4899 88.629 52.3 88.5999C52.5104 88.5719 52.7242 88.5861 52.929 88.6416C53.1339 88.697 53.3257 88.7927 53.4932 88.923C53.6607 89.0533 53.8006 89.2156 53.9048 89.4005C54.009 89.5854 54.0753 89.7891 54.1 89.9999L54.8 105.4C54.7506 105.842 54.5394 106.25 54.207 106.545C53.8746 106.841 53.4447 107.003 53 107H47.6C45.5 106.9 43.6 105.7 43.4 104C42.7843 100.166 42.6165 96.2729 42.9 92.3999C43 90.6999 44.7 89.2999 46.9 89.0999Z" fill="#B7CCFF"/>
<path d="M50.1 116.001C56.4 115.501 60.9001 106.901 60.2001 96.7007C59.5 86.5007 53.8 78.7007 47.5 79.1007L41.8 79.5007L44.4001 116.401L50.1 116.001Z" fill="black"/>
<path d="M44.4146 116.31C50.6954 115.871 55.2091 107.252 54.4964 97.0598C53.7837 86.8674 48.1144 78.9609 41.8337 79.4001C35.5529 79.8393 31.0392 88.4579 31.7519 98.6502C32.4646 108.843 38.1339 116.749 44.4146 116.31Z" fill="black"/>
<path d="M41.8881 114.484C47.4526 114.095 51.4513 106.455 50.8195 97.4197C50.1876 88.3843 45.1645 81.3751 39.6001 81.7642C34.0356 82.1533 30.0368 89.7934 30.6687 98.8288C31.3005 107.864 36.3236 114.873 41.8881 114.484Z" fill="#FF78B7"/>
<path d="M32.2001 98.8998C32.7001 105.1 35.6001 109.6 39.0001 109.5H39.5001C41.0001 109.3 42.4001 107.9 43.3001 105.8C44.1692 103.366 44.5101 100.775 44.3001 98.1998C43.8001 91.8998 40.8001 87.2998 37.4001 87.5998C36.3011 87.7186 35.2767 88.2131 34.5001 88.9998C32.8001 91.0998 31.9001 94.6998 32.2001 98.8998ZM34.5001 98.6998C34.1001 93.7998 35.7001 90.0998 37.4001 89.7998H37.6001C39.4001 89.6998 41.7001 93.2998 42.0001 98.2998C42.2188 100.499 41.9455 102.719 41.2001 104.8C40.6001 106.2 39.8001 107.1 38.9001 107.2C37.1001 107.2 34.8001 103.7 34.5001 98.6998Z" fill="white"/>
<path d="M66.8001 65.5008C55.6001 67.2008 53.4001 74.2008 53.9001 84.8008L45.8 79.2008L50.2001 70.0008L65.3001 62.8008L66.8001 65.5008Z" fill="black"/>
<path d="M77.8002 54L74.6002 53.1L70.2002 51.3C64.6002 48.7 62.3002 42 69.3002 39C69.3002 39 75.4002 33.6 85.2002 41.9C87.9002 44.3 89.4002 43.7 91.2002 43.4L82.8002 52.9L77.8002 54Z" fill="#00F67A"/>
<path d="M85.8001 51.4012C85.9978 51.3767 86.1886 51.3129 86.3614 51.2138C86.5342 51.1147 86.6856 50.9821 86.8066 50.8239C86.9276 50.6656 87.0159 50.4848 87.0663 50.2921C87.1167 50.0993 87.1281 49.8985 87.1001 49.7012C87.102 49.4862 87.0577 49.2733 86.9701 49.077C86.8825 48.8806 86.7538 48.7053 86.5926 48.5631C86.4313 48.4208 86.2414 48.3149 86.0357 48.2525C85.8299 48.19 85.6132 48.1726 85.4001 48.2012C85.2001 48.2012 75.6001 48.2012 66.1001 30.1012C65.9011 29.7167 65.5576 29.4269 65.145 29.2956C64.7325 29.1643 64.2846 29.2023 63.9001 29.4012C63.5155 29.6001 63.2257 29.9437 63.0944 30.3563C62.9632 30.7688 63.0012 31.2167 63.2001 31.6012C73.9001 51.9012 85.1001 51.5012 85.6001 51.5012L85.8001 51.4012Z" fill="#00912F"/>
<path d="M74.6 53.1011C74.3 52.9011 80.1 55.0011 86.6 45.5011L89.4 41.4011C92 37.7011 98.1 29.7011 106 32.6011C106 32.6011 113 35.6011 109 43.1011C107.963 44.9855 106.53 46.623 104.8 47.9011C100.3 51.2011 88.9 58.0011 74.6 53.1011Z" fill="#00D071"/>
<path d="M80.7 54.502C81.9904 54.7013 83.2942 54.8016 84.6 54.802C87.6281 54.8176 90.6273 54.2134 93.4133 53.0268C96.1993 51.8402 98.713 50.0962 100.8 47.902C101.984 46.7028 103.055 45.3973 104 44.002C104.127 43.821 104.215 43.6156 104.259 43.3988C104.303 43.182 104.301 42.9585 104.254 42.7424C104.207 42.5263 104.116 42.3222 103.986 42.1431C103.856 41.9641 103.691 41.8139 103.5 41.702C103.136 41.5019 102.71 41.4423 102.305 41.5345C101.9 41.6266 101.542 41.8641 101.3 42.202C97.9 47.202 91.8 52.402 80.7 54.502Z" fill="#00912F"/>
<path d="M94.2001 110.301C93.5001 107.901 80.6001 105.301 78.0001 106.601C77.5165 106.922 77.1363 107.376 76.9055 107.908C76.6748 108.441 76.6034 109.029 76.7001 109.601L91.7001 115.001C93.6001 113.601 94.6001 111.801 94.2001 110.301Z" fill="#D11583"/>
<path d="M87.3001 107.203C83.6001 106.303 79.4001 105.903 78.0001 106.603C77.5165 106.923 77.1363 107.377 76.9055 107.91C76.6748 108.442 76.6034 109.03 76.7001 109.603L87.5001 112.203C87.7127 111.523 87.814 110.814 87.8001 110.103C87.7884 109.116 87.6197 108.137 87.3001 107.203Z" fill="black"/>
<path d="M84.1 117.002C85.4361 117.187 86.7958 117.106 88.1003 116.763C89.4049 116.42 90.6283 115.821 91.7 115.002C89.2877 112.946 86.4547 111.445 83.4 110.602C81.226 109.949 78.9696 109.612 76.7 109.602C76.9141 111.49 77.7626 113.251 79.1068 114.595C80.4509 115.939 82.2112 116.787 84.1 117.002Z" fill="#FFA8D2"/>
<path d="M78.2 170.102C83.6 173.202 90.7 166.602 97.1 159.202C101.1 162.602 105.2 164.502 109.3 164.502C113.4 164.502 116.7 163.202 121.5 160.002C123.7 165.902 127.3 172.102 132.7 169.602C138.1 167.102 138.4 159.802 136.3 151.402C135.897 149.635 135.038 148.004 133.811 146.671C132.583 145.338 131.028 144.349 129.3 143.802C125.4 142.602 120 142.102 113.8 141.902C105.7 141.702 96.9 141.702 90.4 143.402C87.3313 144.297 84.676 146.244 82.9 148.902C77.4 156.902 71.5 166.302 78.2 170.102Z" fill="#3E3B75"/>
<path d="M120.1 150.9L116.3 153.7C114.927 154.732 113.251 155.282 111.533 155.263C109.815 155.245 108.152 154.661 106.8 153.6L103.5 151C103.208 150.687 103.014 150.296 102.942 149.875C102.869 149.453 102.92 149.02 103.09 148.627C103.26 148.234 103.54 147.9 103.897 147.664C104.254 147.429 104.672 147.302 105.1 147.3H119.1C119.542 147.261 119.984 147.379 120.349 147.631C120.713 147.884 120.978 148.257 121.097 148.684C121.216 149.112 121.181 149.568 120.999 149.973C120.817 150.377 120.499 150.705 120.1 150.9Z" fill="#00D071"/>
<path d="M125.5 153.303C125.5 154.352 126.351 155.203 127.4 155.203C128.449 155.203 129.3 154.352 129.3 153.303V149.143C129.3 148.094 128.449 147.243 127.4 147.243C126.351 147.243 125.5 148.094 125.5 149.143V153.303Z" fill="black"/>
<path d="M93.7 153.303C93.7 154.352 94.5507 155.203 95.6 155.203C96.6493 155.203 97.5 154.352 97.5 153.303V149.143C97.5 148.094 96.6493 147.243 95.6 147.243C94.5507 147.243 93.7 148.094 93.7 149.143V153.303Z" fill="black"/>
<path d="M59.8 160.5C60.0587 160.505 60.3143 160.443 60.5421 160.321C60.7699 160.198 60.9621 160.019 61.1 159.8L71.3 143.5C71.5001 143.135 71.5597 142.71 71.4676 142.305C71.3754 141.899 71.1379 141.542 70.8 141.3C70.4356 141.1 70.0105 141.04 69.6051 141.132C69.1997 141.224 68.8421 141.462 68.6 141.8L58.4 158.1C58.1999 158.464 58.1403 158.889 58.2325 159.295C58.3246 159.7 58.5621 160.058 58.9 160.3C59.1716 160.459 59.4864 160.529 59.8 160.5Z" fill="#4774FF"/>
<path d="M37.9999 144.801C29.4999 162.001 32.5999 173.901 48.3999 173.901H62.5999C64.2936 173.908 65.9655 174.284 67.4999 175.001C76.2999 179.201 82.1999 179.001 87.3999 172.101C92.5999 165.201 90.9999 158.601 85.1999 154.401C79.3999 150.201 72.7 149.501 65.2999 149.501H46.5999L37.9999 144.801Z" fill="url(#paint2_linear_2874_9079)"/>
<path d="M287.1 215.503C324.876 215.503 355.5 184.879 355.5 147.103C355.5 109.327 324.876 78.7031 287.1 78.7031C249.324 78.7031 218.7 109.327 218.7 147.103C218.7 184.879 249.324 215.503 287.1 215.503Z" fill="#57EF84"/>
<path d="M255.2 182.702C252.5 183.702 249.8 184.802 247.2 186.002L245 187.002C241.525 188.74 238.153 190.677 234.9 192.802C238.746 196.999 243.076 200.725 247.8 203.902C249.481 202.903 251.217 202.002 253 201.202L255.2 200.202L260.7 198.002C261.705 197.641 262.628 197.085 263.418 196.367C264.208 195.649 264.849 194.782 265.304 193.817C265.759 192.851 266.019 191.805 266.07 190.739C266.121 189.672 265.961 188.607 265.6 187.602C265.239 186.597 264.684 185.674 263.965 184.884C263.247 184.094 262.381 183.453 261.415 182.998C260.449 182.543 259.403 182.283 258.337 182.232C257.271 182.181 256.205 182.341 255.2 182.702Z" fill="#CFCFDA"/>
<path d="M247.2 186L245 187L253 201.2L255.2 200.2L247.2 186Z" fill="#B4B4C8"/>
<path d="M271.9 215.3C287.355 218.4 303.403 216.253 317.5 209.2L314 195.3C312.954 191.208 310.62 187.561 307.343 184.896C304.066 182.231 300.019 180.69 295.8 180.5L268.8 179.4C260.8 179 256.1 180.9 250.4 191.1L244.2 203.3C252.493 209.192 261.93 213.28 271.9 215.3Z" fill="url(#paint3_linear_2874_9079)"/>
<path d="M311.6 178.702C311.396 181.126 310.24 183.372 308.385 184.946C306.529 186.52 304.126 187.295 301.7 187.102L295.6 186.602H293.4L280.1 185.502H277.8L264.5 184.402H262.3C260.714 184.047 259.307 183.136 258.335 181.833C257.363 180.531 256.889 178.923 257 177.302L257.6 170.102L263.4 170.502L265.6 170.702L278.9 171.702L281.2 171.902L294.5 172.902H296.7L311.9 174.102L311.6 178.702Z" fill="#6990FF"/>
<path d="M263.2 184.103H262.3L263.4 170.203L265.6 170.403L264.5 184.303L263.2 184.103Z" fill="#3D6BF2"/>
<path d="M279.058 171.44L277.984 185.398L280.227 185.571L281.301 171.612L279.058 171.44Z" fill="#3D6BF2"/>
<path d="M294.643 172.678L293.569 186.637L295.813 186.809L296.887 172.851L294.643 172.678Z" fill="#3D6BF2"/>
<path d="M232.8 143.4C230.1 143.1 227.5 146.7 226.9 151.5C226.3 156.3 228.2 160.5 230.9 160.8L240.2 161.8L242.1 144.4L232.8 143.4Z" fill="#698FFF"/>
<path d="M256.6 132.403L255 131.703C250.6 129.703 240.9 124.703 238.4 118.003C236.8 113.803 237.2 108.203 245 101.803C245.523 101.315 246.092 100.879 246.7 100.503C251.5 97.8027 258.2 98.3027 259.8 106.903C261.275 114.084 262.145 121.376 262.4 128.703C262.4 132.403 259.6 133.703 256.6 132.403Z" fill="#E8E8E8"/>
<path d="M255 131.704C250.6 129.704 240.9 124.704 238.4 118.004C236.8 113.804 237.2 108.204 245 101.804C245.523 101.316 246.092 100.88 246.7 100.504L255 131.704Z" fill="#FF78B9"/>
<path d="M339.3 112.2C338.886 111.653 338.417 111.15 337.9 110.7C333.7 107 327.1 106.2 323.7 114.3C321.6 119.4 319.7 125 318.4 129.3C318.3 128.9 318.1 128.4 318 127.9C314.9 116.7 307.5 105.4 292.1 104C276.7 102.6 267.8 110.6 262.6 120.2C260.6 123.9 259.2 126.5 249.5 131.6C244.6 134.1 235.4 138.7 234.1 151.4C233.527 157.356 235.278 163.303 238.986 167.999C242.694 172.694 248.073 175.776 254 176.6L308.3 182.7C314.305 183.234 320.281 181.4 324.952 177.588C329.623 173.777 332.619 168.29 333.3 162.3C334.5 151.7 328.6 144.5 323.6 139.6C328.3 138.4 338.8 135.4 342.6 129.4C345 125.6 345.7 120.1 339.3 112.2Z" fill="url(#paint4_linear_2874_9079)"/>
<path d="M342.6 129.403C338.8 135.503 328.2 138.503 323.5 139.603L337.9 110.703C338.417 111.154 338.886 111.656 339.3 112.203C345.7 120.103 345 125.603 342.6 129.403Z" fill="#FF78B9"/>
<path d="M292.6 104.001C292.078 103.951 291.594 103.708 291.243 103.32C290.891 102.931 290.698 102.425 290.7 101.901C290.7 101.101 290.8 81.2014 304.9 76.7014C319 72.2014 338.1 87.6014 338.9 88.3014C339.11 88.4655 339.286 88.6695 339.417 88.9015C339.548 89.1336 339.633 89.3892 339.665 89.6539C339.698 89.9185 339.678 90.187 339.607 90.4439C339.535 90.7009 339.414 90.9413 339.25 91.1514C339.086 91.3615 338.882 91.5372 338.65 91.6685C338.418 91.7998 338.162 91.8841 337.897 91.9166C337.633 91.9491 337.364 91.9292 337.107 91.8579C336.85 91.7867 336.61 91.6655 336.4 91.5014C336.2 91.4014 317.8 76.9014 306.2 80.7014C294.6 84.5014 294.8 101.801 294.8 101.901C294.8 102.458 294.579 102.992 294.185 103.386C293.791 103.78 293.257 104.001 292.7 104.001H292.6Z" fill="#3E3B75"/>
<path d="M302.074 100.998L284.186 98.9916C281.881 98.733 279.802 100.392 279.544 102.697L279.432 103.691C279.174 105.996 280.833 108.074 283.138 108.333L301.026 110.339C303.331 110.598 305.409 108.939 305.668 106.634L305.779 105.64C306.038 103.335 304.379 101.257 302.074 100.998Z" fill="#6990FF"/>
<path d="M339.3 104C346.756 104 352.8 97.9558 352.8 90.5C352.8 83.0442 346.756 77 339.3 77C331.844 77 325.8 83.0442 325.8 90.5C325.8 97.9558 331.844 104 339.3 104Z" fill="#6990FF"/>
<path d="M327.3 154.002C324.6 153.702 322 157.302 321.4 162.102C320.8 166.902 322.7 171.102 325.4 171.402L334.7 172.402L336.6 155.002L327.3 154.002Z" fill="#698FFF"/>
<path d="M340.458 164.299C340.999 159.469 339.214 155.305 336.47 154.997C333.726 154.689 331.062 158.355 330.52 163.185C329.978 168.014 331.764 172.179 334.508 172.487C337.252 172.795 339.916 169.129 340.458 164.299Z" fill="#8CA9FF"/>
<path d="M270.473 137.196C271.647 136.368 271.307 133.868 269.716 131.612C268.124 129.355 265.882 128.197 264.709 129.025C263.535 129.852 263.875 132.353 265.466 134.609C267.058 136.866 269.3 138.024 270.473 137.196Z" fill="black"/>
<path d="M277.9 142.002C278.1 140.602 273 140.002 272.8 141.402C272.822 142.015 273.069 142.597 273.493 143.04C273.917 143.482 274.489 143.754 275.1 143.802C276.2 144.002 277.8 143.402 277.9 142.002Z" fill="black"/>
<path d="M274.2 151.002C275.5 156.102 279.1 159.502 282.5 158.702C285.9 157.902 287.7 153.402 286.8 148.402L274.2 151.002Z" fill="#FF78B9"/>
<path d="M296.38 137.96C298.432 136.112 299.317 133.749 298.356 132.682C297.395 131.615 294.953 132.248 292.901 134.096C290.848 135.944 289.964 138.306 290.925 139.374C291.885 140.441 294.328 139.808 296.38 137.96Z" fill="black"/>
<path d="M296.5 150.404C296.238 150.39 295.99 150.284 295.8 150.104C295.554 149.875 295.406 149.56 295.387 149.224C295.369 148.888 295.481 148.559 295.7 148.304L300.7 142.904C300.94 142.678 301.252 142.544 301.582 142.526C301.911 142.507 302.236 142.606 302.5 142.804C302.732 143.046 302.862 143.368 302.862 143.704C302.862 144.039 302.732 144.362 302.5 144.604L297.5 150.004C297.372 150.138 297.216 150.243 297.043 150.312C296.871 150.381 296.686 150.413 296.5 150.404Z" fill="#FFAED7"/>
<path d="M301.7 150.905C301.438 150.891 301.19 150.785 301 150.605C300.881 150.5 300.784 150.373 300.715 150.23C300.646 150.088 300.605 149.933 300.596 149.775C300.587 149.617 300.609 149.459 300.661 149.31C300.713 149.16 300.794 149.022 300.9 148.905L305.9 143.505C306.129 143.258 306.444 143.11 306.78 143.092C307.115 143.073 307.445 143.185 307.7 143.405C307.819 143.509 307.915 143.636 307.985 143.779C308.054 143.921 308.094 144.076 308.104 144.234C308.113 144.392 308.091 144.55 308.039 144.699C307.987 144.849 307.905 144.987 307.8 145.105L302.7 150.605C302.567 150.727 302.407 150.817 302.234 150.869C302.061 150.921 301.878 150.933 301.7 150.905Z" fill="#FFAED7"/>
<path d="M306.9 151.502C306.638 151.489 306.39 151.382 306.2 151.202C305.954 150.973 305.806 150.658 305.787 150.322C305.769 149.987 305.881 149.657 306.1 149.402L311.1 144.002C311.34 143.822 311.636 143.73 311.936 143.743C312.236 143.756 312.523 143.873 312.747 144.073C312.971 144.274 313.118 144.546 313.164 144.843C313.211 145.139 313.152 145.443 313 145.702L307.9 151.102C307.776 151.242 307.621 151.351 307.447 151.421C307.274 151.49 307.086 151.518 306.9 151.502Z" fill="#FFAED7"/>
<path d="M262.8 146.603C262.594 146.607 262.391 146.553 262.214 146.447C262.037 146.341 261.893 146.187 261.8 146.003L258 139.703C257.864 139.417 257.83 139.092 257.902 138.783C257.975 138.475 258.15 138.2 258.4 138.003C258.536 137.913 258.69 137.852 258.851 137.823C259.012 137.795 259.177 137.799 259.336 137.837C259.495 137.874 259.645 137.944 259.777 138.041C259.908 138.139 260.018 138.262 260.1 138.403L263.9 144.803C263.99 144.94 264.051 145.093 264.08 145.254C264.109 145.415 264.104 145.581 264.067 145.74C264.029 145.899 263.96 146.049 263.862 146.18C263.765 146.312 263.641 146.422 263.5 146.503C263.396 146.567 263.28 146.608 263.16 146.625C263.04 146.642 262.917 146.635 262.8 146.603Z" fill="#FFAED7"/>
<path d="M257.6 146.103C257.394 146.107 257.191 146.052 257.014 145.946C256.837 145.84 256.694 145.687 256.6 145.503L252.8 139.103C252.664 138.816 252.63 138.492 252.702 138.183C252.775 137.874 252.95 137.599 253.2 137.403C253.494 137.256 253.833 137.226 254.148 137.318C254.464 137.411 254.732 137.62 254.9 137.903L258.7 144.203C258.79 144.339 258.851 144.493 258.88 144.654C258.909 144.815 258.904 144.98 258.867 145.139C258.829 145.298 258.76 145.448 258.662 145.58C258.565 145.711 258.441 145.821 258.3 145.903C258.1 146.055 257.85 146.127 257.6 146.103Z" fill="#FFAED7"/>
<path d="M252.4 145.502C252.194 145.506 251.991 145.451 251.814 145.345C251.637 145.239 251.494 145.086 251.4 144.902L247.6 138.602C247.464 138.315 247.43 137.991 247.502 137.682C247.575 137.373 247.75 137.098 248 136.902C248.136 136.812 248.29 136.75 248.451 136.722C248.612 136.693 248.777 136.698 248.936 136.735C249.095 136.772 249.245 136.842 249.377 136.94C249.508 137.037 249.618 137.16 249.7 137.302L253.5 143.702C253.59 143.838 253.651 143.992 253.68 144.153C253.709 144.314 253.704 144.479 253.667 144.638C253.629 144.797 253.56 144.947 253.462 145.079C253.365 145.21 253.241 145.32 253.1 145.402C252.996 145.465 252.88 145.506 252.76 145.524C252.64 145.541 252.517 145.533 252.4 145.502Z" fill="#FFAED7"/>
<path d="M232.8 178.103C232.57 177.557 232.487 176.961 232.558 176.373C232.629 175.786 232.853 175.227 233.207 174.752C233.56 174.277 234.031 173.903 234.574 173.666C235.117 173.43 235.712 173.339 236.3 173.403H255.7C257.128 173.453 258.508 173.927 259.665 174.764C260.823 175.601 261.705 176.763 262.2 178.103L272.6 211.903C272.822 212.454 272.901 213.053 272.828 213.642C272.754 214.232 272.532 214.794 272.182 215.274C271.832 215.754 271.365 216.137 270.826 216.387C270.287 216.637 269.693 216.746 269.1 216.703H249.7C248.264 216.631 246.882 216.138 245.725 215.284C244.569 214.43 243.691 213.254 243.2 211.903L232.8 178.103Z" fill="#1A1830"/>
<path d="M230.4 178.103C230.17 177.557 230.087 176.961 230.158 176.373C230.229 175.786 230.453 175.227 230.806 174.752C231.16 174.277 231.631 173.903 232.174 173.666C232.716 173.43 233.311 173.339 233.9 173.403H253.3C254.727 173.453 256.108 173.927 257.265 174.764C258.422 175.601 259.305 176.763 259.8 178.103L270.2 211.903C270.422 212.454 270.501 213.053 270.427 213.642C270.354 214.232 270.132 214.794 269.782 215.274C269.432 215.754 268.965 216.137 268.426 216.387C267.887 216.637 267.293 216.746 266.7 216.703H247.3C245.864 216.631 244.482 216.138 243.325 215.284C242.169 214.43 241.29 213.254 240.8 211.903L230.4 178.103Z" fill="#3E3B75"/>
<path d="M235.1 179.403C235.016 179.184 234.988 178.946 235.019 178.713C235.05 178.48 235.14 178.259 235.28 178.07C235.419 177.88 235.604 177.729 235.817 177.63C236.031 177.531 236.265 177.487 236.5 177.503H239.1C239.673 177.527 240.225 177.721 240.688 178.059C241.151 178.397 241.503 178.865 241.7 179.403L243.6 185.403C243.685 185.623 243.713 185.86 243.681 186.093C243.65 186.326 243.56 186.547 243.421 186.737C243.281 186.926 243.096 187.077 242.883 187.176C242.67 187.275 242.435 187.319 242.2 187.303H239.5C238.924 187.293 238.365 187.104 237.9 186.764C237.434 186.424 237.085 185.949 236.9 185.403L235.1 179.403Z" fill="#CFCFDA"/>
<path d="M237.095 220.895C244.167 217.908 247.06 208.764 243.557 200.471C240.054 192.178 231.481 187.877 224.41 190.865C217.338 193.852 214.445 202.996 217.948 211.289C221.451 219.581 230.023 223.882 237.095 220.895Z" fill="#6990FF"/>
<path d="M315.7 232.402C311.502 232.257 307.367 231.342 303.5 229.702L271.6 217.702C270.461 217.28 269.417 216.636 268.527 215.808C267.638 214.98 266.922 213.984 266.42 212.878C265.918 211.771 265.64 210.576 265.602 209.362C265.565 208.148 265.768 206.938 266.2 205.802C267.055 203.5 268.787 201.629 271.016 200.599C273.246 199.569 275.792 199.462 278.1 200.302L308.4 211.802C306.2 208.502 303.9 205.202 301.6 202.102C300.378 200.107 299.953 197.725 300.41 195.43C300.867 193.135 302.171 191.097 304.064 189.722C305.957 188.347 308.298 187.735 310.622 188.01C312.945 188.284 315.08 189.424 316.6 191.202C319.3 194.902 322.1 198.902 324.8 202.902C329.4 209.802 333.7 219.502 327.7 227.102C325.5 229.802 321.8 232.402 315.7 232.402Z" fill="#CFCFDA"/>
<path d="M276.7 226.8C286.034 226.8 293.6 219.234 293.6 209.9C293.6 200.566 286.034 193 276.7 193C267.366 193 259.8 200.566 259.8 209.9C259.8 219.234 267.366 226.8 276.7 226.8Z" fill="#6990FF"/>
<path d="M317.6 192.703L302.3 203.103L304.1 205.503L319.4 195.103L317.6 192.703Z" fill="#B4B4C8"/>
<path d="M292.5 225.503L295.3 226.603L301.9 209.303L299.1 208.203L292.5 225.503Z" fill="#B4B4C8"/>
<path d="M328.2 226.302L315.3 210.902L312.9 212.802L326.2 228.602C326.8 228.102 327.2 227.602 327.7 227.102C327.902 226.859 328.07 226.59 328.2 226.302Z" fill="#B4B4C8"/>
<path d="M308.4 231.3L313.4 213.5L310.5 212.5L305.4 230.4L308.4 231.3Z" fill="#B4B4C8"/>
<path d="M325.6 204.102L311.6 212.902L315.3 214.202L327.1 206.802C326.7 205.902 326.1 205.002 325.6 204.102Z" fill="#B4B4C8"/>
<path d="M173.1 28.4001C171.919 27.6417 170.908 26.6452 170.133 25.4744C169.359 24.3036 168.836 22.9841 168.6 21.6001L167.9 16.9001C167.877 16.7855 167.814 16.6827 167.723 16.6096C167.631 16.5365 167.517 16.4977 167.4 16.5001C167.283 16.4977 167.169 16.5365 167.078 16.6096C166.986 16.6827 166.923 16.7855 166.9 16.9001L166.3 21.6001C166.095 22.9955 165.597 24.3316 164.838 25.5208C164.08 26.71 163.079 27.7253 161.9 28.5001L161.3 28.9001C161.238 28.9467 161.188 29.0071 161.153 29.0765C161.118 29.1459 161.1 29.2225 161.1 29.3001C161.1 29.3777 161.118 29.4543 161.153 29.5237C161.188 29.5931 161.238 29.6535 161.3 29.7001L162 30.1001C163.171 30.8593 164.169 31.8576 164.927 33.0296C165.686 34.2015 166.188 35.5205 166.4 36.9001L167.2 41.6001C167.223 41.7147 167.286 41.8176 167.378 41.8906C167.469 41.9637 167.583 42.0025 167.7 42.0001C167.806 42.0001 167.908 41.958 167.983 41.8829C168.058 41.8079 168.1 41.7062 168.1 41.6001L168.8 36.8001C168.976 35.4211 169.452 34.0974 170.195 32.9224C170.938 31.7475 171.929 30.7499 173.1 30.0001L173.7 29.6001C173.803 29.4885 173.873 29.3497 173.9 29.2001C173.9 29.1001 173.8 28.9001 173.7 28.9001L173.1 28.4001Z" fill="#57EF84"/>
<path d="M100.2 210.098C98.5525 209.045 97.1477 207.653 96.0788 206.015C95.01 204.377 94.3014 202.531 94.0001 200.598L92.9001 193.998C92.8759 193.831 92.7916 193.677 92.6629 193.567C92.5341 193.457 92.3697 193.397 92.2001 193.398C92.041 193.398 91.8884 193.462 91.7759 193.574C91.6634 193.687 91.6001 193.839 91.6001 193.998L90.7001 200.598C90.4302 202.542 89.7459 204.405 88.6935 206.061C87.6411 207.718 86.2451 209.129 84.6001 210.198L83.7001 210.798C83.5266 210.952 83.4191 211.167 83.4001 211.398C83.4152 211.523 83.4592 211.642 83.5287 211.746C83.5982 211.85 83.6912 211.937 83.8001 211.998L84.6001 212.498C86.2751 213.532 87.7058 214.916 88.7935 216.557C89.8812 218.197 90.6 220.053 90.9001 221.998L92.0001 228.598C92.0001 228.758 92.0634 228.91 92.1759 229.023C92.2884 229.135 92.441 229.198 92.6001 229.198C92.7697 229.2 92.9341 229.14 93.0629 229.03C93.1916 228.92 93.2759 228.766 93.3001 228.598L94.2001 221.898C94.4763 219.957 95.1633 218.096 96.2151 216.441C97.267 214.785 98.6596 213.373 100.3 212.298L101.1 211.798C101.196 211.732 101.274 211.642 101.327 211.537C101.379 211.432 101.404 211.316 101.4 211.198C101.416 211.08 101.395 210.96 101.342 210.853C101.288 210.746 101.204 210.657 101.1 210.598L100.2 210.098Z" fill="#8088FF"/>
<path d="M342.8 50.3008C342.098 49.8573 341.495 49.2728 341.03 48.5842C340.566 47.8957 340.249 47.1181 340.1 46.3008L339.7 43.5008C339.7 43.4008 339.5 43.3008 339.4 43.3008C339.3 43.3008 339.1 43.4008 339.1 43.5008L338.7 46.4008C338.6 47.2092 338.324 47.986 337.892 48.6768C337.46 49.3677 336.883 49.956 336.2 50.4008L335.8 50.6008C335.764 50.6414 335.736 50.6889 335.719 50.7405C335.702 50.7921 335.696 50.8466 335.7 50.9008C335.7 51.0008 335.7 51.1008 335.8 51.1008L336.2 51.4008C336.906 51.8295 337.506 52.4117 337.956 53.1042C338.407 53.7967 338.695 54.5816 338.8 55.4008L339.3 58.2008C339.3 58.3008 339.4 58.4008 339.6 58.4008L339.8 58.2008L340.2 55.3008C340.343 54.4936 340.646 53.7233 341.093 53.0361C341.54 52.3488 342.12 51.7586 342.8 51.3008L343.1 51.1008C343.2 51.0008 343.3 50.9008 343.3 50.8008L343.1 50.6008L342.8 50.3008Z" fill="#FFE55C"/>
<path d="M76.0001 193.1C75.3055 192.648 74.7087 192.061 74.2449 191.373C73.7812 190.686 73.4599 189.913 73.3001 189.1L72.9001 186.3C72.9001 186.22 72.8685 186.144 72.8122 186.088C72.756 186.032 72.6797 186 72.6001 186C72.5205 186 72.4442 186.032 72.388 186.088C72.3317 186.144 72.3001 186.22 72.3001 186.3L71.9001 189.1C71.8132 189.912 71.543 190.695 71.11 191.387C70.6769 192.08 70.0923 192.666 69.4001 193.1L69.0001 193.4C68.9001 193.4 68.9001 193.5 68.9001 193.6C68.8955 193.654 68.902 193.709 68.9192 193.76C68.9364 193.812 68.9639 193.859 69.0001 193.9L69.4001 194.1C70.0967 194.539 70.6899 195.124 71.1387 195.815C71.5876 196.505 71.8814 197.285 72.0001 198.1L72.5001 200.9C72.5001 201 72.6001 201.1 72.8001 201.1L73.0001 200.9L73.4001 198.1C73.5408 197.279 73.843 196.493 74.2893 195.789C74.7356 195.086 75.3171 194.477 76.0001 194L76.3001 193.8L76.5001 193.6L76.3001 193.4L76.0001 193.1Z" fill="#8AD7FF"/>
<path d="M206.7 140.6C206.003 140.161 205.41 139.576 204.961 138.885C204.513 138.195 204.219 137.415 204.1 136.6L203.6 133.8C203.6 133.72 203.568 133.644 203.512 133.588C203.456 133.532 203.38 133.5 203.3 133.5C203.2 133.5 203.1 133.6 203.1 133.8L202.7 136.6C202.558 137.407 202.254 138.177 201.807 138.865C201.361 139.552 200.78 140.142 200.1 140.6L199.8 140.9L199.6 141.1L199.8 141.4L200.1 141.6C200.803 142.044 201.405 142.628 201.87 143.317C202.335 144.005 202.651 144.783 202.8 145.6L203.2 148.4L203.5 148.6L203.8 148.4L204.2 145.6C204.287 144.774 204.556 143.978 204.988 143.268C205.421 142.559 206.005 141.955 206.7 141.5L207.1 141.3C207.136 141.259 207.164 141.212 207.181 141.16C207.198 141.109 207.205 141.054 207.2 141C207.2 140.9 207.2 140.8 207.1 140.8L206.7 140.6Z" fill="#8AD7FF"/>
<path d="M357.4 220.101C356.248 219.343 355.264 218.358 354.507 217.206C353.75 216.054 353.237 214.759 353 213.401L352.3 208.701C352.254 208.599 352.185 208.51 352.098 208.44C352.011 208.371 351.909 208.323 351.8 208.301C351.683 208.299 351.569 208.337 351.478 208.41C351.386 208.483 351.323 208.586 351.3 208.701L350.7 213.401C350.505 214.774 350.021 216.09 349.28 217.262C348.539 218.435 347.557 219.436 346.4 220.201L345.8 220.601C345.731 220.64 345.675 220.699 345.639 220.77C345.603 220.842 345.59 220.922 345.6 221.001C345.59 221.08 345.603 221.16 345.639 221.231C345.675 221.303 345.731 221.362 345.8 221.401L346.4 221.801C347.591 222.513 348.606 223.486 349.368 224.646C350.13 225.807 350.62 227.125 350.8 228.501L351.6 233.201C351.623 233.316 351.686 233.418 351.778 233.491C351.869 233.565 351.983 233.603 352.1 233.601C352.215 233.578 352.317 233.515 352.391 233.423C352.464 233.332 352.502 233.218 352.5 233.101L353.2 228.401C353.389 227.026 353.87 225.707 354.612 224.534C355.354 223.361 356.339 222.361 357.5 221.601L358.1 221.201C358.162 221.154 358.213 221.094 358.247 221.024C358.282 220.955 358.3 220.879 358.3 220.801C358.3 220.723 358.282 220.647 358.247 220.577C358.213 220.508 358.162 220.447 358.1 220.401L357.4 220.101Z" fill="#FF78B7"/>
</g>
<defs>
<linearGradient id="paint0_linear_2874_9079" x1="190" y1="257" x2="190" y2="0" gradientUnits="userSpaceOnUse">
<stop stop-color="#430259"/>
<stop offset="1" stop-color="#060623"/>
</linearGradient>
<linearGradient id="paint1_linear_2874_9079" x1="126.395" y1="134.381" x2="167.976" y2="98.065" gradientUnits="userSpaceOnUse">
<stop offset="0.09" stop-color="#698EFF"/>
<stop offset="1" stop-color="#4774FF"/>
</linearGradient>
<linearGradient id="paint2_linear_2874_9079" x1="41.3899" y1="161.291" x2="88.3899" y2="161.291" gradientUnits="userSpaceOnUse">
<stop offset="0.09" stop-color="#698EFF"/>
<stop offset="1" stop-color="#4774FF"/>
</linearGradient>
<linearGradient id="paint3_linear_2874_9079" x1="278.432" y1="170.767" x2="282.807" y2="240.089" gradientUnits="userSpaceOnUse">
<stop stop-color="#E8E8E8"/>
<stop offset="0.5" stop-color="#E6E7E8"/>
<stop offset="0.68" stop-color="#DFE1E6"/>
<stop offset="0.8" stop-color="#D4D8E4"/>
<stop offset="0.91" stop-color="#C3CBE1"/>
<stop offset="0.99" stop-color="#ADBBDD"/>
<stop offset="1" stop-color="#ABB9DD"/>
</linearGradient>
<linearGradient id="paint4_linear_2874_9079" x1="291.669" y1="106.807" x2="285.621" y2="182.938" gradientUnits="userSpaceOnUse">
<stop stop-color="#E8E8E8"/>
<stop offset="0.5" stop-color="#E6E7E8"/>
<stop offset="0.68" stop-color="#DFE1E6"/>
<stop offset="0.8" stop-color="#D4D8E4"/>
<stop offset="0.91" stop-color="#C3CBE1"/>
<stop offset="0.99" stop-color="#ADBBDD"/>
<stop offset="1" stop-color="#ABB9DD"/>
</linearGradient>
<clipPath id="clip0_2874_9079">
<rect width="380" height="257" fill="white"/>
</clipPath>
</defs>
</svg>
