<svg width="388" height="212" viewBox="0 0 388 212" fill="none" xmlns="http://www.w3.org/2000/svg">
<path d="M128.452 126.331L0 125.519V0H153.357V100.434L128.452 126.309V126.331ZM4.51184 121.03L126.535 121.797L148.823 98.6288V4.51184H4.48926V121.03H4.51184Z" fill="#3A19B6"/>
<path d="M419.018 54H153V59H160.787H411.153H421L419.018 54Z" fill="url(#paint0_linear_4610_7195)"/>
<path d="M76.679 86.806C45.8406 86.806 20.7773 74.3759 20.7773 59.0807C20.7773 43.7856 45.8632 31.3555 76.679 31.3555C107.495 31.3555 132.581 43.7856 132.581 59.0807C132.581 74.3759 107.495 86.806 76.679 86.806ZM76.679 32.7993C46.6527 32.7993 22.2211 44.5752 22.2211 59.0807C22.2211 73.5863 46.6527 85.3622 76.679 85.3622C106.705 85.3622 131.137 73.5863 131.137 59.0807C131.137 44.5752 106.705 32.7993 76.679 32.7993Z" fill="#00EB7A"/>
<path d="M76.6789 86.806C55.4055 86.806 38.0801 74.3759 38.0801 59.0807C38.0801 43.7856 55.383 31.3555 76.6789 31.3555C97.9747 31.3555 115.278 43.7856 115.278 59.0807C115.278 74.3759 97.9522 86.806 76.6789 86.806ZM76.6789 32.7993C56.1951 32.7993 39.5464 44.5752 39.5464 59.0807C39.5464 73.5863 56.2177 85.3622 76.6789 85.3622C97.14 85.3622 113.834 73.5863 113.834 59.0807C113.834 44.5752 97.1626 32.7993 76.6789 32.7993Z" fill="#00EB7A"/>
<path d="M76.6792 86.806C69.8212 86.806 64.4521 74.624 64.4521 59.0807C64.4521 43.5375 69.8212 31.3555 76.6792 31.3555C83.5372 31.3555 88.9063 43.5375 88.9063 59.0807C88.9063 74.624 83.5372 86.806 76.6792 86.806ZM76.6792 32.7993C70.8364 32.7993 65.8959 44.8233 65.8959 59.0807C65.8959 73.3381 70.8364 85.3622 76.6792 85.3622C82.5221 85.3622 87.4625 73.3381 87.4625 59.0807C87.4625 44.8233 82.5221 32.7993 76.6792 32.7993Z" fill="#00EB7A"/>
<path d="M76.6798 88.3408C44.4653 88.3408 19.2441 75.4821 19.2441 59.0815C19.2441 42.681 44.4653 29.8223 76.6798 29.8223C108.894 29.8223 134.116 42.681 134.116 59.0815C134.116 75.4821 108.894 88.3408 76.6798 88.3408ZM76.6798 34.3341C47.9845 34.3341 23.756 45.6588 23.756 59.0815C23.756 72.5043 47.9845 83.829 76.6798 83.829C105.375 83.829 129.604 72.5043 129.604 59.0815C129.604 45.6588 105.375 34.3341 76.6798 34.3341Z" fill="#00EB7A"/>
<path d="M76.6797 88.3408C54.5491 88.3408 36.5469 75.2114 36.5469 59.0815C36.5469 42.9517 54.5491 29.8223 76.6797 29.8223C98.8102 29.8223 116.812 42.9517 116.812 59.0815C116.812 75.2114 98.8102 88.3408 76.6797 88.3408ZM76.6797 34.3341C57.0306 34.3341 41.0587 45.4332 41.0587 59.0815C41.0587 72.7299 57.0306 83.829 76.6797 83.829C96.3287 83.829 112.301 72.7299 112.301 59.0815C112.301 45.4332 96.3287 34.3341 76.6797 34.3341Z" fill="#00EB7A"/>
<path d="M76.6791 88.3408C68.8285 88.3408 62.918 75.7528 62.918 59.0815C62.918 42.4103 68.8285 29.8223 76.6791 29.8223C84.5297 29.8223 90.4402 42.4103 90.4402 59.0815C90.4402 75.7528 84.5297 88.3408 76.6791 88.3408ZM76.6791 34.3341C72.3026 34.3341 67.4298 44.9144 67.4298 59.0815C67.4298 73.2487 72.3026 83.829 76.6791 83.829C81.0555 83.829 85.9283 73.2487 85.9283 59.0815C85.9283 44.9144 81.0555 34.3341 76.6791 34.3341Z" fill="#00EB7A"/>
<path d="M131.86 56.8262H21.5V61.338H131.86V56.8262Z" fill="#00EB7A"/>
<path d="M215.17 118.998H157.83L157.393 119.454L145 131.823V189.173L157.83 201.998H215.17L228 189.173V131.823L215.17 118.998ZM182.005 177.103C182.005 177.419 182.005 177.735 182.005 178.051H173.138C173.138 170.682 167.168 164.682 159.82 164.682V155.752C163.625 155.752 167.046 154.156 169.455 151.595C171.742 149.191 173.138 145.945 173.138 142.384H182.005C182.005 149.7 178.427 156.156 172.998 160.209C178.183 164.103 181.691 170.173 181.988 177.103H182.005ZM213.338 164.682C206.198 164.682 200.368 170.349 200.054 177.419C200.019 177.63 200.019 177.84 200.019 178.051H191.152C191.152 177.84 191.152 177.63 191.169 177.419C191.361 170.366 194.887 164.156 200.159 160.209C194.73 156.156 191.152 149.7 191.152 142.384H200.019C200.019 149.752 205.989 155.752 213.338 155.752V164.682Z" fill="#2EA967"/>
<path d="M63.5 212C61.2106 190.649 59.3512 188.789 38 186.5C59.3512 184.211 61.2106 182.351 63.5 161C65.7894 182.351 67.6488 184.211 89 186.5C67.6488 188.789 65.7894 190.649 63.5 212Z" fill="#00EB7A"/>
<defs>
<linearGradient id="paint0_linear_4610_7195" x1="146.929" y1="59.5409" x2="380.462" y2="52.6921" gradientUnits="userSpaceOnUse">
<stop stop-color="#3A19B6"/>
<stop offset="1" stop-color="#3A19B6" stop-opacity="0"/>
</linearGradient>
</defs>
</svg>
