<svg width="2088" height="70" viewBox="0 0 2088 70" fill="none" xmlns="http://www.w3.org/2000/svg">
<rect width="2088" height="748" transform="translate(0 -339)" fill="url(#paint0_linear_4076_1729)"/>
<path opacity="0.2" d="M1769 51.2854H1851C1851 44.4283 1844.85 38.9245 1837.19 38.9245H1822.25C1820.92 38.9245 1819.88 38.0223 1819.88 36.7591C1819.88 28.4583 1812.41 21.6914 1803.14 21.6914H1802.48C1793.21 21.6914 1785.74 28.4583 1785.74 36.7591V41.2704C1785.65 43.7065 1783.47 45.6012 1780.92 45.6012H1775.43C1772.03 45.4208 1769.09 48.0373 1769 51.2854Z" fill="white"/>
<path opacity="0.2" d="M1707.62 54.1116C1707.62 50.7715 1710.08 48 1713.13 48H1718.86C1721.91 48 1724.37 50.7005 1724.37 54.1116C1724.37 54.7511 1724.81 55.3197 1725.46 55.3197H1727.2C1729.81 55.3197 1731.92 57.6648 1731.92 60.5074H1700C1700 58.2333 1701.67 56.3146 1703.77 56.3146H1705.51C1706.75 56.3146 1707.69 55.3197 1707.62 54.1116C1707.62 54.1826 1707.62 54.1116 1707.62 54.1116Z" fill="white"/>
<path opacity="0.2" d="M1917 26.3077H1868C1868.11 21.9246 1871.79 18.5277 1876.24 18.6373H1885.15C1885.93 18.6373 1886.6 18.0894 1886.6 17.3223C1886.71 12.0626 1891.27 7.89869 1896.62 8.00827H1897.07C1902.41 7.78911 1906.87 11.9531 1907.09 17.3223V20.0618C1907.09 21.5959 1908.42 22.8012 1909.98 22.6916H1913.21C1915.22 22.5821 1916.89 24.1161 1917 26.3077C1917 26.1981 1917 26.1981 1917 26.3077Z" fill="white"/>
<path opacity="0.2" d="M1673 36H1611C1611.14 30.4935 1615.79 26.226 1621.43 26.3636H1632.7C1633.69 26.3636 1634.53 25.6753 1634.53 24.7117C1634.67 18.1039 1640.45 12.8727 1647.21 13.0104H1647.78C1654.54 12.7351 1660.18 17.9662 1660.46 24.7117V28.1532C1660.46 30.0805 1662.15 31.5948 1664.12 31.4571H1668.21C1670.75 31.3195 1672.86 33.2468 1673 36C1673 35.8623 1673 35.8623 1673 36Z" fill="white"/>
<path opacity="0.2" d="M1983 69.2747H1910C1910.17 62.7448 1915.64 57.6841 1922.28 57.8474H1935.55C1936.71 57.8474 1937.71 57.0311 1937.71 55.8884C1937.87 48.0525 1944.67 41.8491 1952.64 42.0123H1953.3C1961.27 41.6858 1967.9 47.8892 1968.23 55.8884V59.9696C1968.23 62.2551 1970.22 64.0508 1972.55 63.8875H1977.36C1980.35 63.7243 1982.83 66.0098 1983 69.2747C1983 69.1115 1983 69.1115 1983 69.2747Z" fill="white"/>
<path opacity="0.2" d="M309 51.2854H227C227 44.4283 233.148 38.9245 240.809 38.9245H255.752C257.076 38.9245 258.117 38.0223 258.117 36.7591C258.117 28.4583 265.588 21.6914 274.857 21.6914H275.519C284.788 21.6914 292.26 28.4583 292.26 36.7591V41.2704C292.354 43.7065 294.529 45.6012 297.083 45.6012H302.569C305.974 45.4208 308.906 48.0373 309 51.2854Z" fill="white"/>
<path opacity="0.2" d="M474 42H410C410 36.6707 414.798 32.3933 420.777 32.3933H432.441C433.474 32.3933 434.286 31.6921 434.286 30.7104C434.286 24.2592 440.118 19 447.352 19H447.869C455.103 19 460.934 24.2592 460.934 30.7104V34.2165C461.008 36.1098 462.706 37.5823 464.699 37.5823H468.98C471.638 37.4421 473.926 39.4756 474 42Z" fill="white"/>
<path opacity="0.2" d="M370.383 54.1116C370.383 50.7715 367.917 48 364.871 48H359.14C356.094 48 353.628 50.7005 353.628 54.1116C353.628 54.7511 353.192 55.3197 352.54 55.3197H350.799C348.187 55.3197 346.084 57.6648 346.084 60.5074H377.999C377.999 58.2333 376.331 56.3146 374.228 56.3146H372.487C371.254 56.3146 370.311 55.3197 370.383 54.1116C370.383 54.1826 370.383 54.1116 370.383 54.1116Z" fill="white"/>
<path opacity="0.2" d="M161 26.3077H210C209.889 21.9246 206.214 18.5277 201.759 18.6373H192.85C192.07 18.6373 191.402 18.0894 191.402 17.3223C191.291 12.0626 186.725 7.89869 181.38 8.00827H180.934C175.589 7.78911 171.134 11.9531 170.911 17.3223V20.0618C170.911 21.5959 169.575 22.8012 168.016 22.6916H164.786C162.782 22.5821 161.111 24.1161 161 26.3077C161 26.1981 161 26.1981 161 26.3077Z" fill="white"/>
<path opacity="0.2" d="M95 69.2747H168C167.834 62.7448 162.359 57.6841 155.723 57.8474H142.45C141.289 57.8474 140.293 57.0311 140.293 55.8884C140.127 48.0525 133.325 41.8491 125.361 42.0123H124.698C116.734 41.6858 110.098 47.8892 109.766 55.8884V59.9696C109.766 62.2551 107.775 64.0508 105.452 63.8875H100.641C97.6545 63.7243 95.1659 66.0098 95 69.2747C95 69.1115 95 69.1115 95 69.2747Z" fill="white"/>
<path d="M617.549 22.7418L624.91 19.1668C624.937 19.1503 624.96 19.1262 624.976 19.0968C624.992 19.0675 625 19.0341 625 19C625 18.9659 624.992 18.9325 624.976 18.9032C624.96 18.8738 624.937 18.8497 624.91 18.8332L617.549 15.2582C617.526 15.2582 617.503 15.2481 617.487 15.2303C617.471 15.2124 617.461 15.1881 617.461 15.1629L614.175 7.10725C614.088 6.96425 613.912 6.96425 613.869 7.10725L610.583 15.1629C610.539 15.2105 610.539 15.2582 610.495 15.2582L603.09 18.8332C603.063 18.8497 603.04 18.8738 603.024 18.9032C603.008 18.9325 603 18.9659 603 19C603 19.0341 603.008 19.0675 603.024 19.0968C603.04 19.1262 603.063 19.1503 603.09 19.1668L610.495 22.7418C610.539 22.7418 610.539 22.7895 610.583 22.8371L613.869 30.8928C613.912 31.0358 614.088 31.0358 614.175 30.8928L617.461 22.8371C617.461 22.8119 617.471 22.7876 617.487 22.7697C617.503 22.7519 617.526 22.7418 617.549 22.7418Z" fill="#83DDC5"/>
<path d="M628.94 58.2473L632.97 56.1456C632.989 56.1199 633 56.0867 633 56.0522C633 56.0178 632.989 55.9845 632.97 55.9588L628.94 53.8572C628.929 53.8572 628.919 53.8522 628.912 53.8435C628.904 53.8347 628.9 53.8228 628.9 53.8105L627.104 49.0934C627.104 49.0686 627.096 49.0449 627.081 49.0274C627.066 49.0098 627.046 49 627.025 49C627.003 49 626.983 49.0098 626.968 49.0274C626.953 49.0449 626.945 49.0686 626.945 49.0934L625.149 53.8105H625.11L621.08 55.9121C621.059 55.9121 621.038 55.9219 621.023 55.9395C621.008 55.957 621 55.9807 621 56.0055C621 56.0303 621.008 56.054 621.023 56.0716C621.038 56.0891 621.059 56.0989 621.08 56.0989L625.11 58.2006C625.12 58.2006 625.13 58.2055 625.138 58.2143C625.145 58.223 625.149 58.2349 625.149 58.2473L626.945 62.9643C626.967 62.9873 626.995 63 627.025 63C627.054 63 627.083 62.9873 627.104 62.9643L628.9 58.2473C628.9 58.2473 628.9 58.2473 628.94 58.2473Z" fill="#FBB848"/>
<path d="M592.293 45.6052L594.98 44.104C594.993 44.0857 595 44.0619 595 44.0373C595 44.0127 594.993 43.9889 594.98 43.9706L592.293 42.4694C592.286 42.4694 592.279 42.4659 592.274 42.4596C592.269 42.4534 592.267 42.4449 592.267 42.436L591.07 39.0667C591.07 39.049 591.064 39.0321 591.054 39.0195C591.044 39.007 591.031 39 591.016 39C591.002 39 590.989 39.007 590.979 39.0195C590.969 39.0321 590.963 39.049 590.963 39.0667L589.766 42.436H589.74L587.053 43.9372C587.039 43.9372 587.026 43.9442 587.016 43.9568C587.006 43.9693 587 43.9862 587 44.0039C587 44.0216 587.006 44.0386 587.016 44.0511C587.026 44.0636 587.039 44.0707 587.053 44.0707L589.74 45.5718C589.747 45.5718 589.754 45.5754 589.758 45.5816C589.763 45.5879 589.766 45.5964 589.766 45.6052L590.963 48.9745C590.978 48.9909 590.997 49 591.016 49C591.036 49 591.055 48.9909 591.07 48.9745L592.267 45.6052C592.267 45.6052 592.267 45.6052 592.293 45.6052Z" fill="#FEE75C"/>
<path d="M667.263 36.2473L671.964 34.1456C671.987 34.1199 672 34.0867 672 34.0522C672 34.0178 671.987 33.9845 671.964 33.9588L667.263 31.8571C667.251 31.8571 667.239 31.8522 667.23 31.8435C667.221 31.8347 667.217 31.8228 667.217 31.8105L665.122 27.0934C665.122 27.0686 665.112 27.0449 665.095 27.0274C665.077 27.0098 665.053 27 665.029 27C665.004 27 664.98 27.0098 664.963 27.0274C664.945 27.0449 664.936 27.0686 664.936 27.0934L662.841 31.8105H662.794L658.093 33.9121C658.068 33.9121 658.045 33.9219 658.027 33.9395C658.01 33.957 658 33.9807 658 34.0055C658 34.0303 658.01 34.054 658.027 34.0716C658.045 34.0891 658.068 34.0989 658.093 34.0989L662.794 36.2006C662.807 36.2006 662.819 36.2055 662.827 36.2143C662.836 36.223 662.841 36.2349 662.841 36.2473L664.936 40.9643C664.961 40.9873 664.994 41 665.029 41C665.063 41 665.096 40.9873 665.122 40.9643L667.217 36.2473C667.217 36.2473 667.217 36.2473 667.263 36.2473Z" fill="#FF78B9"/>
<path d="M1479.45 22.7418L1472.09 19.1668C1472.06 19.1503 1472.04 19.1262 1472.02 19.0968C1472.01 19.0675 1472 19.0341 1472 19C1472 18.9659 1472.01 18.9325 1472.02 18.9032C1472.04 18.8738 1472.06 18.8497 1472.09 18.8332L1479.45 15.2582C1479.47 15.2582 1479.5 15.2481 1479.51 15.2303C1479.53 15.2124 1479.54 15.1881 1479.54 15.1629L1482.82 7.10725C1482.91 6.96425 1483.09 6.96425 1483.13 7.10725L1486.42 15.1629C1486.46 15.2105 1486.46 15.2582 1486.51 15.2582L1493.91 18.8332C1493.94 18.8497 1493.96 18.8738 1493.98 18.9032C1493.99 18.9325 1494 18.9659 1494 19C1494 19.0341 1493.99 19.0675 1493.98 19.0968C1493.96 19.1262 1493.94 19.1503 1493.91 19.1668L1486.51 22.7418C1486.46 22.7418 1486.46 22.7895 1486.42 22.8371L1483.13 30.8928C1483.09 31.0358 1482.91 31.0358 1482.82 30.8928L1479.54 22.8371C1479.54 22.8119 1479.53 22.7876 1479.51 22.7697C1479.5 22.7519 1479.47 22.7418 1479.45 22.7418Z" fill="#83DDC5"/>
<path d="M1468.06 58.2473L1464.03 56.1456C1464.01 56.1199 1464 56.0867 1464 56.0522C1464 56.0178 1464.01 55.9845 1464.03 55.9588L1468.06 53.8572C1468.07 53.8572 1468.08 53.8522 1468.09 53.8435C1468.1 53.8347 1468.1 53.8228 1468.1 53.8105L1469.9 49.0934C1469.9 49.0686 1469.9 49.0449 1469.92 49.0274C1469.93 49.0098 1469.95 49 1469.98 49C1470 49 1470.02 49.0098 1470.03 49.0274C1470.05 49.0449 1470.06 49.0686 1470.06 49.0934L1471.85 53.8105H1471.89L1475.92 55.9121C1475.94 55.9121 1475.96 55.9219 1475.98 55.9395C1475.99 55.957 1476 55.9807 1476 56.0055C1476 56.0303 1475.99 56.054 1475.98 56.0716C1475.96 56.0891 1475.94 56.0989 1475.92 56.0989L1471.89 58.2006C1471.88 58.2006 1471.87 58.2055 1471.86 58.2143C1471.85 58.223 1471.85 58.2349 1471.85 58.2473L1470.06 62.9643C1470.03 62.9873 1470 63 1469.98 63C1469.95 63 1469.92 62.9873 1469.9 62.9643L1468.1 58.2473C1468.1 58.2473 1468.1 58.2473 1468.06 58.2473Z" fill="#FBB848"/>
<path d="M1504.71 45.6052L1502.02 44.104C1502.01 44.0857 1502 44.0619 1502 44.0373C1502 44.0127 1502.01 43.9889 1502.02 43.9706L1504.71 42.4694C1504.71 42.4694 1504.72 42.4659 1504.73 42.4596C1504.73 42.4534 1504.73 42.4449 1504.73 42.436L1505.93 39.0667C1505.93 39.049 1505.94 39.0321 1505.95 39.0195C1505.96 39.007 1505.97 39 1505.98 39C1506 39 1506.01 39.007 1506.02 39.0195C1506.03 39.0321 1506.04 39.049 1506.04 39.0667L1507.23 42.436H1507.26L1509.95 43.9372C1509.96 43.9372 1509.97 43.9442 1509.98 43.9568C1509.99 43.9693 1510 43.9862 1510 44.0039C1510 44.0216 1509.99 44.0386 1509.98 44.0511C1509.97 44.0636 1509.96 44.0707 1509.95 44.0707L1507.26 45.5718C1507.25 45.5718 1507.25 45.5754 1507.24 45.5816C1507.24 45.5879 1507.23 45.5964 1507.23 45.6052L1506.04 48.9745C1506.02 48.9909 1506 49 1505.98 49C1505.96 49 1505.94 48.9909 1505.93 48.9745L1504.73 45.6052C1504.73 45.6052 1504.73 45.6052 1504.71 45.6052Z" fill="#FEE75C"/>
<path d="M1429.74 36.2473L1425.04 34.1456C1425.01 34.1199 1425 34.0867 1425 34.0522C1425 34.0178 1425.01 33.9845 1425.04 33.9588L1429.74 31.8571C1429.75 31.8571 1429.76 31.8522 1429.77 31.8435C1429.78 31.8347 1429.78 31.8228 1429.78 31.8105L1431.88 27.0934C1431.88 27.0686 1431.89 27.0449 1431.91 27.0274C1431.92 27.0098 1431.95 27 1431.97 27C1432 27 1432.02 27.0098 1432.04 27.0274C1432.05 27.0449 1432.06 27.0686 1432.06 27.0934L1434.16 31.8105H1434.21L1438.91 33.9121C1438.93 33.9121 1438.96 33.9219 1438.97 33.9395C1438.99 33.957 1439 33.9807 1439 34.0055C1439 34.0303 1438.99 34.054 1438.97 34.0716C1438.96 34.0891 1438.93 34.0989 1438.91 34.0989L1434.21 36.2006C1434.19 36.2006 1434.18 36.2055 1434.17 36.2143C1434.16 36.223 1434.16 36.2349 1434.16 36.2473L1432.06 40.9643C1432.04 40.9873 1432.01 41 1431.97 41C1431.94 41 1431.9 40.9873 1431.88 40.9643L1429.78 36.2473C1429.78 36.2473 1429.78 36.2473 1429.74 36.2473Z" fill="#FF78B9"/>
<defs>
<linearGradient id="paint0_linear_4076_1729" x1="2182.25" y1="-95.6851" x2="1714.9" y2="1776.71" gradientUnits="userSpaceOnUse">
<stop stop-color="#3736BB"/>
<stop offset="0.474776" stop-color="#4670E8"/>
<stop offset="0.610005" stop-color="#8377EB"/>
<stop offset="0.720058" stop-color="#E782F1"/>
<stop offset="1" stop-color="#DF90AF"/>
</linearGradient>
</defs>
</svg>
