<svg width="1440" height="8448" viewBox="0 0 1440 8448" fill="none" xmlns="http://www.w3.org/2000/svg">
<g clip-path="url(#clip0_272_5218)">
<rect width="1464" height="8517" transform="translate(-9)" fill="url(#paint0_linear_272_5218)"/>
<rect width="1464" height="8517" transform="translate(-9)" fill="url(#paint1_linear_272_5218)"/>
<g filter="url(#filter0_f_272_5218)">
<path d="M270.512 3547.65L1431.27 2880.04H1768.26L2105.25 4609.26L-78.9623 5375.37L-291.143 4456.04L270.512 3547.65Z" fill="url(#paint2_linear_272_5218)"/>
</g>
<g filter="url(#filter1_f_272_5218)">
<path d="M986.895 306.015C986.895 180.061 1164.68 358.496 1253.58 463.457C1477.86 463.457 1608.77 1414.29 1646.19 1889.7C1485.68 1855.74 900.966 2000.84 883.187 1889.7C860.964 1750.78 935.041 1130.27 883.187 1102.49C841.704 1080.26 900.472 784.517 935.041 639.423C952.326 580.768 986.895 431.969 986.895 306.015Z" fill="#0541F2"/>
</g>
<g filter="url(#filter2_f_272_5218)">
<path d="M836.067 208.415C1039.3 140.67 1169.15 326.97 1259.48 355.198C1272.65 394.716 1291.09 523.433 1259.48 722.153C1219.96 970.554 1039.3 1224.6 999.786 1456.07C960.268 1687.53 965.913 1918.99 836.067 2116.59C706.221 2314.18 446.529 2212.56 299.747 2173.04C152.964 2133.52 141.674 1947.22 158.61 1732.69C175.547 1518.17 203.774 1354.45 203.774 1185.08C203.774 1015.72 175.546 1027.01 203.774 857.645C232.001 688.28 548.148 750.381 565.084 614.889C582.021 479.398 632.83 276.161 836.067 208.415Z" fill="#241177"/>
</g>
<g filter="url(#filter3_f_272_5218)">
<path d="M937.125 6784.15C733.888 6716.4 604.042 6902.7 513.714 6930.93C500.541 6970.45 482.099 7099.16 513.714 7297.89C553.232 7546.29 733.888 7800.33 773.406 8031.8C812.924 8263.26 807.279 8494.73 937.125 8692.32C1066.97 8889.91 1326.66 8788.29 1473.45 8748.77C1620.23 8709.25 1631.52 8522.95 1614.58 8308.43C1597.65 8093.9 1569.42 7930.18 1569.42 7760.81C1569.42 7591.45 1597.65 7602.74 1569.42 7433.38C1541.19 7264.01 1225.04 7326.11 1208.11 7190.62C1191.17 7055.13 1140.36 6851.89 937.125 6784.15Z" fill="#331C94"/>
</g>
<g filter="url(#filter4_df_272_5218)">
<path d="M661.905 684.891C756.152 566.29 1146.23 595.94 1329.49 625.59C1422.05 638.188 1552.01 859.087 1521.47 1003.63C1490.93 1148.18 1465.61 1092.29 1264.9 1129.35C1064.19 1166.41 1010.97 1340.91 692.448 1555.87C373.929 1770.84 242.037 1281.31 368.572 1129.35C495.107 977.393 544.097 833.143 661.905 684.891Z" fill="url(#paint3_linear_272_5218)"/>
</g>
<g filter="url(#filter5_f_272_5218)">
<path d="M1179.8 671.207C1289.86 628.876 1380.17 719.181 1408.39 727.647C1419.67 837.707 1421.37 1063.47 1337.84 1086.05C1233.42 1114.27 1131.83 928.012 1086.67 981.631C1041.52 1035.25 860.912 1071.94 736.742 1086.05C612.573 1100.16 659.246 1221.86 588.695 1320.63C518.144 1419.4 511.747 1187.64 497.637 1086.05C483.527 984.453 578.708 908.258 736.742 778.444C894.776 648.63 907.74 840.529 1023.44 778.444C1139.15 716.359 1069.74 713.537 1179.8 671.207Z" fill="url(#paint4_linear_272_5218)" fill-opacity="0.7"/>
</g>
<g filter="url(#filter6_f_272_5218)">
<ellipse cx="79.0173" cy="538.414" rx="247.748" ry="77.5868" transform="rotate(36.6528 79.0173 538.414)" fill="url(#paint5_linear_272_5218)"/>
</g>
<g filter="url(#filter7_f_272_5218)">
<path d="M890.289 1661.73C1042.86 1587.9 1510.86 1072.93 1584.68 1062.68C1793.86 1374.39 2133.57 2722.59 1936.7 3027.74C1690.61 3409.18 1512.19 3132.33 1075.38 3316.9C638.569 3501.46 515.524 4042.86 -136.616 4165.91C-788.756 4288.95 -105.855 3304.59 -38.1797 3027.74C29.4952 2750.89 -136.593 2633.46 161.582 2209.71C334.993 1963.26 393.627 2183.37 528.977 1974.2C664.326 1765.02 699.569 1754.01 890.289 1661.73Z" fill="url(#paint6_linear_272_5218)"/>
</g>
<g filter="url(#filter8_f_272_5218)">
<path d="M-738.359 7503.4C-687.733 7704.09 -845.663 8072.81 -797.335 8149.94C-341.548 8101.11 1420.21 7670.87 1551.28 7247.24C1715.12 6717.71 1285.39 6585.82 1115.38 6032.29C945.376 5478.76 1195.65 5284.56 799.136 4577.82C402.62 3871.07 17.3311 5282.36 -188.625 5562.9C-394.581 5843.43 -634.768 5780.15 -797.335 6391.62C-891.88 6747.23 -639.919 6629.4 -729.455 6920.16C-818.992 7210.93 -801.642 7252.54 -738.359 7503.4Z" fill="url(#paint7_linear_272_5218)"/>
</g>
<g filter="url(#filter9_f_272_5218)">
<path d="M916.586 1710.68C1151.11 1722.41 1123.62 1185.45 1554.2 1527.46C1698.34 1815.73 1964.63 2437.71 1876.68 2619.47C1766.74 2846.67 1707.09 2517.26 1465.24 2495.27C1223.38 2473.28 1092.48 2348.3 916.586 2128.43C740.691 1908.56 623.428 1696.02 916.586 1710.68Z" fill="#4D92FA"/>
</g>
<g filter="url(#filter10_f_272_5218)">
<path d="M1145 1773.35C1302.9 1781.24 1496.98 1694.4 1574.28 1649.99C1671.33 1844.08 1850.61 2262.84 1791.39 2385.21C1717.38 2538.17 1677.22 2316.39 1514.39 2301.59C1351.55 2286.78 1263.42 2202.64 1145 2054.61C1026.57 1906.58 947.624 1763.48 1145 1773.35Z" fill="#3CC2FF"/>
</g>
<g filter="url(#filter11_f_272_5218)">
<path d="M639.209 2596C481.638 2493.24 65.4459 2724.46 -45.8814 2767.28H-88.6998L-200.027 4120.33C-117.245 4097.49 68.8712 4048.4 151.082 4034.69C253.846 4017.57 390.864 3760.66 639.209 3675.02C887.555 3589.39 853.3 3615.08 938.936 3443.8C1024.57 3272.53 964.627 3212.59 938.936 3058.44C913.245 2904.29 836.173 2724.46 639.209 2596Z" fill="url(#paint8_linear_272_5218)"/>
</g>
<g filter="url(#filter12_f_272_5218)">
<path d="M-0.632197 6593.91C-281.249 6508.6 -421.928 5779.75 -482.294 5603.86L-525.187 5552.7L-222.305 4690.16L979.796 4064.29C1035.44 4186.07 1163.22 4457.6 1229.2 4569.55C1311.68 4709.48 1142.01 5130.53 1288.48 5513.01C1434.94 5895.5 1431.32 5828.84 1312.49 6102.72C1193.65 6376.6 1061.99 6365.03 852.091 6488.75C642.197 6612.47 350.139 6700.54 -0.632197 6593.91Z" fill="url(#paint9_linear_272_5218)"/>
</g>
<g filter="url(#filter13_f_272_5218)">
<ellipse cx="119.138" cy="2949.8" rx="285.198" ry="250.78" fill="#7168E0"/>
</g>
<g filter="url(#filter14_f_272_5218)">
<path d="M86.2186 3015.62C31.4115 3111.54 2.64539 3135.51 -80.1365 3135.51L-122.955 3683.59C-57.3001 3697.86 106.551 3717.84 236.718 3683.59C399.427 3640.77 236.718 3409.55 407.991 3426.68C579.263 3443.8 473.319 3425.09 670.282 3330.89C867.246 3236.69 687.409 3135.51 670.282 3015.62C653.155 2895.73 570.7 2870.84 407.991 2793.77C245.282 2716.7 154.728 2895.73 86.2186 3015.62Z" fill="url(#paint10_linear_272_5218)"/>
</g>
<g filter="url(#filter15_f_272_5218)">
<path d="M-102.365 5688.8C-55.6185 5562.27 -55.751 5516.54 -120.699 5439.08L-236.799 5080.95L358.541 4969.01C423.407 5019.25 570.656 5156.89 640.73 5305.56C728.321 5491.4 447.213 5541.98 597.615 5688.8C748.016 5835.63 906.048 6093.93 972.436 6352.13C1038.82 6610.34 339.163 6433.95 213.543 6511.98C87.9227 6590.02 142.275 6255.72 -57.4993 6163.95C-257.273 6072.17 -160.797 5846.97 -102.365 5688.8Z" fill="url(#paint11_linear_272_5218)"/>
</g>
<g filter="url(#filter16_f_272_5218)">
<ellipse cx="517.897" cy="3885.49" rx="321.24" ry="142.339" transform="rotate(-32.0188 517.897 3885.49)" fill="#702DFF"/>
</g>
<g filter="url(#filter17_f_272_5218)">
<ellipse cx="392.267" cy="173.81" rx="392.267" ry="173.81" transform="matrix(0.138489 0.990364 0.990364 -0.138489 496.258 5184.98)" fill="#702DFF"/>
</g>
</g>
<defs>
<filter id="filter0_f_272_5218" x="-756.096" y="2415.09" width="3326.3" height="3425.23" filterUnits="userSpaceOnUse" color-interpolation-filters="sRGB">
<feFlood flood-opacity="0" result="BackgroundImageFix"/>
<feBlend mode="normal" in="SourceGraphic" in2="BackgroundImageFix" result="shape"/>
<feGaussianBlur stdDeviation="232.476" result="effect1_foregroundBlur_272_5218"/>
</filter>
<filter id="filter1_f_272_5218" x="727.848" y="121.623" width="1059.41" height="1951.81" filterUnits="userSpaceOnUse" color-interpolation-filters="sRGB">
<feFlood flood-opacity="0" result="BackgroundImageFix"/>
<feBlend mode="normal" in="SourceGraphic" in2="BackgroundImageFix" result="shape"/>
<feGaussianBlur stdDeviation="70.5355" result="effect1_foregroundBlur_272_5218"/>
</filter>
<filter id="filter2_f_272_5218" x="-270.547" y="-229.529" width="1970.69" height="2887.24" filterUnits="userSpaceOnUse" color-interpolation-filters="sRGB">
<feFlood flood-opacity="0" result="BackgroundImageFix"/>
<feBlend mode="normal" in="SourceGraphic" in2="BackgroundImageFix" result="shape"/>
<feGaussianBlur stdDeviation="211.606" result="effect1_foregroundBlur_272_5218"/>
</filter>
<filter id="filter3_f_272_5218" x="73.0447" y="6346.2" width="1970.69" height="2887.24" filterUnits="userSpaceOnUse" color-interpolation-filters="sRGB">
<feFlood flood-opacity="0" result="BackgroundImageFix"/>
<feBlend mode="normal" in="SourceGraphic" in2="BackgroundImageFix" result="shape"/>
<feGaussianBlur stdDeviation="211.606" result="effect1_foregroundBlur_272_5218"/>
</filter>
<filter id="filter4_df_272_5218" x="-31.6838" y="246.393" width="1910.38" height="1715.87" filterUnits="userSpaceOnUse" color-interpolation-filters="sRGB">
<feFlood flood-opacity="0" result="BackgroundImageFix"/>
<feColorMatrix in="SourceAlpha" type="matrix" values="0 0 0 0 0 0 0 0 0 0 0 0 0 0 0 0 0 0 127 0" result="hardAlpha"/>
<feOffset dy="2.82142"/>
<feGaussianBlur stdDeviation="68.1373"/>
<feComposite in2="hardAlpha" operator="out"/>
<feColorMatrix type="matrix" values="0 0 0 0 0.372887 0 0 0 0 0.390082 0 0 0 0 0.991911 0 0 0 1 0"/>
<feBlend mode="normal" in2="BackgroundImageFix" result="effect1_dropShadow_272_5218"/>
<feBlend mode="normal" in="SourceGraphic" in2="effect1_dropShadow_272_5218" result="shape"/>
<feGaussianBlur stdDeviation="176.339" result="effect2_foregroundBlur_272_5218"/>
</filter>
<filter id="filter5_f_272_5218" x="223.82" y="387.533" width="1462.57" height="1229.52" filterUnits="userSpaceOnUse" color-interpolation-filters="sRGB">
<feFlood flood-opacity="0" result="BackgroundImageFix"/>
<feBlend mode="normal" in="SourceGraphic" in2="BackgroundImageFix" result="shape"/>
<feGaussianBlur stdDeviation="136.219" result="effect1_foregroundBlur_272_5218"/>
</filter>
<filter id="filter6_f_272_5218" x="-411.835" y="91.1901" width="981.704" height="894.448" filterUnits="userSpaceOnUse" color-interpolation-filters="sRGB">
<feFlood flood-opacity="0" result="BackgroundImageFix"/>
<feBlend mode="normal" in="SourceGraphic" in2="BackgroundImageFix" result="shape"/>
<feGaussianBlur stdDeviation="143.36" result="effect1_foregroundBlur_272_5218"/>
</filter>
<filter id="filter7_f_272_5218" x="-881.411" y="597.725" width="3342.28" height="4043.72" filterUnits="userSpaceOnUse" color-interpolation-filters="sRGB">
<feFlood flood-opacity="0" result="BackgroundImageFix"/>
<feBlend mode="normal" in="SourceGraphic" in2="BackgroundImageFix" result="shape"/>
<feGaussianBlur stdDeviation="232.476" result="effect1_foregroundBlur_272_5218"/>
</filter>
<filter id="filter8_f_272_5218" x="-1386.68" y="3814.13" width="3542.3" height="4903.57" filterUnits="userSpaceOnUse" color-interpolation-filters="sRGB">
<feFlood flood-opacity="0" result="BackgroundImageFix"/>
<feBlend mode="normal" in="SourceGraphic" in2="BackgroundImageFix" result="shape"/>
<feGaussianBlur stdDeviation="283.878" result="effect1_foregroundBlur_272_5218"/>
</filter>
<filter id="filter9_f_272_5218" x="273.071" y="948.402" width="2085.99" height="2215.57" filterUnits="userSpaceOnUse" color-interpolation-filters="sRGB">
<feFlood flood-opacity="0" result="BackgroundImageFix"/>
<feBlend mode="normal" in="SourceGraphic" in2="BackgroundImageFix" result="shape"/>
<feGaussianBlur stdDeviation="232.476" result="effect1_foregroundBlur_272_5218"/>
</filter>
<filter id="filter10_f_272_5218" x="792.301" y="1417.52" width="1243.3" height="1253.73" filterUnits="userSpaceOnUse" color-interpolation-filters="sRGB">
<feFlood flood-opacity="0" result="BackgroundImageFix"/>
<feBlend mode="normal" in="SourceGraphic" in2="BackgroundImageFix" result="shape"/>
<feGaussianBlur stdDeviation="116.238" result="effect1_foregroundBlur_272_5218"/>
</filter>
<filter id="filter11_f_272_5218" x="-664.979" y="2104.98" width="2113.3" height="2480.31" filterUnits="userSpaceOnUse" color-interpolation-filters="sRGB">
<feFlood flood-opacity="0" result="BackgroundImageFix"/>
<feBlend mode="normal" in="SourceGraphic" in2="BackgroundImageFix" result="shape"/>
<feGaussianBlur stdDeviation="232.476" result="effect1_foregroundBlur_272_5218"/>
</filter>
<filter id="filter12_f_272_5218" x="-1250.1" y="3339.38" width="3375.12" height="4027.22" filterUnits="userSpaceOnUse" color-interpolation-filters="sRGB">
<feFlood flood-opacity="0" result="BackgroundImageFix"/>
<feBlend mode="normal" in="SourceGraphic" in2="BackgroundImageFix" result="shape"/>
<feGaussianBlur stdDeviation="362.454" result="effect1_foregroundBlur_272_5218"/>
</filter>
<filter id="filter13_f_272_5218" x="-398.536" y="2466.55" width="1035.35" height="966.511" filterUnits="userSpaceOnUse" color-interpolation-filters="sRGB">
<feFlood flood-opacity="0" result="BackgroundImageFix"/>
<feBlend mode="normal" in="SourceGraphic" in2="BackgroundImageFix" result="shape"/>
<feGaussianBlur stdDeviation="116.238" result="effect1_foregroundBlur_272_5218"/>
</filter>
<filter id="filter14_f_272_5218" x="-355.431" y="2542.64" width="1349.66" height="1392.34" filterUnits="userSpaceOnUse" color-interpolation-filters="sRGB">
<feFlood flood-opacity="0" result="BackgroundImageFix"/>
<feBlend mode="normal" in="SourceGraphic" in2="BackgroundImageFix" result="shape"/>
<feGaussianBlur stdDeviation="116.238" result="effect1_foregroundBlur_272_5218"/>
</filter>
<filter id="filter15_f_272_5218" x="-624.259" y="4581.55" width="1988.59" height="2329.59" filterUnits="userSpaceOnUse" color-interpolation-filters="sRGB">
<feFlood flood-opacity="0" result="BackgroundImageFix"/>
<feBlend mode="normal" in="SourceGraphic" in2="BackgroundImageFix" result="shape"/>
<feGaussianBlur stdDeviation="193.73" result="effect1_foregroundBlur_272_5218"/>
</filter>
<filter id="filter16_f_272_5218" x="-229.76" y="3211.78" width="1495.31" height="1347.43" filterUnits="userSpaceOnUse" color-interpolation-filters="sRGB">
<feFlood flood-opacity="0" result="BackgroundImageFix"/>
<feBlend mode="normal" in="SourceGraphic" in2="BackgroundImageFix" result="shape"/>
<feGaussianBlur stdDeviation="232.476" result="effect1_foregroundBlur_272_5218"/>
</filter>
<filter id="filter17_f_272_5218" x="-25.5898" y="4592.39" width="1496.62" height="1914" filterUnits="userSpaceOnUse" color-interpolation-filters="sRGB">
<feFlood flood-opacity="0" result="BackgroundImageFix"/>
<feBlend mode="normal" in="SourceGraphic" in2="BackgroundImageFix" result="shape"/>
<feGaussianBlur stdDeviation="283.878" result="effect1_foregroundBlur_272_5218"/>
</filter>
<linearGradient id="paint0_linear_272_5218" x1="732" y1="0" x2="732" y2="8517" gradientUnits="userSpaceOnUse">
<stop stop-color="#00002A"/>
<stop offset="1" stop-color="#0E0D58"/>
</linearGradient>
<linearGradient id="paint1_linear_272_5218" x1="1014.28" y1="5658.28" x2="-654.442" y2="3662" gradientUnits="userSpaceOnUse">
<stop stop-color="#0D0C57"/>
<stop offset="1" stop-color="#1B53C0" stop-opacity="0"/>
</linearGradient>
<linearGradient id="paint2_linear_272_5218" x1="1244.05" y1="2880.04" x2="972.661" y2="5011.6" gradientUnits="userSpaceOnUse">
<stop offset="0.358963" stop-color="#0E1872"/>
<stop offset="1" stop-color="#0C3CA8"/>
</linearGradient>
<linearGradient id="paint3_linear_272_5218" x1="1202.95" y1="599.07" x2="678.69" y2="1613.65" gradientUnits="userSpaceOnUse">
<stop stop-color="#0043E6"/>
<stop offset="1" stop-color="#3038C5"/>
</linearGradient>
<linearGradient id="paint4_linear_272_5218" x1="1388.63" y1="778.444" x2="561.397" y2="1280.77" gradientUnits="userSpaceOnUse">
<stop stop-color="#479CFF"/>
<stop offset="0.425" stop-color="#674FFF"/>
<stop offset="1" stop-color="#47C8FF"/>
</linearGradient>
<linearGradient id="paint5_linear_272_5218" x1="-168.731" y1="538.414" x2="326.766" y2="538.414" gradientUnits="userSpaceOnUse">
<stop stop-color="#2D3CE4"/>
<stop offset="1" stop-color="#333A8C"/>
</linearGradient>
<linearGradient id="paint6_linear_272_5218" x1="1204.58" y1="1766.53" x2="788.125" y2="4176.5" gradientUnits="userSpaceOnUse">
<stop stop-color="#1C57DE"/>
<stop offset="1" stop-color="#2D39BD"/>
</linearGradient>
<linearGradient id="paint7_linear_272_5218" x1="-393.719" y1="7715.26" x2="1534.57" y2="5434.79" gradientUnits="userSpaceOnUse">
<stop stop-color="#1E2292"/>
<stop offset="1" stop-color="#2D39BD"/>
</linearGradient>
<linearGradient id="paint8_linear_272_5218" x1="391.673" y1="2569.93" x2="391.673" y2="4120.33" gradientUnits="userSpaceOnUse">
<stop stop-color="#616DE6"/>
<stop offset="1" stop-color="#765CDE"/>
</linearGradient>
<linearGradient id="paint9_linear_272_5218" x1="-279.753" y1="6324.3" x2="1572.52" y2="4771.2" gradientUnits="userSpaceOnUse">
<stop stop-color="#0B19A8"/>
<stop offset="1" stop-color="#5C80DE"/>
</linearGradient>
<linearGradient id="paint10_linear_272_5218" x1="630.645" y1="2677.09" x2="211.027" y2="3657.89" gradientUnits="userSpaceOnUse">
<stop stop-color="#749AE4"/>
<stop offset="0.479385" stop-color="#90A6FF"/>
<stop offset="1" stop-color="#8174E4"/>
</linearGradient>
<linearGradient id="paint11_linear_272_5218" x1="8.0061" y1="6463.83" x2="596.534" y2="5301.68" gradientUnits="userSpaceOnUse">
<stop stop-color="#9874E4"/>
<stop offset="0.479385" stop-color="#4B82ED"/>
<stop offset="1" stop-color="#3185C2"/>
</linearGradient>
<clipPath id="clip0_272_5218">
<rect width="1464" height="8517" fill="white" transform="translate(-9)"/>
</clipPath>
</defs>
</svg>
