<svg width="4580" height="5472" viewBox="0 0 4580 5472" fill="none" xmlns="http://www.w3.org/2000/svg">
<g filter="url(#filter0_f_13_1126)">
<path d="M1378.64 4164.4C1429.27 4365.09 1271.34 4733.81 1319.66 4810.94C1775.45 4762.11 3537.21 4331.87 3668.28 3908.24C3832.12 3378.71 3402.39 3246.82 3232.38 2693.29C3062.38 2139.76 3312.65 1945.56 2916.14 1238.82C2519.62 532.067 2134.33 1943.36 1928.38 2223.9C1722.42 2504.43 1482.23 2441.15 1319.67 3052.62C1225.12 3408.23 1477.08 3290.4 1387.54 3581.16C1298.01 3871.93 1315.36 3913.54 1378.64 4164.4Z" fill="url(#paint0_linear_13_1126)"/>
</g>
<g filter="url(#filter1_f_13_1126)">
<path d="M2116.37 3254.91C1835.75 3169.6 1695.07 2440.75 1634.71 2264.86L1591.81 2213.7L1894.7 1351.16L3096.8 725.291C3152.44 847.067 3280.22 1118.6 3346.2 1230.55C3428.68 1370.48 3259.01 1791.53 3405.48 2174.01C3551.94 2556.5 3548.32 2489.84 3429.49 2763.72C3310.65 3037.6 3178.99 3026.03 2969.09 3149.75C2759.2 3273.47 2467.14 3361.54 2116.37 3254.91Z" fill="url(#paint1_linear_13_1126)"/>
</g>
<g filter="url(#filter2_f_13_1126)">
<ellipse cx="392.267" cy="173.81" rx="392.267" ry="173.81" transform="matrix(0.138489 0.990364 0.990364 -0.138489 2613.26 1845.98)" fill="#702DFF"/>
</g>
<g filter="url(#filter3_f_13_1126)">
<path d="M2014.64 2349.8C2061.38 2223.27 2061.25 2177.54 1996.3 2100.08L1880.2 1741.95L2475.54 1630.01C2540.41 1680.25 2687.66 1817.89 2757.73 1966.56C2845.32 2152.4 2564.21 2202.98 2714.61 2349.8C2865.02 2496.63 3023.05 2754.93 3089.44 3013.13C3155.82 3271.34 2456.16 3094.95 2330.54 3172.98C2204.92 3251.02 2259.27 2916.72 2059.5 2824.95C1859.73 2733.17 1956.2 2507.97 2014.64 2349.8Z" fill="url(#paint2_linear_13_1126)"/>
</g>
<defs>
<filter id="filter0_f_13_1126" x="730.317" y="475.13" width="3542.3" height="4903.57" filterUnits="userSpaceOnUse" color-interpolation-filters="sRGB">
<feFlood flood-opacity="0" result="BackgroundImageFix"/>
<feBlend mode="normal" in="SourceGraphic" in2="BackgroundImageFix" result="shape"/>
<feGaussianBlur stdDeviation="283.878" result="effect1_foregroundBlur_13_1126"/>
</filter>
<filter id="filter1_f_13_1126" x="866.905" y="0.382446" width="3375.12" height="4027.22" filterUnits="userSpaceOnUse" color-interpolation-filters="sRGB">
<feFlood flood-opacity="0" result="BackgroundImageFix"/>
<feBlend mode="normal" in="SourceGraphic" in2="BackgroundImageFix" result="shape"/>
<feGaussianBlur stdDeviation="362.454" result="effect1_foregroundBlur_13_1126"/>
</filter>
<filter id="filter2_f_13_1126" x="2091.41" y="1253.39" width="1496.62" height="1914" filterUnits="userSpaceOnUse" color-interpolation-filters="sRGB">
<feFlood flood-opacity="0" result="BackgroundImageFix"/>
<feBlend mode="normal" in="SourceGraphic" in2="BackgroundImageFix" result="shape"/>
<feGaussianBlur stdDeviation="283.878" result="effect1_foregroundBlur_13_1126"/>
</filter>
<filter id="filter3_f_13_1126" x="1492.74" y="1242.55" width="1988.59" height="2329.59" filterUnits="userSpaceOnUse" color-interpolation-filters="sRGB">
<feFlood flood-opacity="0" result="BackgroundImageFix"/>
<feBlend mode="normal" in="SourceGraphic" in2="BackgroundImageFix" result="shape"/>
<feGaussianBlur stdDeviation="193.73" result="effect1_foregroundBlur_13_1126"/>
</filter>
<linearGradient id="paint0_linear_13_1126" x1="1723.28" y1="4376.26" x2="3651.57" y2="2095.79" gradientUnits="userSpaceOnUse">
<stop stop-color="#1E2292"/>
<stop offset="1" stop-color="#2D39BD"/>
</linearGradient>
<linearGradient id="paint1_linear_13_1126" x1="1837.25" y1="2985.3" x2="3689.52" y2="1432.2" gradientUnits="userSpaceOnUse">
<stop stop-color="#0B19A8"/>
<stop offset="1" stop-color="#5C80DE"/>
</linearGradient>
<linearGradient id="paint2_linear_13_1126" x1="2125.01" y1="3124.83" x2="2713.53" y2="1962.68" gradientUnits="userSpaceOnUse">
<stop stop-color="#9874E4"/>
<stop offset="0.479385" stop-color="#4B82ED"/>
<stop offset="1" stop-color="#3185C2"/>
</linearGradient>
</defs>
</svg>
