<svg width="3343" height="4642" viewBox="0 0 3343 4642" fill="none" xmlns="http://www.w3.org/2000/svg">
<g filter="url(#filter0_f_16_1136)">
<path d="M1868.9 306.015C1868.9 180.061 2046.68 358.496 2135.58 463.458C2359.86 463.458 2490.77 1414.29 2528.19 1889.7C2367.68 1855.74 1782.97 2000.84 1765.19 1889.7C1742.96 1750.78 1817.04 1130.27 1765.19 1102.49C1723.7 1080.26 1782.47 784.517 1817.04 639.423C1834.33 580.768 1868.9 431.969 1868.9 306.015Z" fill="#0541F2"/>
</g>
<g filter="url(#filter1_f_16_1136)">
<path d="M1718.07 208.415C1921.3 140.67 2051.15 326.97 2141.48 355.198C2154.65 394.716 2173.09 523.433 2141.48 722.154C2101.96 970.555 1921.3 1224.6 1881.79 1456.07C1842.27 1687.53 1847.91 1918.99 1718.07 2116.59C1588.22 2314.18 1328.53 2212.56 1181.75 2173.04C1034.96 2133.52 1023.67 1947.22 1040.61 1732.69C1057.55 1518.17 1085.77 1354.45 1085.77 1185.08C1085.77 1015.72 1057.55 1027.01 1085.77 857.645C1114 688.281 1430.15 750.381 1447.08 614.89C1464.02 479.398 1514.83 276.161 1718.07 208.415Z" fill="#241177"/>
</g>
<g filter="url(#filter2_df_16_1136)">
<path d="M1543.91 684.891C1638.15 566.29 2028.23 595.94 2211.49 625.59C2304.05 638.188 2434.01 859.087 2403.47 1003.63C2372.93 1148.18 2347.61 1092.29 2146.9 1129.35C1946.19 1166.41 1892.97 1340.91 1574.45 1555.87C1255.93 1770.84 1124.04 1281.31 1250.57 1129.35C1377.11 977.393 1426.1 833.143 1543.91 684.891Z" fill="url(#paint0_linear_16_1136)"/>
</g>
<g filter="url(#filter3_f_16_1136)">
<path d="M2061.8 671.207C2171.86 628.876 2262.17 719.181 2290.39 727.647C2301.67 837.707 2303.37 1063.47 2219.84 1086.05C2115.42 1114.27 2013.83 928.012 1968.67 981.631C1923.52 1035.25 1742.91 1071.94 1618.74 1086.05C1494.57 1100.16 1541.25 1221.86 1470.69 1320.63C1400.14 1419.4 1393.75 1187.64 1379.64 1086.05C1365.53 984.453 1460.71 908.258 1618.74 778.444C1776.78 648.63 1789.74 840.529 1905.44 778.444C2021.15 716.359 1951.74 713.537 2061.8 671.207Z" fill="url(#paint1_linear_16_1136)" fill-opacity="0.7"/>
</g>
<g filter="url(#filter4_f_16_1136)">
<ellipse cx="961.018" cy="538.414" rx="247.748" ry="77.5868" transform="rotate(36.6528 961.018 538.414)" fill="url(#paint2_linear_16_1136)"/>
</g>
<g filter="url(#filter5_f_16_1136)">
<path d="M1772.29 1661.73C1924.87 1587.9 2392.86 1072.93 2466.68 1062.68C2675.86 1374.39 3015.57 2722.59 2818.7 3027.74C2572.61 3409.18 2394.19 3132.33 1957.38 3316.9C1520.57 3501.46 1397.52 4042.86 745.385 4165.91C93.2447 4288.95 776.146 3304.59 843.821 3027.74C911.495 2750.89 745.407 2633.46 1043.58 2209.71C1216.99 1963.26 1275.63 2183.37 1410.98 1974.2C1546.33 1765.02 1581.57 1754.01 1772.29 1661.73Z" fill="url(#paint3_linear_16_1136)"/>
</g>
<g filter="url(#filter6_f_16_1136)">
<path d="M1798.59 1710.68C2033.11 1722.41 2005.62 1185.45 2436.21 1527.46C2580.34 1815.73 2846.63 2437.71 2758.68 2619.47C2648.75 2846.67 2589.09 2517.26 2347.24 2495.27C2105.38 2473.28 1974.48 2348.3 1798.59 2128.43C1622.69 1908.56 1505.43 1696.02 1798.59 1710.68Z" fill="#4D92FA"/>
</g>
<g filter="url(#filter7_f_16_1136)">
<path d="M2027 1773.35C2184.9 1781.24 2378.98 1694.4 2456.28 1649.99C2553.33 1844.08 2732.61 2262.84 2673.39 2385.21C2599.38 2538.17 2559.22 2316.39 2396.39 2301.59C2233.55 2286.78 2145.42 2202.64 2027 2054.61C1908.57 1906.58 1829.62 1763.48 2027 1773.35Z" fill="#3CC2FF"/>
</g>
<defs>
<filter id="filter0_f_16_1136" x="1609.85" y="121.623" width="1059.41" height="1951.81" filterUnits="userSpaceOnUse" color-interpolation-filters="sRGB">
<feFlood flood-opacity="0" result="BackgroundImageFix"/>
<feBlend mode="normal" in="SourceGraphic" in2="BackgroundImageFix" result="shape"/>
<feGaussianBlur stdDeviation="70.5355" result="effect1_foregroundBlur_16_1136"/>
</filter>
<filter id="filter1_f_16_1136" x="611.454" y="-229.528" width="1970.69" height="2887.24" filterUnits="userSpaceOnUse" color-interpolation-filters="sRGB">
<feFlood flood-opacity="0" result="BackgroundImageFix"/>
<feBlend mode="normal" in="SourceGraphic" in2="BackgroundImageFix" result="shape"/>
<feGaussianBlur stdDeviation="211.606" result="effect1_foregroundBlur_16_1136"/>
</filter>
<filter id="filter2_df_16_1136" x="850.316" y="246.393" width="1910.38" height="1715.87" filterUnits="userSpaceOnUse" color-interpolation-filters="sRGB">
<feFlood flood-opacity="0" result="BackgroundImageFix"/>
<feColorMatrix in="SourceAlpha" type="matrix" values="0 0 0 0 0 0 0 0 0 0 0 0 0 0 0 0 0 0 127 0" result="hardAlpha"/>
<feOffset dy="2.82142"/>
<feGaussianBlur stdDeviation="68.1373"/>
<feComposite in2="hardAlpha" operator="out"/>
<feColorMatrix type="matrix" values="0 0 0 0 0.372887 0 0 0 0 0.390082 0 0 0 0 0.991911 0 0 0 1 0"/>
<feBlend mode="normal" in2="BackgroundImageFix" result="effect1_dropShadow_16_1136"/>
<feBlend mode="normal" in="SourceGraphic" in2="effect1_dropShadow_16_1136" result="shape"/>
<feGaussianBlur stdDeviation="176.339" result="effect2_foregroundBlur_16_1136"/>
</filter>
<filter id="filter3_f_16_1136" x="1105.82" y="387.533" width="1462.57" height="1229.52" filterUnits="userSpaceOnUse" color-interpolation-filters="sRGB">
<feFlood flood-opacity="0" result="BackgroundImageFix"/>
<feBlend mode="normal" in="SourceGraphic" in2="BackgroundImageFix" result="shape"/>
<feGaussianBlur stdDeviation="136.219" result="effect1_foregroundBlur_16_1136"/>
</filter>
<filter id="filter4_f_16_1136" x="470.166" y="91.1901" width="981.704" height="894.448" filterUnits="userSpaceOnUse" color-interpolation-filters="sRGB">
<feFlood flood-opacity="0" result="BackgroundImageFix"/>
<feBlend mode="normal" in="SourceGraphic" in2="BackgroundImageFix" result="shape"/>
<feGaussianBlur stdDeviation="143.36" result="effect1_foregroundBlur_16_1136"/>
</filter>
<filter id="filter5_f_16_1136" x="0.589233" y="597.725" width="3342.28" height="4043.72" filterUnits="userSpaceOnUse" color-interpolation-filters="sRGB">
<feFlood flood-opacity="0" result="BackgroundImageFix"/>
<feBlend mode="normal" in="SourceGraphic" in2="BackgroundImageFix" result="shape"/>
<feGaussianBlur stdDeviation="232.476" result="effect1_foregroundBlur_16_1136"/>
</filter>
<filter id="filter6_f_16_1136" x="1155.07" y="948.402" width="2085.99" height="2215.57" filterUnits="userSpaceOnUse" color-interpolation-filters="sRGB">
<feFlood flood-opacity="0" result="BackgroundImageFix"/>
<feBlend mode="normal" in="SourceGraphic" in2="BackgroundImageFix" result="shape"/>
<feGaussianBlur stdDeviation="232.476" result="effect1_foregroundBlur_16_1136"/>
</filter>
<filter id="filter7_f_16_1136" x="1674.3" y="1417.52" width="1243.3" height="1253.73" filterUnits="userSpaceOnUse" color-interpolation-filters="sRGB">
<feFlood flood-opacity="0" result="BackgroundImageFix"/>
<feBlend mode="normal" in="SourceGraphic" in2="BackgroundImageFix" result="shape"/>
<feGaussianBlur stdDeviation="116.238" result="effect1_foregroundBlur_16_1136"/>
</filter>
<linearGradient id="paint0_linear_16_1136" x1="2084.95" y1="599.07" x2="1560.69" y2="1613.65" gradientUnits="userSpaceOnUse">
<stop stop-color="#0043E6"/>
<stop offset="1" stop-color="#3038C5"/>
</linearGradient>
<linearGradient id="paint1_linear_16_1136" x1="2270.63" y1="778.444" x2="1443.4" y2="1280.77" gradientUnits="userSpaceOnUse">
<stop stop-color="#479CFF"/>
<stop offset="0.425" stop-color="#674FFF"/>
<stop offset="1" stop-color="#47C8FF"/>
</linearGradient>
<linearGradient id="paint2_linear_16_1136" x1="713.269" y1="538.414" x2="1208.77" y2="538.414" gradientUnits="userSpaceOnUse">
<stop stop-color="#2D3CE4"/>
<stop offset="1" stop-color="#333A8C"/>
</linearGradient>
<linearGradient id="paint3_linear_16_1136" x1="2086.58" y1="1766.53" x2="1670.13" y2="4176.5" gradientUnits="userSpaceOnUse">
<stop stop-color="#1C57DE"/>
<stop offset="1" stop-color="#2D39BD"/>
</linearGradient>
</defs>
</svg>
