<svg width="1300" height="612" viewBox="0 0 1300 612" fill="none" xmlns="http://www.w3.org/2000/svg">
<g filter="url(#filter0_b_865_9896)">
<path d="M0 96C0 62.3969 0 45.5953 6.53961 32.7606C12.292 21.4708 21.4708 12.292 32.7606 6.53961C45.5953 0 62.3968 0 96 0L1204 0C1237.6 0 1254.4 0 1267.24 6.53961C1278.53 12.292 1287.71 21.4708 1293.46 32.7606C1300 45.5953 1300 62.3969 1300 96V516C1300 549.603 1300 566.405 1293.46 579.239C1287.71 590.529 1278.53 599.708 1267.24 605.46C1254.4 612 1237.6 612 1204 612L96 612C62.3969 612 45.5953 612 32.7606 605.46C21.4708 599.708 12.292 590.529 6.53961 579.239C0 566.405 0 549.603 0 516L0 96Z" fill="url(#paint0_linear_865_9896)" fill-opacity="0.5"/>
<path d="M96 2.5L1204 2.5C1220.84 2.5 1233.32 2.50194 1243.2 3.30915C1253.05 4.11397 1260.1 5.70682 1266.1 8.76713C1276.92 14.2798 1285.72 23.0762 1291.23 33.8955C1294.29 39.9017 1295.89 46.9452 1296.69 56.7957C1297.5 66.6754 1297.5 79.1572 1297.5 96V516C1297.5 532.843 1297.5 545.325 1296.69 555.204C1295.89 565.055 1294.29 572.098 1291.23 578.104C1285.72 588.924 1276.92 597.72 1266.1 603.233C1260.1 606.293 1253.05 607.886 1243.2 608.691C1233.32 609.498 1220.84 609.5 1204 609.5L96 609.5C79.1572 609.5 66.6754 609.498 56.7957 608.691C46.9452 607.886 39.9017 606.293 33.8955 603.233C23.0762 597.72 14.2798 588.924 8.76713 578.104C5.70682 572.098 4.11397 565.055 3.30915 555.204C2.50194 545.325 2.5 532.843 2.5 516L2.5 96C2.5 79.1572 2.50194 66.6754 3.30915 56.7957C4.11397 46.9452 5.70682 39.9017 8.76713 33.8955C14.2798 23.0762 23.0762 14.2798 33.8955 8.76713C39.9017 5.70682 46.9452 4.11397 56.7957 3.30915C66.6754 2.50194 79.1572 2.5 96 2.5Z" stroke="url(#paint1_linear_865_9896)" stroke-width="5" style="mix-blend-mode:overlay"/>
</g>
<defs>
<filter id="filter0_b_865_9896" x="-500" y="-500" width="2300" height="1612" filterUnits="userSpaceOnUse" color-interpolation-filters="sRGB">
<feFlood flood-opacity="0" result="BackgroundImageFix"/>
<feGaussianBlur in="BackgroundImageFix" stdDeviation="250"/>
<feComposite in2="SourceAlpha" operator="in" result="effect1_backgroundBlur_865_9896"/>
<feBlend mode="normal" in="SourceGraphic" in2="effect1_backgroundBlur_865_9896" result="shape"/>
</filter>
<linearGradient id="paint0_linear_865_9896" x1="72.9825" y1="40.1625" x2="1461.88" y2="-157.859" gradientUnits="userSpaceOnUse">
<stop offset="1" stop-color="white" stop-opacity="0.07"/>
</linearGradient>
<linearGradient id="paint1_linear_865_9896" x1="70" y1="94.9905" x2="141.111" y2="569.211" gradientUnits="userSpaceOnUse">
<stop offset="0.352567" stop-color="white" stop-opacity="0"/>
<stop offset="0.836186" stop-color="white" stop-opacity="0.186745"/>
</linearGradient>
</defs>
</svg>
